<?xml version="1.0" encoding="utf-8" standalone="no"?>
<!DOCTYPE svg PUBLIC "-//W3C//DTD SVG 1.1//EN"
  "http://www.w3.org/Graphics/SVG/1.1/DTD/svg11.dtd">
<!-- Created with matplotlib (https://matplotlib.org/) -->
<svg height="432pt" version="1.1" viewBox="0 0 864 432" width="864pt" xmlns="http://www.w3.org/2000/svg" xmlns:xlink="http://www.w3.org/1999/xlink">
 <defs>
  <style type="text/css">
*{stroke-linecap:butt;stroke-linejoin:round;}
  </style>
 </defs>
 <g id="figure_1">
  <g id="patch_1">
   <path d="M 0 432 
L 864 432 
L 864 0 
L 0 0 
z
" style="fill:#ffffff;"/>
  </g>
  <g id="axes_1">
   <g id="patch_2">
    <path d="M 108 200.094545 
L 412.363636 200.094545 
L 412.363636 51.84 
L 108 51.84 
z
" style="fill:#ffffff;"/>
   </g>
   <g id="matplotlib.axis_1">
    <g id="xtick_1">
     <g id="line2d_1">
      <defs>
       <path d="M 0 0 
L 0 3.5 
" id="m003fbc64bf" style="stroke:#000000;stroke-width:0.8;"/>
      </defs>
      <g>
       <use style="stroke:#000000;stroke-width:0.8;" x="146.98873" xlink:href="#m003fbc64bf" y="200.094545"/>
      </g>
     </g>
     <g id="text_1">
      <!-- −4 -->
      <defs>
       <path d="M 10.59375 35.5 
L 73.1875 35.5 
L 73.1875 27.203125 
L 10.59375 27.203125 
z
" id="DejaVuSans-8722"/>
       <path d="M 37.796875 64.3125 
L 12.890625 25.390625 
L 37.796875 25.390625 
z
M 35.203125 72.90625 
L 47.609375 72.90625 
L 47.609375 25.390625 
L 58.015625 25.390625 
L 58.015625 17.1875 
L 47.609375 17.1875 
L 47.609375 0 
L 37.796875 0 
L 37.796875 17.1875 
L 4.890625 17.1875 
L 4.890625 26.703125 
z
" id="DejaVuSans-52"/>
      </defs>
      <g transform="translate(139.617637 214.692983)scale(0.1 -0.1)">
       <use xlink:href="#DejaVuSans-8722"/>
       <use x="83.789062" xlink:href="#DejaVuSans-52"/>
      </g>
     </g>
    </g>
    <g id="xtick_2">
     <g id="line2d_2">
      <g>
       <use style="stroke:#000000;stroke-width:0.8;" x="197.296769" xlink:href="#m003fbc64bf" y="200.094545"/>
      </g>
     </g>
     <g id="text_2">
      <!-- −2 -->
      <defs>
       <path d="M 19.1875 8.296875 
L 53.609375 8.296875 
L 53.609375 0 
L 7.328125 0 
L 7.328125 8.296875 
Q 12.9375 14.109375 22.625 23.890625 
Q 32.328125 33.6875 34.8125 36.53125 
Q 39.546875 41.84375 41.421875 45.53125 
Q 43.3125 49.21875 43.3125 52.78125 
Q 43.3125 58.59375 39.234375 62.25 
Q 35.15625 65.921875 28.609375 65.921875 
Q 23.96875 65.921875 18.8125 64.3125 
Q 13.671875 62.703125 7.8125 59.421875 
L 7.8125 69.390625 
Q 13.765625 71.78125 18.9375 73 
Q 24.125 74.21875 28.421875 74.21875 
Q 39.75 74.21875 46.484375 68.546875 
Q 53.21875 62.890625 53.21875 53.421875 
Q 53.21875 48.921875 51.53125 44.890625 
Q 49.859375 40.875 45.40625 35.40625 
Q 44.1875 33.984375 37.640625 27.21875 
Q 31.109375 20.453125 19.1875 8.296875 
z
" id="DejaVuSans-50"/>
      </defs>
      <g transform="translate(189.925676 214.692983)scale(0.1 -0.1)">
       <use xlink:href="#DejaVuSans-8722"/>
       <use x="83.789062" xlink:href="#DejaVuSans-50"/>
      </g>
     </g>
    </g>
    <g id="xtick_3">
     <g id="line2d_3">
      <g>
       <use style="stroke:#000000;stroke-width:0.8;" x="247.604808" xlink:href="#m003fbc64bf" y="200.094545"/>
      </g>
     </g>
     <g id="text_3">
      <!-- 0 -->
      <defs>
       <path d="M 31.78125 66.40625 
Q 24.171875 66.40625 20.328125 58.90625 
Q 16.5 51.421875 16.5 36.375 
Q 16.5 21.390625 20.328125 13.890625 
Q 24.171875 6.390625 31.78125 6.390625 
Q 39.453125 6.390625 43.28125 13.890625 
Q 47.125 21.390625 47.125 36.375 
Q 47.125 51.421875 43.28125 58.90625 
Q 39.453125 66.40625 31.78125 66.40625 
z
M 31.78125 74.21875 
Q 44.046875 74.21875 50.515625 64.515625 
Q 56.984375 54.828125 56.984375 36.375 
Q 56.984375 17.96875 50.515625 8.265625 
Q 44.046875 -1.421875 31.78125 -1.421875 
Q 19.53125 -1.421875 13.0625 8.265625 
Q 6.59375 17.96875 6.59375 36.375 
Q 6.59375 54.828125 13.0625 64.515625 
Q 19.53125 74.21875 31.78125 74.21875 
z
" id="DejaVuSans-48"/>
      </defs>
      <g transform="translate(244.423558 214.692983)scale(0.1 -0.1)">
       <use xlink:href="#DejaVuSans-48"/>
      </g>
     </g>
    </g>
    <g id="xtick_4">
     <g id="line2d_4">
      <g>
       <use style="stroke:#000000;stroke-width:0.8;" x="297.912847" xlink:href="#m003fbc64bf" y="200.094545"/>
      </g>
     </g>
     <g id="text_4">
      <!-- 2 -->
      <g transform="translate(294.731597 214.692983)scale(0.1 -0.1)">
       <use xlink:href="#DejaVuSans-50"/>
      </g>
     </g>
    </g>
    <g id="xtick_5">
     <g id="line2d_5">
      <g>
       <use style="stroke:#000000;stroke-width:0.8;" x="348.220887" xlink:href="#m003fbc64bf" y="200.094545"/>
      </g>
     </g>
     <g id="text_5">
      <!-- 4 -->
      <g transform="translate(345.039637 214.692983)scale(0.1 -0.1)">
       <use xlink:href="#DejaVuSans-52"/>
      </g>
     </g>
    </g>
    <g id="xtick_6">
     <g id="line2d_6">
      <g>
       <use style="stroke:#000000;stroke-width:0.8;" x="398.528926" xlink:href="#m003fbc64bf" y="200.094545"/>
      </g>
     </g>
     <g id="text_6">
      <!-- 6 -->
      <defs>
       <path d="M 33.015625 40.375 
Q 26.375 40.375 22.484375 35.828125 
Q 18.609375 31.296875 18.609375 23.390625 
Q 18.609375 15.53125 22.484375 10.953125 
Q 26.375 6.390625 33.015625 6.390625 
Q 39.65625 6.390625 43.53125 10.953125 
Q 47.40625 15.53125 47.40625 23.390625 
Q 47.40625 31.296875 43.53125 35.828125 
Q 39.65625 40.375 33.015625 40.375 
z
M 52.59375 71.296875 
L 52.59375 62.3125 
Q 48.875 64.0625 45.09375 64.984375 
Q 41.3125 65.921875 37.59375 65.921875 
Q 27.828125 65.921875 22.671875 59.328125 
Q 17.53125 52.734375 16.796875 39.40625 
Q 19.671875 43.65625 24.015625 45.921875 
Q 28.375 48.1875 33.59375 48.1875 
Q 44.578125 48.1875 50.953125 41.515625 
Q 57.328125 34.859375 57.328125 23.390625 
Q 57.328125 12.15625 50.6875 5.359375 
Q 44.046875 -1.421875 33.015625 -1.421875 
Q 20.359375 -1.421875 13.671875 8.265625 
Q 6.984375 17.96875 6.984375 36.375 
Q 6.984375 53.65625 15.1875 63.9375 
Q 23.390625 74.21875 37.203125 74.21875 
Q 40.921875 74.21875 44.703125 73.484375 
Q 48.484375 72.75 52.59375 71.296875 
z
" id="DejaVuSans-54"/>
      </defs>
      <g transform="translate(395.347676 214.692983)scale(0.1 -0.1)">
       <use xlink:href="#DejaVuSans-54"/>
      </g>
     </g>
    </g>
   </g>
   <g id="matplotlib.axis_2">
    <g id="ytick_1">
     <g id="line2d_7">
      <defs>
       <path d="M 0 0 
L -3.5 0 
" id="mb4b050d84b" style="stroke:#000000;stroke-width:0.8;"/>
      </defs>
      <g>
       <use style="stroke:#000000;stroke-width:0.8;" x="108" xlink:href="#mb4b050d84b" y="193.355702"/>
      </g>
     </g>
     <g id="text_7">
      <!-- −1.0 -->
      <defs>
       <path d="M 12.40625 8.296875 
L 28.515625 8.296875 
L 28.515625 63.921875 
L 10.984375 60.40625 
L 10.984375 69.390625 
L 28.421875 72.90625 
L 38.28125 72.90625 
L 38.28125 8.296875 
L 54.390625 8.296875 
L 54.390625 0 
L 12.40625 0 
z
" id="DejaVuSans-49"/>
       <path d="M 10.6875 12.40625 
L 21 12.40625 
L 21 0 
L 10.6875 0 
z
" id="DejaVuSans-46"/>
      </defs>
      <g transform="translate(76.717187 197.154921)scale(0.1 -0.1)">
       <use xlink:href="#DejaVuSans-8722"/>
       <use x="83.789062" xlink:href="#DejaVuSans-49"/>
       <use x="147.412109" xlink:href="#DejaVuSans-46"/>
       <use x="179.199219" xlink:href="#DejaVuSans-48"/>
      </g>
     </g>
    </g>
    <g id="ytick_2">
     <g id="line2d_8">
      <g>
       <use style="stroke:#000000;stroke-width:0.8;" x="108" xlink:href="#mb4b050d84b" y="159.661488"/>
      </g>
     </g>
     <g id="text_8">
      <!-- −0.5 -->
      <defs>
       <path d="M 10.796875 72.90625 
L 49.515625 72.90625 
L 49.515625 64.59375 
L 19.828125 64.59375 
L 19.828125 46.734375 
Q 21.96875 47.46875 24.109375 47.828125 
Q 26.265625 48.1875 28.421875 48.1875 
Q 40.625 48.1875 47.75 41.5 
Q 54.890625 34.8125 54.890625 23.390625 
Q 54.890625 11.625 47.5625 5.09375 
Q 40.234375 -1.421875 26.90625 -1.421875 
Q 22.3125 -1.421875 17.546875 -0.640625 
Q 12.796875 0.140625 7.71875 1.703125 
L 7.71875 11.625 
Q 12.109375 9.234375 16.796875 8.0625 
Q 21.484375 6.890625 26.703125 6.890625 
Q 35.15625 6.890625 40.078125 11.328125 
Q 45.015625 15.765625 45.015625 23.390625 
Q 45.015625 31 40.078125 35.4375 
Q 35.15625 39.890625 26.703125 39.890625 
Q 22.75 39.890625 18.8125 39.015625 
Q 14.890625 38.140625 10.796875 36.28125 
z
" id="DejaVuSans-53"/>
      </defs>
      <g transform="translate(76.717187 163.460706)scale(0.1 -0.1)">
       <use xlink:href="#DejaVuSans-8722"/>
       <use x="83.789062" xlink:href="#DejaVuSans-48"/>
       <use x="147.412109" xlink:href="#DejaVuSans-46"/>
       <use x="179.199219" xlink:href="#DejaVuSans-53"/>
      </g>
     </g>
    </g>
    <g id="ytick_3">
     <g id="line2d_9">
      <g>
       <use style="stroke:#000000;stroke-width:0.8;" x="108" xlink:href="#mb4b050d84b" y="125.967273"/>
      </g>
     </g>
     <g id="text_9">
      <!-- 0.0 -->
      <g transform="translate(85.096875 129.766491)scale(0.1 -0.1)">
       <use xlink:href="#DejaVuSans-48"/>
       <use x="63.623047" xlink:href="#DejaVuSans-46"/>
       <use x="95.410156" xlink:href="#DejaVuSans-48"/>
      </g>
     </g>
    </g>
    <g id="ytick_4">
     <g id="line2d_10">
      <g>
       <use style="stroke:#000000;stroke-width:0.8;" x="108" xlink:href="#mb4b050d84b" y="92.273058"/>
      </g>
     </g>
     <g id="text_10">
      <!-- 0.5 -->
      <g transform="translate(85.096875 96.072277)scale(0.1 -0.1)">
       <use xlink:href="#DejaVuSans-48"/>
       <use x="63.623047" xlink:href="#DejaVuSans-46"/>
       <use x="95.410156" xlink:href="#DejaVuSans-53"/>
      </g>
     </g>
    </g>
    <g id="ytick_5">
     <g id="line2d_11">
      <g>
       <use style="stroke:#000000;stroke-width:0.8;" x="108" xlink:href="#mb4b050d84b" y="58.578843"/>
      </g>
     </g>
     <g id="text_11">
      <!-- 1.0 -->
      <g transform="translate(85.096875 62.378062)scale(0.1 -0.1)">
       <use xlink:href="#DejaVuSans-49"/>
       <use x="63.623047" xlink:href="#DejaVuSans-46"/>
       <use x="95.410156" xlink:href="#DejaVuSans-48"/>
      </g>
     </g>
    </g>
   </g>
   <g id="line2d_12">
    <path clip-path="url(#p74d6fcc675)" d="M 121.834711 193.355702 
L 127.481531 193.355702 
L 133.128352 193.355702 
L 138.775173 193.355702 
L 144.421994 193.355702 
L 150.068814 193.355702 
L 155.715635 193.355702 
L 161.362456 193.355702 
L 167.009276 193.355702 
L 172.656097 193.355702 
L 178.302918 193.355702 
L 183.949739 193.355702 
L 189.596559 193.355702 
L 195.24338 193.355702 
L 200.890201 193.355702 
L 206.537021 193.355702 
L 212.183842 193.355702 
L 217.830663 193.355702 
L 223.477484 193.355702 
L 229.124304 193.355702 
L 234.771125 193.355702 
L 240.417946 193.355702 
L 246.064766 193.355702 
L 251.711587 58.578843 
L 257.358408 58.578843 
L 263.005229 58.578843 
L 268.652049 58.578843 
L 274.29887 58.578843 
L 279.945691 58.578843 
L 285.592511 58.578843 
L 291.239332 58.578843 
L 296.886153 58.578843 
L 302.532974 58.578843 
L 308.179794 58.578843 
L 313.826615 58.578843 
L 319.473436 58.578843 
L 325.120256 58.578843 
L 330.767077 58.578843 
L 336.413898 58.578843 
L 342.060719 58.578843 
L 347.707539 58.578843 
L 353.35436 58.578843 
L 359.001181 58.578843 
L 364.648001 58.578843 
L 370.294822 58.578843 
L 375.941643 58.578843 
L 381.588463 58.578843 
L 387.235284 58.578843 
L 392.882105 58.578843 
L 398.528926 58.578843 
" style="fill:none;stroke:#0000ff;stroke-linecap:square;stroke-width:1.5;"/>
   </g>
   <g id="line2d_13">
    <path clip-path="url(#p74d6fcc675)" d="M 121.834711 125.967273 
L 127.481531 125.967273 
L 133.128352 125.967273 
L 138.775173 125.967273 
L 144.421994 125.967273 
L 150.068814 125.967273 
L 155.715635 125.967273 
L 161.362456 125.967273 
L 167.009276 125.967273 
L 172.656097 125.967273 
L 178.302918 125.967273 
L 183.949739 125.967273 
L 189.596559 125.967273 
L 195.24338 125.967273 
L 200.890201 125.967273 
L 206.537021 125.967273 
L 212.183842 125.967273 
L 217.830663 125.967273 
L 223.477484 125.967273 
L 229.124304 125.967273 
L 234.771125 125.967273 
L 240.417946 125.967273 
L 246.064766 125.967273 
L 251.711587 125.967273 
L 257.358408 125.967273 
L 263.005229 125.967273 
L 268.652049 125.967273 
L 274.29887 125.967273 
L 279.945691 125.967273 
L 285.592511 125.967273 
L 291.239332 125.967273 
L 296.886153 125.967273 
L 302.532974 125.967273 
L 308.179794 125.967273 
L 313.826615 125.967273 
L 319.473436 125.967273 
L 325.120256 125.967273 
L 330.767077 125.967273 
L 336.413898 125.967273 
L 342.060719 125.967273 
L 347.707539 125.967273 
L 353.35436 125.967273 
L 359.001181 125.967273 
L 364.648001 125.967273 
L 370.294822 125.967273 
L 375.941643 125.967273 
L 381.588463 125.967273 
L 387.235284 125.967273 
L 392.882105 125.967273 
L 398.528926 125.967273 
" style="fill:none;stroke:#ff0000;stroke-dasharray:5.55,2.4;stroke-dashoffset:0;stroke-width:1.5;"/>
   </g>
   <g id="patch_3">
    <path d="M 108 200.094545 
L 108 51.84 
" style="fill:none;stroke:#000000;stroke-linecap:square;stroke-linejoin:miter;stroke-width:0.8;"/>
   </g>
   <g id="patch_4">
    <path d="M 412.363636 200.094545 
L 412.363636 51.84 
" style="fill:none;stroke:#000000;stroke-linecap:square;stroke-linejoin:miter;stroke-width:0.8;"/>
   </g>
   <g id="patch_5">
    <path d="M 108 200.094545 
L 412.363636 200.094545 
" style="fill:none;stroke:#000000;stroke-linecap:square;stroke-linejoin:miter;stroke-width:0.8;"/>
   </g>
   <g id="patch_6">
    <path d="M 108 51.84 
L 412.363636 51.84 
" style="fill:none;stroke:#000000;stroke-linecap:square;stroke-linejoin:miter;stroke-width:0.8;"/>
   </g>
   <g id="text_12">
    <!-- $y=sign(x)$ -->
    <defs>
     <path d="M 24.8125 -5.078125 
Q 18.5625 -15.578125 14.625 -18.1875 
Q 10.6875 -20.796875 4.59375 -20.796875 
L -2.484375 -20.796875 
L -0.984375 -13.28125 
L 4.203125 -13.28125 
Q 7.953125 -13.28125 10.59375 -11.234375 
Q 13.234375 -9.1875 16.5 -3.21875 
L 19.28125 2 
L 7.171875 54.6875 
L 16.703125 54.6875 
L 25.78125 12.796875 
L 50.875 54.6875 
L 60.296875 54.6875 
z
" id="DejaVuSans-Oblique-121"/>
     <path d="M 10.59375 45.40625 
L 73.1875 45.40625 
L 73.1875 37.203125 
L 10.59375 37.203125 
z
M 10.59375 25.484375 
L 73.1875 25.484375 
L 73.1875 17.1875 
L 10.59375 17.1875 
z
" id="DejaVuSans-61"/>
     <path d="M 50 53.078125 
L 48.296875 44.578125 
Q 44.734375 46.53125 40.765625 47.5 
Q 36.8125 48.484375 32.625 48.484375 
Q 25.53125 48.484375 21.453125 46.0625 
Q 17.390625 43.65625 17.390625 39.5 
Q 17.390625 34.671875 26.859375 32.078125 
Q 27.59375 31.890625 27.9375 31.78125 
L 30.8125 30.90625 
Q 39.796875 28.421875 42.796875 25.6875 
Q 45.796875 22.953125 45.796875 18.21875 
Q 45.796875 9.515625 38.890625 4.046875 
Q 31.984375 -1.421875 20.796875 -1.421875 
Q 16.453125 -1.421875 11.671875 -0.578125 
Q 6.890625 0.25 1.125 2 
L 2.875 11.28125 
Q 7.8125 8.734375 12.59375 7.421875 
Q 17.390625 6.109375 21.78125 6.109375 
Q 28.375 6.109375 32.5 8.9375 
Q 36.625 11.765625 36.625 16.109375 
Q 36.625 20.796875 25.78125 23.6875 
L 24.859375 23.921875 
L 21.78125 24.703125 
Q 14.9375 26.515625 11.765625 29.46875 
Q 8.59375 32.421875 8.59375 37.015625 
Q 8.59375 45.75 15.15625 50.875 
Q 21.734375 56 33.015625 56 
Q 37.453125 56 41.671875 55.265625 
Q 45.90625 54.546875 50 53.078125 
z
" id="DejaVuSans-Oblique-115"/>
     <path d="M 18.3125 75.984375 
L 27.296875 75.984375 
L 25.09375 64.59375 
L 16.109375 64.59375 
z
M 14.203125 54.6875 
L 23.1875 54.6875 
L 12.5 0 
L 3.515625 0 
z
" id="DejaVuSans-Oblique-105"/>
     <path d="M 59.625 54.6875 
L 50.296875 6.78125 
Q 47.609375 -7.125 40.015625 -13.953125 
Q 32.421875 -20.796875 19.578125 -20.796875 
Q 14.84375 -20.796875 10.78125 -20.09375 
Q 6.734375 -19.390625 3.21875 -17.921875 
L 4.890625 -9.1875 
Q 8.203125 -11.328125 11.90625 -12.34375 
Q 15.625 -13.375 19.828125 -13.375 
Q 28.375 -13.375 33.859375 -8.703125 
Q 39.359375 -4.046875 41.109375 4.6875 
L 41.890625 8.796875 
Q 38.140625 4.5 33.15625 2.25 
Q 28.171875 0 22.40625 0 
Q 14.109375 0 9.34375 5.484375 
Q 4.59375 10.984375 4.59375 20.609375 
Q 4.59375 28.171875 7.46875 35.421875 
Q 10.359375 42.671875 15.578125 48.296875 
Q 19.046875 52 23.65625 54 
Q 28.265625 56 33.296875 56 
Q 38.8125 56 42.90625 53.4375 
Q 47.015625 50.875 49.03125 46.1875 
L 50.59375 54.6875 
z
M 46.09375 34.625 
Q 46.09375 41.265625 42.96875 44.875 
Q 39.84375 48.484375 34.078125 48.484375 
Q 30.515625 48.484375 27.296875 47.0625 
Q 24.078125 45.65625 21.78125 43.109375 
Q 18.0625 38.921875 15.984375 33.234375 
Q 13.921875 27.546875 13.921875 21.484375 
Q 13.921875 14.75 17.0625 11.125 
Q 20.21875 7.515625 26.125 7.515625 
Q 34.671875 7.515625 40.375 15.25 
Q 46.09375 23 46.09375 34.625 
z
" id="DejaVuSans-Oblique-103"/>
     <path d="M 55.71875 33.015625 
L 49.3125 0 
L 40.28125 0 
L 46.6875 32.671875 
Q 47.125 34.96875 47.359375 36.71875 
Q 47.609375 38.484375 47.609375 39.5 
Q 47.609375 43.609375 45.015625 45.890625 
Q 42.4375 48.1875 37.796875 48.1875 
Q 30.5625 48.1875 25.34375 43.375 
Q 20.125 38.578125 18.5 30.328125 
L 12.5 0 
L 3.515625 0 
L 14.109375 54.6875 
L 23.09375 54.6875 
L 21.296875 46.09375 
Q 25.046875 50.828125 30.3125 53.40625 
Q 35.59375 56 41.40625 56 
Q 48.640625 56 52.609375 52.09375 
Q 56.59375 48.1875 56.59375 41.109375 
Q 56.59375 39.359375 56.375 37.359375 
Q 56.15625 35.359375 55.71875 33.015625 
z
" id="DejaVuSans-Oblique-110"/>
     <path d="M 31 75.875 
Q 24.46875 64.65625 21.28125 53.65625 
Q 18.109375 42.671875 18.109375 31.390625 
Q 18.109375 20.125 21.3125 9.0625 
Q 24.515625 -2 31 -13.1875 
L 23.1875 -13.1875 
Q 15.875 -1.703125 12.234375 9.375 
Q 8.59375 20.453125 8.59375 31.390625 
Q 8.59375 42.28125 12.203125 53.3125 
Q 15.828125 64.359375 23.1875 75.875 
z
" id="DejaVuSans-40"/>
     <path d="M 60.015625 54.6875 
L 34.90625 27.875 
L 50.296875 0 
L 39.984375 0 
L 28.421875 21.6875 
L 8.296875 0 
L -2.59375 0 
L 24.3125 28.8125 
L 10.015625 54.6875 
L 20.3125 54.6875 
L 30.8125 34.90625 
L 49.125 54.6875 
z
" id="DejaVuSans-Oblique-120"/>
     <path d="M 8.015625 75.875 
L 15.828125 75.875 
Q 23.140625 64.359375 26.78125 53.3125 
Q 30.421875 42.28125 30.421875 31.390625 
Q 30.421875 20.453125 26.78125 9.375 
Q 23.140625 -1.703125 15.828125 -13.1875 
L 8.015625 -13.1875 
Q 14.5 -2 17.703125 9.0625 
Q 20.90625 20.125 20.90625 31.390625 
Q 20.90625 42.671875 17.703125 53.65625 
Q 14.5 64.65625 8.015625 75.875 
z
" id="DejaVuSans-41"/>
    </defs>
    <g transform="translate(260.181818 92.273058)scale(0.1 -0.1)">
     <use transform="translate(0 0.015625)" xlink:href="#DejaVuSans-Oblique-121"/>
     <use transform="translate(78.662109 0.015625)" xlink:href="#DejaVuSans-61"/>
     <use transform="translate(181.933594 0.015625)" xlink:href="#DejaVuSans-Oblique-115"/>
     <use transform="translate(234.033203 0.015625)" xlink:href="#DejaVuSans-Oblique-105"/>
     <use transform="translate(261.816406 0.015625)" xlink:href="#DejaVuSans-Oblique-103"/>
     <use transform="translate(325.292969 0.015625)" xlink:href="#DejaVuSans-Oblique-110"/>
     <use transform="translate(388.671875 0.015625)" xlink:href="#DejaVuSans-40"/>
     <use transform="translate(427.685547 0.015625)" xlink:href="#DejaVuSans-Oblique-120"/>
     <use transform="translate(486.865234 0.015625)" xlink:href="#DejaVuSans-41"/>
    </g>
   </g>
  </g>
  <g id="axes_2">
   <g id="patch_7">
    <path d="M 473.236364 200.094545 
L 777.6 200.094545 
L 777.6 51.84 
L 473.236364 51.84 
z
" style="fill:#ffffff;"/>
   </g>
   <g id="matplotlib.axis_3">
    <g id="xtick_7">
     <g id="line2d_14">
      <g>
       <use style="stroke:#000000;stroke-width:0.8;" x="512.225094" xlink:href="#m003fbc64bf" y="200.094545"/>
      </g>
     </g>
     <g id="text_13">
      <!-- −4 -->
      <g transform="translate(504.854 214.692983)scale(0.1 -0.1)">
       <use xlink:href="#DejaVuSans-8722"/>
       <use x="83.789062" xlink:href="#DejaVuSans-52"/>
      </g>
     </g>
    </g>
    <g id="xtick_8">
     <g id="line2d_15">
      <g>
       <use style="stroke:#000000;stroke-width:0.8;" x="562.533133" xlink:href="#m003fbc64bf" y="200.094545"/>
      </g>
     </g>
     <g id="text_14">
      <!-- −2 -->
      <g transform="translate(555.162039 214.692983)scale(0.1 -0.1)">
       <use xlink:href="#DejaVuSans-8722"/>
       <use x="83.789062" xlink:href="#DejaVuSans-50"/>
      </g>
     </g>
    </g>
    <g id="xtick_9">
     <g id="line2d_16">
      <g>
       <use style="stroke:#000000;stroke-width:0.8;" x="612.841172" xlink:href="#m003fbc64bf" y="200.094545"/>
      </g>
     </g>
     <g id="text_15">
      <!-- 0 -->
      <g transform="translate(609.659922 214.692983)scale(0.1 -0.1)">
       <use xlink:href="#DejaVuSans-48"/>
      </g>
     </g>
    </g>
    <g id="xtick_10">
     <g id="line2d_17">
      <g>
       <use style="stroke:#000000;stroke-width:0.8;" x="663.149211" xlink:href="#m003fbc64bf" y="200.094545"/>
      </g>
     </g>
     <g id="text_16">
      <!-- 2 -->
      <g transform="translate(659.967961 214.692983)scale(0.1 -0.1)">
       <use xlink:href="#DejaVuSans-50"/>
      </g>
     </g>
    </g>
    <g id="xtick_11">
     <g id="line2d_18">
      <g>
       <use style="stroke:#000000;stroke-width:0.8;" x="713.45725" xlink:href="#m003fbc64bf" y="200.094545"/>
      </g>
     </g>
     <g id="text_17">
      <!-- 4 -->
      <g transform="translate(710.276 214.692983)scale(0.1 -0.1)">
       <use xlink:href="#DejaVuSans-52"/>
      </g>
     </g>
    </g>
    <g id="xtick_12">
     <g id="line2d_19">
      <g>
       <use style="stroke:#000000;stroke-width:0.8;" x="763.765289" xlink:href="#m003fbc64bf" y="200.094545"/>
      </g>
     </g>
     <g id="text_18">
      <!-- 6 -->
      <g transform="translate(760.584039 214.692983)scale(0.1 -0.1)">
       <use xlink:href="#DejaVuSans-54"/>
      </g>
     </g>
    </g>
   </g>
   <g id="matplotlib.axis_4">
    <g id="ytick_6">
     <g id="line2d_20">
      <g>
       <use style="stroke:#000000;stroke-width:0.8;" x="473.236364" xlink:href="#mb4b050d84b" y="181.103261"/>
      </g>
     </g>
     <g id="text_19">
      <!-- −4 -->
      <g transform="translate(451.494176 184.902479)scale(0.1 -0.1)">
       <use xlink:href="#DejaVuSans-8722"/>
       <use x="83.789062" xlink:href="#DejaVuSans-52"/>
      </g>
     </g>
    </g>
    <g id="ytick_7">
     <g id="line2d_21">
      <g>
       <use style="stroke:#000000;stroke-width:0.8;" x="473.236364" xlink:href="#mb4b050d84b" y="156.598377"/>
      </g>
     </g>
     <g id="text_20">
      <!-- −2 -->
      <g transform="translate(451.494176 160.397596)scale(0.1 -0.1)">
       <use xlink:href="#DejaVuSans-8722"/>
       <use x="83.789062" xlink:href="#DejaVuSans-50"/>
      </g>
     </g>
    </g>
    <g id="ytick_8">
     <g id="line2d_22">
      <g>
       <use style="stroke:#000000;stroke-width:0.8;" x="473.236364" xlink:href="#mb4b050d84b" y="132.093494"/>
      </g>
     </g>
     <g id="text_21">
      <!-- 0 -->
      <g transform="translate(459.873864 135.892712)scale(0.1 -0.1)">
       <use xlink:href="#DejaVuSans-48"/>
      </g>
     </g>
    </g>
    <g id="ytick_9">
     <g id="line2d_23">
      <g>
       <use style="stroke:#000000;stroke-width:0.8;" x="473.236364" xlink:href="#mb4b050d84b" y="107.58861"/>
      </g>
     </g>
     <g id="text_22">
      <!-- 2 -->
      <g transform="translate(459.873864 111.387829)scale(0.1 -0.1)">
       <use xlink:href="#DejaVuSans-50"/>
      </g>
     </g>
    </g>
    <g id="ytick_10">
     <g id="line2d_24">
      <g>
       <use style="stroke:#000000;stroke-width:0.8;" x="473.236364" xlink:href="#mb4b050d84b" y="83.083727"/>
      </g>
     </g>
     <g id="text_23">
      <!-- 4 -->
      <g transform="translate(459.873864 86.882945)scale(0.1 -0.1)">
       <use xlink:href="#DejaVuSans-52"/>
      </g>
     </g>
    </g>
    <g id="ytick_11">
     <g id="line2d_25">
      <g>
       <use style="stroke:#000000;stroke-width:0.8;" x="473.236364" xlink:href="#mb4b050d84b" y="58.578843"/>
      </g>
     </g>
     <g id="text_24">
      <!-- 6 -->
      <g transform="translate(459.873864 62.378062)scale(0.1 -0.1)">
       <use xlink:href="#DejaVuSans-54"/>
      </g>
     </g>
    </g>
   </g>
   <g id="line2d_26">
    <path clip-path="url(#p0986f6a169)" d="M 487.071074 193.355702 
L 492.717895 190.605154 
L 498.364716 187.854606 
L 504.011537 185.104058 
L 509.658357 182.35351 
L 515.305178 179.602962 
L 520.951999 176.852414 
L 526.598819 174.101865 
L 532.24564 171.351317 
L 537.892461 168.600769 
L 543.539281 165.850221 
L 549.186102 163.099673 
L 554.832923 160.349125 
L 560.479744 157.598576 
L 566.126564 154.848028 
L 571.773385 152.09748 
L 577.420206 149.346932 
L 583.067026 146.596384 
L 588.713847 143.845836 
L 594.360668 141.095288 
L 600.007489 138.344739 
L 605.654309 135.594191 
L 611.30113 132.843643 
L 616.947951 130.093095 
L 622.594771 127.342547 
L 628.241592 124.591999 
L 633.888413 121.84145 
L 639.535234 119.090902 
L 645.182054 116.340354 
L 650.828875 113.589806 
L 656.475696 110.839258 
L 662.122516 108.08871 
L 667.769337 105.338162 
L 673.416158 102.587613 
L 679.062979 99.837065 
L 684.709799 97.086517 
L 690.35662 94.335969 
L 696.003441 91.585421 
L 701.650261 88.834873 
L 707.297082 86.084325 
L 712.943903 83.333776 
L 718.590724 80.583228 
L 724.237544 77.83268 
L 729.884365 75.082132 
L 735.531186 72.331584 
L 741.178006 69.581036 
L 746.824827 66.830487 
L 752.471648 64.079939 
L 758.118469 61.329391 
L 763.765289 58.578843 
" style="fill:none;stroke:#0000ff;stroke-linecap:square;stroke-width:1.5;"/>
   </g>
   <g id="line2d_27">
    <path clip-path="url(#p0986f6a169)" d="M 487.071074 132.093494 
L 492.717895 132.093494 
L 498.364716 132.093494 
L 504.011537 132.093494 
L 509.658357 132.093494 
L 515.305178 132.093494 
L 520.951999 132.093494 
L 526.598819 132.093494 
L 532.24564 132.093494 
L 537.892461 132.093494 
L 543.539281 132.093494 
L 549.186102 132.093494 
L 554.832923 132.093494 
L 560.479744 132.093494 
L 566.126564 132.093494 
L 571.773385 132.093494 
L 577.420206 132.093494 
L 583.067026 132.093494 
L 588.713847 132.093494 
L 594.360668 132.093494 
L 600.007489 132.093494 
L 605.654309 132.093494 
L 611.30113 132.093494 
L 616.947951 132.093494 
L 622.594771 132.093494 
L 628.241592 132.093494 
L 633.888413 132.093494 
L 639.535234 132.093494 
L 645.182054 132.093494 
L 650.828875 132.093494 
L 656.475696 132.093494 
L 662.122516 132.093494 
L 667.769337 132.093494 
L 673.416158 132.093494 
L 679.062979 132.093494 
L 684.709799 132.093494 
L 690.35662 132.093494 
L 696.003441 132.093494 
L 701.650261 132.093494 
L 707.297082 132.093494 
L 712.943903 132.093494 
L 718.590724 132.093494 
L 724.237544 132.093494 
L 729.884365 132.093494 
L 735.531186 132.093494 
L 741.178006 132.093494 
L 746.824827 132.093494 
L 752.471648 132.093494 
L 758.118469 132.093494 
L 763.765289 132.093494 
" style="fill:none;stroke:#ff0000;stroke-dasharray:5.55,2.4;stroke-dashoffset:0;stroke-width:1.5;"/>
   </g>
   <g id="patch_8">
    <path d="M 473.236364 200.094545 
L 473.236364 51.84 
" style="fill:none;stroke:#000000;stroke-linecap:square;stroke-linejoin:miter;stroke-width:0.8;"/>
   </g>
   <g id="patch_9">
    <path d="M 777.6 200.094545 
L 777.6 51.84 
" style="fill:none;stroke:#000000;stroke-linecap:square;stroke-linejoin:miter;stroke-width:0.8;"/>
   </g>
   <g id="patch_10">
    <path d="M 473.236364 200.094545 
L 777.6 200.094545 
" style="fill:none;stroke:#000000;stroke-linecap:square;stroke-linejoin:miter;stroke-width:0.8;"/>
   </g>
   <g id="patch_11">
    <path d="M 473.236364 51.84 
L 777.6 51.84 
" style="fill:none;stroke:#000000;stroke-linecap:square;stroke-linejoin:miter;stroke-width:0.8;"/>
   </g>
   <g id="text_25">
    <!-- $y=x$ -->
    <g transform="translate(549.956123 101.462389)scale(0.1 -0.1)">
     <use transform="translate(0 0.3125)" xlink:href="#DejaVuSans-Oblique-121"/>
     <use transform="translate(78.662109 0.3125)" xlink:href="#DejaVuSans-61"/>
     <use transform="translate(181.933594 0.3125)" xlink:href="#DejaVuSans-Oblique-120"/>
    </g>
   </g>
  </g>
  <g id="axes_3">
   <g id="patch_12">
    <path d="M 108 378 
L 412.363636 378 
L 412.363636 229.745455 
L 108 229.745455 
z
" style="fill:#ffffff;"/>
   </g>
   <g id="matplotlib.axis_5">
    <g id="xtick_13">
     <g id="line2d_28">
      <g>
       <use style="stroke:#000000;stroke-width:0.8;" x="146.98873" xlink:href="#m003fbc64bf" y="378"/>
      </g>
     </g>
     <g id="text_26">
      <!-- −4 -->
      <g transform="translate(139.617637 392.598437)scale(0.1 -0.1)">
       <use xlink:href="#DejaVuSans-8722"/>
       <use x="83.789062" xlink:href="#DejaVuSans-52"/>
      </g>
     </g>
    </g>
    <g id="xtick_14">
     <g id="line2d_29">
      <g>
       <use style="stroke:#000000;stroke-width:0.8;" x="197.296769" xlink:href="#m003fbc64bf" y="378"/>
      </g>
     </g>
     <g id="text_27">
      <!-- −2 -->
      <g transform="translate(189.925676 392.598437)scale(0.1 -0.1)">
       <use xlink:href="#DejaVuSans-8722"/>
       <use x="83.789062" xlink:href="#DejaVuSans-50"/>
      </g>
     </g>
    </g>
    <g id="xtick_15">
     <g id="line2d_30">
      <g>
       <use style="stroke:#000000;stroke-width:0.8;" x="247.604808" xlink:href="#m003fbc64bf" y="378"/>
      </g>
     </g>
     <g id="text_28">
      <!-- 0 -->
      <g transform="translate(244.423558 392.598437)scale(0.1 -0.1)">
       <use xlink:href="#DejaVuSans-48"/>
      </g>
     </g>
    </g>
    <g id="xtick_16">
     <g id="line2d_31">
      <g>
       <use style="stroke:#000000;stroke-width:0.8;" x="297.912847" xlink:href="#m003fbc64bf" y="378"/>
      </g>
     </g>
     <g id="text_29">
      <!-- 2 -->
      <g transform="translate(294.731597 392.598437)scale(0.1 -0.1)">
       <use xlink:href="#DejaVuSans-50"/>
      </g>
     </g>
    </g>
    <g id="xtick_17">
     <g id="line2d_32">
      <g>
       <use style="stroke:#000000;stroke-width:0.8;" x="348.220887" xlink:href="#m003fbc64bf" y="378"/>
      </g>
     </g>
     <g id="text_30">
      <!-- 4 -->
      <g transform="translate(345.039637 392.598437)scale(0.1 -0.1)">
       <use xlink:href="#DejaVuSans-52"/>
      </g>
     </g>
    </g>
    <g id="xtick_18">
     <g id="line2d_33">
      <g>
       <use style="stroke:#000000;stroke-width:0.8;" x="398.528926" xlink:href="#m003fbc64bf" y="378"/>
      </g>
     </g>
     <g id="text_31">
      <!-- 6 -->
      <g transform="translate(395.347676 392.598437)scale(0.1 -0.1)">
       <use xlink:href="#DejaVuSans-54"/>
      </g>
     </g>
    </g>
   </g>
   <g id="matplotlib.axis_6">
    <g id="ytick_12">
     <g id="line2d_34">
      <g>
       <use style="stroke:#000000;stroke-width:0.8;" x="108" xlink:href="#mb4b050d84b" y="371.261157"/>
      </g>
     </g>
     <g id="text_32">
      <!-- 0.0 -->
      <g transform="translate(85.096875 375.060376)scale(0.1 -0.1)">
       <use xlink:href="#DejaVuSans-48"/>
       <use x="63.623047" xlink:href="#DejaVuSans-46"/>
       <use x="95.410156" xlink:href="#DejaVuSans-48"/>
      </g>
     </g>
    </g>
    <g id="ytick_13">
     <g id="line2d_35">
      <g>
       <use style="stroke:#000000;stroke-width:0.8;" x="108" xlink:href="#mb4b050d84b" y="344.238969"/>
      </g>
     </g>
     <g id="text_33">
      <!-- 0.2 -->
      <g transform="translate(85.096875 348.038188)scale(0.1 -0.1)">
       <use xlink:href="#DejaVuSans-48"/>
       <use x="63.623047" xlink:href="#DejaVuSans-46"/>
       <use x="95.410156" xlink:href="#DejaVuSans-50"/>
      </g>
     </g>
    </g>
    <g id="ytick_14">
     <g id="line2d_36">
      <g>
       <use style="stroke:#000000;stroke-width:0.8;" x="108" xlink:href="#mb4b050d84b" y="317.216782"/>
      </g>
     </g>
     <g id="text_34">
      <!-- 0.4 -->
      <g transform="translate(85.096875 321.016001)scale(0.1 -0.1)">
       <use xlink:href="#DejaVuSans-48"/>
       <use x="63.623047" xlink:href="#DejaVuSans-46"/>
       <use x="95.410156" xlink:href="#DejaVuSans-52"/>
      </g>
     </g>
    </g>
    <g id="ytick_15">
     <g id="line2d_37">
      <g>
       <use style="stroke:#000000;stroke-width:0.8;" x="108" xlink:href="#mb4b050d84b" y="290.194594"/>
      </g>
     </g>
     <g id="text_35">
      <!-- 0.6 -->
      <g transform="translate(85.096875 293.993813)scale(0.1 -0.1)">
       <use xlink:href="#DejaVuSans-48"/>
       <use x="63.623047" xlink:href="#DejaVuSans-46"/>
       <use x="95.410156" xlink:href="#DejaVuSans-54"/>
      </g>
     </g>
    </g>
    <g id="ytick_16">
     <g id="line2d_38">
      <g>
       <use style="stroke:#000000;stroke-width:0.8;" x="108" xlink:href="#mb4b050d84b" y="263.172407"/>
      </g>
     </g>
     <g id="text_36">
      <!-- 0.8 -->
      <defs>
       <path d="M 31.78125 34.625 
Q 24.75 34.625 20.71875 30.859375 
Q 16.703125 27.09375 16.703125 20.515625 
Q 16.703125 13.921875 20.71875 10.15625 
Q 24.75 6.390625 31.78125 6.390625 
Q 38.8125 6.390625 42.859375 10.171875 
Q 46.921875 13.96875 46.921875 20.515625 
Q 46.921875 27.09375 42.890625 30.859375 
Q 38.875 34.625 31.78125 34.625 
z
M 21.921875 38.8125 
Q 15.578125 40.375 12.03125 44.71875 
Q 8.5 49.078125 8.5 55.328125 
Q 8.5 64.0625 14.71875 69.140625 
Q 20.953125 74.21875 31.78125 74.21875 
Q 42.671875 74.21875 48.875 69.140625 
Q 55.078125 64.0625 55.078125 55.328125 
Q 55.078125 49.078125 51.53125 44.71875 
Q 48 40.375 41.703125 38.8125 
Q 48.828125 37.15625 52.796875 32.3125 
Q 56.78125 27.484375 56.78125 20.515625 
Q 56.78125 9.90625 50.3125 4.234375 
Q 43.84375 -1.421875 31.78125 -1.421875 
Q 19.734375 -1.421875 13.25 4.234375 
Q 6.78125 9.90625 6.78125 20.515625 
Q 6.78125 27.484375 10.78125 32.3125 
Q 14.796875 37.15625 21.921875 38.8125 
z
M 18.3125 54.390625 
Q 18.3125 48.734375 21.84375 45.5625 
Q 25.390625 42.390625 31.78125 42.390625 
Q 38.140625 42.390625 41.71875 45.5625 
Q 45.3125 48.734375 45.3125 54.390625 
Q 45.3125 60.0625 41.71875 63.234375 
Q 38.140625 66.40625 31.78125 66.40625 
Q 25.390625 66.40625 21.84375 63.234375 
Q 18.3125 60.0625 18.3125 54.390625 
z
" id="DejaVuSans-56"/>
      </defs>
      <g transform="translate(85.096875 266.971625)scale(0.1 -0.1)">
       <use xlink:href="#DejaVuSans-48"/>
       <use x="63.623047" xlink:href="#DejaVuSans-46"/>
       <use x="95.410156" xlink:href="#DejaVuSans-56"/>
      </g>
     </g>
    </g>
    <g id="ytick_17">
     <g id="line2d_39">
      <g>
       <use style="stroke:#000000;stroke-width:0.8;" x="108" xlink:href="#mb4b050d84b" y="236.150219"/>
      </g>
     </g>
     <g id="text_37">
      <!-- 1.0 -->
      <g transform="translate(85.096875 239.949438)scale(0.1 -0.1)">
       <use xlink:href="#DejaVuSans-49"/>
       <use x="63.623047" xlink:href="#DejaVuSans-46"/>
       <use x="95.410156" xlink:href="#DejaVuSans-48"/>
      </g>
     </g>
    </g>
   </g>
   <g id="line2d_40">
    <path clip-path="url(#pb9f40537c7)" d="M 121.834711 370.35688 
L 127.481531 370.131191 
L 133.128352 369.849767 
L 138.775173 369.499176 
L 144.421994 369.062929 
L 150.068814 368.520891 
L 155.715635 367.848629 
L 161.362456 367.016732 
L 167.009276 365.990153 
L 172.656097 364.727677 
L 178.302918 363.181638 
L 183.949739 361.298101 
L 189.596559 359.017786 
L 195.24338 356.278045 
L 200.890201 353.016259 
L 206.537021 349.174945 
L 212.183842 344.708626 
L 217.830663 339.592188 
L 223.477484 333.829798 
L 229.124304 327.462848 
L 234.771125 320.574872 
L 240.417946 313.291349 
L 246.064766 305.773067 
L 251.711587 298.203173 
L 257.358408 290.769874 
L 263.005229 283.648101 
L 268.652049 276.983844 
L 274.29887 270.883934 
L 279.945691 265.412424 
L 285.592511 260.592943 
L 291.239332 256.415261 
L 296.886153 252.843908 
L 302.532974 249.82699 
L 308.179794 247.303941 
L 313.826615 245.211605 
L 319.473436 243.488535 
L 325.120256 242.077709 
L 330.767077 240.927978 
L 336.413898 239.994619 
L 342.060719 239.239275 
L 347.707539 238.629537 
L 353.35436 238.138341 
L 359.001181 237.743291 
L 364.648001 237.425986 
L 370.294822 237.171399 
L 375.941643 236.967305 
L 381.588463 236.803804 
L 387.235284 236.672892 
L 392.882105 236.56812 
L 398.528926 236.484298 
" style="fill:none;stroke:#0000ff;stroke-linecap:square;stroke-width:1.5;"/>
   </g>
   <g id="line2d_41">
    <path clip-path="url(#pb9f40537c7)" d="M 121.834711 371.261157 
L 127.481531 371.261157 
L 133.128352 371.261157 
L 138.775173 371.261157 
L 144.421994 371.261157 
L 150.068814 371.261157 
L 155.715635 371.261157 
L 161.362456 371.261157 
L 167.009276 371.261157 
L 172.656097 371.261157 
L 178.302918 371.261157 
L 183.949739 371.261157 
L 189.596559 371.261157 
L 195.24338 371.261157 
L 200.890201 371.261157 
L 206.537021 371.261157 
L 212.183842 371.261157 
L 217.830663 371.261157 
L 223.477484 371.261157 
L 229.124304 371.261157 
L 234.771125 371.261157 
L 240.417946 371.261157 
L 246.064766 371.261157 
L 251.711587 371.261157 
L 257.358408 371.261157 
L 263.005229 371.261157 
L 268.652049 371.261157 
L 274.29887 371.261157 
L 279.945691 371.261157 
L 285.592511 371.261157 
L 291.239332 371.261157 
L 296.886153 371.261157 
L 302.532974 371.261157 
L 308.179794 371.261157 
L 313.826615 371.261157 
L 319.473436 371.261157 
L 325.120256 371.261157 
L 330.767077 371.261157 
L 336.413898 371.261157 
L 342.060719 371.261157 
L 347.707539 371.261157 
L 353.35436 371.261157 
L 359.001181 371.261157 
L 364.648001 371.261157 
L 370.294822 371.261157 
L 375.941643 371.261157 
L 381.588463 371.261157 
L 387.235284 371.261157 
L 392.882105 371.261157 
L 398.528926 371.261157 
" style="fill:none;stroke:#ff0000;stroke-dasharray:5.55,2.4;stroke-dashoffset:0;stroke-width:1.5;"/>
   </g>
   <g id="patch_13">
    <path d="M 108 378 
L 108 229.745455 
" style="fill:none;stroke:#000000;stroke-linecap:square;stroke-linejoin:miter;stroke-width:0.8;"/>
   </g>
   <g id="patch_14">
    <path d="M 412.363636 378 
L 412.363636 229.745455 
" style="fill:none;stroke:#000000;stroke-linecap:square;stroke-linejoin:miter;stroke-width:0.8;"/>
   </g>
   <g id="patch_15">
    <path d="M 108 378 
L 412.363636 378 
" style="fill:none;stroke:#000000;stroke-linecap:square;stroke-linejoin:miter;stroke-width:0.8;"/>
   </g>
   <g id="patch_16">
    <path d="M 108 229.745455 
L 412.363636 229.745455 
" style="fill:none;stroke:#000000;stroke-linecap:square;stroke-linejoin:miter;stroke-width:0.8;"/>
   </g>
   <g id="text_38">
    <!-- $y=\frac{1}{1+e^{-x}}$ -->
    <defs>
     <path d="M 46 62.703125 
L 46 35.5 
L 73.1875 35.5 
L 73.1875 27.203125 
L 46 27.203125 
L 46 0 
L 37.796875 0 
L 37.796875 27.203125 
L 10.59375 27.203125 
L 10.59375 35.5 
L 37.796875 35.5 
L 37.796875 62.703125 
z
" id="DejaVuSans-43"/>
     <path d="M 48.09375 32.234375 
Q 48.25 33.015625 48.3125 33.84375 
Q 48.390625 34.671875 48.390625 35.5 
Q 48.390625 41.453125 44.890625 44.921875 
Q 41.40625 48.390625 35.40625 48.390625 
Q 28.71875 48.390625 23.578125 44.15625 
Q 18.453125 39.9375 15.828125 32.171875 
z
M 55.90625 25.203125 
L 14.109375 25.203125 
Q 13.8125 23.34375 13.71875 22.265625 
Q 13.625 21.1875 13.625 20.40625 
Q 13.625 13.625 17.796875 9.90625 
Q 21.96875 6.203125 29.59375 6.203125 
Q 35.453125 6.203125 40.671875 7.515625 
Q 45.90625 8.84375 50.390625 11.375 
L 48.6875 2.484375 
Q 43.84375 0.53125 38.6875 -0.4375 
Q 33.546875 -1.421875 28.21875 -1.421875 
Q 16.84375 -1.421875 10.71875 4.015625 
Q 4.59375 9.46875 4.59375 19.484375 
Q 4.59375 28.03125 7.640625 35.375 
Q 10.6875 42.71875 16.609375 48.484375 
Q 20.40625 52.09375 25.65625 54.046875 
Q 30.90625 56 36.8125 56 
Q 46.09375 56 51.578125 50.4375 
Q 57.078125 44.875 57.078125 35.5 
Q 57.078125 33.25 56.78125 30.6875 
Q 56.5 28.125 55.90625 25.203125 
z
" id="DejaVuSans-Oblique-101"/>
    </defs>
    <g transform="translate(260.181818 303.705688)scale(0.1 -0.1)">
     <use transform="translate(0 0.16875)" xlink:href="#DejaVuSans-Oblique-121"/>
     <use transform="translate(78.662109 0.16875)" xlink:href="#DejaVuSans-61"/>
     <use transform="translate(283.933594 43.965625)scale(0.7)" xlink:href="#DejaVuSans-49"/>
     <use transform="translate(181.933594 -40.878125)scale(0.7)" xlink:href="#DejaVuSans-49"/>
     <use transform="translate(240.107422 -40.878125)scale(0.7)" xlink:href="#DejaVuSans-43"/>
     <use transform="translate(312.397461 -40.878125)scale(0.7)" xlink:href="#DejaVuSans-Oblique-101"/>
     <use transform="translate(358.718794 -14.08125)scale(0.49)" xlink:href="#DejaVuSans-8722"/>
     <use transform="translate(399.775435 -14.08125)scale(0.49)" xlink:href="#DejaVuSans-Oblique-120"/>
     <path d="M 181.933594 18.965625 
L 181.933594 25.215625 
L 430.687544 25.215625 
L 430.687544 18.965625 
L 181.933594 18.965625 
z
"/>
    </g>
   </g>
  </g>
  <g id="axes_4">
   <g id="patch_17">
    <path d="M 473.236364 378 
L 777.6 378 
L 777.6 229.745455 
L 473.236364 229.745455 
z
" style="fill:#ffffff;"/>
   </g>
   <g id="matplotlib.axis_7">
    <g id="xtick_19">
     <g id="line2d_42">
      <g>
       <use style="stroke:#000000;stroke-width:0.8;" x="512.225094" xlink:href="#m003fbc64bf" y="378"/>
      </g>
     </g>
     <g id="text_39">
      <!-- −4 -->
      <g transform="translate(504.854 392.598437)scale(0.1 -0.1)">
       <use xlink:href="#DejaVuSans-8722"/>
       <use x="83.789062" xlink:href="#DejaVuSans-52"/>
      </g>
     </g>
    </g>
    <g id="xtick_20">
     <g id="line2d_43">
      <g>
       <use style="stroke:#000000;stroke-width:0.8;" x="562.533133" xlink:href="#m003fbc64bf" y="378"/>
      </g>
     </g>
     <g id="text_40">
      <!-- −2 -->
      <g transform="translate(555.162039 392.598437)scale(0.1 -0.1)">
       <use xlink:href="#DejaVuSans-8722"/>
       <use x="83.789062" xlink:href="#DejaVuSans-50"/>
      </g>
     </g>
    </g>
    <g id="xtick_21">
     <g id="line2d_44">
      <g>
       <use style="stroke:#000000;stroke-width:0.8;" x="612.841172" xlink:href="#m003fbc64bf" y="378"/>
      </g>
     </g>
     <g id="text_41">
      <!-- 0 -->
      <g transform="translate(609.659922 392.598437)scale(0.1 -0.1)">
       <use xlink:href="#DejaVuSans-48"/>
      </g>
     </g>
    </g>
    <g id="xtick_22">
     <g id="line2d_45">
      <g>
       <use style="stroke:#000000;stroke-width:0.8;" x="663.149211" xlink:href="#m003fbc64bf" y="378"/>
      </g>
     </g>
     <g id="text_42">
      <!-- 2 -->
      <g transform="translate(659.967961 392.598437)scale(0.1 -0.1)">
       <use xlink:href="#DejaVuSans-50"/>
      </g>
     </g>
    </g>
    <g id="xtick_23">
     <g id="line2d_46">
      <g>
       <use style="stroke:#000000;stroke-width:0.8;" x="713.45725" xlink:href="#m003fbc64bf" y="378"/>
      </g>
     </g>
     <g id="text_43">
      <!-- 4 -->
      <g transform="translate(710.276 392.598437)scale(0.1 -0.1)">
       <use xlink:href="#DejaVuSans-52"/>
      </g>
     </g>
    </g>
    <g id="xtick_24">
     <g id="line2d_47">
      <g>
       <use style="stroke:#000000;stroke-width:0.8;" x="763.765289" xlink:href="#m003fbc64bf" y="378"/>
      </g>
     </g>
     <g id="text_44">
      <!-- 6 -->
      <g transform="translate(760.584039 392.598437)scale(0.1 -0.1)">
       <use xlink:href="#DejaVuSans-54"/>
      </g>
     </g>
    </g>
   </g>
   <g id="matplotlib.axis_8">
    <g id="ytick_18">
     <g id="line2d_48">
      <g>
       <use style="stroke:#000000;stroke-width:0.8;" x="473.236364" xlink:href="#mb4b050d84b" y="371.267276"/>
      </g>
     </g>
     <g id="text_45">
      <!-- −1.0 -->
      <g transform="translate(441.953551 375.066495)scale(0.1 -0.1)">
       <use xlink:href="#DejaVuSans-8722"/>
       <use x="83.789062" xlink:href="#DejaVuSans-49"/>
       <use x="147.412109" xlink:href="#DejaVuSans-46"/>
       <use x="179.199219" xlink:href="#DejaVuSans-48"/>
      </g>
     </g>
    </g>
    <g id="ytick_19">
     <g id="line2d_49">
      <g>
       <use style="stroke:#000000;stroke-width:0.8;" x="473.236364" xlink:href="#mb4b050d84b" y="337.571324"/>
      </g>
     </g>
     <g id="text_46">
      <!-- −0.5 -->
      <g transform="translate(441.953551 341.370543)scale(0.1 -0.1)">
       <use xlink:href="#DejaVuSans-8722"/>
       <use x="83.789062" xlink:href="#DejaVuSans-48"/>
       <use x="147.412109" xlink:href="#DejaVuSans-46"/>
       <use x="179.199219" xlink:href="#DejaVuSans-53"/>
      </g>
     </g>
    </g>
    <g id="ytick_20">
     <g id="line2d_50">
      <g>
       <use style="stroke:#000000;stroke-width:0.8;" x="473.236364" xlink:href="#mb4b050d84b" y="303.875373"/>
      </g>
     </g>
     <g id="text_47">
      <!-- 0.0 -->
      <g transform="translate(450.333239 307.674591)scale(0.1 -0.1)">
       <use xlink:href="#DejaVuSans-48"/>
       <use x="63.623047" xlink:href="#DejaVuSans-46"/>
       <use x="95.410156" xlink:href="#DejaVuSans-48"/>
      </g>
     </g>
    </g>
    <g id="ytick_21">
     <g id="line2d_51">
      <g>
       <use style="stroke:#000000;stroke-width:0.8;" x="473.236364" xlink:href="#mb4b050d84b" y="270.179421"/>
      </g>
     </g>
     <g id="text_48">
      <!-- 0.5 -->
      <g transform="translate(450.333239 273.97864)scale(0.1 -0.1)">
       <use xlink:href="#DejaVuSans-48"/>
       <use x="63.623047" xlink:href="#DejaVuSans-46"/>
       <use x="95.410156" xlink:href="#DejaVuSans-53"/>
      </g>
     </g>
    </g>
    <g id="ytick_22">
     <g id="line2d_52">
      <g>
       <use style="stroke:#000000;stroke-width:0.8;" x="473.236364" xlink:href="#mb4b050d84b" y="236.483469"/>
      </g>
     </g>
     <g id="text_49">
      <!-- 1.0 -->
      <g transform="translate(450.333239 240.282688)scale(0.1 -0.1)">
       <use xlink:href="#DejaVuSans-49"/>
       <use x="63.623047" xlink:href="#DejaVuSans-46"/>
       <use x="95.410156" xlink:href="#DejaVuSans-48"/>
      </g>
     </g>
    </g>
   </g>
   <g id="line2d_53">
    <path clip-path="url(#pa43140365d)" d="M 487.071074 371.261157 
L 492.717895 371.25769 
L 498.364716 371.252258 
L 504.011537 371.243748 
L 509.658357 371.230418 
L 515.305178 371.209539 
L 520.951999 371.176841 
L 526.598819 371.125644 
L 532.24564 371.045511 
L 537.892461 370.920158 
L 543.539281 370.724234 
L 549.186102 370.418424 
L 554.832923 369.942098 
L 560.479744 369.202607 
L 566.126564 368.060373 
L 571.773385 366.309825 
L 577.420206 363.658963 
L 583.067026 359.716737 
L 588.713847 354.009053 
L 594.360668 346.057894 
L 600.007489 335.556589 
L 605.654309 322.622822 
L 611.30113 307.99626 
L 616.947951 292.969343 
L 622.594771 278.979233 
L 628.241592 267.099246 
L 633.888413 257.774212 
L 639.535234 250.896437 
L 645.182054 246.053122 
L 650.828875 242.752584 
L 656.475696 240.553388 
L 662.122516 239.109901 
L 667.769337 238.171766 
L 673.416158 237.565979 
L 679.062979 237.176426 
L 684.709799 236.926593 
L 690.35662 236.766643 
L 696.003441 236.66435 
L 701.650261 236.598978 
L 707.297082 236.557219 
L 712.943903 236.530552 
L 718.590724 236.513525 
L 724.237544 236.502655 
L 729.884365 236.495716 
L 735.531186 236.491286 
L 741.178006 236.488459 
L 746.824827 236.486654 
L 752.471648 236.485502 
L 758.118469 236.484767 
L 763.765289 236.484298 
" style="fill:none;stroke:#0000ff;stroke-linecap:square;stroke-width:1.5;"/>
   </g>
   <g id="line2d_54">
    <path clip-path="url(#pa43140365d)" d="M 487.071074 303.875373 
L 492.717895 303.875373 
L 498.364716 303.875373 
L 504.011537 303.875373 
L 509.658357 303.875373 
L 515.305178 303.875373 
L 520.951999 303.875373 
L 526.598819 303.875373 
L 532.24564 303.875373 
L 537.892461 303.875373 
L 543.539281 303.875373 
L 549.186102 303.875373 
L 554.832923 303.875373 
L 560.479744 303.875373 
L 566.126564 303.875373 
L 571.773385 303.875373 
L 577.420206 303.875373 
L 583.067026 303.875373 
L 588.713847 303.875373 
L 594.360668 303.875373 
L 600.007489 303.875373 
L 605.654309 303.875373 
L 611.30113 303.875373 
L 616.947951 303.875373 
L 622.594771 303.875373 
L 628.241592 303.875373 
L 633.888413 303.875373 
L 639.535234 303.875373 
L 645.182054 303.875373 
L 650.828875 303.875373 
L 656.475696 303.875373 
L 662.122516 303.875373 
L 667.769337 303.875373 
L 673.416158 303.875373 
L 679.062979 303.875373 
L 684.709799 303.875373 
L 690.35662 303.875373 
L 696.003441 303.875373 
L 701.650261 303.875373 
L 707.297082 303.875373 
L 712.943903 303.875373 
L 718.590724 303.875373 
L 724.237544 303.875373 
L 729.884365 303.875373 
L 735.531186 303.875373 
L 741.178006 303.875373 
L 746.824827 303.875373 
L 752.471648 303.875373 
L 758.118469 303.875373 
L 763.765289 303.875373 
" style="fill:none;stroke:#ff0000;stroke-dasharray:5.55,2.4;stroke-dashoffset:0;stroke-width:1.5;"/>
   </g>
   <g id="patch_18">
    <path d="M 473.236364 378 
L 473.236364 229.745455 
" style="fill:none;stroke:#000000;stroke-linecap:square;stroke-linejoin:miter;stroke-width:0.8;"/>
   </g>
   <g id="patch_19">
    <path d="M 777.6 378 
L 777.6 229.745455 
" style="fill:none;stroke:#000000;stroke-linecap:square;stroke-linejoin:miter;stroke-width:0.8;"/>
   </g>
   <g id="patch_20">
    <path d="M 473.236364 378 
L 777.6 378 
" style="fill:none;stroke:#000000;stroke-linecap:square;stroke-linejoin:miter;stroke-width:0.8;"/>
   </g>
   <g id="patch_21">
    <path d="M 473.236364 229.745455 
L 777.6 229.745455 
" style="fill:none;stroke:#000000;stroke-linecap:square;stroke-linejoin:miter;stroke-width:0.8;"/>
   </g>
   <g id="text_50">
    <!-- $y=\frac{e^{2x}-1}{e^{2x}+1}$ -->
    <g transform="translate(637.995192 270.179421)scale(0.1 -0.1)">
     <use transform="translate(0 0.04375)" xlink:href="#DejaVuSans-Oblique-121"/>
     <use transform="translate(78.662109 0.04375)" xlink:href="#DejaVuSans-61"/>
     <use transform="translate(181.933594 44.835938)scale(0.7)" xlink:href="#DejaVuSans-Oblique-101"/>
     <use transform="translate(228.254927 71.632812)scale(0.49)" xlink:href="#DejaVuSans-50"/>
     <use transform="translate(259.43022 71.632812)scale(0.49)" xlink:href="#DejaVuSans-Oblique-120"/>
     <use transform="translate(303.980025 44.835938)scale(0.7)" xlink:href="#DejaVuSans-8722"/>
     <use transform="translate(376.270064 44.835938)scale(0.7)" xlink:href="#DejaVuSans-49"/>
     <use transform="translate(181.933594 -50.573437)scale(0.7)" xlink:href="#DejaVuSans-Oblique-101"/>
     <use transform="translate(228.254927 -23.776562)scale(0.49)" xlink:href="#DejaVuSans-50"/>
     <use transform="translate(259.43022 -23.776562)scale(0.49)" xlink:href="#DejaVuSans-Oblique-120"/>
     <use transform="translate(303.980025 -50.573437)scale(0.7)" xlink:href="#DejaVuSans-43"/>
     <use transform="translate(376.270064 -50.573437)scale(0.7)" xlink:href="#DejaVuSans-49"/>
     <path d="M 181.933594 18.840625 
L 181.933594 25.090625 
L 420.806197 25.090625 
L 420.806197 18.840625 
L 181.933594 18.840625 
z
"/>
    </g>
   </g>
  </g>
 </g>
 <defs>
  <clipPath id="p74d6fcc675">
   <rect height="148.254545" width="304.363636" x="108" y="51.84"/>
  </clipPath>
  <clipPath id="p0986f6a169">
   <rect height="148.254545" width="304.363636" x="473.236364" y="51.84"/>
  </clipPath>
  <clipPath id="pb9f40537c7">
   <rect height="148.254545" width="304.363636" x="108" y="229.745455"/>
  </clipPath>
  <clipPath id="pa43140365d">
   <rect height="148.254545" width="304.363636" x="473.236364" y="229.745455"/>
  </clipPath>
 </defs>
</svg>
