<?xml version="1.0" encoding="UTF-8" standalone="no"?>
<!DOCTYPE svg PUBLIC "-//W3C//DTD SVG 1.1//EN"
 "http://www.w3.org/Graphics/SVG/1.1/DTD/svg11.dtd">
<!-- Generated by graphviz version 2.38.0 (20140413.2041)
 -->
<!-- Title: %3 Pages: 1 -->
<svg width="350pt" height="357pt"
 viewBox="0.00 0.00 350.00 357.00" xmlns="http://www.w3.org/2000/svg" xmlns:xlink="http://www.w3.org/1999/xlink">
<g id="graph0" class="graph" transform="scale(1 1) rotate(0) translate(4 353)">
<title>%3</title>
<polygon fill="white" stroke="none" points="-4,4 -4,-353 346,-353 346,4 -4,4"/>
<g id="clust2" class="cluster"><title>cluster0</title>
<polygon fill="none" stroke="black" points="37,-230 37,-305 305,-305 305,-230 37,-230"/>
<text text-anchor="middle" x="171" y="-289.8" font-family="Times New Roman,serif" font-size="14.00">输入层</text>
</g>
<g id="clust3" class="cluster"><title>cluster1</title>
<polygon fill="lightblue" stroke="lightblue" points="91,-147 91,-222 251,-222 251,-147 91,-147"/>
<text text-anchor="middle" x="171" y="-206.8" font-family="Times New Roman,serif" font-size="14.00">隐藏层</text>
</g>
<g id="clust4" class="cluster"><title>cluster2</title>
<polygon fill="none" stroke="black" points="143,-64 143,-139 198,-139 198,-64 143,-64"/>
<text text-anchor="middle" x="170.5" y="-123.8" font-family="Times New Roman,serif" font-size="14.00">输出层</text>
</g>
<!-- A1 -->
<g id="node1" class="node"><title>A1</title>
<text text-anchor="middle" x="27" y="-327.3" font-family="STKAITI" font-size="14.00">x1</text>
</g>
<!-- B1 -->
<g id="node6" class="node"><title>B1</title>
<ellipse fill="none" stroke="black" cx="63" cy="-256" rx="18" ry="18"/>
</g>
<!-- A1&#45;&gt;B1 -->
<g id="edge1" class="edge"><title>A1&#45;&gt;B1</title>
<path fill="none" stroke="black" d="M35.5315,-312.7C40.0694,-303.498 45.7298,-292.02 50.7311,-281.879"/>
<polygon fill="black" stroke="black" points="53.9821,-283.2 55.266,-272.683 47.704,-280.103 53.9821,-283.2"/>
</g>
<!-- A2 -->
<g id="node2" class="node"><title>A2</title>
<text text-anchor="middle" x="99" y="-327.3" font-family="STKAITI" font-size="14.00">x2</text>
</g>
<!-- B2 -->
<g id="node7" class="node"><title>B2</title>
<ellipse fill="none" stroke="black" cx="117" cy="-256" rx="18" ry="18"/>
</g>
<!-- A2&#45;&gt;B2 -->
<g id="edge2" class="edge"><title>A2&#45;&gt;B2</title>
<path fill="none" stroke="black" d="M103.266,-312.7C105.403,-304.03 108.039,-293.34 110.428,-283.651"/>
<polygon fill="black" stroke="black" points="113.893,-284.22 112.889,-273.673 107.096,-282.545 113.893,-284.22"/>
</g>
<!-- A3 -->
<g id="node3" class="node"><title>A3</title>
<text text-anchor="middle" x="171" y="-327.3" font-family="STKAITI" font-size="14.00">x3</text>
</g>
<!-- B3 -->
<g id="node8" class="node"><title>B3</title>
<ellipse fill="none" stroke="black" cx="171" cy="-256" rx="18" ry="18"/>
</g>
<!-- A3&#45;&gt;B3 -->
<g id="edge3" class="edge"><title>A3&#45;&gt;B3</title>
<path fill="none" stroke="black" d="M171,-312.7C171,-304.245 171,-293.869 171,-284.373"/>
<polygon fill="black" stroke="black" points="174.5,-284.176 171,-274.176 167.5,-284.176 174.5,-284.176"/>
</g>
<!-- A4 -->
<g id="node4" class="node"><title>A4</title>
<text text-anchor="middle" x="243" y="-327.3" font-family="STKAITI" font-size="14.00">x4</text>
</g>
<!-- B4 -->
<g id="node9" class="node"><title>B4</title>
<ellipse fill="none" stroke="black" cx="225" cy="-256" rx="18" ry="18"/>
</g>
<!-- A4&#45;&gt;B4 -->
<g id="edge4" class="edge"><title>A4&#45;&gt;B4</title>
<path fill="none" stroke="black" d="M238.734,-312.7C236.597,-304.03 233.961,-293.34 231.572,-283.651"/>
<polygon fill="black" stroke="black" points="234.904,-282.545 229.111,-273.673 228.107,-284.22 234.904,-282.545"/>
</g>
<!-- A5 -->
<g id="node5" class="node"><title>A5</title>
<text text-anchor="middle" x="315" y="-327.3" font-family="STKAITI" font-size="14.00">x5</text>
</g>
<!-- B5 -->
<g id="node10" class="node"><title>B5</title>
<ellipse fill="none" stroke="black" cx="279" cy="-256" rx="18" ry="18"/>
</g>
<!-- A5&#45;&gt;B5 -->
<g id="edge5" class="edge"><title>A5&#45;&gt;B5</title>
<path fill="none" stroke="black" d="M306.469,-312.7C301.931,-303.498 296.27,-292.02 291.269,-281.879"/>
<polygon fill="black" stroke="black" points="294.296,-280.103 286.734,-272.683 288.018,-283.2 294.296,-280.103"/>
</g>
<!-- C1 -->
<g id="node11" class="node"><title>C1</title>
<ellipse fill="none" stroke="black" cx="117" cy="-173" rx="18" ry="18"/>
</g>
<!-- B1&#45;&gt;C1 -->
<g id="edge6" class="edge"><title>B1&#45;&gt;C1</title>
<path fill="none" stroke="black" d="M72.6541,-240.519C80.717,-228.424 92.3588,-210.962 101.691,-196.963"/>
<polygon fill="black" stroke="black" points="104.795,-198.618 107.429,-188.356 98.9702,-194.735 104.795,-198.618"/>
</g>
<!-- C2 -->
<g id="node12" class="node"><title>C2</title>
<ellipse fill="none" stroke="black" cx="225" cy="-173" rx="18" ry="18"/>
</g>
<!-- B1&#45;&gt;C2 -->
<g id="edge11" class="edge"><title>B1&#45;&gt;C2</title>
<path fill="none" stroke="black" d="M74.0702,-241.566C78.5252,-237.097 84.0251,-232.6 90,-230 112.067,-220.397 177.689,-234.909 198,-222 206.091,-216.858 211.986,-208.38 216.164,-199.969"/>
<polygon fill="black" stroke="black" points="219.423,-201.25 220.177,-190.682 212.997,-198.473 219.423,-201.25"/>
</g>
<!-- C3 -->
<g id="node13" class="node"><title>C3</title>
<ellipse fill="none" stroke="black" cx="171" cy="-173" rx="18" ry="18"/>
</g>
<!-- B1&#45;&gt;C3 -->
<g id="edge16" class="edge"><title>B1&#45;&gt;C3</title>
<path fill="none" stroke="black" d="M74.1777,-241.802C78.6443,-237.358 84.1242,-232.817 90,-230 111.878,-219.512 124.013,-235.754 144,-222 151.897,-216.565 157.75,-208.025 161.949,-199.644"/>
<polygon fill="black" stroke="black" points="165.181,-200.988 166.007,-190.426 158.775,-198.168 165.181,-200.988"/>
</g>
<!-- B2&#45;&gt;C1 -->
<g id="edge7" class="edge"><title>B2&#45;&gt;C1</title>
<path fill="none" stroke="black" d="M117,-237.822C117,-227.19 117,-213.306 117,-201.204"/>
<polygon fill="black" stroke="black" points="120.5,-201.153 117,-191.153 113.5,-201.153 120.5,-201.153"/>
</g>
<!-- B2&#45;&gt;C2 -->
<g id="edge12" class="edge"><title>B2&#45;&gt;C2</title>
<path fill="none" stroke="black" d="M128.178,-241.802C132.644,-237.358 138.124,-232.817 144,-230 165.878,-219.512 178.013,-235.754 198,-222 205.897,-216.565 211.75,-208.025 215.949,-199.644"/>
<polygon fill="black" stroke="black" points="219.181,-200.988 220.007,-190.426 212.775,-198.168 219.181,-200.988"/>
</g>
<!-- B2&#45;&gt;C3 -->
<g id="edge17" class="edge"><title>B2&#45;&gt;C3</title>
<path fill="none" stroke="black" d="M128.581,-241.922C133.573,-236.019 139.325,-228.847 144,-222 149.059,-214.59 154.038,-206.162 158.314,-198.459"/>
<polygon fill="black" stroke="black" points="161.46,-200 163.142,-189.539 155.304,-196.668 161.46,-200"/>
</g>
<!-- B3&#45;&gt;C1 -->
<g id="edge8" class="edge"><title>B3&#45;&gt;C1</title>
<path fill="none" stroke="black" d="M159.419,-241.922C154.427,-236.019 148.675,-228.847 144,-222 138.941,-214.59 133.962,-206.162 129.686,-198.459"/>
<polygon fill="black" stroke="black" points="132.696,-196.668 124.858,-189.539 126.54,-200 132.696,-196.668"/>
</g>
<!-- B3&#45;&gt;C2 -->
<g id="edge13" class="edge"><title>B3&#45;&gt;C2</title>
<path fill="none" stroke="black" d="M182.581,-241.922C187.573,-236.019 193.325,-228.847 198,-222 203.059,-214.59 208.038,-206.162 212.314,-198.459"/>
<polygon fill="black" stroke="black" points="215.46,-200 217.142,-189.539 209.304,-196.668 215.46,-200"/>
</g>
<!-- B3&#45;&gt;C3 -->
<g id="edge18" class="edge"><title>B3&#45;&gt;C3</title>
<path fill="none" stroke="black" d="M171,-237.822C171,-227.19 171,-213.306 171,-201.204"/>
<polygon fill="black" stroke="black" points="174.5,-201.153 171,-191.153 167.5,-201.153 174.5,-201.153"/>
</g>
<!-- B4&#45;&gt;C1 -->
<g id="edge9" class="edge"><title>B4&#45;&gt;C1</title>
<path fill="none" stroke="black" d="M213.822,-241.802C209.356,-237.358 203.876,-232.817 198,-230 176.122,-219.512 163.987,-235.754 144,-222 136.103,-216.565 130.25,-208.025 126.051,-199.644"/>
<polygon fill="black" stroke="black" points="129.225,-198.168 121.993,-190.426 122.819,-200.988 129.225,-198.168"/>
</g>
<!-- B4&#45;&gt;C2 -->
<g id="edge14" class="edge"><title>B4&#45;&gt;C2</title>
<path fill="none" stroke="black" d="M225,-237.822C225,-227.19 225,-213.306 225,-201.204"/>
<polygon fill="black" stroke="black" points="228.5,-201.153 225,-191.153 221.5,-201.153 228.5,-201.153"/>
</g>
<!-- B4&#45;&gt;C3 -->
<g id="edge19" class="edge"><title>B4&#45;&gt;C3</title>
<path fill="none" stroke="black" d="M213.419,-241.922C208.427,-236.019 202.675,-228.847 198,-222 192.941,-214.59 187.962,-206.162 183.686,-198.459"/>
<polygon fill="black" stroke="black" points="186.696,-196.668 178.858,-189.539 180.54,-200 186.696,-196.668"/>
</g>
<!-- B5&#45;&gt;C1 -->
<g id="edge10" class="edge"><title>B5&#45;&gt;C1</title>
<path fill="none" stroke="black" d="M267.93,-241.566C263.475,-237.097 257.975,-232.6 252,-230 229.933,-220.397 164.311,-234.909 144,-222 135.909,-216.858 130.014,-208.38 125.836,-199.969"/>
<polygon fill="black" stroke="black" points="129.003,-198.473 121.823,-190.682 122.577,-201.25 129.003,-198.473"/>
</g>
<!-- B5&#45;&gt;C2 -->
<g id="edge15" class="edge"><title>B5&#45;&gt;C2</title>
<path fill="none" stroke="black" d="M269.346,-240.519C261.283,-228.424 249.641,-210.962 240.309,-196.963"/>
<polygon fill="black" stroke="black" points="243.03,-194.735 234.571,-188.356 237.205,-198.618 243.03,-194.735"/>
</g>
<!-- B5&#45;&gt;C3 -->
<g id="edge20" class="edge"><title>B5&#45;&gt;C3</title>
<path fill="none" stroke="black" d="M267.822,-241.802C263.356,-237.358 257.876,-232.817 252,-230 230.122,-219.512 217.987,-235.754 198,-222 190.103,-216.565 184.25,-208.025 180.051,-199.644"/>
<polygon fill="black" stroke="black" points="183.225,-198.168 175.993,-190.426 176.819,-200.988 183.225,-198.168"/>
</g>
<!-- D -->
<g id="node14" class="node"><title>D</title>
<ellipse fill="none" stroke="black" cx="171" cy="-90" rx="18" ry="18"/>
</g>
<!-- C1&#45;&gt;D -->
<g id="edge21" class="edge"><title>C1&#45;&gt;D</title>
<path fill="none" stroke="black" d="M126.654,-157.519C134.717,-145.424 146.359,-127.962 155.691,-113.963"/>
<polygon fill="black" stroke="black" points="158.795,-115.618 161.429,-105.356 152.97,-111.735 158.795,-115.618"/>
</g>
<!-- C2&#45;&gt;D -->
<g id="edge22" class="edge"><title>C2&#45;&gt;D</title>
<path fill="none" stroke="black" d="M215.346,-157.519C207.283,-145.424 195.641,-127.962 186.309,-113.963"/>
<polygon fill="black" stroke="black" points="189.03,-111.735 180.571,-105.356 183.205,-115.618 189.03,-111.735"/>
</g>
<!-- C3&#45;&gt;D -->
<g id="edge23" class="edge"><title>C3&#45;&gt;D</title>
<path fill="none" stroke="black" d="M171,-154.822C171,-144.19 171,-130.306 171,-118.204"/>
<polygon fill="black" stroke="black" points="174.5,-118.153 171,-108.153 167.5,-118.153 174.5,-118.153"/>
</g>
<!-- E -->
<g id="node15" class="node"><title>E</title>
<text text-anchor="middle" x="171" y="-14.3" font-family="STKAITI" font-size="14.00">y</text>
</g>
<!-- D&#45;&gt;E -->
<g id="edge24" class="edge"><title>D&#45;&gt;E</title>
<path fill="none" stroke="black" d="M171,-71.6966C171,-63.9827 171,-54.7125 171,-46.1124"/>
<polygon fill="black" stroke="black" points="174.5,-46.1043 171,-36.1043 167.5,-46.1044 174.5,-46.1043"/>
</g>
</g>
</svg>
