<svg width="1123" height="643" xmlns="http://www.w3.org/2000/svg" xmlns:xlink="http://www.w3.org/1999/xlink" overflow="hidden"><defs><clipPath id="clip0"><path d="M35 14 1158 14 1158 657 35 657Z" fill-rule="evenodd" clip-rule="evenodd"/></clipPath></defs><g clip-path="url(#clip0)" transform="translate(-35 -14)"><rect x="675" y="63" width="87" height="529" fill="#D0CECE" fill-opacity="0.501961"/><rect x="884" y="63" width="87" height="529" fill="#D0CECE" fill-opacity="0.501961"/><rect x="402" y="63" width="87" height="529" fill="#D0CECE" fill-opacity="0.501961"/><path d="M36.8172 218.007 207.312 218.007 207.312 256.94 36.8172 256.94Z" fill="#4472C4" fill-rule="evenodd"/><path d="M207.312 218.007 301.419 218.007 301.419 256.94 207.312 256.94Z" fill="#4472C4" fill-rule="evenodd"/><path d="M36.8172 256.94 207.312 256.94 207.312 295.874 36.8172 295.874Z" fill="#CFD5EA" fill-rule="evenodd"/><path d="M207.312 256.94 301.419 256.94 301.419 295.874 207.312 295.874Z" fill="#CFD5EA" fill-rule="evenodd"/><path d="M36.8172 295.874 207.312 295.874 207.312 334.807 36.8172 334.807Z" fill="#E9EBF5" fill-rule="evenodd"/><path d="M207.312 295.874 301.419 295.874 301.419 334.807 207.312 334.807Z" fill="#E9EBF5" fill-rule="evenodd"/><path d="M36.8172 334.807 207.312 334.807 207.312 373.74 36.8172 373.74Z" fill="#CFD5EA" fill-rule="evenodd"/><path d="M207.312 334.807 301.419 334.807 301.419 373.74 207.312 373.74Z" fill="#CFD5EA" fill-rule="evenodd"/><path d="M36.8172 373.74 207.312 373.74 207.312 412.674 36.8172 412.674Z" fill="#E9EBF5" fill-rule="evenodd"/><path d="M207.312 373.74 301.419 373.74 301.419 412.674 207.312 412.674Z" fill="#E9EBF5" fill-rule="evenodd"/><path d="M36.8172 412.674 207.312 412.674 207.312 451.607 36.8172 451.607Z" fill="#CFD5EA" fill-rule="evenodd"/><path d="M207.312 412.674 301.419 412.674 301.419 451.607 207.312 451.607Z" fill="#CFD5EA" fill-rule="evenodd"/><path d="M207.312 217.34 207.312 452.274" stroke="#FFFFFF" stroke-width="1.33333" stroke-linejoin="round" stroke-miterlimit="10" fill="none" fill-rule="evenodd"/><path d="M36.1506 256.94 302.086 256.94" stroke="#FFFFFF" stroke-width="4" stroke-linejoin="round" stroke-miterlimit="10" fill="none" fill-rule="evenodd"/><path d="M36.1506 295.874 302.086 295.874" stroke="#FFFFFF" stroke-width="1.33333" stroke-linejoin="round" stroke-miterlimit="10" fill="none" fill-rule="evenodd"/><path d="M36.1506 334.807 302.086 334.807" stroke="#FFFFFF" stroke-width="1.33333" stroke-linejoin="round" stroke-miterlimit="10" fill="none" fill-rule="evenodd"/><path d="M36.1506 373.74 302.086 373.74" stroke="#FFFFFF" stroke-width="1.33333" stroke-linejoin="round" stroke-miterlimit="10" fill="none" fill-rule="evenodd"/><path d="M36.1506 412.674 302.086 412.674" stroke="#FFFFFF" stroke-width="1.33333" stroke-linejoin="round" stroke-miterlimit="10" fill="none" fill-rule="evenodd"/><path d="M36.8172 217.34 36.8172 452.274" stroke="#FFFFFF" stroke-width="1.33333" stroke-linejoin="round" stroke-miterlimit="10" fill="none" fill-rule="evenodd"/><path d="M301.419 217.34 301.419 452.274" stroke="#FFFFFF" stroke-width="1.33333" stroke-linejoin="round" stroke-miterlimit="10" fill="none" fill-rule="evenodd"/><path d="M36.1506 218.007 302.086 218.007" stroke="#FFFFFF" stroke-width="1.33333" stroke-linejoin="round" stroke-miterlimit="10" fill="none" fill-rule="evenodd"/><path d="M36.1506 451.607 302.086 451.607" stroke="#FFFFFF" stroke-width="1.33333" stroke-linejoin="round" stroke-miterlimit="10" fill="none" fill-rule="evenodd"/><text fill="#FFFFFF" font-family="DengXian,DengXian_MSFontService,sans-serif" font-weight="700" font-size="21" transform="translate(100.731 243)">特征<tspan x="121.634" y="0">样本值</tspan><tspan fill="#000000" font-weight="400" x="-42.6667" y="39">住宅单元数目</tspan><tspan fill="#000000" font-weight="400" x="148.051" y="39">1</tspan><tspan fill="#000000" font-weight="400" x="-21.3333" y="78">建造年代</tspan><tspan fill="#000000" font-weight="400" x="131.301" y="78">1982</tspan><tspan fill="#000000" font-weight="400" x="-21.3333" y="117">取暖类型</tspan><tspan fill="#000000" font-weight="400" x="147.634" y="117">B</tspan><tspan fill="#000000" font-weight="400" x="-32" y="156">总居住面积</tspan><tspan fill="#000000" font-weight="400" x="142.468" y="156">50</tspan><tspan fill="#000000" font-weight="400" x="-42.6667" y="194">车库可存车数</tspan><tspan fill="#000000" font-weight="400" x="148.051" y="194">0</tspan></text><path d="M418.5 155.5C418.5 140.588 430.812 128.5 446 128.5 461.188 128.5 473.5 140.588 473.5 155.5 473.5 170.412 461.188 182.5 446 182.5 430.812 182.5 418.5 170.412 418.5 155.5Z" stroke="#ED7D31" stroke-width="1.33333" stroke-miterlimit="8" fill="#FFFFFF" fill-rule="evenodd"/><path d="M418.5 242C418.5 226.812 430.812 214.5 446 214.5 461.188 214.5 473.5 226.812 473.5 242 473.5 257.188 461.188 269.5 446 269.5 430.812 269.5 418.5 257.188 418.5 242Z" stroke="#ED7D31" stroke-width="1.33333" stroke-miterlimit="8" fill="#FFFFFF" fill-rule="evenodd"/><path d="M418.5 328C418.5 312.812 430.812 300.5 446 300.5 461.188 300.5 473.5 312.812 473.5 328 473.5 343.188 461.188 355.5 446 355.5 430.812 355.5 418.5 343.188 418.5 328Z" stroke="#ED7D31" stroke-width="1.33333" stroke-miterlimit="8" fill="#FFFFFF" fill-rule="evenodd"/><path d="M418.5 414C418.5 398.812 430.812 386.5 446 386.5 461.188 386.5 473.5 398.812 473.5 414 473.5 429.188 461.188 441.5 446 441.5 430.812 441.5 418.5 429.188 418.5 414Z" stroke="#ED7D31" stroke-width="1.33333" stroke-miterlimit="8" fill="#FFFFFF" fill-rule="evenodd"/><path d="M418.5 500C418.5 484.812 430.812 472.5 446 472.5 461.188 472.5 473.5 484.812 473.5 500 473.5 515.188 461.188 527.5 446 527.5 430.812 527.5 418.5 515.188 418.5 500Z" stroke="#ED7D31" stroke-width="1.33333" stroke-miterlimit="8" fill="#FFFFFF" fill-rule="evenodd"/><path d="M688.5 242C688.5 226.812 700.588 214.5 715.5 214.5 730.412 214.5 742.5 226.812 742.5 242 742.5 257.188 730.412 269.5 715.5 269.5 700.588 269.5 688.5 257.188 688.5 242Z" stroke="#ED7D31" stroke-width="1.33333" stroke-miterlimit="8" fill="#FFFFFF" fill-rule="evenodd"/><path d="M688.5 414C688.5 398.812 700.588 386.5 715.5 386.5 730.412 386.5 742.5 398.812 742.5 414 742.5 429.188 730.412 441.5 715.5 441.5 700.588 441.5 688.5 429.188 688.5 414Z" stroke="#ED7D31" stroke-width="1.33333" stroke-miterlimit="8" fill="#FFFFFF" fill-rule="evenodd"/><path d="M901.5 328C901.5 312.812 913.588 300.5 928.5 300.5 943.412 300.5 955.5 312.812 955.5 328 955.5 343.188 943.412 355.5 928.5 355.5 913.588 355.5 901.5 343.188 901.5 328Z" stroke="#ED7D31" stroke-width="1.33333" stroke-miterlimit="8" fill="#FFFFFF" fill-rule="evenodd"/><path d="M473.624 155.191 682.551 238.798 682.304 239.417 473.376 155.81ZM682.675 234.898 688.616 241.584 679.703 242.326Z" fill="#4472C4"/><path d="M473.5 241.167 681.95 241.167 681.95 241.833 473.5 241.833ZM680.616 237.5 688.616 241.5 680.616 245.5Z" fill="#4472C4"/><path d="M0.123843-0.309474 209.051 83.298 208.804 83.9169-0.123843 0.309474ZM209.175 79.3982 215.116 86.0841 206.203 86.8255Z" fill="#4472C4" transform="matrix(1 0 0 -1 473.5 327.584)"/><path d="M0.208287-0.260245 210.12 167.743 209.704 168.263-0.208287 0.260245ZM211.37 164.046 215.116 172.168 206.371 170.292Z" fill="#4472C4" transform="matrix(1 0 0 -1 473.5 413.668)"/><path d="M0.25612-0.21334 211.106 252.917 210.594 253.344-0.25612 0.21334ZM213.07 249.545 215.116 258.252 206.923 254.665Z" fill="#4472C4" transform="matrix(1 0 0 -1 473.5 499.752)"/><path d="M473.756 155.287 684.606 408.417 684.094 408.843 473.244 155.713ZM686.57 405.045 688.616 413.752 680.423 410.166Z" fill="#4472C4"/><path d="M473.708 241.24 683.62 409.243 683.204 409.763 473.292 241.76ZM684.87 405.546 688.616 413.668 679.871 411.792Z" fill="#4472C4"/><path d="M473.624 327.191 682.551 410.798 682.304 411.417 473.376 327.81ZM682.675 406.898 688.616 413.584 679.703 414.326Z" fill="#4472C4"/><path d="M473.5 414.167 681.95 414.167 681.95 414.833 473.5 414.833ZM680.616 410.5 688.616 414.5 680.616 418.5Z" fill="#4472C4"/><path d="M0.123843-0.309474 209.051 83.2976 208.803 83.9166-0.123843 0.309474ZM209.175 79.3981 215.116 86.084 206.203 86.8254Z" fill="#4472C4" transform="matrix(1 0 0 -1 473.5 500.584)"/><path d="M742.659 241.207 895.145 324.107 894.826 324.693 742.341 241.793ZM895.724 320.249 900.842 327.584 891.903 327.277Z" fill="#4472C4"/><path d="M0.159212-0.292853 152.645 82.6071 152.326 83.1928-0.159212 0.292853ZM153.224 78.7488 158.342 86.0841 149.403 85.7772Z" fill="#4472C4" transform="matrix(1 0 0 -1 742.5 413.584)"/><path d="M955.5 327.167 1045.87 327.167 1045.87 327.833 955.5 327.833ZM1044.53 323.5 1052.53 327.5 1044.53 331.5Z" fill="#4472C4"/><path d="M0.231765-0.239575 111.534 107.434 111.07 107.913-0.231765 0.239575ZM-2.78117 2.8749C-4.36894 1.3389-4.4109-1.19341-2.8749-2.78117-1.3389-4.36894 1.19341-4.4109 2.78117-2.8749 4.36894-1.3389 4.4109 1.19341 2.8749 2.78117 1.3389 4.36894-1.19341 4.4109-2.78117 2.8749ZM111.302 107.673 110.25 101.09 117.052 113.236 104.688 106.84Z" fill="#4472C4" transform="matrix(1 0 0 -1 301.5 268.736)"/><path d="M0.175535-0.28337 110.426 68.0122 110.075 68.5789-0.175535 0.28337ZM-2.10642 3.40044C-3.98443 2.2371-4.56378-0.228403-3.40044-2.10642-2.2371-3.98443 0.228403-4.56378 2.10642-3.40044 3.98443-2.2371 4.56378 0.228403 3.40044 2.10642 2.2371 3.98443-0.228403 4.56378-2.10642 3.40044ZM110.251 68.2955 107.823 62.0865 117.052 72.5083 103.611 68.8874Z" fill="#4472C4" transform="matrix(1 0 0 -1 301.5 314.008)"/><path d="M0.0753207-0.324712 109.334 25.0191 109.183 25.6685-0.0753207 0.324712ZM-0.903849 3.89654C-3.05585 3.39736-4.39573 1.24815-3.89654-0.903849-3.39736-3.05585-1.24815-4.39573 0.903849-3.89654 3.05585-3.39736 4.39573-1.24815 3.89654 0.903849 3.39736 3.05585 1.24815 4.39573-0.903849 3.89654ZM109.259 25.3438 104.967 20.2421 117.052 27.1515 103.159 28.0352Z" fill="#4472C4" transform="matrix(1 0 0 -1 301.5 354.652)"/><path d="M301.567 390.174 410.782 412.569 410.648 413.223 301.433 390.827ZM300.697 394.419C298.532 393.975 297.138 391.861 297.582 389.697 298.025 387.532 300.139 386.138 302.304 386.582 304.468 387.025 305.862 389.139 305.419 391.304 304.975 393.468 302.861 394.862 300.697 394.419ZM410.715 412.896 406.294 407.906 418.552 414.503 404.687 415.743Z" fill="#4472C4"/><path d="M301.668 431.212 411.805 495.317 411.47 495.893 301.332 431.788ZM299.488 434.957C297.579 433.846 296.932 431.397 298.043 429.488 299.154 427.579 301.603 426.932 303.512 428.043 305.422 429.154 306.068 431.603 304.957 433.512 303.846 435.422 301.397 436.068 299.488 434.957ZM411.638 495.605 409.04 489.465 418.552 499.629 405.016 496.379Z" fill="#4472C4"/><text fill="#7030A0" font-family="DengXian,DengXian_MSFontService,sans-serif" font-weight="700" font-size="19" transform="translate(465.639 128)">0.0000<tspan x="6.61572" y="99">0.5328</tspan><tspan x="0" y="174">1.0000</tspan><tspan x="-10.4164" y="259">0.2593</tspan><tspan x="-10.5103" y="344">0.0000</tspan><tspan x="286.154" y="108">0. 4791</tspan><tspan x="286.874" y="295">-</tspan><tspan x="296.207" y="295">0.3319</tspan><tspan fill="#000000" font-weight="400" x="610.909" y="205">100</tspan><tspan fill="#000000" font-weight="400" x="640.409" y="205">万</tspan><tspan fill="#000000" font-weight="400" x="219.777" y="27">1.0000</tspan><tspan fill="#000000" font-weight="400" x="219.777" y="390">1.0000</tspan></text><path d="M715.833 166.5 715.833 208.444 715.167 208.444 715.167 166.5ZM719.5 207.111 715.5 215.111 711.5 207.111Z" fill="#4472C4"/><path d="M0.333333-6.27109e-07 0.333426 49.1381-0.333241 49.1381-0.333333 6.27109e-07ZM4.00009 47.8047 0.000104987 55.8047-3.99991 47.8047Z" fill="#4472C4" transform="matrix(1 0 0 -1 715.5 497.305)"/><text fill="#C00000" font-family="DengXian,DengXian_MSFontService,sans-serif" font-weight="700" font-size="19" transform="translate(722.46 189)">-<tspan x="9.33337" y="0">0.2306</tspan><tspan x="5.4585" y="284">0.5828</tspan><tspan x="-161.212" y="17">-</tspan><tspan x="-151.879" y="17">0.2167</tspan><tspan x="-164.927" y="50">-</tspan><tspan x="-155.594" y="50">0.4973</tspan><tspan x="-133.916" y="77">0.4885</tspan><tspan x="-133.916" y="97">-</tspan><tspan x="-124.583" y="97">0.2475</tspan><tspan x="-96.0783" y="120">-</tspan><tspan x="-86.745" y="120">0.2629</tspan><tspan x="-106.104" y="151">0.5388</tspan><tspan x="-149.349" y="178">-</tspan><tspan x="-140.016" y="178">0.5304</tspan><tspan x="-142.944" y="204">-</tspan><tspan x="-133.611" y="204">0.5349</tspan><tspan x="-156.888" y="232">0.3528</tspan><tspan x="-136.899" y="260">0.2434</tspan><tspan x="87.1321" y="105">0.5727</tspan><tspan x="83.4095" y="179">0.3354</tspan><tspan fill="#000000" font-weight="400" x="175.601" y="54">1.0000</tspan></text><path d="M928.833 254.5 928.833 294.29 928.167 294.29 928.167 254.5ZM932.5 292.957 928.5 300.957 924.5 292.957Z" fill="#4472C4"/><text fill="#C00000" font-family="DengXian,DengXian_MSFontService,sans-serif" font-weight="700" font-size="19" transform="translate(930.272 280)">-<tspan x="9.33331" y="0">0.4218</tspan><tspan fill="#000000" font-weight="400" font-size="24" x="-340.34" y="-188">权重</tspan></text><path d="M580.151 85.9885 575.651 86.676 575.899 86.6046 571.586 88.4796 571.773 88.3728 567.711 91.3103 567.85 91.1891 564.225 95.0016 564.327 94.8751 561.264 99.3751 561.341 99.2416 558.966 104.242 559.026 104.081 557.526 109.456 557.557 109.288 556.995 114.851 556.996 114.66 557.496 120.223 557.471 120.075 558.784 125.45 558.737 125.306 560.799 130.306 560.739 130.184 563.364 134.684 563.267 134.546 566.455 138.359 566.33 138.234 569.83 141.172 569.635 141.043 573.385 142.918 573.112 142.828 576.987 143.515 576.94 143.508 578.969 143.77 581.104 144.458 583.126 145.672 585.122 147.202 588.746 151.28 591.951 156.6 594.69 162.779 596.726 169.649 598.108 177.806 596.136 178.14 594.764 170.042 594.791 170.159 592.791 163.409 592.836 163.53 590.148 157.468 590.206 157.579 587.081 152.391 587.19 152.539 583.69 148.602 583.829 148.731 581.954 147.294 582.048 147.357 580.173 146.232 580.38 146.327 578.443 145.702 578.622 145.742 576.661 145.489 572.62 144.772 568.635 142.779 564.977 139.709 561.679 135.764 558.977 131.132 556.859 125.999 555.511 120.477 554.995 114.744 555.576 109.001 557.122 103.461 559.567 98.3137 562.719 93.6825 566.464 89.7439 570.689 86.6886 575.22 84.7186 579.849 84.0115ZM601.025 176.378 597.563 184.625 593.042 176.907Z" fill="#ED7D31"/><path d="M651.027 84.0004 660.183 84.2512 669.428 85.0688 678.545 86.3892 687.66 88.2122 696.71 90.5376 705.635 93.303 714.429 96.5695 723.158 100.212 731.7 104.294 740.114 108.752 748.277 113.587 756.321 118.803 771.692 130.222 786.006 142.841 799.189 156.652 811.111 171.397 816.517 179.066 821.604 186.979 826.253 195.02 830.462 203.187 834.296 211.546 837.628 220.033 840.518 228.641 842.971 237.257 844.858 246.004 846.243 254.814 847.061 263.623 847.138 265.802 845.139 265.873 845.063 263.723 845.067 263.78 844.254 255.03 844.262 255.093 842.887 246.343 842.898 246.398 841.023 237.711 841.038 237.774 838.601 229.211 838.615 229.256 835.74 220.693 835.757 220.74 832.444 212.303 832.466 212.354 828.654 204.042 828.674 204.083 824.486 195.958 824.509 196 819.884 188.001 819.909 188.041 814.846 180.166 814.87 180.201 809.495 172.576 809.535 172.629 797.66 157.941 797.714 158.003 784.589 144.253 784.651 144.313 770.401 131.75 770.466 131.803 755.154 120.428 755.206 120.464 747.206 115.277 747.24 115.298 739.115 110.485 739.157 110.509 730.782 106.071 730.819 106.09 722.319 102.027 722.365 102.048 713.677 98.4229 713.714 98.4374 704.964 95.1874 705.017 95.2052 696.142 92.4552 696.189 92.4685 687.189 90.156 687.241 90.1681 678.179 88.3556 678.232 88.3647 669.169 87.0522 669.224 87.0586 660.037 86.2461 660.098 86.2496 650.973 85.9996ZM850.089 264.363 846.375 272.5 842.094 264.647Z" fill="#ED7D31"/><text font-family="DengXian,DengXian_MSFontService,sans-serif" font-weight="400" font-size="24" transform="translate(826.859 127)">偏离</text><path d="M0.0531164-0.998588 5.98856-0.682873 11.7855 0.336372 17.1985 1.86475 22.1212 3.8466 26.254 6.17129 29.5458 8.87058 31.7371 11.8837 32.4714 14.8875 33.1589 17.7 32.9962 17.3493 34.9962 20.0993 34.8216 19.9142 37.9466 22.4767 37.797 22.3752 41.8595 24.6252 41.7527 24.5741 46.5027 26.5116 46.3967 26.4751 51.7092 27.9751 51.5872 27.9488 56.5072 28.6938 56.2078 30.6712 51.226 29.9169 45.7993 28.3846 40.9424 26.4035 36.7486 24.0808 33.4542 21.3794 31.2629 18.3663 30.5286 15.3625 29.8411 12.55 30.0038 12.9007 28.0038 10.1507 28.1784 10.3358 25.0534 7.77327 25.1972 7.87158 21.1972 5.62158 21.314 5.67764 16.5015 3.74014 16.6033 3.77487 11.2908 2.27487 11.3893 2.29739 5.70183 1.29739 5.82188 1.31109-0.0531164 0.998588ZM55.3695 25.5835 63 30.25 54.6885 33.5545Z" transform="matrix(-1 -8.74228e-08 -8.74228e-08 1 816.992 119)"/><path d="M0.0483305-0.998831 3.98696-0.808252 7.96455-0.102551 11.8648 0.920467 15.6594 2.3354 22.7899 6.09165 29.2381 11.0076 34.6055 16.8222 38.8195 23.3349 40.372 26.828 41.5319 30.3722 42.2431 33.9925 42.4975 37.5538 42.7475 41.0538 42.7312 40.9323 43.4187 44.4323 43.3879 44.314 44.5129 47.7515 44.4735 47.65 45.9735 50.9625 45.9021 50.8317 50.0271 57.2067 49.9223 57.0717 55.1723 62.7592 55.0438 62.6423 61.3563 67.4548 61.2161 67.3653 68.2161 71.0528 68.0994 71.0005 71.7869 72.3755 71.6579 72.3371 76.5362 73.4393 76.0954 75.3902 71.1513 74.273 67.3406 72.8521 60.2101 69.0958 53.7619 64.1799 48.3945 58.3653 44.1824 51.8555 42.6291 48.4253 41.4681 44.8778 40.7569 41.2575 40.5025 37.6962 40.2525 34.1962 40.2687 34.3177 39.5812 30.8177 39.6121 30.936 38.4871 27.4985 38.5237 27.5936 37.0237 24.2186 37.0979 24.3558 32.9729 17.9808 33.0777 18.1158 27.8277 12.4283 27.9562 12.5453 21.6437 7.73275 21.7839 7.82225 14.7839 4.13475 14.9006 4.18698 11.2131 2.81198 11.3088 2.84228 7.49629 1.84228 7.57531 1.85962 3.70031 1.17212 3.82667 1.18633-0.0483305 0.998831ZM75.4551 70.2872 82.9375 75.1875 74.5278 78.2332Z" transform="matrix(-4.37114e-08 1 1 4.37114e-08 853 139)"/><text font-family="DengXian,DengXian_MSFontService,sans-serif" font-weight="400" font-size="24" transform="translate(409.06 635)">输入层<tspan x="273.142" y="1">隐藏</tspan>层<tspan x="482.025" y="0">输出层</tspan><tspan x="660.574" y="-271">估计值</tspan><tspan font-size="16" x="77.0551" y="-600">转换</tspan><tspan font-size="16" x="109.055" y="-600">后的输出</tspan></text><path d="M537.933 44.0857 537.427 49.9698 536.082 55.7355 533.966 61.1213 531.202 65.9419 527.907 70.0119 524.192 73.2054 520.204 75.3326 516.109 76.0476 512.171 76.7351 512.47 76.6324 508.72 78.6324 508.901 78.5083 505.339 81.5708 505.469 81.4357 502.281 85.4357 502.372 85.3011 499.747 89.9886 499.805 89.8656 497.742 95.1156 497.791 94.9512 496.813 99.712 494.854 99.3095 495.849 94.4644 497.968 89.0709 500.666 84.2529 503.963 80.1156 507.681 76.9196 511.67 74.7924 515.765 74.0774 519.702 73.3899 519.404 73.4926 523.154 71.4926 522.972 71.6167 526.535 68.5542 526.409 68.6833 529.597 64.7458 529.507 64.8776 532.194 60.1901 532.131 60.3218 534.193 55.0718 534.15 55.2103 535.463 49.5853 535.44 49.7268 535.94 43.9143ZM499.969 98.6886 494.999 106.125 492.032 97.6873Z" fill="#4472C4"/><text font-family="DengXian,DengXian_MSFontService,sans-serif" font-weight="400" font-size="16" transform="translate(771.258 524)">转换后的输出</text><path d="M0.0380676-0.999275 6.64553-0.747562 13.032 0.0744647 19.0472 1.21418 24.4537 2.80431 29.0681 4.66291 32.7359 6.82427 35.115 9.13546 35.8955 10.5403 36.1114 11.8356 36.2989 12.9606 36.1744 12.618 36.7994 13.6805 36.6446 13.4804 38.8321 15.6679 38.6279 15.5107 42.0654 17.5107 41.9361 17.4474 46.4361 19.2599 46.3447 19.2281 51.6572 20.7906 51.5711 20.7694 57.5086 21.9569 57.4165 21.9429 63.634 22.5934 63.426 24.5825 57.1621 23.9272 51.1354 22.7219 45.7338 21.1332 41.122 19.2756 37.5098 17.174 35.1402 14.8044 34.3566 13.4722 34.1386 12.1644 33.9511 11.0394 34.0633 11.3606 33.4383 10.2356 33.6157 10.4673 31.4282 8.34228 31.6173 8.48654 28.1173 6.42404 28.2514 6.49009 23.7514 4.67759 23.8428 4.70937 18.5303 3.14687 18.6263 3.17002 12.6888 2.04502 12.7473 2.05432 6.43484 1.24182 6.52443 1.24928-0.0380676 0.999275ZM62.4082 19.5235 70.1875 23.9375 61.9888 27.5125Z" fill="#4472C4" transform="matrix(-4.37114e-08 -1 -1 4.37114e-08 821.881 504.15)"/></g></svg>