<?xml version="1.0" encoding="UTF-8" standalone="no"?>
<!DOCTYPE svg PUBLIC "-//W3C//DTD SVG 1.1//EN"
 "http://www.w3.org/Graphics/SVG/1.1/DTD/svg11.dtd">
<!-- Generated by graphviz version 2.38.0 (20140413.2041)
 -->
<!-- Title: %3 Pages: 1 -->
<svg width="302pt" height="170pt"
 viewBox="0.00 0.00 301.89 170.00" xmlns="http://www.w3.org/2000/svg" xmlns:xlink="http://www.w3.org/1999/xlink">
<g id="graph0" class="graph" transform="scale(1 1) rotate(0) translate(4 166)">
<title>%3</title>
<polygon fill="white" stroke="none" points="-4,4 -4,-166 297.892,-166 297.892,4 -4,4"/>
<!-- A -->
<g id="node1" class="node"><title>A</title>
<text text-anchor="middle" x="27" y="-122.3" font-family="STKAITI" font-size="14.00">x1</text>
</g>
<!-- E -->
<g id="node5" class="node"><title>E</title>
<ellipse fill="none" stroke="black" cx="155.446" cy="-72" rx="47.3916" ry="18"/>
<text text-anchor="middle" x="155.446" y="-68.3" font-family="STKAITI" font-size="14.00">输出结点</text>
</g>
<!-- A&#45;&gt;E -->
<g id="edge2" class="edge"><title>A&#45;&gt;E</title>
<path fill="none" stroke="black" d="M54.1996,-114.811C71.4815,-107.431 94.4619,-97.6168 114.06,-89.2472"/>
<polygon fill="black" stroke="black" points="115.548,-92.4178 123.369,-85.2715 112.798,-85.9802 115.548,-92.4178"/>
<text text-anchor="middle" x="81" y="-109.8" font-family="Times New Roman,serif" font-size="14.00">0.3</text>
</g>
<!-- B -->
<g id="node2" class="node"><title>B</title>
<text text-anchor="middle" x="27" y="-68.3" font-family="STKAITI" font-size="14.00">x2</text>
</g>
<!-- B&#45;&gt;E -->
<g id="edge3" class="edge"><title>B&#45;&gt;E</title>
<path fill="none" stroke="black" d="M54.1996,-72C66.7773,-72 82.3734,-72 97.4873,-72"/>
<polygon fill="black" stroke="black" points="97.8307,-75.5001 107.831,-72 97.8306,-68.5001 97.8307,-75.5001"/>
<text text-anchor="middle" x="81" y="-75.8" font-family="Times New Roman,serif" font-size="14.00">0.3</text>
</g>
<!-- C -->
<g id="node3" class="node"><title>C</title>
<text text-anchor="middle" x="27" y="-14.3" font-family="STKAITI" font-size="14.00">x3</text>
</g>
<!-- C&#45;&gt;E -->
<g id="edge4" class="edge"><title>C&#45;&gt;E</title>
<path fill="none" stroke="black" d="M54.1996,-29.1888C71.4815,-36.5692 94.4619,-46.3832 114.06,-54.7528"/>
<polygon fill="black" stroke="black" points="112.798,-58.0198 123.369,-58.7285 115.548,-51.5822 112.798,-58.0198"/>
<text text-anchor="middle" x="81" y="-47.8" font-family="Times New Roman,serif" font-size="14.00">0.3</text>
</g>
<!-- D -->
<g id="node4" class="node"><title>D</title>
<text text-anchor="middle" x="155.446" y="-140.3" font-family="STKAITI" font-size="14.00">t=0.4</text>
</g>
<!-- D&#45;&gt;E -->
<g id="edge1" class="edge"><title>D&#45;&gt;E</title>
<path fill="none" stroke="black" d="M155.446,-125.859C155.446,-117.268 155.446,-108.677 155.446,-100.085"/>
<polygon fill="black" stroke="black" points="158.946,-100 155.446,-90 151.946,-100 158.946,-100"/>
</g>
<!-- F -->
<g id="node6" class="node"><title>F</title>
<text text-anchor="middle" x="266.892" y="-68.3" font-family="STKAITI" font-size="14.00">y</text>
</g>
<!-- E&#45;&gt;F -->
<g id="edge5" class="edge"><title>E&#45;&gt;F</title>
<path fill="none" stroke="black" d="M203.178,-72C212.002,-72 221.109,-72 229.555,-72"/>
<polygon fill="black" stroke="black" points="229.829,-75.5001 239.829,-72 229.829,-68.5001 229.829,-75.5001"/>
</g>
</g>
</svg>
