<?xml version="1.0" encoding="UTF-8" standalone="no"?>
<!DOCTYPE svg PUBLIC "-//W3C//DTD SVG 1.1//EN"
 "http://www.w3.org/Graphics/SVG/1.1/DTD/svg11.dtd">
<!-- Generated by graphviz version 2.38.0 (20140413.2041)
 -->
<!-- Title: %3 Pages: 1 -->
<svg width="314pt" height="142pt"
 viewBox="0.00 0.00 314.00 142.00" xmlns="http://www.w3.org/2000/svg" xmlns:xlink="http://www.w3.org/1999/xlink">
<g id="graph0" class="graph" transform="scale(1 1) rotate(0) translate(4 138)">
<title>%3</title>
<polygon fill="white" stroke="none" points="-4,4 -4,-138 310,-138 310,4 -4,4"/>
<!-- A -->
<g id="node1" class="node"><title>A</title>
<ellipse fill="none" stroke="black" cx="153" cy="-116" rx="39.7935" ry="18"/>
<text text-anchor="middle" x="153" y="-112.3" font-family="STKAITI" font-size="14.00">顾客ID</text>
</g>
<!-- B -->
<g id="node2" class="node"><title>B</title>
<polygon fill="none" stroke="black" points="0,-0.5 0,-46.5 54,-46.5 54,-0.5 0,-0.5"/>
<text text-anchor="middle" x="27" y="-31.3" font-family="STKAITI" font-size="14.00">C0:1</text>
<polyline fill="none" stroke="black" points="0,-23.5 54,-23.5 "/>
<text text-anchor="middle" x="27" y="-8.3" font-family="STKAITI" font-size="14.00">C1:0</text>
</g>
<!-- A&#45;&gt;B -->
<g id="edge3" class="edge"><title>A&#45;&gt;B</title>
<path fill="none" stroke="black" d="M132.756,-100.46C113.88,-86.9022 85.3096,-66.3811 62.6208,-50.0848"/>
<polygon fill="black" stroke="black" points="64.4095,-47.0602 54.2456,-44.0692 60.3258,-52.7457 64.4095,-47.0602"/>
<text text-anchor="middle" x="90.0988" y="-76.1349" font-family="Times New Roman,serif" font-size="14.00">1</text>
</g>
<!-- C -->
<g id="node3" class="node"><title>C</title>
<polygon fill="none" stroke="black" points="90,-0.5 90,-46.5 144,-46.5 144,-0.5 90,-0.5"/>
<text text-anchor="middle" x="117" y="-31.3" font-family="STKAITI" font-size="14.00">C0:1</text>
<polyline fill="none" stroke="black" points="90,-23.5 144,-23.5 "/>
<text text-anchor="middle" x="117" y="-8.3" font-family="STKAITI" font-size="14.00">C1:0</text>
</g>
<!-- A&#45;&gt;C -->
<g id="edge4" class="edge"><title>A&#45;&gt;C</title>
<path fill="none" stroke="black" d="M146.229,-97.9776C141.529,-86.1627 135.128,-70.0729 129.515,-55.9612"/>
<polygon fill="black" stroke="black" points="132.733,-54.5827 125.785,-46.5845 126.229,-57.1701 132.733,-54.5827"/>
<text text-anchor="middle" x="146" y="-68.8" font-family="Times New Roman,serif" font-size="14.00">10</text>
</g>
<!-- D -->
<g id="node4" class="node"><title>D</title>
<polygon fill="none" stroke="black" points="162,-0.5 162,-46.5 216,-46.5 216,-0.5 162,-0.5"/>
<text text-anchor="middle" x="189" y="-31.3" font-family="STKAITI" font-size="14.00">C0:0</text>
<polyline fill="none" stroke="black" points="162,-23.5 216,-23.5 "/>
<text text-anchor="middle" x="189" y="-8.3" font-family="STKAITI" font-size="14.00">C1:1</text>
</g>
<!-- A&#45;&gt;D -->
<g id="edge5" class="edge"><title>A&#45;&gt;D</title>
<path fill="none" stroke="black" d="M159.771,-97.9776C164.471,-86.1627 170.872,-70.0729 176.485,-55.9612"/>
<polygon fill="black" stroke="black" points="179.771,-57.1701 180.215,-46.5845 173.267,-54.5827 179.771,-57.1701"/>
<text text-anchor="middle" x="180" y="-68.8" font-family="Times New Roman,serif" font-size="14.00">11</text>
</g>
<!-- E -->
<g id="node5" class="node"><title>E</title>
<polygon fill="none" stroke="black" points="252,-0.5 252,-46.5 306,-46.5 306,-0.5 252,-0.5"/>
<text text-anchor="middle" x="279" y="-31.3" font-family="STKAITI" font-size="14.00">C0:0</text>
<polyline fill="none" stroke="black" points="252,-23.5 306,-23.5 "/>
<text text-anchor="middle" x="279" y="-8.3" font-family="STKAITI" font-size="14.00">C1:1</text>
</g>
<!-- A&#45;&gt;E -->
<g id="edge6" class="edge"><title>A&#45;&gt;E</title>
<path fill="none" stroke="black" d="M173.244,-100.46C192.12,-86.9022 220.69,-66.3811 243.379,-50.0848"/>
<polygon fill="black" stroke="black" points="245.674,-52.7457 251.754,-44.0692 241.591,-47.0602 245.674,-52.7457"/>
<text text-anchor="middle" x="227" y="-68.8" font-family="Times New Roman,serif" font-size="14.00">20</text>
</g>
<!-- B&#45;&gt;C -->
<g id="edge1" class="edge"><title>B&#45;&gt;C</title>
<path fill="none" stroke="black" stroke-dasharray="1,5" d="M54.0703,-23.5C66.0335,-23.5 77.9967,-23.5 89.9599,-23.5"/>
</g>
<!-- D&#45;&gt;E -->
<g id="edge2" class="edge"><title>D&#45;&gt;E</title>
<path fill="none" stroke="black" stroke-dasharray="1,5" d="M216.07,-23.5C228.034,-23.5 239.997,-23.5 251.96,-23.5"/>
</g>
</g>
</svg>
