<?xml version="1.0" encoding="UTF-8" standalone="no"?>
<!DOCTYPE svg PUBLIC "-//W3C//DTD SVG 1.1//EN"
 "http://www.w3.org/Graphics/SVG/1.1/DTD/svg11.dtd">
<!-- Generated by graphviz version 2.38.0 (20140413.2041)
 -->
<!-- Title: %3 Pages: 1 -->
<svg width="134pt" height="142pt"
 viewBox="0.00 0.00 134.00 142.00" xmlns="http://www.w3.org/2000/svg" xmlns:xlink="http://www.w3.org/1999/xlink">
<g id="graph0" class="graph" transform="scale(1 1) rotate(0) translate(4 138)">
<title>%3</title>
<polygon fill="white" stroke="none" points="-4,4 -4,-138 130,-138 130,4 -4,4"/>
<!-- A -->
<g id="node1" class="node"><title>A</title>
<ellipse fill="none" stroke="black" cx="63" cy="-116" rx="29.4969" ry="18"/>
<text text-anchor="middle" x="63" y="-112.3" font-family="STKAITI" font-size="14.00">性别</text>
</g>
<!-- struct0 -->
<g id="node2" class="node"><title>struct0</title>
<polygon fill="none" stroke="black" points="0,-0.5 0,-46.5 54,-46.5 54,-0.5 0,-0.5"/>
<text text-anchor="middle" x="27" y="-31.3" font-family="STKAITI" font-size="14.00">C0:6</text>
<polyline fill="none" stroke="black" points="0,-23.5 54,-23.5 "/>
<text text-anchor="middle" x="27" y="-8.3" font-family="STKAITI" font-size="14.00">C1:4</text>
</g>
<!-- A&#45;&gt;struct0 -->
<g id="edge1" class="edge"><title>A&#45;&gt;struct0:g0</title>
<path fill="none" stroke="black" d="M49.5949,-99.9851C41.1188,-89.1813 31.1859,-73.6757 28.0218,-57.2854"/>
<polygon fill="black" stroke="black" points="31.4715,-56.605 27,-47 24.5058,-57.2971 31.4715,-56.605"/>
<text text-anchor="middle" x="27.6699" y="-79.3055" font-family="Times New Roman,serif" font-size="14.00">男</text>
</g>
<!-- struct1 -->
<g id="node3" class="node"><title>struct1</title>
<polygon fill="none" stroke="black" points="72,-0.5 72,-46.5 126,-46.5 126,-0.5 72,-0.5"/>
<text text-anchor="middle" x="99" y="-31.3" font-family="STKAITI" font-size="14.00">C0:4</text>
<polyline fill="none" stroke="black" points="72,-23.5 126,-23.5 "/>
<text text-anchor="middle" x="99" y="-8.3" font-family="STKAITI" font-size="14.00">C1:6</text>
</g>
<!-- A&#45;&gt;struct1 -->
<g id="edge2" class="edge"><title>A&#45;&gt;struct1:g2</title>
<path fill="none" stroke="black" d="M76.4051,-99.9851C84.8812,-89.1813 94.8141,-73.6757 97.9782,-57.2854"/>
<polygon fill="black" stroke="black" points="101.494,-57.2971 99,-47 94.5285,-56.605 101.494,-57.2971"/>
<text text-anchor="middle" x="101.5" y="-68.8" font-family="Times New Roman,serif" font-size="14.00">女</text>
</g>
</g>
</svg>
