<?xml version="1.0" encoding="UTF-8" standalone="no"?>
<!DOCTYPE svg PUBLIC "-//W3C//DTD SVG 1.1//EN"
 "http://www.w3.org/Graphics/SVG/1.1/DTD/svg11.dtd">
<!-- Generated by graphviz version 2.38.0 (20140413.2041)
 -->
<!-- Title: %3 Pages: 1 -->
<svg width="206pt" height="142pt"
 viewBox="0.00 0.00 206.00 142.00" xmlns="http://www.w3.org/2000/svg" xmlns:xlink="http://www.w3.org/1999/xlink">
<g id="graph0" class="graph" transform="scale(1 1) rotate(0) translate(4 138)">
<title>%3</title>
<polygon fill="white" stroke="none" points="-4,4 -4,-138 202,-138 202,4 -4,4"/>
<!-- A -->
<g id="node1" class="node"><title>A</title>
<ellipse fill="none" stroke="black" cx="99" cy="-116" rx="29.4969" ry="18"/>
<text text-anchor="middle" x="99" y="-112.3" font-family="STKAITI" font-size="14.00">车型</text>
</g>
<!-- B -->
<g id="node2" class="node"><title>B</title>
<polygon fill="none" stroke="black" points="0,-0.5 0,-46.5 54,-46.5 54,-0.5 0,-0.5"/>
<text text-anchor="middle" x="27" y="-31.3" font-family="STKAITI" font-size="14.00">C0:1</text>
<polyline fill="none" stroke="black" points="0,-23.5 54,-23.5 "/>
<text text-anchor="middle" x="27" y="-8.3" font-family="STKAITI" font-size="14.00">C1:3</text>
</g>
<!-- A&#45;&gt;B -->
<g id="edge1" class="edge"><title>A&#45;&gt;B</title>
<path fill="none" stroke="black" d="M86.4586,-99.2361C76.6681,-86.93 62.7776,-69.4705 50.8843,-54.5213"/>
<polygon fill="black" stroke="black" points="53.4859,-52.1696 44.5211,-46.5231 48.008,-56.5277 53.4859,-52.1696"/>
<text text-anchor="middle" x="52.3726" y="-76.5322" font-family="Times New Roman,serif" font-size="14.00">家用</text>
</g>
<!-- C -->
<g id="node3" class="node"><title>C</title>
<polygon fill="none" stroke="black" points="72,-0.5 72,-46.5 126,-46.5 126,-0.5 72,-0.5"/>
<text text-anchor="middle" x="99" y="-31.3" font-family="STKAITI" font-size="14.00">C0:8</text>
<polyline fill="none" stroke="black" points="72,-23.5 126,-23.5 "/>
<text text-anchor="middle" x="99" y="-8.3" font-family="STKAITI" font-size="14.00">C1:0</text>
</g>
<!-- A&#45;&gt;C -->
<g id="edge2" class="edge"><title>A&#45;&gt;C</title>
<path fill="none" stroke="black" d="M99,-97.9776C99,-86.3899 99,-70.6901 99,-56.7775"/>
<polygon fill="black" stroke="black" points="102.5,-56.5845 99,-46.5845 95.5001,-56.5846 102.5,-56.5845"/>
<text text-anchor="middle" x="112" y="-68.8" font-family="Times New Roman,serif" font-size="14.00">运动</text>
</g>
<!-- D -->
<g id="node4" class="node"><title>D</title>
<polygon fill="none" stroke="black" points="144,-0.5 144,-46.5 198,-46.5 198,-0.5 144,-0.5"/>
<text text-anchor="middle" x="171" y="-31.3" font-family="STKAITI" font-size="14.00">C0:1</text>
<polyline fill="none" stroke="black" points="144,-23.5 198,-23.5 "/>
<text text-anchor="middle" x="171" y="-8.3" font-family="STKAITI" font-size="14.00">C1:7</text>
</g>
<!-- A&#45;&gt;D -->
<g id="edge3" class="edge"><title>A&#45;&gt;D</title>
<path fill="none" stroke="black" d="M112.347,-99.8365C117.619,-93.7419 123.678,-86.6058 129,-80 135.539,-71.8845 142.439,-62.9376 148.715,-54.6407"/>
<polygon fill="black" stroke="black" points="151.536,-56.7122 154.746,-46.6153 145.94,-52.5067 151.536,-56.7122"/>
<text text-anchor="middle" x="152" y="-68.8" font-family="Times New Roman,serif" font-size="14.00">豪华</text>
</g>
</g>
</svg>
