<?xml version="1.0" encoding="UTF-8" standalone="no"?>
<!DOCTYPE svg PUBLIC "-//W3C//DTD SVG 1.1//EN"
 "http://www.w3.org/Graphics/SVG/1.1/DTD/svg11.dtd">
<!-- Generated by graphviz version 2.38.0 (20140413.2041)
 -->
<!-- Title: classification Pages: 1 -->
<svg width="472pt" height="508pt"
 viewBox="0.00 0.00 472.00 508.00" xmlns="http://www.w3.org/2000/svg" xmlns:xlink="http://www.w3.org/1999/xlink">
<g id="graph0" class="graph" transform="scale(1 1) rotate(0) translate(4 504)">
<title>classification</title>
<polygon fill="white" stroke="none" points="-4,4 -4,-504 468,-504 468,4 -4,4"/>
<!-- B0 -->
<g id="node1" class="node"><title>B0</title>
<text text-anchor="middle" x="132.5" y="-14.3" font-family="STKAITI" font-size="14.00">检验集</text>
</g>
<!-- A -->
<g id="node2" class="node"><title>A</title>
<polygon fill="lightblue" stroke="none" points="8.5,-420 8.5,-441 33.5,-441 33.5,-420 8.5,-420"/>
<polygon fill="none" stroke="black" points="8.5,-420 8.5,-441 33.5,-441 33.5,-420 8.5,-420"/>
<text text-anchor="start" x="11.5" y="-426.8" font-family="STKAITI" font-size="14.00">Tid</text>
<polygon fill="lightblue" stroke="none" points="33.5,-420 33.5,-441 82.5,-441 82.5,-420 33.5,-420"/>
<polygon fill="none" stroke="black" points="33.5,-420 33.5,-441 82.5,-441 82.5,-420 33.5,-420"/>
<text text-anchor="start" x="36.5" y="-426.8" font-family="STKAITI" font-size="14.00">有房者</text>
<polygon fill="lightblue" stroke="none" points="82.5,-420 82.5,-441 145.5,-441 145.5,-420 82.5,-420"/>
<polygon fill="none" stroke="black" points="82.5,-420 82.5,-441 145.5,-441 145.5,-420 82.5,-420"/>
<text text-anchor="start" x="85.5" y="-426.8" font-family="STKAITI" font-size="14.00">婚姻状况</text>
<polygon fill="lightblue" stroke="none" points="145.5,-420 145.5,-441 194.5,-441 194.5,-420 145.5,-420"/>
<polygon fill="none" stroke="black" points="145.5,-420 145.5,-441 194.5,-441 194.5,-420 145.5,-420"/>
<text text-anchor="start" x="148.5" y="-426.8" font-family="STKAITI" font-size="14.00">年收入</text>
<polygon fill="lightblue" stroke="none" points="194.5,-420 194.5,-441 257.5,-441 257.5,-420 194.5,-420"/>
<polygon fill="none" stroke="black" points="194.5,-420 194.5,-441 257.5,-441 257.5,-420 194.5,-420"/>
<text text-anchor="start" x="197.5" y="-426.8" font-family="STKAITI" font-size="14.00">拖欠贷款</text>
<polygon fill="none" stroke="black" points="8.5,-399 8.5,-420 33.5,-420 33.5,-399 8.5,-399"/>
<text text-anchor="start" x="17.5" y="-405.8" font-family="STKAITI" font-size="14.00">0</text>
<polygon fill="none" stroke="black" points="33.5,-399 33.5,-420 82.5,-420 82.5,-399 33.5,-399"/>
<text text-anchor="start" x="50.5" y="-405.8" font-family="STKAITI" font-size="14.00">是</text>
<polygon fill="none" stroke="black" points="82.5,-399 82.5,-420 145.5,-420 145.5,-399 82.5,-399"/>
<text text-anchor="start" x="99.5" y="-405.8" font-family="STKAITI" font-size="14.00">单身</text>
<polygon fill="none" stroke="black" points="145.5,-399 145.5,-420 194.5,-420 194.5,-399 145.5,-399"/>
<text text-anchor="start" x="154.5" y="-405.8" font-family="STKAITI" font-size="14.00">125K</text>
<polygon fill="none" stroke="black" points="194.5,-399 194.5,-420 257.5,-420 257.5,-399 194.5,-399"/>
<text text-anchor="start" x="218.5" y="-405.8" font-family="STKAITI" font-size="14.00">否</text>
<polygon fill="none" stroke="black" points="8.5,-378 8.5,-399 33.5,-399 33.5,-378 8.5,-378"/>
<text text-anchor="start" x="17.5" y="-384.8" font-family="STKAITI" font-size="14.00">1</text>
<polygon fill="none" stroke="black" points="33.5,-378 33.5,-399 82.5,-399 82.5,-378 33.5,-378"/>
<text text-anchor="start" x="50.5" y="-384.8" font-family="STKAITI" font-size="14.00">否</text>
<polygon fill="none" stroke="black" points="82.5,-378 82.5,-399 145.5,-399 145.5,-378 82.5,-378"/>
<text text-anchor="start" x="99.5" y="-384.8" font-family="STKAITI" font-size="14.00">已婚</text>
<polygon fill="none" stroke="black" points="145.5,-378 145.5,-399 194.5,-399 194.5,-378 145.5,-378"/>
<text text-anchor="start" x="154.5" y="-384.8" font-family="STKAITI" font-size="14.00">100K</text>
<polygon fill="none" stroke="black" points="194.5,-378 194.5,-399 257.5,-399 257.5,-378 194.5,-378"/>
<text text-anchor="start" x="218.5" y="-384.8" font-family="STKAITI" font-size="14.00">否</text>
<polygon fill="none" stroke="black" points="8.5,-357 8.5,-378 33.5,-378 33.5,-357 8.5,-357"/>
<text text-anchor="start" x="17.5" y="-363.8" font-family="STKAITI" font-size="14.00">2</text>
<polygon fill="none" stroke="black" points="33.5,-357 33.5,-378 82.5,-378 82.5,-357 33.5,-357"/>
<text text-anchor="start" x="50.5" y="-363.8" font-family="STKAITI" font-size="14.00">否</text>
<polygon fill="none" stroke="black" points="82.5,-357 82.5,-378 145.5,-378 145.5,-357 82.5,-357"/>
<text text-anchor="start" x="99.5" y="-363.8" font-family="STKAITI" font-size="14.00">单身</text>
<polygon fill="none" stroke="black" points="145.5,-357 145.5,-378 194.5,-378 194.5,-357 145.5,-357"/>
<text text-anchor="start" x="157.5" y="-363.8" font-family="STKAITI" font-size="14.00">70K</text>
<polygon fill="none" stroke="black" points="194.5,-357 194.5,-378 257.5,-378 257.5,-357 194.5,-357"/>
<text text-anchor="start" x="218.5" y="-363.8" font-family="STKAITI" font-size="14.00">否</text>
<polygon fill="none" stroke="black" points="8.5,-336 8.5,-357 33.5,-357 33.5,-336 8.5,-336"/>
<text text-anchor="start" x="17.5" y="-342.8" font-family="STKAITI" font-size="14.00">3</text>
<polygon fill="none" stroke="black" points="33.5,-336 33.5,-357 82.5,-357 82.5,-336 33.5,-336"/>
<text text-anchor="start" x="50.5" y="-342.8" font-family="STKAITI" font-size="14.00">是</text>
<polygon fill="none" stroke="black" points="82.5,-336 82.5,-357 145.5,-357 145.5,-336 82.5,-336"/>
<text text-anchor="start" x="99.5" y="-342.8" font-family="STKAITI" font-size="14.00">已婚</text>
<polygon fill="none" stroke="black" points="145.5,-336 145.5,-357 194.5,-357 194.5,-336 145.5,-336"/>
<text text-anchor="start" x="154.5" y="-342.8" font-family="STKAITI" font-size="14.00">120K</text>
<polygon fill="none" stroke="black" points="194.5,-336 194.5,-357 257.5,-357 257.5,-336 194.5,-336"/>
<text text-anchor="start" x="218.5" y="-342.8" font-family="STKAITI" font-size="14.00">否</text>
<polygon fill="none" stroke="black" points="8.5,-315 8.5,-336 33.5,-336 33.5,-315 8.5,-315"/>
<text text-anchor="start" x="17.5" y="-321.8" font-family="STKAITI" font-size="14.00">4</text>
<polygon fill="none" stroke="black" points="33.5,-315 33.5,-336 82.5,-336 82.5,-315 33.5,-315"/>
<text text-anchor="start" x="50.5" y="-321.8" font-family="STKAITI" font-size="14.00">否</text>
<polygon fill="none" stroke="black" points="82.5,-315 82.5,-336 145.5,-336 145.5,-315 82.5,-315"/>
<text text-anchor="start" x="99.5" y="-321.8" font-family="STKAITI" font-size="14.00">离异</text>
<polygon fill="none" stroke="black" points="145.5,-315 145.5,-336 194.5,-336 194.5,-315 145.5,-315"/>
<text text-anchor="start" x="157.5" y="-321.8" font-family="STKAITI" font-size="14.00">95K</text>
<polygon fill="sandybrown" stroke="none" points="194.5,-315 194.5,-336 257.5,-336 257.5,-315 194.5,-315"/>
<polygon fill="none" stroke="black" points="194.5,-315 194.5,-336 257.5,-336 257.5,-315 194.5,-315"/>
<text text-anchor="start" x="218.5" y="-321.8" font-family="STKAITI" font-size="14.00">是</text>
<polygon fill="none" stroke="black" points="8.5,-294 8.5,-315 33.5,-315 33.5,-294 8.5,-294"/>
<text text-anchor="start" x="17.5" y="-300.8" font-family="STKAITI" font-size="14.00">5</text>
<polygon fill="none" stroke="black" points="33.5,-294 33.5,-315 82.5,-315 82.5,-294 33.5,-294"/>
<text text-anchor="start" x="50.5" y="-300.8" font-family="STKAITI" font-size="14.00">否</text>
<polygon fill="none" stroke="black" points="82.5,-294 82.5,-315 145.5,-315 145.5,-294 82.5,-294"/>
<text text-anchor="start" x="99.5" y="-300.8" font-family="STKAITI" font-size="14.00">已婚</text>
<polygon fill="none" stroke="black" points="145.5,-294 145.5,-315 194.5,-315 194.5,-294 145.5,-294"/>
<text text-anchor="start" x="157.5" y="-300.8" font-family="STKAITI" font-size="14.00">60K</text>
<polygon fill="none" stroke="black" points="194.5,-294 194.5,-315 257.5,-315 257.5,-294 194.5,-294"/>
<text text-anchor="start" x="218.5" y="-300.8" font-family="STKAITI" font-size="14.00">否</text>
<polygon fill="none" stroke="black" points="8.5,-273 8.5,-294 33.5,-294 33.5,-273 8.5,-273"/>
<text text-anchor="start" x="17.5" y="-279.8" font-family="STKAITI" font-size="14.00">6</text>
<polygon fill="none" stroke="black" points="33.5,-273 33.5,-294 82.5,-294 82.5,-273 33.5,-273"/>
<text text-anchor="start" x="50.5" y="-279.8" font-family="STKAITI" font-size="14.00">是</text>
<polygon fill="none" stroke="black" points="82.5,-273 82.5,-294 145.5,-294 145.5,-273 82.5,-273"/>
<text text-anchor="start" x="99.5" y="-279.8" font-family="STKAITI" font-size="14.00">离异</text>
<polygon fill="none" stroke="black" points="145.5,-273 145.5,-294 194.5,-294 194.5,-273 145.5,-273"/>
<text text-anchor="start" x="154.5" y="-279.8" font-family="STKAITI" font-size="14.00">220K</text>
<polygon fill="none" stroke="black" points="194.5,-273 194.5,-294 257.5,-294 257.5,-273 194.5,-273"/>
<text text-anchor="start" x="218.5" y="-279.8" font-family="STKAITI" font-size="14.00">否</text>
<polygon fill="none" stroke="black" points="8.5,-252 8.5,-273 33.5,-273 33.5,-252 8.5,-252"/>
<text text-anchor="start" x="17.5" y="-258.8" font-family="STKAITI" font-size="14.00">7</text>
<polygon fill="none" stroke="black" points="33.5,-252 33.5,-273 82.5,-273 82.5,-252 33.5,-252"/>
<text text-anchor="start" x="50.5" y="-258.8" font-family="STKAITI" font-size="14.00">否</text>
<polygon fill="none" stroke="black" points="82.5,-252 82.5,-273 145.5,-273 145.5,-252 82.5,-252"/>
<text text-anchor="start" x="99.5" y="-258.8" font-family="STKAITI" font-size="14.00">单身</text>
<polygon fill="none" stroke="black" points="145.5,-252 145.5,-273 194.5,-273 194.5,-252 145.5,-252"/>
<text text-anchor="start" x="157.5" y="-258.8" font-family="STKAITI" font-size="14.00">85K</text>
<polygon fill="sandybrown" stroke="none" points="194.5,-252 194.5,-273 257.5,-273 257.5,-252 194.5,-252"/>
<polygon fill="none" stroke="black" points="194.5,-252 194.5,-273 257.5,-273 257.5,-252 194.5,-252"/>
<text text-anchor="start" x="218.5" y="-258.8" font-family="STKAITI" font-size="14.00">是</text>
<polygon fill="none" stroke="black" points="8.5,-231 8.5,-252 33.5,-252 33.5,-231 8.5,-231"/>
<text text-anchor="start" x="17.5" y="-237.8" font-family="STKAITI" font-size="14.00">8</text>
<polygon fill="none" stroke="black" points="33.5,-231 33.5,-252 82.5,-252 82.5,-231 33.5,-231"/>
<text text-anchor="start" x="50.5" y="-237.8" font-family="STKAITI" font-size="14.00">否</text>
<polygon fill="none" stroke="black" points="82.5,-231 82.5,-252 145.5,-252 145.5,-231 82.5,-231"/>
<text text-anchor="start" x="99.5" y="-237.8" font-family="STKAITI" font-size="14.00">已婚</text>
<polygon fill="none" stroke="black" points="145.5,-231 145.5,-252 194.5,-252 194.5,-231 145.5,-231"/>
<text text-anchor="start" x="157.5" y="-237.8" font-family="STKAITI" font-size="14.00">75K</text>
<polygon fill="none" stroke="black" points="194.5,-231 194.5,-252 257.5,-252 257.5,-231 194.5,-231"/>
<text text-anchor="start" x="218.5" y="-237.8" font-family="STKAITI" font-size="14.00">否</text>
<polygon fill="none" stroke="black" points="8.5,-210 8.5,-231 33.5,-231 33.5,-210 8.5,-210"/>
<text text-anchor="start" x="17.5" y="-216.8" font-family="STKAITI" font-size="14.00">9</text>
<polygon fill="none" stroke="black" points="33.5,-210 33.5,-231 82.5,-231 82.5,-210 33.5,-210"/>
<text text-anchor="start" x="50.5" y="-216.8" font-family="STKAITI" font-size="14.00">否</text>
<polygon fill="none" stroke="black" points="82.5,-210 82.5,-231 145.5,-231 145.5,-210 82.5,-210"/>
<text text-anchor="start" x="99.5" y="-216.8" font-family="STKAITI" font-size="14.00">单身</text>
<polygon fill="none" stroke="black" points="145.5,-210 145.5,-231 194.5,-231 194.5,-210 145.5,-210"/>
<text text-anchor="start" x="157.5" y="-216.8" font-family="STKAITI" font-size="14.00">90K</text>
<polygon fill="sandybrown" stroke="none" points="194.5,-210 194.5,-231 257.5,-231 257.5,-210 194.5,-210"/>
<polygon fill="none" stroke="black" points="194.5,-210 194.5,-231 257.5,-231 257.5,-210 194.5,-210"/>
<text text-anchor="start" x="218.5" y="-216.8" font-family="STKAITI" font-size="14.00">是</text>
</g>
<!-- D -->
<g id="node6" class="node"><title>D</title>
<polygon fill="none" stroke="black" points="374,-307 301,-307 301,-269 374,-269 374,-307"/>
<text text-anchor="middle" x="337.5" y="-291.8" font-family="STKAITI" font-size="14.00">归纳：</text>
<text text-anchor="middle" x="337.5" y="-276.8" font-family="STKAITI" font-size="14.00">学习模型</text>
</g>
<!-- A&#45;&gt;D -->
<g id="edge1" class="edge"><title>A&#45;&gt;D</title>
<path fill="none" stroke="black" d="M265.215,-301.344C274.196,-299.663 282.829,-298.047 290.797,-296.555"/>
<polygon fill="black" stroke="black" points="300.861,-294.671 291.86,-300.934 295.947,-295.591 291.032,-296.511 291.032,-296.511 291.032,-296.511 295.947,-295.591 290.204,-292.088 300.861,-294.671 300.861,-294.671"/>
</g>
<!-- B -->
<g id="node3" class="node"><title>B</title>
<polygon fill="lightblue" stroke="none" points="8.5,-163 8.5,-184 33.5,-184 33.5,-163 8.5,-163"/>
<polygon fill="none" stroke="black" points="8.5,-163 8.5,-184 33.5,-184 33.5,-163 8.5,-163"/>
<text text-anchor="start" x="11.5" y="-169.8" font-family="STKAITI" font-size="14.00">Tid</text>
<polygon fill="lightblue" stroke="none" points="33.5,-163 33.5,-184 82.5,-184 82.5,-163 33.5,-163"/>
<polygon fill="none" stroke="black" points="33.5,-163 33.5,-184 82.5,-184 82.5,-163 33.5,-163"/>
<text text-anchor="start" x="36.5" y="-169.8" font-family="STKAITI" font-size="14.00">有房者</text>
<polygon fill="lightblue" stroke="none" points="82.5,-163 82.5,-184 145.5,-184 145.5,-163 82.5,-163"/>
<polygon fill="none" stroke="black" points="82.5,-163 82.5,-184 145.5,-184 145.5,-163 82.5,-163"/>
<text text-anchor="start" x="85.5" y="-169.8" font-family="STKAITI" font-size="14.00">婚姻状况</text>
<polygon fill="lightblue" stroke="none" points="145.5,-163 145.5,-184 194.5,-184 194.5,-163 145.5,-163"/>
<polygon fill="none" stroke="black" points="145.5,-163 145.5,-184 194.5,-184 194.5,-163 145.5,-163"/>
<text text-anchor="start" x="148.5" y="-169.8" font-family="STKAITI" font-size="14.00">年收入</text>
<polygon fill="lightblue" stroke="none" points="194.5,-163 194.5,-184 257.5,-184 257.5,-163 194.5,-163"/>
<polygon fill="none" stroke="black" points="194.5,-163 194.5,-184 257.5,-184 257.5,-163 194.5,-163"/>
<text text-anchor="start" x="197.5" y="-169.8" font-family="STKAITI" font-size="14.00">拖欠贷款</text>
<polygon fill="none" stroke="black" points="8.5,-142 8.5,-163 33.5,-163 33.5,-142 8.5,-142"/>
<text text-anchor="start" x="14" y="-148.8" font-family="STKAITI" font-size="14.00">10</text>
<polygon fill="none" stroke="black" points="33.5,-142 33.5,-163 82.5,-163 82.5,-142 33.5,-142"/>
<text text-anchor="start" x="50.5" y="-148.8" font-family="STKAITI" font-size="14.00">是</text>
<polygon fill="none" stroke="black" points="82.5,-142 82.5,-163 145.5,-163 145.5,-142 82.5,-142"/>
<text text-anchor="start" x="99.5" y="-148.8" font-family="STKAITI" font-size="14.00">单身</text>
<polygon fill="none" stroke="black" points="145.5,-142 145.5,-163 194.5,-163 194.5,-142 145.5,-142"/>
<text text-anchor="start" x="154.5" y="-148.8" font-family="STKAITI" font-size="14.00">200K</text>
<polygon fill="none" stroke="black" points="194.5,-142 194.5,-163 257.5,-163 257.5,-142 194.5,-142"/>
<text text-anchor="start" x="218.5" y="-148.8" font-family="STKAITI" font-size="14.00">？</text>
<polygon fill="none" stroke="black" points="8.5,-121 8.5,-142 33.5,-142 33.5,-121 8.5,-121"/>
<text text-anchor="start" x="14" y="-127.8" font-family="STKAITI" font-size="14.00">11</text>
<polygon fill="none" stroke="black" points="33.5,-121 33.5,-142 82.5,-142 82.5,-121 33.5,-121"/>
<text text-anchor="start" x="50.5" y="-127.8" font-family="STKAITI" font-size="14.00">否</text>
<polygon fill="none" stroke="black" points="82.5,-121 82.5,-142 145.5,-142 145.5,-121 82.5,-121"/>
<text text-anchor="start" x="99.5" y="-127.8" font-family="STKAITI" font-size="14.00">已婚</text>
<polygon fill="none" stroke="black" points="145.5,-121 145.5,-142 194.5,-142 194.5,-121 145.5,-121"/>
<text text-anchor="start" x="157.5" y="-127.8" font-family="STKAITI" font-size="14.00">80K</text>
<polygon fill="none" stroke="black" points="194.5,-121 194.5,-142 257.5,-142 257.5,-121 194.5,-121"/>
<text text-anchor="start" x="218.5" y="-127.8" font-family="STKAITI" font-size="14.00">？</text>
<polygon fill="none" stroke="black" points="8.5,-100 8.5,-121 33.5,-121 33.5,-100 8.5,-100"/>
<text text-anchor="start" x="14" y="-106.8" font-family="STKAITI" font-size="14.00">12</text>
<polygon fill="none" stroke="black" points="33.5,-100 33.5,-121 82.5,-121 82.5,-100 33.5,-100"/>
<text text-anchor="start" x="50.5" y="-106.8" font-family="STKAITI" font-size="14.00">否</text>
<polygon fill="none" stroke="black" points="82.5,-100 82.5,-121 145.5,-121 145.5,-100 82.5,-100"/>
<text text-anchor="start" x="99.5" y="-106.8" font-family="STKAITI" font-size="14.00">单身</text>
<polygon fill="none" stroke="black" points="145.5,-100 145.5,-121 194.5,-121 194.5,-100 145.5,-100"/>
<text text-anchor="start" x="157.5" y="-106.8" font-family="STKAITI" font-size="14.00">70K</text>
<polygon fill="none" stroke="black" points="194.5,-100 194.5,-121 257.5,-121 257.5,-100 194.5,-100"/>
<text text-anchor="start" x="218.5" y="-106.8" font-family="STKAITI" font-size="14.00">？</text>
<polygon fill="none" stroke="black" points="8.5,-79 8.5,-100 33.5,-100 33.5,-79 8.5,-79"/>
<text text-anchor="start" x="14" y="-85.8" font-family="STKAITI" font-size="14.00">13</text>
<polygon fill="none" stroke="black" points="33.5,-79 33.5,-100 82.5,-100 82.5,-79 33.5,-79"/>
<text text-anchor="start" x="50.5" y="-85.8" font-family="STKAITI" font-size="14.00">是</text>
<polygon fill="none" stroke="black" points="82.5,-79 82.5,-100 145.5,-100 145.5,-79 82.5,-79"/>
<text text-anchor="start" x="99.5" y="-85.8" font-family="STKAITI" font-size="14.00">已婚</text>
<polygon fill="none" stroke="black" points="145.5,-79 145.5,-100 194.5,-100 194.5,-79 145.5,-79"/>
<text text-anchor="start" x="154.5" y="-85.8" font-family="STKAITI" font-size="14.00">100K</text>
<polygon fill="none" stroke="black" points="194.5,-79 194.5,-100 257.5,-100 257.5,-79 194.5,-79"/>
<text text-anchor="start" x="218.5" y="-85.8" font-family="STKAITI" font-size="14.00">？</text>
<polygon fill="none" stroke="black" points="8.5,-58 8.5,-79 33.5,-79 33.5,-58 8.5,-58"/>
<text text-anchor="start" x="14" y="-64.8" font-family="STKAITI" font-size="14.00">14</text>
<polygon fill="none" stroke="black" points="33.5,-58 33.5,-79 82.5,-79 82.5,-58 33.5,-58"/>
<text text-anchor="start" x="50.5" y="-64.8" font-family="STKAITI" font-size="14.00">否</text>
<polygon fill="none" stroke="black" points="82.5,-58 82.5,-79 145.5,-79 145.5,-58 82.5,-58"/>
<text text-anchor="start" x="99.5" y="-64.8" font-family="STKAITI" font-size="14.00">离异</text>
<polygon fill="none" stroke="black" points="145.5,-58 145.5,-79 194.5,-79 194.5,-58 145.5,-58"/>
<text text-anchor="start" x="157.5" y="-64.8" font-family="STKAITI" font-size="14.00">65K</text>
<polygon fill="none" stroke="black" points="194.5,-58 194.5,-79 257.5,-79 257.5,-58 194.5,-58"/>
<text text-anchor="start" x="218.5" y="-64.8" font-family="STKAITI" font-size="14.00">？</text>
</g>
<!-- A0 -->
<g id="node4" class="node"><title>A0</title>
<text text-anchor="middle" x="132.5" y="-478.3" font-family="STKAITI" font-size="14.00">训练集</text>
</g>
<!-- C -->
<g id="node5" class="node"><title>C</title>
<polygon fill="none" stroke="black" points="374,-361 301,-361 301,-325 374,-325 374,-361"/>
<text text-anchor="middle" x="337.5" y="-339.3" font-family="STKAITI" font-size="14.00">学习算法</text>
</g>
<!-- C&#45;&gt;D -->
<g id="edge2" class="edge"><title>C&#45;&gt;D</title>
<path fill="none" stroke="black" d="M337.5,-324.889C337.5,-322.421 337.5,-319.952 337.5,-317.484"/>
<polygon fill="black" stroke="black" points="337.5,-307.336 342,-317.336 337.5,-312.336 337.5,-317.336 337.5,-317.336 337.5,-317.336 337.5,-312.336 333,-317.336 337.5,-307.336 337.5,-307.336"/>
</g>
<!-- F -->
<g id="node8" class="node"><title>F</title>
<polygon fill="none" stroke="black" points="464,-259 461,-263 440,-263 437,-259 410,-259 410,-223 464,-223 464,-259"/>
<text text-anchor="middle" x="437" y="-237.3" font-family="STKAITI" font-size="14.00">模型</text>
</g>
<!-- D&#45;&gt;F -->
<g id="edge3" class="edge"><title>D&#45;&gt;F</title>
<path fill="none" stroke="black" d="M374.252,-270.766C382.873,-266.61 392.079,-262.172 400.68,-258.026"/>
<polygon fill="black" stroke="black" points="409.719,-253.669 402.666,-262.065 405.215,-255.84 400.711,-258.011 400.711,-258.011 400.711,-258.011 405.215,-255.84 398.757,-253.957 409.719,-253.669 409.719,-253.669"/>
</g>
<!-- E -->
<g id="node7" class="node"><title>E</title>
<polygon fill="none" stroke="black" points="374,-214 301,-214 301,-176 374,-176 374,-214"/>
<text text-anchor="middle" x="337.5" y="-198.8" font-family="STKAITI" font-size="14.00">推论：</text>
<text text-anchor="middle" x="337.5" y="-183.8" font-family="STKAITI" font-size="14.00">应用模型</text>
</g>
<!-- E&#45;&gt;B -->
<g id="edge5" class="edge"><title>E&#45;&gt;B</title>
<path fill="none" stroke="black" d="M300.861,-182.009C292.962,-179.129 284.126,-175.908 274.753,-172.491"/>
<polygon fill="black" stroke="black" points="265.215,-169.014 276.152,-168.211 269.913,-170.727 274.61,-172.439 274.61,-172.439 274.61,-172.439 269.913,-170.727 273.069,-176.667 265.215,-169.014 265.215,-169.014"/>
</g>
<!-- F&#45;&gt;E -->
<g id="edge4" class="edge"><title>F&#45;&gt;E</title>
<path fill="none" stroke="black" d="M409.719,-228.601C401.626,-224.783 392.476,-220.466 383.496,-216.229"/>
<polygon fill="black" stroke="black" points="374.252,-211.868 385.216,-212.065 378.774,-214.001 383.296,-216.134 383.296,-216.134 383.296,-216.134 378.774,-214.001 381.376,-220.204 374.252,-211.868 374.252,-211.868"/>
</g>
</g>
</svg>
