<?xml version="1.0" encoding="UTF-8" standalone="no"?>
<!DOCTYPE svg PUBLIC "-//W3C//DTD SVG 1.1//EN"
 "http://www.w3.org/Graphics/SVG/1.1/DTD/svg11.dtd">
<!-- Generated by graphviz version 2.38.0 (20140413.2041)
 -->
<!-- Title: confusionMatrix Pages: 1 -->
<svg width="1040pt" height="360pt"
 viewBox="0.00 0.00 624.00 216.00" xmlns="http://www.w3.org/2000/svg" xmlns:xlink="http://www.w3.org/1999/xlink">
<g id="graph0" class="graph" transform="scale(1.66667 1.66667) rotate(0) translate(4 212)">
<title>confusionMatrix</title>
<polygon fill="white" stroke="none" points="-4,4 -4,-212 620,-212 620,4 -4,4"/>
<!-- B -->
<g id="node1" class="node"><title>B</title>
<polygon fill="none" stroke="black" points="8,-162 8,-204 108,-204 108,-162 8,-162"/>
<polygon fill="lightblue" stroke="none" points="108,-183 108,-204 182,-204 182,-183 108,-183"/>
<polygon fill="none" stroke="black" points="108,-183 108,-204 182,-204 182,-183 108,-183"/>
<text text-anchor="start" x="116.5" y="-189.8" font-family="STKAITI" font-size="14.00">预测的类</text>
<polygon fill="none" stroke="black" points="108,-162 108,-183 145,-183 145,-162 108,-162"/>
<text text-anchor="start" x="111" y="-168.8" font-family="STKAITI" font-size="14.00">类=1</text>
<polygon fill="none" stroke="black" points="145,-162 145,-183 182,-183 182,-162 145,-162"/>
<text text-anchor="start" x="148" y="-168.8" font-family="STKAITI" font-size="14.00">类=0</text>
<polygon fill="sandybrown" stroke="none" points="8,-120 8,-162 71,-162 71,-120 8,-120"/>
<polygon fill="none" stroke="black" points="8,-120 8,-162 71,-162 71,-120 8,-120"/>
<text text-anchor="start" x="11" y="-137.3" font-family="STKAITI" font-size="14.00">实际的类</text>
<polygon fill="none" stroke="black" points="71,-141 71,-162 108,-162 108,-141 71,-141"/>
<text text-anchor="start" x="74" y="-147.8" font-family="STKAITI" font-size="14.00">类=1</text>
<polygon fill="none" stroke="black" points="108,-141 108,-162 145,-162 145,-141 108,-141"/>
<text text-anchor="start" x="114" y="-147.8" font-family="STKAITI" font-size="14.00">f_11</text>
<polygon fill="none" stroke="black" points="145,-141 145,-162 182,-162 182,-141 145,-141"/>
<text text-anchor="start" x="151" y="-147.8" font-family="STKAITI" font-size="14.00">f_10</text>
<polygon fill="none" stroke="black" points="71,-120 71,-141 108,-141 108,-120 71,-120"/>
<text text-anchor="start" x="74" y="-126.8" font-family="STKAITI" font-size="14.00">类=0</text>
<polygon fill="none" stroke="black" points="108,-120 108,-141 145,-141 145,-120 108,-120"/>
<text text-anchor="start" x="114" y="-126.8" font-family="STKAITI" font-size="14.00">f_01</text>
<polygon fill="none" stroke="black" points="145,-120 145,-141 182,-141 182,-120 145,-120"/>
<text text-anchor="start" x="151" y="-126.8" font-family="STKAITI" font-size="14.00">f_00</text>
</g>
</g>
</svg>
