<?xml version="1.0" encoding="UTF-8" standalone="no"?>
<!DOCTYPE svg PUBLIC "-//W3C//DTD SVG 1.1//EN"
 "http://www.w3.org/Graphics/SVG/1.1/DTD/svg11.dtd">
<!-- Generated by graphviz version 2.38.0 (20140413.2041)
 -->
<!-- Title: decisionTreeC Pages: 1 -->
<svg width="365pt" height="305pt"
 viewBox="0.00 0.00 365.00 305.00" xmlns="http://www.w3.org/2000/svg" xmlns:xlink="http://www.w3.org/1999/xlink">
<g id="graph0" class="graph" transform="scale(1 1) rotate(0) translate(4 301)">
<title>decisionTreeC</title>
<polygon fill="white" stroke="none" points="-4,4 -4,-301 361,-301 361,4 -4,4"/>
<!-- A -->
<g id="node1" class="node"><title>A</title>
<ellipse fill="none" stroke="black" cx="146.5" cy="-192" rx="38.1938" ry="18"/>
<text text-anchor="middle" x="146.5" y="-188.3" font-family="STKAITI" font-size="14.00">有房者</text>
</g>
<!-- D -->
<g id="node7" class="node"><title>D</title>
<ellipse fill="none" stroke="black" cx="85.5" cy="-105" rx="38.1938" ry="18"/>
<text text-anchor="middle" x="85.5" y="-101.3" font-family="STKAITI" font-size="14.00">年收入</text>
</g>
<!-- A&#45;&gt;D -->
<g id="edge11" class="edge"><title>A&#45;&gt;D</title>
<path fill="none" stroke="black" d="M134.739,-174.611C125.793,-162.147 113.337,-144.79 103.192,-130.652"/>
<polygon fill="black" stroke="black" points="105.899,-128.422 97.2253,-122.339 100.212,-132.504 105.899,-128.422"/>
<text text-anchor="middle" x="132.5" y="-144.8" font-family="Times New Roman,serif" font-size="14.00">无房</text>
</g>
<!-- E -->
<g id="node8" class="node"><title>E</title>
<polygon fill="lightblue" stroke="lightblue" points="201,-123 142,-123 142,-87 201,-87 201,-123"/>
<text text-anchor="middle" x="171.5" y="-101.3" font-family="STKAITI" font-size="14.00">无拖欠</text>
</g>
<!-- A&#45;&gt;E -->
<g id="edge10" class="edge"><title>A&#45;&gt;E</title>
<path fill="none" stroke="black" d="M150.633,-173.786C153.043,-164.103 156.243,-151.822 159.5,-141 160.333,-138.232 161.244,-135.356 162.18,-132.495"/>
<polygon fill="black" stroke="black" points="165.501,-133.6 165.379,-123.006 158.868,-131.363 165.501,-133.6"/>
<text text-anchor="middle" x="172.5" y="-144.8" font-family="Times New Roman,serif" font-size="14.00">有房</text>
</g>
<!-- A0 -->
<g id="node2" class="node"><title>A0</title>
<text text-anchor="middle" x="36.5" y="-188.3" font-family="STKAITI" font-size="14.00">内部结点</text>
</g>
<!-- A0&#45;&gt;A -->
<g id="edge1" class="edge"><title>A0&#45;&gt;A</title>
<path fill="none" stroke="black" stroke-dasharray="5,2" d="M73.0234,-192C81.3215,-192 89.6196,-192 97.9177,-192"/>
<polygon fill="black" stroke="black" points="98.0396,-195.5 108.04,-192 98.0396,-188.5 98.0396,-195.5"/>
</g>
<!-- A0&#45;&gt;D -->
<g id="edge7" class="edge"><title>A0&#45;&gt;D</title>
<path fill="none" stroke="black" stroke-dasharray="5,2" d="M46.4159,-173.799C53.4141,-161.659 62.9083,-145.19 70.7867,-131.523"/>
<polygon fill="black" stroke="black" points="73.9703,-133.009 75.9323,-122.597 67.9058,-129.513 73.9703,-133.009"/>
</g>
<!-- C -->
<g id="node3" class="node"><title>C</title>
<ellipse fill="none" stroke="black" cx="249.5" cy="-279" rx="47.3916" ry="18"/>
<text text-anchor="middle" x="249.5" y="-275.3" font-family="STKAITI" font-size="14.00">婚姻状况</text>
</g>
<!-- C&#45;&gt;A -->
<g id="edge9" class="edge"><title>C&#45;&gt;A</title>
<path fill="none" stroke="black" d="M230.608,-262.41C214.29,-248.944 190.553,-229.355 172.454,-214.418"/>
<polygon fill="black" stroke="black" points="174.522,-211.587 164.581,-207.921 170.066,-216.986 174.522,-211.587"/>
<text text-anchor="middle" x="231" y="-231.8" font-family="Times New Roman,serif" font-size="14.00">单身/离异</text>
</g>
<!-- B -->
<g id="node6" class="node"><title>B</title>
<polygon fill="lightblue" stroke="lightblue" points="357,-210 298,-210 298,-174 357,-174 357,-210"/>
<text text-anchor="middle" x="327.5" y="-188.3" font-family="STKAITI" font-size="14.00">无拖欠</text>
</g>
<!-- C&#45;&gt;B -->
<g id="edge8" class="edge"><title>C&#45;&gt;B</title>
<path fill="none" stroke="black" d="M264.539,-261.611C275.969,-249.156 291.882,-231.815 304.85,-217.683"/>
<polygon fill="black" stroke="black" points="307.521,-219.948 311.704,-210.214 302.364,-215.215 307.521,-219.948"/>
<text text-anchor="middle" x="305.5" y="-231.8" font-family="Times New Roman,serif" font-size="14.00">已婚</text>
</g>
<!-- C0 -->
<g id="node4" class="node"><title>C0</title>
<text text-anchor="middle" x="137.5" y="-275.3" font-family="STKAITI" font-size="14.00">根结点</text>
</g>
<!-- C0&#45;&gt;C -->
<g id="edge2" class="edge"><title>C0&#45;&gt;C</title>
<path fill="none" stroke="black" stroke-dasharray="5,2" d="M167.25,-279C175.473,-279 183.696,-279 191.919,-279"/>
<polygon fill="black" stroke="black" points="191.949,-282.5 201.949,-279 191.949,-275.5 191.949,-282.5"/>
</g>
<!-- G0 -->
<g id="node5" class="node"><title>G0</title>
<text text-anchor="middle" x="232.5" y="-188.3" font-family="STKAITI" font-size="14.00">叶结点</text>
</g>
<!-- G0&#45;&gt;B -->
<g id="edge5" class="edge"><title>G0&#45;&gt;B</title>
<path fill="none" stroke="black" stroke-dasharray="5,2" d="M262.188,-192C270.745,-192 279.302,-192 287.86,-192"/>
<polygon fill="black" stroke="black" points="287.905,-195.5 297.905,-192 287.905,-188.5 287.905,-195.5"/>
</g>
<!-- G0&#45;&gt;E -->
<g id="edge6" class="edge"><title>G0&#45;&gt;E</title>
<path fill="none" stroke="black" stroke-dasharray="5,2" d="M220.156,-173.799C211.474,-161.702 199.707,-145.305 189.919,-131.667"/>
<polygon fill="black" stroke="black" points="192.5,-129.259 183.826,-123.175 186.813,-133.341 192.5,-129.259"/>
</g>
<!-- F -->
<g id="node9" class="node"><title>F</title>
<polygon fill="lightblue" stroke="lightblue" points="176,-36 117,-36 117,-0 176,-0 176,-36"/>
<text text-anchor="middle" x="146.5" y="-14.3" font-family="STKAITI" font-size="14.00">无拖欠</text>
</g>
<!-- G0&#45;&gt;F -->
<g id="edge3" class="edge"><title>G0&#45;&gt;F</title>
<path fill="none" stroke="black" stroke-dasharray="5,2" d="M234.294,-173.632C236.247,-145.739 236.205,-90.4053 210.5,-54 204.19,-45.0627 194.85,-38.1716 185.244,-32.9634"/>
<polygon fill="black" stroke="black" points="186.565,-29.7135 176.043,-28.4738 183.495,-36.0046 186.565,-29.7135"/>
</g>
<!-- G -->
<g id="node10" class="node"><title>G</title>
<polygon fill="sandybrown" stroke="sandybrown" points="271.5,-36 217.5,-36 217.5,-0 271.5,-0 271.5,-36"/>
<text text-anchor="middle" x="244.5" y="-14.3" font-family="STKAITI" font-size="14.00">拖欠</text>
</g>
<!-- G0&#45;&gt;G -->
<g id="edge4" class="edge"><title>G0&#45;&gt;G</title>
<path fill="none" stroke="black" stroke-dasharray="5,2" d="M239.023,-173.797C240.84,-168.205 242.57,-161.915 243.5,-156 249.434,-118.247 248.313,-73.9175 246.656,-46.1379"/>
<polygon fill="black" stroke="black" points="250.138,-45.7502 245.983,-36.0042 243.153,-46.2142 250.138,-45.7502"/>
</g>
<!-- D&#45;&gt;F -->
<g id="edge12" class="edge"><title>D&#45;&gt;F</title>
<path fill="none" stroke="black" d="M93.1698,-87.1005C98.069,-77.0721 104.913,-64.34 112.5,-54 115.037,-50.5423 117.9,-47.0834 120.862,-43.759"/>
<polygon fill="black" stroke="black" points="123.558,-46.0003 127.842,-36.3101 118.45,-41.214 123.558,-46.0003"/>
<text text-anchor="middle" x="128.5" y="-57.8" font-family="Times New Roman,serif" font-size="14.00">&lt;80K</text>
</g>
<!-- D&#45;&gt;G -->
<g id="edge13" class="edge"><title>D&#45;&gt;G</title>
<path fill="none" stroke="black" d="M109.995,-90.905C136.284,-76.8515 178.311,-54.384 208.391,-38.3037"/>
<polygon fill="black" stroke="black" points="210.143,-41.3359 217.312,-33.5347 206.843,-35.1626 210.143,-41.3359"/>
<text text-anchor="middle" x="190.5" y="-57.8" font-family="Times New Roman,serif" font-size="14.00">&gt;80K</text>
</g>
</g>
</svg>
