<?xml version="1.0" encoding="UTF-8" standalone="no"?>
<!DOCTYPE svg PUBLIC "-//W3C//DTD SVG 1.1//EN"
 "http://www.w3.org/Graphics/SVG/1.1/DTD/svg11.dtd">
<!-- Generated by graphviz version 2.38.0 (20140413.2041)
 -->
<!-- Title: decisionTree Pages: 1 -->
<svg width="205pt" height="378pt"
 viewBox="0.00 0.00 205.00 378.00" xmlns="http://www.w3.org/2000/svg" xmlns:xlink="http://www.w3.org/1999/xlink">
<g id="graph0" class="graph" transform="scale(1 1) rotate(0) translate(4 374)">
<title>decisionTree</title>
<polygon fill="white" stroke="none" points="-4,4 -4,-374 201,-374 201,4 -4,4"/>
<!-- A0 -->
<g id="node1" class="node"><title>A0</title>
<text text-anchor="middle" x="107.5" y="-348.3" font-family="STKAITI" font-size="14.00">区分属性</text>
</g>
<!-- A -->
<g id="node2" class="node"><title>A</title>
<ellipse fill="none" stroke="black" cx="58.5" cy="-279" rx="38.1938" ry="18"/>
<text text-anchor="middle" x="58.5" y="-275.3" font-family="STKAITI" font-size="14.00">有房者</text>
</g>
<!-- A0&#45;&gt;A -->
<g id="edge1" class="edge"><title>A0&#45;&gt;A</title>
<path fill="none" stroke="black" stroke-dasharray="5,2" d="M95.6385,-333.813C89.6533,-325.141 82.2825,-314.46 75.6892,-304.907"/>
<polygon fill="black" stroke="black" points="78.4756,-302.782 69.9149,-296.54 72.7144,-306.758 78.4756,-302.782"/>
</g>
<!-- C -->
<g id="node4" class="node"><title>C</title>
<ellipse fill="none" stroke="black" cx="124.5" cy="-192" rx="47.3916" ry="18"/>
<text text-anchor="middle" x="124.5" y="-188.3" font-family="STKAITI" font-size="14.00">婚姻状况</text>
</g>
<!-- A0&#45;&gt;C -->
<g id="edge2" class="edge"><title>A0&#45;&gt;C</title>
<path fill="none" stroke="black" stroke-dasharray="5,2" d="M109.352,-333.79C112.29,-306.485 118.045,-252.994 121.554,-220.38"/>
<polygon fill="black" stroke="black" points="125.061,-220.505 122.651,-210.188 118.101,-219.756 125.061,-220.505"/>
</g>
<!-- B -->
<g id="node3" class="node"><title>B</title>
<polygon fill="lightblue" stroke="lightblue" points="59,-210 0,-210 0,-174 59,-174 59,-210"/>
<text text-anchor="middle" x="29.5" y="-188.3" font-family="STKAITI" font-size="14.00">无拖欠</text>
</g>
<!-- A&#45;&gt;B -->
<g id="edge3" class="edge"><title>A&#45;&gt;B</title>
<path fill="none" stroke="black" d="M52.6319,-260.913C50.6782,-255.217 48.4925,-248.836 46.5,-243 43.9337,-235.484 41.1577,-227.329 38.6077,-219.829"/>
<polygon fill="black" stroke="black" points="41.8427,-218.47 35.3115,-210.128 35.2149,-220.722 41.8427,-218.47"/>
<text text-anchor="middle" x="53" y="-231.8" font-family="Times New Roman,serif" font-size="14.00">是</text>
</g>
<!-- A&#45;&gt;C -->
<g id="edge4" class="edge"><title>A&#45;&gt;C</title>
<path fill="none" stroke="black" d="M71.2255,-261.611C80.8418,-249.226 94.2083,-232.012 105.147,-217.925"/>
<polygon fill="black" stroke="black" points="108.22,-219.674 111.588,-209.629 102.691,-215.381 108.22,-219.674"/>
<text text-anchor="middle" x="102" y="-231.8" font-family="Times New Roman,serif" font-size="14.00">否</text>
</g>
<!-- D -->
<g id="node5" class="node"><title>D</title>
<ellipse fill="none" stroke="black" cx="81.5" cy="-105" rx="38.1938" ry="18"/>
<text text-anchor="middle" x="81.5" y="-101.3" font-family="STKAITI" font-size="14.00">年收入</text>
</g>
<!-- C&#45;&gt;D -->
<g id="edge5" class="edge"><title>C&#45;&gt;D</title>
<path fill="none" stroke="black" d="M105.257,-175.201C99.6888,-169.684 94.1383,-163.083 90.5,-156 86.8983,-148.988 84.7145,-140.778 83.3976,-133.061"/>
<polygon fill="black" stroke="black" points="86.8498,-132.466 82.0873,-123.002 79.9084,-133.37 86.8498,-132.466"/>
<text text-anchor="middle" x="118" y="-144.8" font-family="Times New Roman,serif" font-size="14.00">单身/离异</text>
</g>
<!-- E -->
<g id="node6" class="node"><title>E</title>
<polygon fill="lightblue" stroke="lightblue" points="197,-123 138,-123 138,-87 197,-87 197,-123"/>
<text text-anchor="middle" x="167.5" y="-101.3" font-family="STKAITI" font-size="14.00">无拖欠</text>
</g>
<!-- C&#45;&gt;E -->
<g id="edge6" class="edge"><title>C&#45;&gt;E</title>
<path fill="none" stroke="black" d="M135.192,-174.155C138.639,-168.474 142.374,-162.042 145.5,-156 149.361,-148.538 153.184,-140.252 156.534,-132.607"/>
<polygon fill="black" stroke="black" points="159.768,-133.946 160.49,-123.375 153.334,-131.188 159.768,-133.946"/>
<text text-anchor="middle" x="166.5" y="-144.8" font-family="Times New Roman,serif" font-size="14.00">已婚</text>
</g>
<!-- F -->
<g id="node7" class="node"><title>F</title>
<polygon fill="lightblue" stroke="lightblue" points="74,-36 15,-36 15,-0 74,-0 74,-36"/>
<text text-anchor="middle" x="44.5" y="-14.3" font-family="STKAITI" font-size="14.00">无拖欠</text>
</g>
<!-- D&#45;&gt;F -->
<g id="edge7" class="edge"><title>D&#45;&gt;F</title>
<path fill="none" stroke="black" d="M73.7435,-87.3129C71.0901,-81.5311 68.1291,-74.9965 65.5,-69 62.1879,-61.4457 58.6832,-53.206 55.5058,-45.6349"/>
<polygon fill="black" stroke="black" points="58.6419,-44.0618 51.5609,-36.1808 52.1818,-46.7574 58.6419,-44.0618"/>
<text text-anchor="middle" x="81.5" y="-57.8" font-family="Times New Roman,serif" font-size="14.00">&lt;80K</text>
</g>
<!-- G -->
<g id="node8" class="node"><title>G</title>
<polygon fill="sandybrown" stroke="sandybrown" points="146.5,-36 92.5,-36 92.5,-0 146.5,-0 146.5,-36"/>
<text text-anchor="middle" x="119.5" y="-14.3" font-family="STKAITI" font-size="14.00">拖欠</text>
</g>
<!-- D&#45;&gt;G -->
<g id="edge8" class="edge"><title>D&#45;&gt;G</title>
<path fill="none" stroke="black" d="M89.1988,-87.2873C91.8476,-81.5034 94.8203,-74.9741 97.5,-69 100.939,-61.3339 104.632,-52.9856 107.992,-45.3454"/>
<polygon fill="black" stroke="black" points="111.213,-46.7149 112.026,-36.1512 104.803,-43.9026 111.213,-46.7149"/>
<text text-anchor="middle" x="120.5" y="-57.8" font-family="Times New Roman,serif" font-size="14.00">&gt;80K</text>
</g>
</g>
</svg>
