<?xml version="1.0" encoding="UTF-8" standalone="no"?>
<!DOCTYPE svg PUBLIC "-//W3C//DTD SVG 1.1//EN"
 "http://www.w3.org/Graphics/SVG/1.1/DTD/svg11.dtd">
<!-- Generated by graphviz version 2.38.0 (20140413.2041)
 -->
<!-- Title: %3 Pages: 1 -->
<svg width="238pt" height="303pt"
 viewBox="0.00 0.00 238.00 303.00" xmlns="http://www.w3.org/2000/svg" xmlns:xlink="http://www.w3.org/1999/xlink">
<g id="graph0" class="graph" transform="scale(1 1) rotate(0) translate(4 299)">
<title>%3</title>
<polygon fill="white" stroke="none" points="-4,4 -4,-299 234,-299 234,4 -4,4"/>
<!-- A -->
<g id="node1" class="node"><title>A</title>
<polygon fill="none" stroke="black" points="137.5,-295 92.5,-295 92.5,-250 137.5,-250 137.5,-295"/>
<text text-anchor="middle" x="115" y="-268.8" font-family="STKAITI" font-size="14.00">开始</text>
</g>
<!-- B -->
<g id="node2" class="node"><title>B</title>
<polygon fill="none" stroke="black" points="88,-144.5 88,-213.5 142,-213.5 142,-144.5 88,-144.5"/>
<text text-anchor="middle" x="115" y="-198.3" font-family="STKAITI" font-size="14.00"> </text>
<polyline fill="none" stroke="black" points="88,-190.5 142,-190.5 "/>
<text text-anchor="middle" x="115" y="-175.3" font-family="STKAITI" font-size="14.00"> </text>
<polyline fill="none" stroke="black" points="88,-167.5 142,-167.5 "/>
<text text-anchor="middle" x="115" y="-152.3" font-family="STKAITI" font-size="14.00"> </text>
</g>
<!-- A&#45;&gt;B -->
<g id="edge1" class="edge"><title>A&#45;&gt;B</title>
<path fill="none" stroke="black" d="M115,-249.816C115,-241.983 115,-232.834 115,-223.788"/>
<polygon fill="black" stroke="black" points="118.5,-223.694 115,-213.694 111.5,-223.694 118.5,-223.694"/>
</g>
<!-- C -->
<g id="node3" class="node"><title>C</title>
<polygon fill="none" stroke="black" points="209,-108 21,-108 21,-72 209,-72 209,-108"/>
<text text-anchor="middle" x="115" y="-86.3" font-family="STKAITI" font-size="14.00">选择哪个属性作为测试条件</text>
</g>
<!-- B&#45;&gt;C -->
<g id="edge2" class="edge"><title>B&#45;&gt;C</title>
<path fill="none" stroke="black" d="M115,-144.114C115,-135.622 115,-126.615 115,-118.477"/>
<polygon fill="black" stroke="black" points="118.5,-118.397 115,-108.397 111.5,-118.397 118.5,-118.397"/>
</g>
<!-- D -->
<g id="node4" class="node"><title>D</title>
<polygon fill="none" stroke="black" points="230,-36 0,-36 0,-0 230,-0 230,-36"/>
<text text-anchor="middle" x="115" y="-14.3" font-family="STKAITI" font-size="14.00">使用分类函数确定叶结点的类标签</text>
</g>
<!-- C&#45;&gt;D -->
<g id="edge3" class="edge"><title>C&#45;&gt;D</title>
<path fill="none" stroke="black" d="M115,-71.6966C115,-63.9827 115,-54.7125 115,-46.1124"/>
<polygon fill="black" stroke="black" points="118.5,-46.1043 115,-36.1043 111.5,-46.1044 118.5,-46.1043"/>
</g>
</g>
</svg>
