<?xml version="1.0" encoding="UTF-8" standalone="no"?>
<!DOCTYPE svg PUBLIC "-//W3C//DTD SVG 1.1//EN"
 "http://www.w3.org/Graphics/SVG/1.1/DTD/svg11.dtd">
<!-- Generated by graphviz version 2.38.0 (20140413.2041)
 -->
<!-- Title: incomeMulti Pages: 1 -->
<svg width="428pt" height="131pt"
 viewBox="0.00 0.00 428.00 131.00" xmlns="http://www.w3.org/2000/svg" xmlns:xlink="http://www.w3.org/1999/xlink">
<g id="graph0" class="graph" transform="scale(1 1) rotate(0) translate(4 127)">
<title>incomeMulti</title>
<polygon fill="white" stroke="none" points="-4,4 -4,-127 424,-127 424,4 -4,4"/>
<!-- A -->
<g id="node1" class="node"><title>A</title>
<ellipse fill="none" stroke="black" cx="210" cy="-105" rx="38.1938" ry="18"/>
<text text-anchor="middle" x="210" y="-101.3" font-family="STKAITI" font-size="14.00">年收入</text>
</g>
<!-- B -->
<g id="node2" class="node"><title>B</title>
</g>
<!-- A&#45;&gt;B -->
<g id="edge4" class="edge"><title>A&#45;&gt;B</title>
<path fill="none" stroke="black" d="M183.682,-91.9018C156.028,-79.1725 111.031,-58.4141 63.3621,-36.1538"/>
<polygon fill="black" stroke="black" points="64.6574,-32.8958 54.116,-31.8328 61.6937,-39.2375 64.6574,-32.8958"/>
<text text-anchor="middle" x="102.647" y="-65.6682" font-family="Times New Roman,serif" font-size="14.00">&lt;10K</text>
</g>
<!-- C -->
<g id="node3" class="node"><title>C</title>
<text text-anchor="middle" x="112" y="-14.3" font-family="STKAITI" font-size="14.00">[10K, 25K)</text>
</g>
<!-- A&#45;&gt;C -->
<g id="edge1" class="edge"><title>A&#45;&gt;C</title>
<path fill="none" stroke="black" d="M192.48,-88.8037C177.813,-76.0823 156.62,-57.7009 139.663,-42.9938"/>
<polygon fill="black" stroke="black" points="141.574,-40.0182 131.727,-36.1099 136.988,-45.3062 141.574,-40.0182"/>
</g>
<!-- D -->
<g id="node4" class="node"><title>D</title>
<text text-anchor="middle" x="210" y="-14.3" font-family="STKAITI" font-size="14.00">[25K, 50K)</text>
</g>
<!-- A&#45;&gt;D -->
<g id="edge2" class="edge"><title>A&#45;&gt;D</title>
<path fill="none" stroke="black" d="M210,-86.799C210,-75.1626 210,-59.5479 210,-46.2368"/>
<polygon fill="black" stroke="black" points="213.5,-46.1754 210,-36.1754 206.5,-46.1755 213.5,-46.1754"/>
</g>
<!-- E -->
<g id="node5" class="node"><title>E</title>
<text text-anchor="middle" x="308" y="-14.3" font-family="STKAITI" font-size="14.00">[50K, 80K)</text>
</g>
<!-- A&#45;&gt;E -->
<g id="edge3" class="edge"><title>A&#45;&gt;E</title>
<path fill="none" stroke="black" d="M227.52,-88.8037C242.187,-76.0823 263.38,-57.7009 280.337,-42.9938"/>
<polygon fill="black" stroke="black" points="283.012,-45.3062 288.273,-36.1099 278.426,-40.0182 283.012,-45.3062"/>
</g>
<!-- F -->
<g id="node6" class="node"><title>F</title>
</g>
<!-- A&#45;&gt;F -->
<g id="edge5" class="edge"><title>A&#45;&gt;F</title>
<path fill="none" stroke="black" d="M236.318,-91.9018C263.972,-79.1725 308.969,-58.4141 356.638,-36.1538"/>
<polygon fill="black" stroke="black" points="358.306,-39.2375 365.884,-31.8328 355.343,-32.8958 358.306,-39.2375"/>
<text text-anchor="middle" x="336" y="-57.8" font-family="Times New Roman,serif" font-size="14.00">&gt;=80K</text>
</g>
</g>
</svg>
