<?xml version="1.0" encoding="UTF-8" standalone="no"?>
<!DOCTYPE svg PUBLIC "-//W3C//DTD SVG 1.1//EN"
 "http://www.w3.org/Graphics/SVG/1.1/DTD/svg11.dtd">
<!-- Generated by graphviz version 2.38.0 (20140413.2041)
 -->
<!-- Title: %3 Pages: 1 -->
<svg width="733pt" height="242pt"
 viewBox="0.00 0.00 732.59 241.74" xmlns="http://www.w3.org/2000/svg" xmlns:xlink="http://www.w3.org/1999/xlink">
<g id="graph0" class="graph" transform="scale(1 1) rotate(0) translate(4 237.74)">
<title>%3</title>
<polygon fill="white" stroke="none" points="-4,4 -4,-237.74 728.588,-237.74 728.588,4 -4,4"/>
<!-- A -->
<g id="node1" class="node"><title>A</title>
<text text-anchor="middle" x="51" y="-113.17" font-family="STKAITI" font-size="14.00">模型选择方法</text>
</g>
<!-- B -->
<g id="node2" class="node"><title>B</title>
<ellipse fill="none" stroke="black" cx="204.294" cy="-206.87" rx="51.7379" ry="26.7407"/>
<text text-anchor="middle" x="204.294" y="-210.67" font-family="STKAITI" font-size="14.00">保持方法</text>
<text text-anchor="middle" x="204.294" y="-195.67" font-family="STKAITI" font-size="14.00"> Holdout</text>
</g>
<!-- A&#45;&gt;B -->
<g id="edge1" class="edge"><title>A&#45;&gt;B</title>
<path fill="none" stroke="black" d="M80.0278,-135.032C96.7197,-145.707 118.404,-159.328 138,-170.87 144.745,-174.842 151.946,-178.947 159.012,-182.899"/>
<polygon fill="black" stroke="black" points="157.403,-186.009 167.845,-187.803 160.801,-179.889 157.403,-186.009"/>
</g>
<!-- C -->
<g id="node4" class="node"><title>C</title>
<ellipse fill="none" stroke="black" cx="204.294" cy="-143.87" rx="66.0889" ry="18"/>
<text text-anchor="middle" x="204.294" y="-140.17" font-family="STKAITI" font-size="14.00">随机二次抽样</text>
</g>
<!-- A&#45;&gt;C -->
<g id="edge2" class="edge"><title>A&#45;&gt;C</title>
<path fill="none" stroke="black" d="M102.379,-125.861C113.93,-127.922 126.369,-130.142 138.434,-132.295"/>
<polygon fill="black" stroke="black" points="137.993,-135.772 148.453,-134.083 139.223,-128.881 137.993,-135.772"/>
</g>
<!-- D -->
<g id="node6" class="node"><title>D</title>
<ellipse fill="none" stroke="black" cx="204.294" cy="-89.8701" rx="47.3916" ry="18"/>
<text text-anchor="middle" x="204.294" y="-86.1701" font-family="STKAITI" font-size="14.00">交叉验证</text>
</g>
<!-- A&#45;&gt;D -->
<g id="edge3" class="edge"><title>A&#45;&gt;D</title>
<path fill="none" stroke="black" d="M102.379,-107.879C117.892,-105.111 135.007,-102.057 150.667,-99.262"/>
<polygon fill="black" stroke="black" points="151.487,-102.671 160.716,-97.4685 150.257,-95.7799 151.487,-102.671"/>
</g>
<!-- E -->
<g id="node7" class="node"><title>E</title>
<ellipse fill="none" stroke="black" cx="204.294" cy="-26.8701" rx="53.066" ry="26.7407"/>
<text text-anchor="middle" x="204.294" y="-30.6701" font-family="STKAITI" font-size="14.00">自助法</text>
<text text-anchor="middle" x="204.294" y="-15.6701" font-family="STKAITI" font-size="14.00"> bootstrap</text>
</g>
<!-- A&#45;&gt;E -->
<g id="edge4" class="edge"><title>A&#45;&gt;E</title>
<path fill="none" stroke="black" d="M80.0278,-98.7081C96.7197,-88.0335 118.404,-74.4119 138,-62.8701 144.441,-59.0762 151.299,-55.1621 158.058,-51.3749"/>
<polygon fill="black" stroke="black" points="160.125,-54.2304 167.165,-46.3126 156.724,-48.1122 160.125,-54.2304"/>
</g>
<!-- B1 -->
<g id="node3" class="node"><title>B1</title>
<text text-anchor="middle" x="515.588" y="-203.17" font-family="STKAITI" font-size="14.00">分成训练集与检验集，用检验集评估模型性能</text>
</g>
<!-- B&#45;&gt;B1 -->
<g id="edge5" class="edge"><title>B&#45;&gt;B1</title>
<path fill="none" stroke="black" d="M256.021,-206.87C283.435,-206.87 318.958,-206.87 354.847,-206.87"/>
<polygon fill="black" stroke="black" points="354.973,-210.37 364.973,-206.87 354.973,-203.37 354.973,-210.37"/>
</g>
<!-- C1 -->
<g id="node5" class="node"><title>C1</title>
<text text-anchor="middle" x="515.588" y="-140.17" font-family="STKAITI" font-size="14.00">多次应用“保持方法”,但未控制每个记录用于训练与检验的次数</text>
</g>
<!-- C&#45;&gt;C1 -->
<g id="edge6" class="edge"><title>C&#45;&gt;C1</title>
<path fill="none" stroke="black" d="M270.887,-143.87C278.94,-143.87 287.481,-143.87 296.36,-143.87"/>
<polygon fill="black" stroke="black" points="296.522,-147.37 306.522,-143.87 296.522,-140.37 296.522,-147.37"/>
</g>
</g>
</svg>
