<?xml version="1.0" encoding="UTF-8" standalone="no"?>
<!DOCTYPE svg PUBLIC "-//W3C//DTD SVG 1.1//EN"
 "http://www.w3.org/Graphics/SVG/1.1/DTD/svg11.dtd">
<!-- Generated by graphviz version 2.38.0 (20140413.2041)
 -->
<!-- Title: nameFeatureBinary Pages: 1 -->
<svg width="542pt" height="116pt"
 viewBox="0.00 0.00 542.00 116.00" xmlns="http://www.w3.org/2000/svg" xmlns:xlink="http://www.w3.org/1999/xlink">
<g id="graph0" class="graph" transform="scale(1 1) rotate(0) translate(4 112)">
<title>nameFeatureBinary</title>
<polygon fill="white" stroke="none" points="-4,4 -4,-112 538,-112 538,4 -4,4"/>
<!-- A -->
<g id="node1" class="node"><title>A</title>
<ellipse fill="none" stroke="black" cx="62" cy="-90" rx="47.3916" ry="18"/>
<text text-anchor="middle" x="62" y="-86.3" font-family="STKAITI" font-size="14.00">婚姻状况</text>
</g>
<!-- B -->
<g id="node2" class="node"><title>B</title>
<text text-anchor="middle" x="27" y="-14.3" font-family="STKAITI" font-size="14.00">单身</text>
</g>
<!-- A&#45;&gt;B -->
<g id="edge1" class="edge"><title>A&#45;&gt;B</title>
<path fill="none" stroke="black" d="M53.5275,-72.055C49.5034,-64.0067 44.6023,-54.2046 40.1129,-45.2259"/>
<polygon fill="black" stroke="black" points="35.6376,-36.2753 44.1348,-43.2071 37.8737,-40.7474 40.1098,-45.2196 40.1098,-45.2196 40.1098,-45.2196 37.8737,-40.7474 36.0849,-47.2321 35.6376,-36.2753 35.6376,-36.2753"/>
</g>
<!-- C -->
<g id="node3" class="node"><title>C</title>
<text text-anchor="middle" x="119" y="-14.3" font-family="STKAITI" font-size="14.00">{离异, 已婚}</text>
</g>
<!-- A&#45;&gt;C -->
<g id="edge2" class="edge"><title>A&#45;&gt;C</title>
<path fill="none" stroke="black" d="M75.5082,-72.411C82.3322,-64.0307 90.7591,-53.6818 98.3727,-44.3317"/>
<polygon fill="black" stroke="black" points="104.793,-36.4468 101.969,-47.0426 101.636,-40.324 98.479,-44.2012 98.479,-44.2012 98.479,-44.2012 101.636,-40.324 94.9896,-41.3597 104.793,-36.4468 104.793,-36.4468"/>
</g>
<!-- D -->
<g id="node4" class="node"><title>D</title>
<ellipse fill="none" stroke="black" cx="246" cy="-90" rx="47.3916" ry="18"/>
<text text-anchor="middle" x="246" y="-86.3" font-family="STKAITI" font-size="14.00">婚姻状况</text>
</g>
<!-- E -->
<g id="node5" class="node"><title>E</title>
<text text-anchor="middle" x="211" y="-14.3" font-family="STKAITI" font-size="14.00">已婚</text>
</g>
<!-- D&#45;&gt;E -->
<g id="edge3" class="edge"><title>D&#45;&gt;E</title>
<path fill="none" stroke="black" d="M237.527,-72.055C233.503,-64.0067 228.602,-54.2046 224.113,-45.2259"/>
<polygon fill="black" stroke="black" points="219.638,-36.2753 228.135,-43.2071 221.874,-40.7474 224.11,-45.2196 224.11,-45.2196 224.11,-45.2196 221.874,-40.7474 220.085,-47.2321 219.638,-36.2753 219.638,-36.2753"/>
</g>
<!-- F -->
<g id="node6" class="node"><title>F</title>
<text text-anchor="middle" x="303" y="-14.3" font-family="STKAITI" font-size="14.00">{单身, 离异}</text>
</g>
<!-- D&#45;&gt;F -->
<g id="edge4" class="edge"><title>D&#45;&gt;F</title>
<path fill="none" stroke="black" d="M259.508,-72.411C266.332,-64.0307 274.759,-53.6818 282.373,-44.3317"/>
<polygon fill="black" stroke="black" points="288.793,-36.4468 285.969,-47.0426 285.636,-40.324 282.479,-44.2012 282.479,-44.2012 282.479,-44.2012 285.636,-40.324 278.99,-41.3597 288.793,-36.4468 288.793,-36.4468"/>
</g>
<!-- H -->
<g id="node7" class="node"><title>H</title>
<ellipse fill="none" stroke="black" cx="441" cy="-90" rx="47.3916" ry="18"/>
<text text-anchor="middle" x="441" y="-86.3" font-family="STKAITI" font-size="14.00">婚姻状况</text>
</g>
<!-- I -->
<g id="node8" class="node"><title>I</title>
<text text-anchor="middle" x="395" y="-14.3" font-family="STKAITI" font-size="14.00">离异</text>
</g>
<!-- H&#45;&gt;I -->
<g id="edge5" class="edge"><title>H&#45;&gt;I</title>
<path fill="none" stroke="black" d="M430.099,-72.411C424.703,-64.2 418.065,-54.0991 412.02,-44.8996"/>
<polygon fill="black" stroke="black" points="406.465,-36.4468 415.718,-42.3325 409.211,-40.6253 411.957,-44.8038 411.957,-44.8038 411.957,-44.8038 409.211,-40.6253 408.196,-47.2752 406.465,-36.4468 406.465,-36.4468"/>
</g>
<!-- J -->
<g id="node9" class="node"><title>J</title>
<text text-anchor="middle" x="487" y="-14.3" font-family="STKAITI" font-size="14.00">{单身, 已婚}</text>
</g>
<!-- H&#45;&gt;J -->
<g id="edge6" class="edge"><title>H&#45;&gt;J</title>
<path fill="none" stroke="black" d="M451.901,-72.411C457.297,-64.2 463.935,-54.0991 469.98,-44.8996"/>
<polygon fill="black" stroke="black" points="475.535,-36.4468 473.804,-47.2752 472.789,-40.6253 470.043,-44.8038 470.043,-44.8038 470.043,-44.8038 472.789,-40.6253 466.282,-42.3325 475.535,-36.4468 475.535,-36.4468"/>
</g>
</g>
</svg>
