<?xml version="1.0" encoding="UTF-8" standalone="no"?>
<!DOCTYPE svg PUBLIC "-//W3C//DTD SVG 1.1//EN"
 "http://www.w3.org/Graphics/SVG/1.1/DTD/svg11.dtd">
<!-- Generated by graphviz version 2.38.0 (20140413.2041)
 -->
<!-- Title: nameFeatureMulti Pages: 1 -->
<svg width="206pt" height="116pt"
 viewBox="0.00 0.00 206.00 116.00" xmlns="http://www.w3.org/2000/svg" xmlns:xlink="http://www.w3.org/1999/xlink">
<g id="graph0" class="graph" transform="scale(1 1) rotate(0) translate(4 112)">
<title>nameFeatureMulti</title>
<polygon fill="white" stroke="none" points="-4,4 -4,-112 202,-112 202,4 -4,4"/>
<!-- A -->
<g id="node1" class="node"><title>A</title>
<ellipse fill="none" stroke="black" cx="99" cy="-90" rx="47.3916" ry="18"/>
<text text-anchor="middle" x="99" y="-86.3" font-family="STKAITI" font-size="14.00">婚姻状况</text>
</g>
<!-- B -->
<g id="node2" class="node"><title>B</title>
<text text-anchor="middle" x="27" y="-14.3" font-family="STKAITI" font-size="14.00">单身</text>
</g>
<!-- A&#45;&gt;B -->
<g id="edge1" class="edge"><title>A&#45;&gt;B</title>
<path fill="none" stroke="black" d="M82.3008,-72.7646C73.2965,-64.0105 62.0052,-53.0328 51.9769,-43.2831"/>
<polygon fill="black" stroke="black" points="44.6132,-36.1239 54.92,-39.8683 48.1982,-39.6093 51.7832,-43.0947 51.7832,-43.0947 51.7832,-43.0947 48.1982,-39.6093 48.6463,-46.3212 44.6132,-36.1239 44.6132,-36.1239"/>
</g>
<!-- C -->
<g id="node3" class="node"><title>C</title>
<text text-anchor="middle" x="99" y="-14.3" font-family="STKAITI" font-size="14.00">离异</text>
</g>
<!-- A&#45;&gt;C -->
<g id="edge2" class="edge"><title>A&#45;&gt;C</title>
<path fill="none" stroke="black" d="M99,-71.6966C99,-63.9827 99,-54.7125 99,-46.1124"/>
<polygon fill="black" stroke="black" points="99,-36.1043 103.5,-46.1043 99,-41.1043 99.0001,-46.1043 99.0001,-46.1043 99.0001,-46.1043 99,-41.1043 94.5001,-46.1044 99,-36.1043 99,-36.1043"/>
</g>
<!-- D -->
<g id="node4" class="node"><title>D</title>
<text text-anchor="middle" x="171" y="-14.3" font-family="STKAITI" font-size="14.00">已婚</text>
</g>
<!-- A&#45;&gt;D -->
<g id="edge3" class="edge"><title>A&#45;&gt;D</title>
<path fill="none" stroke="black" d="M115.699,-72.7646C124.703,-64.0105 135.995,-53.0328 146.023,-43.2831"/>
<polygon fill="black" stroke="black" points="153.387,-36.1239 149.354,-46.3212 149.802,-39.6093 146.217,-43.0947 146.217,-43.0947 146.217,-43.0947 149.802,-39.6093 143.08,-39.8683 153.387,-36.1239 153.387,-36.1239"/>
</g>
</g>
</svg>
