<?xml version="1.0" encoding="UTF-8" standalone="no"?>
<!DOCTYPE svg PUBLIC "-//W3C//DTD SVG 1.1//EN"
 "http://www.w3.org/Graphics/SVG/1.1/DTD/svg11.dtd">
<!-- Generated by graphviz version 2.38.0 (20140413.2041)
 -->
<!-- Title: shirtMulti Pages: 1 -->
<svg width="284pt" height="116pt"
 viewBox="0.00 0.00 283.50 116.00" xmlns="http://www.w3.org/2000/svg" xmlns:xlink="http://www.w3.org/1999/xlink">
<g id="graph0" class="graph" transform="scale(1 1) rotate(0) translate(4 112)">
<title>shirtMulti</title>
<polygon fill="white" stroke="none" points="-4,4 -4,-112 279.5,-112 279.5,4 -4,4"/>
<!-- A -->
<g id="node1" class="node"><title>A</title>
<ellipse fill="none" stroke="black" cx="135" cy="-90" rx="47.3916" ry="18"/>
<text text-anchor="middle" x="135" y="-86.3" font-family="STKAITI" font-size="14.00">衬衣大小</text>
</g>
<!-- B -->
<g id="node2" class="node"><title>B</title>
<text text-anchor="middle" x="27" y="-14.3" font-family="STKAITI" font-size="14.00">小号</text>
</g>
<!-- A&#45;&gt;B -->
<g id="edge1" class="edge"><title>A&#45;&gt;B</title>
<path fill="none" stroke="black" d="M112.096,-74.1548C97.5722,-64.7412 78.4957,-52.3769 62.0864,-41.7412"/>
<polygon fill="black" stroke="black" points="63.5855,-38.542 53.2903,-36.04 59.7782,-44.416 63.5855,-38.542"/>
</g>
<!-- C -->
<g id="node3" class="node"><title>C</title>
<text text-anchor="middle" x="99" y="-14.3" font-family="STKAITI" font-size="14.00">中号</text>
</g>
<!-- A&#45;&gt;C -->
<g id="edge2" class="edge"><title>A&#45;&gt;C</title>
<path fill="none" stroke="black" d="M126.285,-72.055C122.146,-64.0067 117.105,-54.2046 112.488,-45.2259"/>
<polygon fill="black" stroke="black" points="115.57,-43.5675 107.884,-36.2753 109.345,-46.7689 115.57,-43.5675"/>
</g>
<!-- D -->
<g id="node4" class="node"><title>D</title>
<text text-anchor="middle" x="171" y="-14.3" font-family="STKAITI" font-size="14.00">大号</text>
</g>
<!-- A&#45;&gt;D -->
<g id="edge3" class="edge"><title>A&#45;&gt;D</title>
<path fill="none" stroke="black" d="M143.715,-72.055C147.854,-64.0067 152.895,-54.2046 157.512,-45.2259"/>
<polygon fill="black" stroke="black" points="160.655,-46.7689 162.116,-36.2753 154.43,-43.5675 160.655,-46.7689"/>
</g>
<!-- E -->
<g id="node5" class="node"><title>E</title>
<text text-anchor="middle" x="246" y="-14.3" font-family="STKAITI" font-size="14.00">特大号</text>
</g>
<!-- A&#45;&gt;E -->
<g id="edge4" class="edge"><title>A&#45;&gt;E</title>
<path fill="none" stroke="black" d="M158.54,-74.1548C173.606,-64.654 193.437,-52.1476 210.407,-41.4462"/>
<polygon fill="black" stroke="black" points="212.388,-44.3347 218.979,-36.04 208.654,-38.4138 212.388,-44.3347"/>
</g>
</g>
</svg>
