<?xml version="1.0" encoding="UTF-8" standalone="no"?>
<!DOCTYPE svg PUBLIC "-//W3C//DTD SVG 1.1//EN"
 "http://www.w3.org/Graphics/SVG/1.1/DTD/svg11.dtd">
<!-- Generated by graphviz version 2.38.0 (20140413.2041)
 -->
<!-- Title: step1 Pages: 1 -->
<svg width="218pt" height="131pt"
 viewBox="0.00 0.00 217.50 131.00" xmlns="http://www.w3.org/2000/svg" xmlns:xlink="http://www.w3.org/1999/xlink">
<g id="graph0" class="graph" transform="scale(1 1) rotate(0) translate(4 127)">
<title>step1</title>
<polygon fill="white" stroke="none" points="-4,4 -4,-127 213.5,-127 213.5,4 -4,4"/>
<!-- A -->
<g id="node1" class="node"><title>A</title>
<ellipse fill="none" stroke="black" cx="123" cy="-105" rx="38.1938" ry="18"/>
<text text-anchor="middle" x="123" y="-101.3" font-family="STKAITI" font-size="14.00">有房者</text>
</g>
<!-- B -->
<g id="node2" class="node"><title>B</title>
<polygon fill="lightblue" stroke="lightblue" points="118,-36 30,-36 30,-0 118,-0 118,-36"/>
<text text-anchor="middle" x="74" y="-14.3" font-family="STKAITI" font-size="14.00">未拖欠贷款</text>
<text text-anchor="middle" x="15" y="-39.8" font-family="STKAITI" font-size="14.00">(3, 0)</text>
</g>
<!-- A&#45;&gt;B -->
<g id="edge1" class="edge"><title>A&#45;&gt;B</title>
<path fill="none" stroke="black" d="M113.319,-87.2067C106.385,-75.1778 96.9135,-58.7478 89.0042,-45.0276"/>
<polygon fill="black" stroke="black" points="83.8284,-36.0493 92.7214,-42.4654 86.3256,-40.3811 88.8228,-44.7129 88.8228,-44.7129 88.8228,-44.7129 86.3256,-40.3811 84.9242,-46.9603 83.8284,-36.0493 83.8284,-36.0493"/>
<text text-anchor="middle" x="108.5" y="-57.8" font-family="Times New Roman,serif" font-size="14.00">是</text>
</g>
<!-- C -->
<g id="node3" class="node"><title>C</title>
<polygon fill="none" stroke="black" points="209.5,-36 136.5,-36 136.5,-0 209.5,-0 209.5,-36"/>
<text text-anchor="middle" x="173" y="-14.3" font-family="STKAITI" font-size="14.00">拖欠贷款</text>
<text text-anchor="middle" x="121.5" y="-39.8" font-family="STKAITI" font-size="14.00">(4, 3)</text>
</g>
<!-- A&#45;&gt;C -->
<g id="edge2" class="edge"><title>A&#45;&gt;C</title>
<path fill="none" stroke="black" d="M132.878,-87.2067C139.954,-75.1778 149.619,-58.7478 157.69,-45.0276"/>
<polygon fill="black" stroke="black" points="162.971,-36.0493 161.779,-46.9503 160.436,-40.359 157.901,-44.6687 157.901,-44.6687 157.901,-44.6687 160.436,-40.359 154.022,-42.3871 162.971,-36.0493 162.971,-36.0493"/>
<text text-anchor="middle" x="157.5" y="-57.8" font-family="Times New Roman,serif" font-size="14.00">否</text>
</g>
</g>
</svg>
