<?xml version="1.0" encoding="UTF-8" standalone="no"?>
<!DOCTYPE svg PUBLIC "-//W3C//DTD SVG 1.1//EN"
 "http://www.w3.org/Graphics/SVG/1.1/DTD/svg11.dtd">
<!-- Generated by graphviz version 2.38.0 (20140413.2041)
 -->
<!-- Title: testCond Pages: 1 -->
<svg width="380pt" height="314pt"
 viewBox="0.00 0.00 380.48 314.00" xmlns="http://www.w3.org/2000/svg" xmlns:xlink="http://www.w3.org/1999/xlink">
<g id="graph0" class="graph" transform="scale(1 1) rotate(0) translate(4 310)">
<title>testCond</title>
<polygon fill="white" stroke="none" points="-4,4 -4,-310 376.48,-310 376.48,4 -4,4"/>
<!-- A -->
<g id="node1" class="node"><title>A</title>
<ellipse fill="none" stroke="black" cx="66.2941" cy="-126" rx="66.0889" ry="18"/>
<text text-anchor="middle" x="66.2941" y="-122.3" font-family="STKAITI" font-size="14.00">表示测试条件</text>
</g>
<!-- B -->
<g id="node2" class="node"><title>B</title>
<ellipse fill="none" stroke="black" cx="216.034" cy="-180" rx="47.3916" ry="18"/>
<text text-anchor="middle" x="216.034" y="-176.3" font-family="STKAITI" font-size="14.00">属性类型</text>
</g>
<!-- A&#45;&gt;B -->
<g id="edge1" class="edge"><title>A&#45;&gt;B</title>
<path fill="none" stroke="black" d="M106.498,-140.329C126.571,-147.666 151.061,-156.617 171.694,-164.159"/>
<polygon fill="black" stroke="black" points="181.174,-167.624 170.237,-168.418 176.478,-165.908 171.782,-164.191 171.782,-164.191 171.782,-164.191 176.478,-165.908 173.327,-159.964 181.174,-167.624 181.174,-167.624"/>
</g>
<!-- C -->
<g id="node3" class="node"><title>C</title>
<ellipse fill="none" stroke="black" cx="216.034" cy="-72" rx="47.3916" ry="18"/>
<text text-anchor="middle" x="216.034" y="-68.3" font-family="STKAITI" font-size="14.00">分裂方式</text>
</g>
<!-- A&#45;&gt;C -->
<g id="edge2" class="edge"><title>A&#45;&gt;C</title>
<path fill="none" stroke="black" d="M106.498,-111.671C126.571,-104.334 151.061,-95.3827 171.694,-87.8411"/>
<polygon fill="black" stroke="black" points="181.174,-84.376 173.327,-92.0355 176.478,-86.0925 171.782,-87.809 171.782,-87.809 171.782,-87.809 176.478,-86.0925 170.237,-83.5825 181.174,-84.376 181.174,-84.376"/>
</g>
<!-- E -->
<g id="node4" class="node"><title>E</title>
<text text-anchor="middle" x="335.98" y="-284.3" font-family="STKAITI" font-size="14.00">二元属性</text>
</g>
<!-- B&#45;&gt;E -->
<g id="edge3" class="edge"><title>B&#45;&gt;E</title>
<path fill="none" stroke="black" d="M233.184,-197.082C249.394,-213.932 275.355,-240.122 299.48,-261 300.435,-261.827 301.412,-262.657 302.406,-263.489"/>
<polygon fill="black" stroke="black" points="310.215,-269.804 299.61,-267.015 306.327,-266.66 302.439,-263.516 302.439,-263.516 302.439,-263.516 306.327,-266.66 305.269,-260.017 310.215,-269.804 310.215,-269.804"/>
</g>
<!-- F -->
<g id="node5" class="node"><title>F</title>
<text text-anchor="middle" x="335.98" y="-230.3" font-family="STKAITI" font-size="14.00">标称属性</text>
</g>
<!-- B&#45;&gt;F -->
<g id="edge4" class="edge"><title>B&#45;&gt;F</title>
<path fill="none" stroke="black" d="M247.102,-193.766C260.091,-199.713 275.565,-206.798 289.883,-213.353"/>
<polygon fill="black" stroke="black" points="299.087,-217.567 288.121,-217.495 294.541,-215.485 289.994,-213.404 289.994,-213.404 289.994,-213.404 294.541,-215.485 291.868,-209.312 299.087,-217.567 299.087,-217.567"/>
</g>
<!-- G -->
<g id="node6" class="node"><title>G</title>
<text text-anchor="middle" x="335.98" y="-176.3" font-family="STKAITI" font-size="14.00">序数属性</text>
</g>
<!-- B&#45;&gt;G -->
<g id="edge5" class="edge"><title>B&#45;&gt;G</title>
<path fill="none" stroke="black" d="M263.649,-180C272.072,-180 280.848,-180 289.245,-180"/>
<polygon fill="black" stroke="black" points="299.252,-180 289.252,-184.5 294.252,-180 289.252,-180 289.252,-180 289.252,-180 294.252,-180 289.252,-175.5 299.252,-180 299.252,-180"/>
</g>
<!-- H -->
<g id="node7" class="node"><title>H</title>
<text text-anchor="middle" x="335.98" y="-122.3" font-family="STKAITI" font-size="14.00">连续属性</text>
</g>
<!-- B&#45;&gt;H -->
<g id="edge6" class="edge"><title>B&#45;&gt;H</title>
<path fill="none" stroke="black" d="M247.102,-166.234C260.091,-160.287 275.565,-153.202 289.883,-146.647"/>
<polygon fill="black" stroke="black" points="299.087,-142.433 291.868,-150.688 294.541,-144.515 289.994,-146.596 289.994,-146.596 289.994,-146.596 294.541,-144.515 288.121,-142.505 299.087,-142.433 299.087,-142.433"/>
</g>
<!-- I -->
<g id="node8" class="node"><title>I</title>
<text text-anchor="middle" x="335.98" y="-68.3" font-family="STKAITI" font-size="14.00">二元划分</text>
</g>
<!-- C&#45;&gt;I -->
<g id="edge7" class="edge"><title>C&#45;&gt;I</title>
<path fill="none" stroke="black" d="M263.649,-72C272.072,-72 280.848,-72 289.245,-72"/>
<polygon fill="black" stroke="black" points="299.252,-72 289.252,-76.5001 294.252,-72 289.252,-72.0001 289.252,-72.0001 289.252,-72.0001 294.252,-72 289.252,-67.5001 299.252,-72 299.252,-72"/>
</g>
<!-- J -->
<g id="node9" class="node"><title>J</title>
<text text-anchor="middle" x="335.98" y="-14.3" font-family="STKAITI" font-size="14.00">多路划分</text>
</g>
<!-- C&#45;&gt;J -->
<g id="edge8" class="edge"><title>C&#45;&gt;J</title>
<path fill="none" stroke="black" d="M247.102,-58.2338C260.091,-52.287 275.565,-45.2022 289.883,-38.6471"/>
<polygon fill="black" stroke="black" points="299.087,-34.4332 291.868,-42.6876 294.541,-36.5146 289.994,-38.5961 289.994,-38.5961 289.994,-38.5961 294.541,-36.5146 288.121,-34.5045 299.087,-34.4332 299.087,-34.4332"/>
</g>
</g>
</svg>
