<?xml version="1.0" encoding="UTF-8" standalone="no"?>
<!DOCTYPE svg PUBLIC "-//W3C//DTD SVG 1.1//EN"
 "http://www.w3.org/Graphics/SVG/1.1/DTD/svg11.dtd">
<!-- Generated by graphviz version 2.38.0 (20140413.2041)
 -->
<!-- Title: %3 Pages: 1 -->
<svg width="283pt" height="229pt"
 viewBox="0.00 0.00 283.00 229.00" xmlns="http://www.w3.org/2000/svg" xmlns:xlink="http://www.w3.org/1999/xlink">
<g id="graph0" class="graph" transform="scale(1 1) rotate(0) translate(4 225)">
<title>%3</title>
<polygon fill="white" stroke="none" points="-4,4 -4,-225 279,-225 279,4 -4,4"/>
<!-- A -->
<g id="node1" class="node"><title>A</title>
<ellipse fill="none" stroke="black" cx="146" cy="-203" rx="36.2938" ry="18"/>
<text text-anchor="middle" x="146" y="-199.3" font-family="STKAITI" font-size="14.00">x&lt;0.43</text>
</g>
<!-- B -->
<g id="node2" class="node"><title>B</title>
<ellipse fill="none" stroke="black" cx="94" cy="-116" rx="36.2938" ry="18"/>
<text text-anchor="middle" x="94" y="-112.3" font-family="STKAITI" font-size="14.00">y&lt;0.47</text>
</g>
<!-- A&#45;&gt;B -->
<g id="edge1" class="edge"><title>A&#45;&gt;B</title>
<path fill="none" stroke="black" d="M135.974,-185.611C128.42,-173.264 117.93,-156.117 109.327,-142.053"/>
<polygon fill="black" stroke="black" points="112.2,-140.042 103.995,-133.339 106.228,-143.695 112.2,-140.042"/>
<text text-anchor="middle" x="113.485" y="-163.276" font-family="Times New Roman,serif" font-size="14.00">是</text>
</g>
<!-- C -->
<g id="node3" class="node"><title>C</title>
<ellipse fill="none" stroke="black" cx="185" cy="-116" rx="36.2938" ry="18"/>
<text text-anchor="middle" x="185" y="-112.3" font-family="STKAITI" font-size="14.00">y&lt;0.33</text>
</g>
<!-- A&#45;&gt;C -->
<g id="edge2" class="edge"><title>A&#45;&gt;C</title>
<path fill="none" stroke="black" d="M153.705,-185.207C159.207,-173.216 166.715,-156.851 172.999,-143.157"/>
<polygon fill="black" stroke="black" points="176.322,-144.307 177.311,-133.758 169.959,-141.388 176.322,-144.307"/>
<text text-anchor="middle" x="174.5" y="-155.8" font-family="Times New Roman,serif" font-size="14.00">否</text>
</g>
<!-- D -->
<g id="node4" class="node"><title>D</title>
<polygon fill="none" stroke="black" points="0,-0.5 0,-46.5 54,-46.5 54,-0.5 0,-0.5"/>
<text text-anchor="middle" x="27" y="-31.3" font-family="STKAITI" font-size="14.00">v:4</text>
<polyline fill="none" stroke="black" points="0,-23.5 54,-23.5 "/>
<text text-anchor="middle" x="27" y="-8.3" font-family="STKAITI" font-size="14.00">o:0</text>
</g>
<!-- B&#45;&gt;D -->
<g id="edge3" class="edge"><title>B&#45;&gt;D</title>
<path fill="none" stroke="black" d="M82.0217,-98.8204C73.0229,-86.6652 60.431,-69.6568 49.5638,-54.9779"/>
<polygon fill="black" stroke="black" points="52.168,-52.6133 43.4048,-46.6587 46.542,-56.7784 52.168,-52.6133"/>
<text text-anchor="middle" x="56.2713" y="-76.618" font-family="Times New Roman,serif" font-size="14.00">是</text>
</g>
<!-- E -->
<g id="node5" class="node"><title>E</title>
<polygon fill="none" stroke="black" points="72,-0.5 72,-46.5 126,-46.5 126,-0.5 72,-0.5"/>
<text text-anchor="middle" x="99" y="-31.3" font-family="STKAITI" font-size="14.00">v:0</text>
<polyline fill="none" stroke="black" points="72,-23.5 126,-23.5 "/>
<text text-anchor="middle" x="99" y="-8.3" font-family="STKAITI" font-size="14.00">o:4</text>
</g>
<!-- B&#45;&gt;E -->
<g id="edge4" class="edge"><title>B&#45;&gt;E</title>
<path fill="none" stroke="black" d="M94.9405,-97.9776C95.5807,-86.3899 96.4481,-70.6901 97.2167,-56.7775"/>
<polygon fill="black" stroke="black" points="100.723,-56.7624 97.7799,-46.5845 93.7335,-56.3762 100.723,-56.7624"/>
<text text-anchor="middle" x="103.5" y="-68.8" font-family="Times New Roman,serif" font-size="14.00">否</text>
</g>
<!-- F -->
<g id="node6" class="node"><title>F</title>
<polygon fill="none" stroke="black" points="149,-0.5 149,-46.5 203,-46.5 203,-0.5 149,-0.5"/>
<text text-anchor="middle" x="176" y="-31.3" font-family="STKAITI" font-size="14.00">v:0</text>
<polyline fill="none" stroke="black" points="149,-23.5 203,-23.5 "/>
<text text-anchor="middle" x="176" y="-8.3" font-family="STKAITI" font-size="14.00">o:3</text>
</g>
<!-- C&#45;&gt;F -->
<g id="edge5" class="edge"><title>C&#45;&gt;F</title>
<path fill="none" stroke="black" d="M183.307,-97.9776C182.155,-86.3899 180.593,-70.6901 179.21,-56.7775"/>
<polygon fill="black" stroke="black" points="182.669,-56.189 178.196,-46.5845 175.703,-56.8818 182.669,-56.189"/>
<text text-anchor="middle" x="188.5" y="-68.8" font-family="Times New Roman,serif" font-size="14.00">是</text>
</g>
<!-- G -->
<g id="node7" class="node"><title>G</title>
<polygon fill="none" stroke="black" points="221,-0.5 221,-46.5 275,-46.5 275,-0.5 221,-0.5"/>
<text text-anchor="middle" x="248" y="-31.3" font-family="STKAITI" font-size="14.00">v:4</text>
<polyline fill="none" stroke="black" points="221,-23.5 275,-23.5 "/>
<text text-anchor="middle" x="248" y="-8.3" font-family="STKAITI" font-size="14.00">o:0</text>
</g>
<!-- C&#45;&gt;G -->
<g id="edge6" class="edge"><title>C&#45;&gt;G</title>
<path fill="none" stroke="black" d="M196.263,-98.8204C204.725,-86.6652 216.565,-69.6568 226.783,-54.9779"/>
<polygon fill="black" stroke="black" points="229.734,-56.8656 232.575,-46.6587 223.989,-52.8662 229.734,-56.8656"/>
<text text-anchor="middle" x="225.5" y="-68.8" font-family="Times New Roman,serif" font-size="14.00">否</text>
</g>
</g>
</svg>
