<svg width="1189" height="393" xmlns="http://www.w3.org/2000/svg" xmlns:xlink="http://www.w3.org/1999/xlink" overflow="hidden"><defs><clipPath id="clip0"><path d="M59 107 1248 107 1248 500 59 500Z" fill-rule="evenodd" clip-rule="evenodd"/></clipPath></defs><g clip-path="url(#clip0)" transform="translate(-59 -107)"><path d="M227.879 241.373 398.545 241.373 398.545 280.307 227.879 280.307Z" fill="#A5A5A5" fill-rule="evenodd"/><path d="M398.545 241.373 569.212 241.373 569.212 280.307 398.545 280.307Z" fill="#A5A5A5" fill-rule="evenodd"/><path d="M569.212 241.373 739.878 241.373 739.878 280.307 569.212 280.307Z" fill="#A5A5A5" fill-rule="evenodd"/><path d="M739.878 241.373 910.545 241.373 910.545 280.307 739.878 280.307Z" fill="#A5A5A5" fill-rule="evenodd"/><path d="M910.545 241.373 1081.21 241.373 1081.21 280.307 910.545 280.307Z" fill="#A5A5A5" fill-rule="evenodd"/><path d="M227.879 280.307 398.545 280.307 398.545 319.24 227.879 319.24Z" fill="#E1E1E1" fill-rule="evenodd"/><path d="M398.545 280.307 569.212 280.307 569.212 319.24 398.545 319.24Z" fill="#E1E1E1" fill-rule="evenodd"/><path d="M569.212 280.307 739.878 280.307 739.878 319.24 569.212 319.24Z" fill="#E1E1E1" fill-rule="evenodd"/><path d="M739.878 280.307 910.545 280.307 910.545 319.24 739.878 319.24Z" fill="#E1E1E1" fill-rule="evenodd"/><path d="M910.545 280.307 1081.21 280.307 1081.21 319.24 910.545 319.24Z" fill="#E1E1E1" fill-rule="evenodd"/><path d="M227.879 319.24 398.545 319.24 398.545 358.173 227.879 358.173Z" fill="#F0F0F0" fill-rule="evenodd"/><path d="M398.545 319.24 569.212 319.24 569.212 358.173 398.545 358.173Z" fill="#F0F0F0" fill-rule="evenodd"/><path d="M569.212 319.24 739.878 319.24 739.878 358.173 569.212 358.173Z" fill="#F0F0F0" fill-rule="evenodd"/><path d="M739.878 319.24 910.545 319.24 910.545 358.173 739.878 358.173Z" fill="#F0F0F0" fill-rule="evenodd"/><path d="M910.545 319.24 1081.21 319.24 1081.21 358.173 910.545 358.173Z" fill="#F0F0F0" fill-rule="evenodd"/><path d="M227.879 358.173 398.545 358.173 398.545 397.107 227.879 397.107Z" fill="#E1E1E1" fill-rule="evenodd"/><path d="M398.545 358.173 569.212 358.173 569.212 397.107 398.545 397.107Z" fill="#E1E1E1" fill-rule="evenodd"/><path d="M569.212 358.173 739.878 358.173 739.878 397.107 569.212 397.107Z" fill="#E1E1E1" fill-rule="evenodd"/><path d="M739.878 358.173 910.545 358.173 910.545 397.107 739.878 397.107Z" fill="#E1E1E1" fill-rule="evenodd"/><path d="M910.545 358.173 1081.21 358.173 1081.21 397.107 910.545 397.107Z" fill="#E1E1E1" fill-rule="evenodd"/><path d="M227.879 397.107 398.545 397.107 398.545 436.04 227.879 436.04Z" fill="#F0F0F0" fill-rule="evenodd"/><path d="M398.545 397.107 569.212 397.107 569.212 436.04 398.545 436.04Z" fill="#F0F0F0" fill-rule="evenodd"/><path d="M569.212 397.107 739.878 397.107 739.878 436.04 569.212 436.04Z" fill="#F0F0F0" fill-rule="evenodd"/><path d="M739.878 397.107 910.545 397.107 910.545 436.04 739.878 436.04Z" fill="#F0F0F0" fill-rule="evenodd"/><path d="M910.545 397.107 1081.21 397.107 1081.21 436.04 910.545 436.04Z" fill="#F0F0F0" fill-rule="evenodd"/><path d="M398.545 240.707 398.545 436.707" stroke="#FFFFFF" stroke-width="1.33333" stroke-linejoin="round" stroke-miterlimit="10" fill="none" fill-rule="evenodd"/><path d="M569.212 240.707 569.212 436.707" stroke="#FFFFFF" stroke-width="1.33333" stroke-linejoin="round" stroke-miterlimit="10" fill="none" fill-rule="evenodd"/><path d="M739.878 240.707 739.878 436.707" stroke="#FFFFFF" stroke-width="1.33333" stroke-linejoin="round" stroke-miterlimit="10" fill="none" fill-rule="evenodd"/><path d="M910.545 240.707 910.545 436.707" stroke="#FFFFFF" stroke-width="1.33333" stroke-linejoin="round" stroke-miterlimit="10" fill="none" fill-rule="evenodd"/><path d="M227.212 280.307 1081.88 280.307" stroke="#FFFFFF" stroke-width="4" stroke-linejoin="round" stroke-miterlimit="10" fill="none" fill-rule="evenodd"/><path d="M227.212 319.24 1081.88 319.24" stroke="#FFFFFF" stroke-width="1.33333" stroke-linejoin="round" stroke-miterlimit="10" fill="none" fill-rule="evenodd"/><path d="M227.212 358.173 1081.88 358.173" stroke="#FFFFFF" stroke-width="1.33333" stroke-linejoin="round" stroke-miterlimit="10" fill="none" fill-rule="evenodd"/><path d="M227.212 397.107 1081.88 397.107" stroke="#FFFFFF" stroke-width="1.33333" stroke-linejoin="round" stroke-miterlimit="10" fill="none" fill-rule="evenodd"/><path d="M227.879 240.707 227.879 436.707" stroke="#FFFFFF" stroke-width="1.33333" stroke-linejoin="round" stroke-miterlimit="10" fill="none" fill-rule="evenodd"/><path d="M1081.21 240.707 1081.21 436.707" stroke="#FFFFFF" stroke-width="1.33333" stroke-linejoin="round" stroke-miterlimit="10" fill="none" fill-rule="evenodd"/><path d="M227.212 241.373 1081.88 241.373" stroke="#FFFFFF" stroke-width="1.33333" stroke-linejoin="round" stroke-miterlimit="10" fill="none" fill-rule="evenodd"/><path d="M227.212 436.04 1081.88 436.04" stroke="#FFFFFF" stroke-width="1.33333" stroke-linejoin="round" stroke-miterlimit="10" fill="none" fill-rule="evenodd"/><text fill="#FFFFFF" font-family="DengXian,DengXian_MSFontService,sans-serif" font-weight="700" font-size="24" transform="translate(301.129 268)">ID<tspan x="134.75" y="0">工作状况</tspan><tspan x="305.417" y="0">教育水平</tspan><tspan x="476.083" y="0">居住年限</tspan><tspan x="646.75" y="0">信用状况</tspan><tspan fill="#000000" font-weight="400" x="-6.91666" y="39">001</tspan><tspan fill="#000000" font-weight="400" x="158.75" y="39">就业</tspan><tspan fill="#000000" font-weight="400" x="317.417" y="39">研究生</tspan><tspan fill="#000000" font-weight="400" x="517.75" y="39">5</tspan><tspan fill="#000000" font-weight="400" x="682.75" y="39">好</tspan><tspan fill="#000000" font-weight="400" x="-6.91666" y="78">002</tspan><tspan fill="#000000" font-weight="400" x="158.75" y="78">就业</tspan><tspan fill="#000000" font-weight="400" x="329.417" y="78">高中</tspan><tspan fill="#000000" font-weight="400" x="517.75" y="78">2</tspan><tspan fill="#000000" font-weight="400" x="682.75" y="78">差</tspan><tspan fill="#000000" font-weight="400" x="-6.91666" y="117">003</tspan><tspan fill="#000000" font-weight="400" x="158.75" y="117">失业</tspan><tspan fill="#000000" font-weight="400" x="317.417" y="117">本科生</tspan><tspan fill="#000000" font-weight="400" x="517.75" y="117">1</tspan><tspan fill="#000000" font-weight="400" x="682.75" y="117">差</tspan><tspan fill="#000000" font-weight="400" x="-6.91666" y="156">004</tspan><tspan fill="#000000" font-weight="400" x="158.75" y="156">就业</tspan><tspan fill="#000000" font-weight="400" x="329.417" y="156">高中</tspan><tspan fill="#000000" font-weight="400" x="511.417" y="156">10</tspan><tspan fill="#000000" font-weight="400" x="682.75" y="156">好</tspan></text><path d="M197 327C197 323.686 199.686 321 203 321L1106 321C1109.31 321 1112 323.686 1112 327L1112 351C1112 354.314 1109.31 357 1106 357L203 357C199.686 357 197 354.314 197 351Z" stroke="#ED7D31" stroke-width="2" stroke-linejoin="round" stroke-miterlimit="10" fill="none" fill-rule="evenodd"/><path d="M193 436C184.716 436 178 428.382 178 418.984L178 376.516C178 367.118 171.284 359.5 163 359.5 171.284 359.5 178 351.882 178 342.484L178 300.016C178 290.618 184.716 283 193 283" stroke="#ED7D31" stroke-width="2" stroke-miterlimit="8" fill="none" fill-rule="evenodd"/><path d="M228 220C228 210.059 237.142 202 248.419 202L630.081 202C641.358 202 650.5 193.941 650.5 184 650.5 193.941 659.642 202 670.919 202L1052.58 202C1063.86 202 1073 210.059 1073 220" stroke="#5B9BD5" stroke-width="2" stroke-miterlimit="8" fill="none" fill-rule="evenodd"/><text font-family="FZLanTingHeiS-R-GB,FZLanTingHeiS-R-GB_MSFontService,sans-serif" font-weight="400" font-size="24" transform="translate(626.666 138)">属性<tspan x="-30" y="28">attribute</tspan>s<tspan x="-534.785" y="215">对象</tspan><tspan x="-552.372" y="243">objects</tspan></text><path d="M423 236.995C423 230.923 427.923 226 433.996 226L542.004 226C548.077 226 553 230.923 553 236.995L553 434.004C553 440.077 548.077 445 542.004 445L433.996 445C427.923 445 423 440.077 423 434.004Z" stroke="#4472C4" stroke-width="2" stroke-linejoin="round" stroke-miterlimit="10" fill="none" fill-rule="evenodd"/><text fill="#4472C4" font-family="FZSuXinShiLiuKaiS-R-GB,FZSuXinShiLiuKaiS-R-GB_MSFontService,sans-serif" font-weight="400" font-size="24" transform="translate(439.757 480)">一个属性<tspan fill="#C55A11" x="694.303" y="-136">一</tspan><tspan fill="#C55A11" x="718.303" y="-136">个对象</tspan></text></g></svg>