<?xml version="1.0" encoding="UTF-8" standalone="no"?>
<!-- Created with Inkscape (http://www.inkscape.org/) -->

<svg
   xmlns:dc="http://purl.org/dc/elements/1.1/"
   xmlns:cc="http://creativecommons.org/ns#"
   xmlns:rdf="http://www.w3.org/1999/02/22-rdf-syntax-ns#"
   xmlns:svg="http://www.w3.org/2000/svg"
   xmlns="http://www.w3.org/2000/svg"
   xmlns:sodipodi="http://sodipodi.sourceforge.net/DTD/sodipodi-0.dtd"
   xmlns:inkscape="http://www.inkscape.org/namespaces/inkscape"
   width="128.5119mm"
   height="108.10119mm"
   viewBox="0 0 128.5119 108.10119"
   version="1.1"
   id="svg8"
   inkscape:version="0.92.4 (5da689c313, 2019-01-14)"
   sodipodi:docname="dataQuality.svg">
  <defs
     id="defs2" />
  <sodipodi:namedview
     id="base"
     pagecolor="#ffffff"
     bordercolor="#666666"
     borderopacity="1.0"
     inkscape:pageopacity="0.0"
     inkscape:pageshadow="2"
     inkscape:zoom="0.35"
     inkscape:cx="-215.71429"
     inkscape:cy="-71.428578"
     inkscape:document-units="mm"
     inkscape:current-layer="g825"
     showgrid="false"
     inkscape:window-width="2560"
     inkscape:window-height="1304"
     inkscape:window-x="-8"
     inkscape:window-y="-8"
     inkscape:window-maximized="1" />
  <metadata
     id="metadata5">
    <rdf:RDF>
      <cc:Work
         rdf:about="">
        <dc:format>image/svg+xml</dc:format>
        <dc:type
           rdf:resource="http://purl.org/dc/dcmitype/StillImage" />
        <dc:title></dc:title>
      </cc:Work>
    </rdf:RDF>
  </metadata>
  <g
     inkscape:label="Layer 1"
     inkscape:groupmode="layer"
     id="layer1"
     transform="translate(-37.041668,-21.833335)">
    <g
       transform="matrix(0.21576141,0,0,0.22573578,-15.990659,-0.08088487)"
       inkscape:label="dataQuality"
       id="g823"
       clip-path="none">
      <g
         id="g825"
         transform="matrix(0.62043796,0,0,0.66511627,195.4616,72.602791)">
        <path
           inkscape:connector-curvature="0"
           id="path827"
           style="fill:#ffffff;fill-opacity:1;fill-rule:nonzero;stroke:none"
           d="M 81.120003,36.799999 H 1041.12 V 756.79999 H 81.120003 Z" />
      </g>
      <g
         id="g829">
        <path
           inkscape:connector-curvature="0"
           id="path831"
           style="fill:#abb1bf;fill-opacity:1;fill-rule:evenodd;stroke:none"
           d="m 336.79999,174.72 v 96.63999 H 325.12 V 174.72 Z" />
      </g>
      <g
         transform="translate(304.64001,162.88)"
         id="g833">
        <path
           inkscape:connector-curvature="0"
           id="path835"
           style="fill:#1f497d;fill-opacity:1;fill-rule:evenodd;stroke:none"
           d="m 0,0 c 0,-4.32 3.36,-7.84 7.68,-7.84 h 114.4 c 4.32,0 7.67999,3.52 7.67999,7.84 v 62.400002 c 0,4.159996 -3.35999,7.68 -7.67999,7.68 H 7.68 c -4.32,0 -7.68,-3.520004 -7.68,-7.68 z" />
      </g>
      <g
         transform="translate(303.20001,162.88)"
         id="g837">
        <path
           inkscape:connector-curvature="0"
           id="path839"
           style="fill:#eeece1;fill-opacity:1;fill-rule:nonzero;stroke:none"
           d="m 0,0 v -0.96 l 0.16,-0.8 0.32,-0.96 0.32,-0.8 0.32,-0.8 0.48,-0.8 0.96,-1.28 c 0.16,0 0.16,-0.16 0.32,-0.16 L 4,-7.52 4.8,-8 5.6,-8.48 6.4,-8.8 7.2,-8.96 8.16,-9.12 h 0.96 114.4 0.8 l 0.96,0.16 0.8,0.16 0.96,0.32 0.8,0.32 0.64,0.48 1.44,1.12 c 0,0 0,0.16 0.16,0.16 l 0.95999,1.12 0.48001,0.8 0.32,0.8 0.32,0.96 0.32,0.8 v 0.96 l 0.16,0.8 v 62.560002 0.799999 l -0.16,0.960003 -0.32,0.799995 -0.16,0.800003 -0.48,0.799996 -0.48001,0.800003 -0.95999,1.279998 c -0.16,0.160004 -0.16,0.160004 -0.16,0.32 l -1.28,0.800003 -0.8,0.64 -0.8,0.319999 -0.8,0.32 -0.8,0.159996 -0.96,0.160004 -0.96,0.159996 H 9.12 L 8.32,71.360001 H 7.36 l -0.8,-0.32 -0.96,-0.32 L 4.8,70.400002 4.16,69.919998 2.88,68.959999 c -0.16,-0.159996 -0.16,-0.159996 -0.32,-0.32 L 1.6,67.519997 1.12,66.720001 0.8,65.919998 0.48,65.120003 0.16,64.160004 V 63.360001 L 0,62.400002 Z m 2.72,62.240002 v 0.639999 L 2.88,63.52 3.04,64.160004 3.2,64.800003 3.52,65.279999 3.68,65.919998 4.64,67.040001 4.48,66.879997 5.44,67.68 6.08,68 l 0.48,0.32 0.64,0.160003 0.64,0.159996 0.64,0.160004 h 0.64 114.24 0.8 l 0.64,-0.160004 0.48,-0.159996 0.64,-0.160003 0.64,-0.32 0.48,-0.160004 1.12,-0.959999 -0.16,0.160004 0.8,-1.120003 0.31999,-0.479996 L 129.44,64.959999 129.60001,64.32 129.75999,63.68 129.92,63.040001 V 62.400002 0 -0.64 L 129.75999,-1.28 129.60001,-1.92 129.44,-2.4 129.11999,-3.04 128.96001,-3.52 128,-4.64 l 0.16,0.16 -0.96,-0.8 -0.64,-0.48 -0.48,-0.16 -0.64,-0.32 -0.64,-0.16 h -0.64 l -0.64,-0.16 H 9.28 L 8.64,-6.4 H 8 L 7.36,-6.24 6.72,-6.08 6.08,-5.76 5.6,-5.44 4.48,-4.48 4.64,-4.64 3.84,-3.68 3.52,-3.2 3.2,-2.56 3.04,-2.08 2.88,-1.44 2.72,-0.8 V 0 Z" />
      </g>
      <g
         transform="scale(0.292969)"
         id="g841">
        <text
           id="text845"
           style="font-variant:normal;font-weight:normal;font-size:40.95999908px;font-family:F1;-inkscape-font-specification:F1;writing-mode:lr-tb;fill:#ffffff;fill-opacity:1;fill-rule:nonzero;stroke:#ffffff;stroke-width:0.41;stroke-linecap:butt;stroke-linejoin:miter;stroke-miterlimit:10;stroke-dasharray:none;stroke-opacity:1"
           transform="translate(1178.08,643.35998)">
          <tspan
             id="tspan843"
             sodipodi:role="line"
             y="0"
             x="0 41.369598 82.739197 124.51839">数据规范</tspan>
        </text>
      </g>
      <g
         transform="scale(0.036621)"
         id="g847">
        <text
           id="text851"
           style="font-variant:normal;font-weight:normal;font-size:327.67999268px;font-family:F2;-inkscape-font-specification:F2;writing-mode:lr-tb;fill:#ffffff;fill-opacity:1;fill-rule:nonzero;stroke:none"
           transform="translate(8733.7598,5692.96)">
          <tspan
             id="tspan849"
             sodipodi:role="line"
             y="0"
             x="0 271.9744 435.81439 547.22559 711.06561 789.7088 933.888 1137.0496 1300.8895 1445.0687 1556.48 1680.9984 1792.4095 1936.5887 2100.4287 2211.8398 2319.9744 2503.4751">Data specification</tspan>
        </text>
      </g>
      <g
         id="g853">
        <path
           inkscape:connector-curvature="0"
           id="path855"
           style="fill:#abb1bf;fill-opacity:1;fill-rule:evenodd;stroke:none"
           d="m 336.79999,272.16 v 96.63999 H 325.12 V 272.16 Z" />
      </g>
      <g
         transform="translate(304.64001,260.32001)"
         id="g857">
        <path
           inkscape:connector-curvature="0"
           id="path859"
           style="fill:#1f497d;fill-opacity:1;fill-rule:evenodd;stroke:none"
           d="m 0,0 c 0,-4.32 3.36,-7.84 7.68,-7.84 h 114.4 c 4.32,0 7.67999,3.52 7.67999,7.84 v 62.240002 c 0,4.319996 -3.35999,7.84 -7.67999,7.84 H 7.68 c -4.32,0 -7.68,-3.520004 -7.68,-7.84 z" />
      </g>
      <g
         transform="translate(303.20001,260.32001)"
         id="g861">
        <path
           inkscape:connector-curvature="0"
           id="path863"
           style="fill:#eeece1;fill-opacity:1;fill-rule:nonzero;stroke:none"
           d="m 0,0 v -0.96 l 0.16,-0.8 0.32,-0.96 0.32,-0.8 0.32,-0.8 0.48,-0.8 0.96,-1.28 c 0.16,0 0.16,-0.16 0.32,-0.16 L 4,-7.52 4.8,-8 5.6,-8.48 6.4,-8.8 7.2,-8.96 8.16,-9.12 h 0.96 114.4 0.8 l 0.96,0.16 0.8,0.16 0.96,0.32 0.8,0.32 0.64,0.48 1.44,1.12 c 0,0 0,0.16 0.16,0.16 l 0.95999,1.12 0.48001,0.8 0.32,0.8 0.32,0.8 0.32,0.96 v 0.96 l 0.16,0.8 v 62.400002 0.959999 l -0.16,0.960003 -0.32,0.799995 -0.16,0.800003 -0.48,0.799996 -0.48001,0.800003 -0.95999,1.279998 c -0.16,0.160004 -0.16,0.160004 -0.16,0.160004 l -1.28,0.959999 -0.8,0.479996 -0.8,0.480003 -0.8,0.32 -0.8,0.159996 -0.96,0.160004 -0.96,0.159996 H 9.12 L 8.32,71.360001 7.36,71.199997 6.56,71.040001 5.6,70.720001 4.8,70.400002 4.16,69.919998 2.88,68.800003 c -0.16,0 -0.16,0 -0.32,-0.160004 L 1.6,67.519997 1.12,66.720001 0.8,65.919998 0.48,65.120003 0.16,64.160004 V 63.360001 L 0,62.400002 Z m 2.72,62.240002 v 0.639999 L 2.88,63.52 3.04,64.160004 3.2,64.800003 3.52,65.279999 3.68,65.760002 4.64,67.040001 4.48,66.879997 5.44,67.68 6.08,68 l 0.48,0.32 0.64,0.160003 0.64,0.159996 0.64,0.160004 h 0.64 114.24 0.8 l 0.64,-0.160004 0.48,-0.159996 0.64,-0.160003 0.64,-0.32 0.48,-0.32 1.12,-0.800003 -0.16,0.160004 0.8,-1.120003 0.31999,-0.479996 L 129.44,64.959999 129.60001,64.32 129.75999,63.68 129.92,63.040001 V 62.240002 0 -0.64 L 129.75999,-1.28 129.60001,-1.92 129.44,-2.56 129.11999,-3.04 128.96001,-3.52 128,-4.64 l 0.16,0.16 -0.96,-0.96 -0.64,-0.32 -0.48,-0.16 -0.64,-0.32 -0.64,-0.16 h -0.64 l -0.64,-0.16 H 9.28 L 8.64,-6.4 H 8 L 7.36,-6.24 6.72,-6.08 6.08,-5.76 5.6,-5.44 4.48,-4.48 4.64,-4.64 3.84,-3.68 3.52,-3.2 3.2,-2.56 3.04,-2.08 2.88,-1.44 2.72,-0.8 V 0 Z" />
      </g>
      <g
         transform="scale(0.292969)"
         id="g865">
        <text
           id="text869"
           style="font-variant:normal;font-weight:normal;font-size:40.95999908px;font-family:F1;-inkscape-font-specification:F1;writing-mode:lr-tb;fill:#ffffff;fill-opacity:1;fill-rule:nonzero;stroke:#ffffff;stroke-width:0.41;stroke-linecap:butt;stroke-linejoin:miter;stroke-miterlimit:10;stroke-dasharray:none;stroke-opacity:1"
           transform="translate(1136.48,953.59998)">
          <tspan
             id="tspan867"
             sodipodi:role="line"
             y="0"
             x="0 41.779198 83.148796 124.51839 165.888 206.84799">数据完整性准</tspan>
        </text>
      </g>
      <g
         transform="scale(0.036621)"
         id="g871">
        <text
           id="text875"
           style="font-variant:normal;font-weight:normal;font-size:327.67999268px;font-family:F2;-inkscape-font-specification:F2;writing-mode:lr-tb;fill:#ffffff;fill-opacity:1;fill-rule:nonzero;stroke:none"
           transform="translate(9044,8165.7598)">
          <tspan
             id="tspan873"
             sodipodi:role="line"
             y="0"
             x="0 271.9744 435.81439 547.22559 711.06561 789.7088 901.12 1101.0048 1209.1392 1376.256 1559.7567 1687.552 1795.6864 1903.8208 2087.3215">Data integrity</tspan>
        </text>
      </g>
      <g
         transform="scale(0.036621)"
         id="g877">
        <text
           id="text881"
           style="font-variant:normal;font-weight:normal;font-size:327.67999268px;font-family:F2;-inkscape-font-specification:F2;writing-mode:lr-tb;fill:#ffffff;fill-opacity:1;fill-rule:nonzero;stroke:none"
           transform="translate(9044,8528.4805)">
          <tspan
             id="tspan879"
             sodipodi:role="line"
             y="0"
             x="0 127.7952 327.67999 527.56476 730.72638 894.56641 1189.4784 1353.3184 1556.48 1664.6144 1831.7312 1939.8656">fundamentals</tspan>
        </text>
      </g>
      <g
         id="g883">
        <path
           inkscape:connector-curvature="0"
           id="path885"
           style="fill:#abb1bf;fill-opacity:1;fill-rule:evenodd;stroke:none"
           d="m 336.79999,369.60001 v 96.63998 H 325.12 v -96.63998 z" />
      </g>
      <g
         transform="translate(304.64001,357.76001)"
         id="g887">
        <path
           inkscape:connector-curvature="0"
           id="path889"
           style="fill:#1f497d;fill-opacity:1;fill-rule:evenodd;stroke:none"
           d="m 0,0 c 0,-4.32 3.36,-7.84 7.68,-7.84 h 114.4 c 4.32,0 7.67999,3.52 7.67999,7.84 v 62.240002 c 0,4.319996 -3.35999,7.84 -7.67999,7.84 H 7.68 c -4.32,0 -7.68,-3.520004 -7.68,-7.84 z" />
      </g>
      <g
         transform="translate(303.20001,357.76001)"
         id="g891">
        <path
           inkscape:connector-curvature="0"
           id="path893"
           style="fill:#eeece1;fill-opacity:1;fill-rule:nonzero;stroke:none"
           d="m 0,0 v -0.96 l 0.16,-0.8 0.32,-0.96 0.32,-0.8 0.32,-0.8 0.48,-0.8 0.96,-1.28 c 0.16,0 0.16,-0.16 0.32,-0.16 L 4,-7.52 4.8,-8 5.6,-8.48 6.4,-8.8 7.2,-8.96 8.16,-9.12 h 0.96 114.4 0.8 l 0.96,0.16 0.8,0.16 0.96,0.32 0.8,0.32 0.64,0.48 1.44,1.12 c 0,0 0,0.16 0.16,0.16 l 0.95999,1.12 0.48001,0.8 0.32,0.8 0.32,0.8 0.32,0.96 v 0.8 l 0.16,0.96 v 62.400002 0.959999 l -0.16,0.960003 -0.32,0.799995 -0.16,0.800003 -0.48,0.799996 -0.48001,0.800003 -0.95999,1.279998 c -0.16,0.160004 -0.16,0.160004 -0.16,0.160004 l -1.28,0.959999 -0.8,0.479996 -0.8,0.480003 -0.8,0.32 -0.8,0.159996 -0.96,0.160004 -0.96,0.159996 H 9.12 L 8.32,71.360001 7.36,71.199997 6.56,71.040001 5.6,70.720001 4.8,70.400002 4.16,69.919998 2.88,68.800003 c -0.16,0 -0.16,0 -0.32,-0.160004 L 1.6,67.519997 1.12,66.720001 0.8,65.919998 0.48,65.120003 0.16,64.160004 V 63.360001 L 0,62.400002 Z m 2.72,62.240002 v 0.639999 L 2.88,63.52 l 0.16,0.640004 0.16,0.639999 0.32,0.479996 0.16,0.480003 0.96,1.279999 -0.16,-0.32 L 5.44,67.68 6.08,68 l 0.48,0.32 0.64,0.160003 0.64,0.159996 0.64,0.160004 h 0.64 114.24 0.8 l 0.64,-0.160004 0.48,-0.159996 0.64,-0.160003 0.64,-0.32 0.48,-0.32 1.12,-0.959999 -0.16,0.32 0.8,-1.120003 0.31999,-0.479996 L 129.44,64.959999 129.60001,64.32 129.75999,63.68 129.92,63.040001 V 62.240002 0 -0.64 L 129.75999,-1.28 129.60001,-1.92 129.44,-2.56 129.11999,-3.04 128.96001,-3.52 128,-4.64 l 0.16,0.16 -0.96,-0.96 -0.64,-0.32 -0.48,-0.16 -0.64,-0.32 -0.64,-0.16 h -0.64 l -0.64,-0.16 H 9.28 8.64 L 8,-6.4 7.36,-6.24 6.72,-6.08 6.08,-5.76 5.6,-5.44 4.48,-4.48 4.64,-4.64 3.84,-3.68 3.52,-3.2 3.2,-2.56 3.04,-2.08 2.88,-1.44 2.72,-0.8 V 0 Z" />
      </g>
      <g
         transform="scale(0.292969)"
         id="g895">
        <text
           id="text899"
           style="font-variant:normal;font-weight:normal;font-size:40.95999908px;font-family:F1;-inkscape-font-specification:F1;writing-mode:lr-tb;fill:#ffffff;fill-opacity:1;fill-rule:nonzero;stroke:#ffffff;stroke-width:0.41;stroke-linecap:butt;stroke-linejoin:miter;stroke-miterlimit:10;stroke-dasharray:none;stroke-opacity:1"
           transform="translate(1219.52,1308)">
          <tspan
             id="tspan897"
             sodipodi:role="line"
             y="0"
             x="0 41.369598">重复</tspan>
        </text>
      </g>
      <g
         transform="scale(0.036621)"
         id="g901">
        <text
           id="text905"
           style="font-variant:normal;font-weight:normal;font-size:327.67999268px;font-family:F2;-inkscape-font-specification:F2;writing-mode:lr-tb;fill:#ffffff;fill-opacity:1;fill-rule:nonzero;stroke:none"
           transform="translate(9183.8398,11010.1)">
          <tspan
             id="tspan903"
             sodipodi:role="line"
             y="0"
             x="0 271.9744 471.85919 671.74396 783.15521 891.28955 1035.4688 1202.5856 1310.72 1418.8544 1602.3552">Duplication</tspan>
        </text>
      </g>
      <g
         id="g907">
        <path
           inkscape:connector-curvature="0"
           id="path909"
           style="fill:#abb1bf;fill-opacity:1;fill-rule:nonzero;stroke:none"
           d="m 331.35999,460.79999 h 172 v 11.68002 h -172 z" />
      </g>
      <g
         transform="translate(304.64001,455.20001)"
         id="g911">
        <path
           inkscape:connector-curvature="0"
           id="path913"
           style="fill:#1f497d;fill-opacity:1;fill-rule:evenodd;stroke:none"
           d="m 0,0 c 0,-4.32 3.36,-7.84 7.68,-7.84 h 114.4 c 4.32,0 7.67999,3.52 7.67999,7.84 v 62.240002 c 0,4.319996 -3.35999,7.84 -7.67999,7.84 H 7.68 c -4.32,0 -7.68,-3.520004 -7.68,-7.84 z" />
      </g>
      <g
         transform="translate(303.20001,455.20001)"
         id="g915">
        <path
           inkscape:connector-curvature="0"
           id="path917"
           style="fill:#eeece1;fill-opacity:1;fill-rule:nonzero;stroke:none"
           d="m 0,0 v -0.96 l 0.16,-0.8 0.32,-0.96 0.32,-0.8 0.32,-0.8 0.48,-0.8 0.96,-1.28 C 2.72,-6.56 2.72,-6.56 2.88,-6.56 L 4,-7.52 4.8,-8 5.6,-8.48 6.4,-8.8 7.2,-8.96 8.16,-9.12 h 0.96 114.4 0.8 l 0.96,0.16 0.8,0.16 0.96,0.32 0.8,0.32 0.64,0.48 1.44,1.12 c 0,0 0,0 0.16,0.16 l 0.95999,1.12 0.48001,0.8 0.32,0.8 0.32,0.8 0.32,0.96 v 0.8 l 0.16,0.96 v 62.400002 0.959999 L 132.48,64 l -0.32,0.959999 -0.16,0.800003 -0.48,0.799996 -0.48001,0.800003 -0.95999,1.279998 c -0.16,0.160004 -0.16,0.160004 -0.16,0.160004 l -1.28,0.959999 -0.8,0.479996 -0.8,0.480003 -0.8,0.32 -0.8,0.159996 -0.96,0.160004 H 123.52 9.12 8.32 L 7.36,71.199997 6.56,71.040001 5.6,70.720001 4.8,70.400002 4.16,69.919998 2.88,68.800003 c -0.16,0 -0.16,0 -0.32,-0.160004 L 1.6,67.519997 1.12,66.720001 0.8,65.919998 0.48,65.120003 0.16,64.160004 V 63.360001 L 0,62.400002 Z m 2.72,62.240002 v 0.639999 L 2.88,63.52 l 0.16,0.640004 0.16,0.639999 0.32,0.479996 0.16,0.480003 0.96,1.279999 -0.16,-0.32 L 5.44,67.68 6.08,68 l 0.48,0.160004 0.64,0.319999 0.64,0.159996 0.64,0.160004 h 0.64 114.24 0.8 l 0.64,-0.160004 0.48,-0.159996 0.64,-0.160003 0.64,-0.32 0.48,-0.32 1.12,-0.959999 -0.16,0.32 0.8,-1.120003 0.31999,-0.479996 L 129.44,64.959999 129.60001,64.32 129.75999,63.68 129.92,63.040001 V 62.240002 0 -0.64 L 129.75999,-1.28 129.60001,-1.92 129.44,-2.56 129.11999,-3.04 128.96001,-3.52 128,-4.8 l 0.16,0.32 -0.96,-0.96 -0.64,-0.32 -0.48,-0.16 -0.64,-0.32 -0.64,-0.16 -0.64,-0.16 H 123.52 9.28 8.64 L 8,-6.4 7.36,-6.24 6.72,-6.08 6.08,-5.76 5.6,-5.44 4.48,-4.48 4.64,-4.8 3.84,-3.68 3.52,-3.2 3.2,-2.56 3.04,-2.08 2.88,-1.44 2.72,-0.8 V 0 Z" />
      </g>
      <g
         transform="scale(0.292969)"
         id="g919">
        <text
           id="text923"
           style="font-variant:normal;font-weight:normal;font-size:40.95999908px;font-family:F1;-inkscape-font-specification:F1;writing-mode:lr-tb;fill:#ffffff;fill-opacity:1;fill-rule:nonzero;stroke:#ffffff;stroke-width:0.41;stroke-linecap:butt;stroke-linejoin:miter;stroke-miterlimit:10;stroke-dasharray:none;stroke-opacity:1"
           transform="translate(1198.72,1640.64)">
          <tspan
             id="tspan921"
             sodipodi:role="line"
             y="0"
             x="0 41.779198 83.148796">准确性</tspan>
        </text>
      </g>
      <g
         transform="scale(0.036621)"
         id="g925">
        <text
           id="text929"
           style="font-variant:normal;font-weight:normal;font-size:327.67999268px;font-family:F2;-inkscape-font-specification:F2;writing-mode:lr-tb;fill:#ffffff;fill-opacity:1;fill-rule:nonzero;stroke:none"
           transform="translate(9406.5596,13670.9)">
          <tspan
             id="tspan927"
             sodipodi:role="line"
             y="0"
             x="0 252.3136 396.4928 540.672 743.83356 868.35199 1035.4688 1179.6479">Accuracy</tspan>
        </text>
      </g>
      <g
         id="g931">
        <path
           inkscape:connector-curvature="0"
           id="path933"
           style="fill:#abb1bf;fill-opacity:1;fill-rule:evenodd;stroke:none"
           d="m 497.92001,466.23999 v -96.63998 h 11.68 v 96.63998 z" />
      </g>
      <g
         transform="translate(477.28,455.20001)"
         id="g935">
        <path
           inkscape:connector-curvature="0"
           id="path937"
           style="fill:#1f497d;fill-opacity:1;fill-rule:evenodd;stroke:none"
           d="m 0,0 c 0,-4.32 3.52,-7.84 7.84,-7.84 h 114.4 c 4.16,0 7.68,3.52 7.68,7.84 v 62.240002 c 0,4.319996 -3.52,7.84 -7.68,7.84 H 7.84 c -4.32,0 -7.84,-3.520004 -7.84,-7.84 z" />
      </g>
      <g
         transform="translate(476,455.20001)"
         id="g939">
        <path
           inkscape:connector-curvature="0"
           id="path941"
           style="fill:#eeece1;fill-opacity:1;fill-rule:nonzero;stroke:none"
           d="m 0,0 v -0.96 l 0.16,-0.8 0.16,-0.96 0.32,-0.8 0.48,-0.8 0.48,-0.8 0.96,-1.28 C 2.72,-6.56 2.72,-6.56 2.72,-6.56 L 4,-7.52 4.8,-8 5.44,-8.48 6.4,-8.8 7.2,-8.96 8.16,-9.12 h 0.96 114.4 0.8 l 0.96,0.16 0.8,0.16 0.8,0.32 0.8,0.32 0.8,0.48 1.27999,1.12 c 0.16001,0 0.16001,0 0.32001,0.16 l 0.8,1.12 0.64,0.8 0.32,0.8 0.32,0.8 0.16001,0.96 0.15999,0.8 0.16,0.96 v 62.400002 l -0.16,0.959999 V 64 l -0.32,0.959999 -0.32,0.800003 -0.32,0.799996 -0.48001,0.800003 -0.95999,1.279998 c -0.16,0.160004 -0.16,0.160004 -0.32001,0.160004 l -1.11999,0.959999 -0.8,0.479996 -0.8,0.480003 -0.8,0.32 -0.96,0.159996 -0.8,0.160004 H 123.52 9.12 8.32 L 7.36,71.199997 6.56,71.040001 5.6,70.720001 4.8,70.400002 4.16,69.919998 2.72,68.800003 c 0,0 0,0 -0.16,-0.160004 L 1.6,67.519997 1.12,66.720001 0.8,65.919998 0.48,65.120003 0.16,64.160004 0,63.360001 V 62.400002 Z M 2.72,62.240002 V 62.880001 63.52 l 0.16,0.640004 0.32,0.639999 0.16,0.479996 0.32,0.480003 0.96,1.279999 -0.16,-0.32 L 5.44,67.68 6.08,68 l 0.48,0.160004 0.64,0.319999 0.64,0.159996 0.64,0.160004 H 9.12 123.36 124 l 0.64,-0.160004 0.64,-0.159996 0.64,-0.160003 0.48,-0.32 0.64,-0.32 1.12,-0.959999 -0.16,0.32 0.8,-1.120003 0.31999,-0.479996 L 129.44,64.959999 129.60001,64.32 129.75999,63.68 129.92,63.040001 V 62.240002 0 -0.64 L 129.75999,-1.28 129.60001,-1.92 129.44,-2.56 129.11999,-3.04 128.96001,-3.52 128,-4.8 l 0.16,0.32 -1.12,-0.96 -0.48,-0.32 -0.48,-0.16 -0.64,-0.32 -0.64,-0.16 -0.64,-0.16 H 123.52 9.28 8.48 L 7.84,-6.4 7.2,-6.24 6.72,-6.08 6.08,-5.76 5.6,-5.44 4.48,-4.48 4.64,-4.8 3.84,-3.68 3.52,-3.2 3.2,-2.56 3.04,-2.08 2.88,-1.44 2.72,-0.8 V 0 Z" />
      </g>
      <g
         transform="scale(0.292969)"
         id="g943">
        <text
           id="text947"
           style="font-variant:normal;font-weight:normal;font-size:40.95999908px;font-family:F1;-inkscape-font-specification:F1;writing-mode:lr-tb;fill:#ffffff;fill-opacity:1;fill-rule:nonzero;stroke:#ffffff;stroke-width:0.41;stroke-linecap:butt;stroke-linejoin:miter;stroke-miterlimit:10;stroke-dasharray:none;stroke-opacity:1"
           transform="translate(1726.4,1618.72)">
          <tspan
             id="tspan945"
             sodipodi:role="line"
             y="0"
             x="0 41.369598 82.739197 124.51839 165.888 206.84799">一致性和同步</tspan>
        </text>
      </g>
      <g
         transform="scale(0.036621)"
         id="g949">
        <text
           id="text953"
           style="font-variant:normal;font-weight:normal;font-size:327.67999268px;font-family:F2;-inkscape-font-specification:F2;writing-mode:lr-tb;fill:#ffffff;fill-opacity:1;fill-rule:nonzero;stroke:none"
           transform="translate(13570.4,13487.4)">
          <tspan
             id="tspan951"
             sodipodi:role="line"
             y="0"
             x="0 235.9296 419.43039 619.31519 763.49438 874.90558 1019.0848 1127.2191 1294.3359 1494.2208 1638.4 1821.9008 1900.5439 2067.6606 2267.5457 2467.4304">Consistency and</tspan>
        </text>
      </g>
      <g
         transform="scale(0.036621)"
         id="g955">
        <text
           id="text959"
           style="font-variant:normal;font-weight:normal;font-size:327.67999268px;font-family:F2;-inkscape-font-specification:F2;writing-mode:lr-tb;fill:#ffffff;fill-opacity:1;fill-rule:nonzero;stroke:none"
           transform="translate(13592.2,13849.9)">
          <tspan
             id="tspan957"
             sodipodi:role="line"
             y="0"
             x="0 144.1792 327.67999 527.56476 671.74396 874.90558 999.42395 1182.9248 1386.0864 1494.2208 1661.3375 1825.1776 1936.5887 2044.7231 2228.2239">synchronization</tspan>
        </text>
      </g>
      <g
         id="g961">
        <path
           inkscape:connector-curvature="0"
           id="path963"
           style="fill:#abb1bf;fill-opacity:1;fill-rule:evenodd;stroke:none"
           d="M 497.92001,368.79999 V 272.16 h 11.68 v 96.63999 z" />
      </g>
      <g
         transform="translate(477.28,357.76001)"
         id="g965">
        <path
           inkscape:connector-curvature="0"
           id="path967"
           style="fill:#1f497d;fill-opacity:1;fill-rule:evenodd;stroke:none"
           d="m 0,0 c 0,-4.32 3.52,-7.84 7.84,-7.84 h 114.4 c 4.16,0 7.68,3.52 7.68,7.84 v 62.240002 c 0,4.319996 -3.52,7.84 -7.68,7.84 H 7.84 c -4.32,0 -7.84,-3.520004 -7.84,-7.84 z" />
      </g>
      <g
         transform="translate(476,357.76001)"
         id="g969">
        <path
           inkscape:connector-curvature="0"
           id="path971"
           style="fill:#eeece1;fill-opacity:1;fill-rule:nonzero;stroke:none"
           d="m 0,0 v -0.96 l 0.16,-0.8 0.16,-0.96 0.32,-0.8 0.48,-0.8 0.48,-0.8 0.96,-1.28 c 0.16,0 0.16,-0.16 0.16,-0.16 L 4,-7.52 4.8,-8 5.44,-8.48 6.4,-8.8 7.2,-8.96 8.16,-9.12 h 0.96 114.4 0.8 l 0.96,0.16 0.8,0.16 0.8,0.32 0.8,0.32 0.8,0.48 1.27999,1.12 c 0.16001,0 0.16001,0.16 0.32001,0.16 l 0.8,1.12 0.64,0.8 0.32,0.8 0.32,0.8 0.16001,0.96 0.15999,0.8 0.16,0.96 v 62.400002 l -0.16,0.959999 v 0.960003 l -0.32,0.799995 -0.32,0.800003 -0.32,0.799996 -0.48001,0.800003 -0.95999,1.279998 c -0.16,0.160004 -0.16,0.160004 -0.32001,0.160004 l -1.11999,0.959999 -0.8,0.479996 -0.8,0.480003 -0.8,0.32 -0.96,0.159996 -0.8,0.160004 -0.96,0.159996 H 9.12 L 8.32,71.360001 7.36,71.199997 6.56,71.040001 5.6,70.720001 4.8,70.400002 4.16,69.919998 2.72,68.800003 c 0,0 0,0 -0.16,-0.160004 L 1.6,67.519997 1.12,66.720001 0.8,65.919998 0.48,65.120003 0.16,64.160004 0,63.360001 V 62.400002 Z M 2.72,62.240002 V 62.880001 63.52 l 0.16,0.640004 0.32,0.639999 0.16,0.479996 0.32,0.480003 0.96,1.279999 -0.16,-0.32 L 5.44,67.68 6.08,68 l 0.48,0.32 0.64,0.160003 0.64,0.159996 0.64,0.160004 H 9.12 123.36 124 l 0.64,-0.160004 0.64,-0.159996 0.64,-0.160003 0.48,-0.32 0.64,-0.32 1.12,-0.959999 -0.16,0.32 0.8,-1.120003 0.31999,-0.479996 L 129.44,64.959999 129.60001,64.32 129.75999,63.68 129.92,63.040001 V 62.240002 0 -0.64 L 129.75999,-1.28 129.60001,-1.92 129.44,-2.56 129.11999,-3.04 128.96001,-3.52 128,-4.64 l 0.16,0.16 -1.12,-0.96 -0.48,-0.32 -0.48,-0.16 -0.64,-0.32 -0.64,-0.16 h -0.64 l -0.64,-0.16 H 9.28 8.48 L 7.84,-6.4 7.2,-6.24 6.72,-6.08 6.08,-5.76 5.6,-5.44 4.48,-4.48 4.64,-4.64 3.84,-3.68 3.52,-3.2 3.2,-2.56 3.04,-2.08 2.88,-1.44 2.72,-0.8 V 0 Z" />
      </g>
      <g
         transform="scale(0.292969)"
         id="g973">
        <text
           id="text977"
           style="font-variant:normal;font-weight:normal;font-size:40.95999908px;font-family:F1;-inkscape-font-specification:F1;writing-mode:lr-tb;fill:#ffffff;fill-opacity:1;fill-rule:nonzero;stroke:#ffffff;stroke-width:0.41;stroke-linecap:butt;stroke-linejoin:miter;stroke-miterlimit:10;stroke-dasharray:none;stroke-opacity:1"
           transform="translate(1706.08,1286.08)">
          <tspan
             id="tspan975"
             sodipodi:role="line"
             y="0"
             x="0 41.779198 83.148796 124.51839 165.888 206.84799 248.6272">及时性和可用性</tspan>
        </text>
      </g>
      <g
         transform="scale(0.036621)"
         id="g979">
        <text
           id="text983"
           style="font-variant:normal;font-weight:normal;font-size:327.67999268px;font-family:F2;-inkscape-font-specification:F2;writing-mode:lr-tb;fill:#ffffff;fill-opacity:1;fill-rule:nonzero;stroke:none"
           transform="translate(13653.3,10826.6)">
          <tspan
             id="tspan981"
             sodipodi:role="line"
             y="0"
             x="0 219.54559 327.67999 619.31519 786.43201 894.56641 1005.9776 1205.8624 1372.9791 1517.1583 1661.3375 1739.9807 1903.8208 2106.9824 2306.8672">Timeliness and</tspan>
        </text>
      </g>
      <g
         transform="scale(0.036621)"
         id="g985">
        <text
           id="text989"
           style="font-variant:normal;font-weight:normal;font-size:327.67999268px;font-family:F2;-inkscape-font-specification:F2;writing-mode:lr-tb;fill:#ffffff;fill-opacity:1;fill-rule:nonzero;stroke:none"
           transform="translate(13946.1,11189.1)">
          <tspan
             id="tspan987"
             sodipodi:role="line"
             y="0"
             x="0 167.11679 350.61758 514.45758 625.86877 734.00317 901.12 1101.0048 1209.1392 1320.5504 1428.6848 1536.8192">availability</tspan>
        </text>
      </g>
      <g
         id="g991">
        <path
           inkscape:connector-curvature="0"
           id="path993"
           style="fill:#abb1bf;fill-opacity:1;fill-rule:evenodd;stroke:none"
           d="M 497.92001,271.35999 V 174.72 h 11.68 v 96.63999 z" />
      </g>
      <g
         transform="translate(477.28,260.32001)"
         id="g995">
        <path
           inkscape:connector-curvature="0"
           id="path997"
           style="fill:#1f497d;fill-opacity:1;fill-rule:evenodd;stroke:none"
           d="m 0,0 c 0,-4.32 3.52,-7.84 7.84,-7.84 h 114.4 c 4.16,0 7.68,3.52 7.68,7.84 v 62.240002 c 0,4.319996 -3.52,7.84 -7.68,7.84 H 7.84 c -4.32,0 -7.84,-3.520004 -7.84,-7.84 z" />
      </g>
      <g
         transform="translate(476,260.32001)"
         id="g999">
        <path
           inkscape:connector-curvature="0"
           id="path1001"
           style="fill:#eeece1;fill-opacity:1;fill-rule:nonzero;stroke:none"
           d="m 0,0 v -0.96 l 0.16,-0.8 0.16,-0.96 0.32,-0.8 0.48,-0.8 0.48,-0.8 0.96,-1.28 c 0.16,0 0.16,-0.16 0.16,-0.16 L 4,-7.52 4.8,-8 5.44,-8.48 6.4,-8.8 7.2,-8.96 8.16,-9.12 h 0.96 114.4 0.8 l 0.96,0.16 0.8,0.16 0.8,0.32 0.8,0.32 0.8,0.48 1.27999,1.12 c 0.16001,0 0.16001,0.16 0.32001,0.16 l 0.8,1.12 0.64,0.8 0.32,0.8 0.32,0.8 0.16001,0.96 0.15999,0.96 0.16,0.8 v 62.400002 l -0.16,0.959999 v 0.960003 l -0.32,0.799995 -0.32,0.800003 -0.32,0.799996 -0.48001,0.800003 -0.95999,1.279998 c -0.16,0.160004 -0.16,0.160004 -0.32001,0.160004 l -1.11999,0.959999 -0.8,0.479996 -0.8,0.480003 -0.8,0.32 -0.96,0.159996 -0.8,0.160004 -0.96,0.159996 H 9.12 L 8.32,71.360001 7.36,71.199997 6.56,71.040001 5.6,70.720001 4.8,70.400002 4.16,69.919998 2.72,68.800003 c 0,0 0,0 -0.16,-0.160004 L 1.6,67.519997 1.12,66.720001 0.8,65.919998 0.48,65.120003 0.16,64.160004 0,63.360001 V 62.400002 Z M 2.72,62.240002 V 62.880001 63.52 l 0.16,0.640004 0.32,0.639999 0.16,0.479996 0.32,0.480003 0.96,1.279999 L 4.48,66.879997 5.44,67.68 6.08,68 l 0.48,0.32 0.64,0.160003 0.64,0.159996 0.64,0.160004 H 9.12 123.36 124 l 0.64,-0.160004 0.64,-0.159996 0.64,-0.160003 0.48,-0.32 0.64,-0.32 1.12,-0.800003 -0.16,0.160004 0.8,-1.120003 0.31999,-0.479996 L 129.44,64.959999 129.60001,64.32 129.75999,63.68 129.92,63.040001 V 62.240002 0 -0.64 L 129.75999,-1.28 129.60001,-1.92 129.44,-2.56 129.11999,-3.04 128.96001,-3.52 128,-4.64 l 0.16,0.16 -1.12,-0.96 -0.48,-0.32 -0.48,-0.16 -0.64,-0.32 -0.64,-0.16 h -0.64 l -0.64,-0.16 H 9.28 L 8.48,-6.4 H 7.84 L 7.2,-6.24 6.72,-6.08 6.08,-5.76 5.6,-5.44 4.48,-4.48 4.64,-4.64 3.84,-3.68 3.52,-3.2 3.2,-2.56 3.04,-2.08 2.88,-1.44 2.72,-0.8 V 0 Z" />
      </g>
      <g
         transform="scale(0.292969)"
         id="g1003">
        <text
           id="text1007"
           style="font-variant:normal;font-weight:normal;font-size:40.95999908px;font-family:F1;-inkscape-font-specification:F1;writing-mode:lr-tb;fill:#ffffff;fill-opacity:1;fill-rule:nonzero;stroke:#ffffff;stroke-width:0.41;stroke-linecap:butt;stroke-linejoin:miter;stroke-miterlimit:10;stroke-dasharray:none;stroke-opacity:1"
           transform="translate(1685.4399,953.59998)">
          <tspan
             id="tspan1005"
             sodipodi:role="line"
             y="0"
             x="0 41.369598 82.739197 124.51839 165.888 206.84799 248.6272 289.58719">易用性和可维护性</tspan>
        </text>
      </g>
      <g
         transform="scale(0.036621)"
         id="g1009">
        <text
           id="text1013"
           style="font-variant:normal;font-weight:normal;font-size:327.67999268px;font-family:F2;-inkscape-font-specification:F2;writing-mode:lr-tb;fill:#ffffff;fill-opacity:1;fill-rule:nonzero;stroke:none"
           transform="translate(13653.3,8165.7598)">
          <tspan
             id="tspan1011"
             sodipodi:role="line"
             y="0"
             x="0 199.8848 367.00159 511.18079 678.29761 756.9408 940.44159 1064.96 1143.6031 1346.7648 1490.944 1654.7839 1739.9807 1903.8208 2106.9824 2306.8672">Ease of use and</tspan>
        </text>
      </g>
      <g
         transform="scale(0.036621)"
         id="g1015">
        <text
           id="text1019"
           style="font-variant:normal;font-weight:normal;font-size:327.67999268px;font-family:F2;-inkscape-font-specification:F2;writing-mode:lr-tb;fill:#ffffff;fill-opacity:1;fill-rule:nonzero;stroke:none"
           transform="translate(13635.8,8528.4805)">
          <tspan
             id="tspan1017"
             sodipodi:role="line"
             y="0"
             x="0 291.63519 458.75198 566.88641 770.04797 878.18237 1045.2992 1153.4336 1353.3184 1520.4352 1720.3199 1831.7312 1939.8656 2048 2159.4111">maintainability</tspan>
        </text>
      </g>
      <g
         id="g1021">
        <path
           inkscape:connector-curvature="0"
           id="path1023"
           style="fill:#abb1bf;fill-opacity:1;fill-rule:nonzero;stroke:none"
           d="m 504.16,168.48 h 171.99997 v 11.68 H 504.16 Z" />
      </g>
      <g
         transform="translate(477.28,162.88)"
         id="g1025">
        <path
           inkscape:connector-curvature="0"
           id="path1027"
           style="fill:#1f497d;fill-opacity:1;fill-rule:evenodd;stroke:none"
           d="m 0,0 c 0,-4.32 3.52,-7.84 7.84,-7.84 h 114.4 c 4.16,0 7.68,3.52 7.68,7.84 v 62.400002 c 0,4.159996 -3.52,7.68 -7.68,7.68 H 7.84 c -4.32,0 -7.84,-3.520004 -7.84,-7.68 z" />
      </g>
      <g
         transform="translate(476,162.88)"
         id="g1029">
        <path
           inkscape:connector-curvature="0"
           id="path1031"
           style="fill:#eeece1;fill-opacity:1;fill-rule:nonzero;stroke:none"
           d="m 0,0 v -0.96 l 0.16,-0.8 0.16,-0.96 0.32,-0.8 0.48,-0.8 0.48,-0.8 0.96,-1.28 c 0.16,0 0.16,-0.16 0.16,-0.16 L 4,-7.52 4.8,-8 5.44,-8.48 6.4,-8.8 7.2,-8.96 8.16,-9.12 h 0.96 114.4 0.8 l 0.96,0.16 0.8,0.16 0.8,0.32 0.8,0.32 0.8,0.48 1.27999,1.12 c 0.16001,0 0.16001,0.16 0.32001,0.16 l 0.8,1.12 0.64,0.8 0.32,0.8 0.32,0.96 0.16001,0.8 0.15999,0.96 0.16,0.8 v 62.560002 l -0.16,0.799999 v 0.960003 l -0.32,0.799995 -0.32,0.800003 -0.32,0.799996 -0.48001,0.800003 -0.95999,1.279998 c -0.16,0.160004 -0.16,0.160004 -0.32001,0.32 l -1.11999,0.800003 -0.8,0.64 -0.8,0.319999 -0.8,0.32 -0.96,0.159996 -0.8,0.160004 -0.96,0.159996 H 9.12 L 8.32,71.360001 H 7.36 l -0.8,-0.32 -0.96,-0.32 L 4.8,70.400002 4.16,69.919998 2.72,68.959999 c 0,-0.159996 0,-0.159996 -0.16,-0.32 L 1.6,67.519997 1.12,66.720001 0.8,65.919998 0.48,65.120003 0.16,64.160004 0,63.360001 V 62.400002 Z M 2.72,62.240002 V 62.880001 63.52 l 0.16,0.640004 0.32,0.639999 0.16,0.479996 0.32,0.639999 0.96,1.120003 L 4.48,66.879997 5.44,67.68 6.08,68 l 0.48,0.32 0.64,0.160003 0.64,0.159996 0.64,0.160004 H 9.12 123.36 124 l 0.64,-0.160004 0.64,-0.159996 0.64,-0.160003 0.48,-0.32 0.64,-0.160004 1.12,-0.959999 -0.16,0.160004 0.8,-1.120003 0.31999,-0.479996 L 129.44,64.959999 129.60001,64.32 129.75999,63.68 129.92,63.040001 V 62.400002 0 -0.64 L 129.75999,-1.28 129.60001,-1.92 129.44,-2.4 129.11999,-3.04 128.96001,-3.52 128,-4.64 l 0.16,0.16 -1.12,-0.8 -0.48,-0.48 -0.48,-0.16 -0.64,-0.32 -0.64,-0.16 h -0.64 l -0.64,-0.16 H 9.28 L 8.48,-6.4 H 7.84 L 7.2,-6.24 6.72,-6.08 6.08,-5.76 5.6,-5.44 4.48,-4.48 4.64,-4.64 3.84,-3.68 3.52,-3.2 3.2,-2.56 3.04,-2.08 2.88,-1.44 2.72,-0.8 V 0 Z" />
      </g>
      <g
         transform="scale(0.292969)"
         id="g1033">
        <text
           id="text1037"
           style="font-variant:normal;font-weight:normal;font-size:40.95999908px;font-family:F1;-inkscape-font-specification:F1;writing-mode:lr-tb;fill:#ffffff;fill-opacity:1;fill-rule:nonzero;stroke:#ffffff;stroke-width:0.41;stroke-linecap:butt;stroke-linejoin:miter;stroke-miterlimit:10;stroke-dasharray:none;stroke-opacity:1"
           transform="translate(1767.84,643.35998)">
          <tspan
             id="tspan1035"
             sodipodi:role="line"
             y="0"
             x="0 41.369598 83.148796 124.51839">数据覆盖</tspan>
        </text>
      </g>
      <g
         transform="scale(0.036621)"
         id="g1039">
        <text
           id="text1043"
           style="font-variant:normal;font-weight:normal;font-size:327.67999268px;font-family:F2;-inkscape-font-specification:F2;writing-mode:lr-tb;fill:#ffffff;fill-opacity:1;fill-rule:nonzero;stroke:none"
           transform="translate(13749.4,5692.96)">
          <tspan
             id="tspan1041"
             sodipodi:role="line"
             y="0"
             x="0 271.9744 435.81439 547.22559 711.06561 789.7088 933.888 1117.3888 1300.8895 1468.0063 1595.8015 1759.6416 1943.1423">Data coverage</tspan>
        </text>
      </g>
      <g
         id="g1045">
        <path
           inkscape:connector-curvature="0"
           id="path1047"
           style="fill:#abb1bf;fill-opacity:1;fill-rule:evenodd;stroke:none"
           d="m 682.40002,174.72 v 96.63999 H 670.71997 V 174.72 Z" />
      </g>
      <g
         transform="translate(650.08002,162.88)"
         id="g1049">
        <path
           inkscape:connector-curvature="0"
           id="path1051"
           style="fill:#1f497d;fill-opacity:1;fill-rule:evenodd;stroke:none"
           d="m 0,0 c 0,-4.32 3.52,-7.84 7.84,-7.84 h 114.24 c 4.32,0 7.84,3.52 7.84,7.84 v 62.400002 c 0,4.159996 -3.52,7.68 -7.84,7.68 H 7.84 c -4.32,0 -7.84,-3.520004 -7.84,-7.68 z" />
      </g>
      <g
         transform="translate(648.79999,162.88)"
         id="g1053">
        <path
           inkscape:connector-curvature="0"
           id="path1055"
           style="fill:#eeece1;fill-opacity:1;fill-rule:nonzero;stroke:none"
           d="m 0,0 v -0.96 l 0.16,-0.8 0.16,-0.96 0.32,-0.8 0.48,-0.8 0.32,-0.8 1.12,-1.28 c 0,0 0.16,-0.16 0.16,-0.16 L 3.84,-7.52 4.64,-8 5.44,-8.48 6.4,-8.8 7.2,-8.96 8.16,-9.12 h 0.96 114.24 0.96 l 0.96,0.16 0.8,0.16 0.8,0.32 0.8,0.32 0.8,0.48 1.27999,1.12 c 0.16001,0 0.16001,0.16 0.16001,0.16 l 0.96,1.12 0.48,0.8 0.48,0.8 0.32,0.96 0.16001,0.8 0.15999,0.96 v 0.8 l 0.16,62.560002 -0.16,0.799999 -0.15999,0.960003 -0.16001,0.799995 -0.32,0.800003 -0.32,0.799996 -0.48001,0.800003 -1.11999,1.279998 c 0,0.160004 0,0.160004 -0.16001,0.32 l -1.11999,0.800003 -0.8,0.64 -0.8,0.319999 -0.8,0.32 -0.96,0.159996 -0.8,0.160004 -0.96,0.159996 H 9.12 L 8.32,71.360001 H 7.36 l -0.96,-0.32 -0.8,-0.32 L 4.8,70.400002 4,69.919998 2.72,68.959999 c 0,-0.159996 -0.16,-0.159996 -0.16,-0.32 L 1.6,67.519997 1.12,66.720001 0.8,65.919998 0.48,65.120003 0.16,64.160004 0,63.360001 V 62.400002 Z M 2.72,62.240002 V 62.880001 63.52 l 0.16,0.640004 0.32,0.639999 0.16,0.479996 0.32,0.639999 0.96,1.120003 L 4.48,66.879997 5.44,67.68 5.92,68 l 0.64,0.32 0.64,0.160003 0.48,0.159996 0.64,0.160004 h 0.8 114.24 0.64 l 0.64,-0.160004 0.64,-0.159996 0.64,-0.160003 0.48,-0.32 0.48,-0.160004 1.28,-0.959999 -0.32,0.160004 0.96,-1.120003 0.31999,-0.479996 L 129.44,64.959999 129.60001,64.32 129.75999,63.68 129.92,63.040001 V 62.400002 0 -0.64 L 129.75999,-1.28 129.60001,-1.92 129.44,-2.4 129.11999,-3.04 128.8,-3.52 l -0.96,-1.12 0.32,0.16 -1.12,-0.8 -0.48,-0.48 -0.48,-0.16 -0.64,-0.32 -0.64,-0.16 h -0.64 l -0.8,-0.16 H 9.12 L 8.48,-6.4 H 7.84 L 7.2,-6.24 6.72,-6.08 6.08,-5.76 5.6,-5.44 4.48,-4.48 4.64,-4.64 3.84,-3.68 3.52,-3.2 3.2,-2.56 2.88,-2.08 2.72,-1.44 V -0.8 0 Z" />
      </g>
      <g
         transform="scale(0.292969)"
         id="g1057">
        <text
           id="text1061"
           style="font-variant:normal;font-weight:normal;font-size:40.95999908px;font-family:F1;-inkscape-font-specification:F1;writing-mode:lr-tb;fill:#ffffff;fill-opacity:1;fill-rule:nonzero;stroke:#ffffff;stroke-width:0.41;stroke-linecap:butt;stroke-linejoin:miter;stroke-miterlimit:10;stroke-dasharray:none;stroke-opacity:1"
           transform="translate(2357.6001,643.35998)">
          <tspan
             id="tspan1059"
             sodipodi:role="line"
             y="0"
             x="0 41.779198 83.148796 124.51839">表达质量</tspan>
        </text>
      </g>
      <g
         transform="scale(0.036621)"
         id="g1063">
        <text
           id="text1067"
           style="font-variant:normal;font-weight:normal;font-size:327.67999268px;font-family:F2;-inkscape-font-specification:F2;writing-mode:lr-tb;fill:#ffffff;fill-opacity:1;fill-rule:nonzero;stroke:none"
           transform="translate(18005,5692.96)">
          <tspan
             id="tspan1065"
             sodipodi:role="line"
             y="0"
             x="0 199.8848 327.67999 494.79678 638.97601 802.81598 1005.9776 1114.1119 1281.2288 1389.3632 1497.4976 1680.9984 1884.1599 1956.2495 2159.4111 2359.2959 2526.4128 2634.5471 2742.6816 2854.0928">Presentation quality</tspan>
        </text>
      </g>
      <g
         transform="translate(650.08002,260.32001)"
         id="g1069">
        <path
           inkscape:connector-curvature="0"
           id="path1071"
           style="fill:#1f497d;fill-opacity:1;fill-rule:evenodd;stroke:none"
           d="m 0,0 c 0,-4.32 3.52,-7.84 7.84,-7.84 h 114.24 c 4.32,0 7.84,3.52 7.84,7.84 v 62.240002 c 0,4.319996 -3.52,7.84 -7.84,7.84 H 7.84 c -4.32,0 -7.84,-3.520004 -7.84,-7.84 z" />
      </g>
      <g
         transform="translate(648.79999,260.32001)"
         id="g1073">
        <path
           inkscape:connector-curvature="0"
           id="path1075"
           style="fill:#eeece1;fill-opacity:1;fill-rule:nonzero;stroke:none"
           d="m 0,0 v -0.96 l 0.16,-0.8 0.16,-0.96 0.32,-0.8 0.48,-0.8 0.32,-0.8 1.12,-1.28 c 0,0 0.16,-0.16 0.16,-0.16 L 3.84,-7.52 4.64,-8 5.44,-8.48 6.4,-8.8 7.2,-8.96 8.16,-9.12 h 0.96 114.24 0.96 l 0.96,0.16 0.8,0.16 0.8,0.32 0.8,0.32 0.8,0.48 1.27999,1.12 c 0.16001,0 0.16001,0.16 0.16001,0.16 l 0.96,1.12 0.48,0.8 0.48,0.8 0.32,0.8 0.16001,0.96 0.15999,0.96 v 0.8 l 0.16,62.400002 -0.16,0.959999 -0.15999,0.960003 -0.16001,0.799995 -0.32,0.800003 -0.32,0.799996 -0.48001,0.800003 -1.11999,1.279998 c 0,0.160004 0,0.160004 -0.16001,0.160004 l -1.11999,0.959999 -0.8,0.479996 -0.8,0.480003 -0.8,0.32 -0.96,0.159996 -0.8,0.160004 -0.96,0.159996 H 9.12 L 8.32,71.360001 7.36,71.199997 6.4,71.040001 5.6,70.720001 4.8,70.400002 4,69.919998 2.72,68.800003 c 0,0 -0.16,0 -0.16,-0.160004 L 1.6,67.519997 1.12,66.720001 0.8,65.919998 0.48,65.120003 0.16,64.160004 0,63.360001 V 62.400002 Z M 2.72,62.240002 V 62.880001 63.52 l 0.16,0.640004 0.32,0.639999 0.16,0.479996 0.32,0.480003 0.96,1.279999 L 4.48,66.879997 5.44,67.68 5.92,68 l 0.64,0.32 0.64,0.160003 0.48,0.159996 0.64,0.160004 h 0.8 114.24 0.64 l 0.64,-0.160004 0.64,-0.159996 0.64,-0.160003 0.48,-0.32 0.48,-0.32 1.28,-0.800003 -0.32,0.160004 0.96,-1.120003 0.31999,-0.479996 L 129.44,64.959999 129.60001,64.32 129.75999,63.68 129.92,63.040001 V 62.240002 0 -0.64 l -0.16001,-0.64 -0.15998,-0.64 -0.16001,-0.64 -0.32001,-0.48 -0.31999,-0.48 -0.96,-1.12 0.32,0.16 -1.12,-0.96 -0.48,-0.32 -0.48,-0.16 -0.64,-0.32 -0.64,-0.16 h -0.64 l -0.8,-0.16 H 9.12 L 8.48,-6.4 H 7.84 L 7.2,-6.24 6.72,-6.08 6.08,-5.76 5.6,-5.44 4.48,-4.48 4.64,-4.64 3.84,-3.68 3.52,-3.2 3.2,-2.56 2.88,-2.08 2.72,-1.44 V -0.8 0 Z" />
      </g>
      <g
         transform="scale(0.292969)"
         id="g1077">
        <text
           id="text1081"
           style="font-variant:normal;font-weight:normal;font-size:40.95999908px;font-family:F1;-inkscape-font-specification:F1;writing-mode:lr-tb;fill:#ffffff;fill-opacity:1;fill-rule:nonzero;stroke:#ffffff;stroke-width:0.41;stroke-linecap:butt;stroke-linejoin:miter;stroke-miterlimit:10;stroke-dasharray:none;stroke-opacity:1"
           transform="translate(2254.3999,926.23999)">
          <tspan
             id="tspan1079"
             sodipodi:role="line"
             y="0"
             x="0 41.779198 83.148796 124.51839 165.888 206.84799 248.6272 289.58719 330.54718">可理解性、相关性和</tspan>
        </text>
      </g>
      <g
         transform="scale(0.292969)"
         id="g1083">
        <text
           id="text1087"
           style="font-variant:normal;font-weight:normal;font-size:40.95999908px;font-family:F1;-inkscape-font-specification:F1;writing-mode:lr-tb;fill:#ffffff;fill-opacity:1;fill-rule:nonzero;stroke:#ffffff;stroke-width:0.41;stroke-linecap:butt;stroke-linejoin:miter;stroke-miterlimit:10;stroke-dasharray:none;stroke-opacity:1"
           transform="translate(2378.3999,980.32001)">
          <tspan
             id="tspan1085"
             sodipodi:role="line"
             y="0"
             x="0 41.369598 83.148796">可信度</tspan>
        </text>
      </g>
      <g
         transform="scale(0.036621)"
         id="g1089">
        <text
           id="text1093"
           style="font-variant:normal;font-weight:normal;font-size:327.67999268px;font-family:F2;-inkscape-font-specification:F2;writing-mode:lr-tb;fill:#ffffff;fill-opacity:1;fill-rule:nonzero;stroke:none"
           transform="translate(17926.199,8379.8398)">
          <tspan
             id="tspan1091"
             sodipodi:role="line"
             y="0"
             x="0 199.8848 367.00159 494.79678 638.97601 802.81598 1005.9776 1114.1119 1222.2463 1405.7472 1608.9088 1690.8287 1766.1952 1890.7135 2057.8303 2165.9648 2333.0815 2516.5823 2683.6992 2883.584 3027.7632 3194.8799">Perception, relevance</tspan>
        </text>
      </g>
      <g
         transform="scale(0.036621)"
         id="g1095">
        <text
           id="text1099"
           style="font-variant:normal;font-weight:normal;font-size:327.67999268px;font-family:F2;-inkscape-font-specification:F2;writing-mode:lr-tb;fill:#ffffff;fill-opacity:1;fill-rule:nonzero;stroke:none"
           transform="translate(18857,8742.5596)">
          <tspan
             id="tspan1097"
             sodipodi:role="line"
             y="0"
             x="0 167.11679 367.00159 566.88641 645.5296 756.9408 881.45917 1084.6207 1228.7999">and trust</tspan>
        </text>
      </g>
    </g>
  </g>
</svg>
