<svg width="866" height="651" xmlns="http://www.w3.org/2000/svg" xmlns:xlink="http://www.w3.org/1999/xlink" overflow="hidden"><defs><clipPath id="clip0"><path d="M180 25 1046 25 1046 676 180 676Z" fill-rule="evenodd" clip-rule="evenodd"/></clipPath></defs><g clip-path="url(#clip0)" transform="translate(-180 -25)"><path d="M681.5 325.5 681.5 571.63 793.599 571.63" stroke="#FFC000" stroke-miterlimit="8" fill="none" fill-rule="evenodd"/><path d="M681.5 325.5 681.5 398.608 793.599 398.608" stroke="#FFC000" stroke-miterlimit="8" fill="none" fill-rule="evenodd"/><path d="M534.5 152.5 534.5 178.088 681.935 178.088 681.935 203.676" stroke="#A5A5A5" stroke-miterlimit="8" fill="none" fill-rule="evenodd"/><path d="M386.5 325.5 386.5 571.63 498.599 571.63" stroke="#FFC000" stroke-miterlimit="8" fill="none" fill-rule="evenodd"/><path d="M386.5 325.5 386.5 398.608 498.599 398.608" stroke="#FFC000" stroke-miterlimit="8" fill="none" fill-rule="evenodd"/><path d="M533.935 152.5 533.935 178.088 386.5 178.088 386.5 203.676" stroke="#A5A5A5" stroke-miterlimit="8" fill="none" fill-rule="evenodd"/><path d="M487.497 52.4795C508.871 26.5845 547.018 23.0624 572.701 44.6129 575.534 46.99 578.145 49.6232 580.503 52.4795" stroke="#ED7D31" stroke-miterlimit="8" fill="none" fill-rule="evenodd"/><path d="M580.503 130.521C559.129 156.416 520.982 159.938 495.299 138.387 492.466 136.01 489.855 133.377 487.497 130.521" stroke="#ED7D31" stroke-miterlimit="8" fill="none" fill-rule="evenodd"/><text font-family="DengXian,DengXian_MSFontService,sans-serif" font-weight="400" font-size="17" transform="translate(481.557 95)">数据质量问题</text><path d="M339.771 225.29C361.426 199.483 399.902 196.116 425.71 217.771 428.43 220.054 430.946 222.57 433.229 225.29" stroke="#ED7D31" stroke-miterlimit="8" fill="none" fill-rule="evenodd"/><path d="M433.229 303.71C411.574 329.518 373.098 332.884 347.29 311.229 344.57 308.946 342.054 306.43 339.771 303.71" stroke="#ED7D31" stroke-miterlimit="8" fill="none" fill-rule="evenodd"/><text font-family="DengXian,DengXian_MSFontService,sans-serif" font-weight="400" font-size="17" transform="translate(334.123 268)">单数据源问题</text><path d="M498.497 398.48C519.871 372.585 558.018 369.062 583.701 390.613 586.534 392.99 589.145 395.623 591.503 398.48" stroke="#ED7D31" stroke-miterlimit="8" fill="none" fill-rule="evenodd"/><path d="M591.503 476.521C570.129 502.416 531.982 505.938 506.299 484.387 503.466 482.01 500.855 479.377 498.497 476.521" stroke="#ED7D31" stroke-miterlimit="8" fill="none" fill-rule="evenodd"/><text font-family="DengXian,DengXian_MSFontService,sans-serif" font-weight="400" font-size="17" transform="translate(509.857 427)">模式层：<tspan x="-34.6667" y="29">不完善的模式设计</tspan></text><path d="M498.497 571.48C519.871 545.584 558.018 542.062 583.701 563.613 586.534 565.99 589.145 568.623 591.503 571.48" stroke="#ED7D31" stroke-miterlimit="8" fill="none" fill-rule="evenodd"/><path d="M591.503 649.521C570.129 675.416 531.982 678.938 506.299 657.387 503.466 655.01 500.855 652.377 498.497 649.521" stroke="#ED7D31" stroke-miterlimit="8" fill="none" fill-rule="evenodd"/><text font-family="DengXian,DengXian_MSFontService,sans-serif" font-weight="400" font-size="17" transform="translate(509.86 589)">实例层：<tspan x="-81.28" y="29">数据记录错误，例如</tspan><tspan x="74.72" y="29">数据录入</tspan><tspan x="144.053" y="29">/</tspan><tspan x="-43.3333" y="50">更新错误、测量错误</tspan></text><path d="M634.771 225.29C656.426 199.483 694.902 196.116 720.71 217.771 723.43 220.054 725.946 222.57 728.229 225.29" stroke="#ED7D31" stroke-miterlimit="8" fill="none" fill-rule="evenodd"/><path d="M728.229 303.71C706.574 329.518 668.098 332.884 642.29 311.229 639.57 308.946 637.054 306.43 634.771 303.71" stroke="#ED7D31" stroke-miterlimit="8" fill="none" fill-rule="evenodd"/><text font-family="DengXian,DengXian_MSFontService,sans-serif" font-weight="400" font-size="17" transform="translate(628.992 268)">多数据源问题</text><path d="M792.771 398.29C814.426 372.483 852.902 369.116 878.71 390.771 881.43 393.054 883.946 395.57 886.229 398.29" stroke="#ED7D31" stroke-miterlimit="8" fill="none" fill-rule="evenodd"/><path d="M886.229 476.71C864.574 502.518 826.098 505.884 800.29 484.229 797.57 481.946 795.054 479.43 792.771 476.71" stroke="#ED7D31" stroke-miterlimit="8" fill="none" fill-rule="evenodd"/><text font-family="DengXian,DengXian_MSFontService,sans-serif" font-weight="400" font-size="17" transform="translate(804.726 427)">模式层：<tspan x="-43.3333" y="29">命名冲突、结构冲突</tspan></text><path d="M792.771 571.29C814.426 545.483 852.902 542.116 878.71 563.771 881.43 566.054 883.946 568.57 886.229 571.29" stroke="#ED7D31" stroke-miterlimit="8" fill="none" fill-rule="evenodd"/><path d="M886.229 649.71C864.574 675.518 826.098 678.884 800.29 657.229 797.57 654.946 795.054 652.43 792.771 649.71" stroke="#ED7D31" stroke-miterlimit="8" fill="none" fill-rule="evenodd"/><text font-family="DengXian,DengXian_MSFontService,sans-serif" font-weight="400" font-size="17" transform="translate(804.726 589)">实例层：<tspan x="-78" y="29">冗余、矛盾的数据</tspan><tspan x="60.6667" y="29">、数据集成</tspan><tspan x="17.3334" y="50">错误</tspan></text></g></svg>