<svg width="713" height="443" xmlns="http://www.w3.org/2000/svg" xmlns:xlink="http://www.w3.org/1999/xlink" overflow="hidden"><defs><clipPath id="clip0"><path d="M256 136 969 136 969 579 256 579Z" fill-rule="evenodd" clip-rule="evenodd"/></clipPath></defs><g clip-path="url(#clip0)" transform="translate(-256 -136)"><text font-family="FZLanTingHeiS-R-GB,FZLanTingHeiS-R-GB_MSFontService,sans-serif" font-weight="400" font-size="24" transform="translate(270.933 368)">数据获取来源<tspan font-family="FZYaoTi,FZYaoTi_MSFontService,sans-serif" font-stretch="semi-condensed" x="242.424" y="-155">从键盘、文本文件、</tspan><tspan font-family="FZYaoTi,FZYaoTi_MSFontService,sans-serif" font-stretch="semi-condensed" x="242.424" y="-126">Office</tspan><tspan font-family="FZYaoTi,FZYaoTi_MSFontService,sans-serif" font-stretch="semi-condensed" x="297.091" y="-126">文件获取数据</tspan><tspan font-family="FZYaoTi,FZYaoTi_MSFontService,sans-serif" font-stretch="semi-condensed" x="242.424" y="2">从数据库获取数据</tspan><tspan font-family="FZYaoTi,FZYaoTi_MSFontService,sans-serif" font-stretch="semi-condensed" x="242.424" y="147">从互联网上获取数据</tspan><tspan font-family="HYQuanTangShiJ,HYQuanTangShiJ_MSFontService,sans-serif" x="541.576" y="-203">键盘</tspan><tspan font-family="HYQuanTangShiJ,HYQuanTangShiJ_MSFontService,sans-serif" x="541.576" y="-140">文本文件</tspan><tspan font-family="HYQuanTangShiJ,HYQuanTangShiJ_MSFontService,sans-serif" x="541.576" y="-77">Office</tspan><tspan font-family="HYQuanTangShiJ,HYQuanTangShiJ_MSFontService,sans-serif" x="604.742" y="-77">文件</tspan><tspan font-family="HYQuanTangShiJ,HYQuanTangShiJ_MSFontService,sans-serif" x="541.576" y="-32">Sql</tspan><tspan font-family="HYQuanTangShiJ,HYQuanTangShiJ_MSFontService,sans-serif" x="574.242" y="-32">数据库</tspan><tspan font-family="HYQuanTangShiJ,HYQuanTangShiJ_MSFontService,sans-serif" x="541.576" y="45">NoSql</tspan><tspan font-family="HYQuanTangShiJ,HYQuanTangShiJ_MSFontService,sans-serif" x="606.242" y="45">数据库</tspan><tspan font-family="HYQuanTangShiJ,HYQuanTangShiJ_MSFontService,sans-serif" x="541.576" y="105">静态网页</tspan><tspan font-family="HYQuanTangShiJ,HYQuanTangShiJ_MSFontService,sans-serif" x="541.576" y="188">动态网页</tspan></text><path d="M489 523C477.402 523 468 511.166 468 496.567L468 386.433C468 371.834 458.598 360 447 360 458.598 360 468 348.166 468 333.567L468 223.433C468 208.834 477.402 197 489 197" stroke="#ED7D31" stroke-width="2" stroke-miterlimit="8" fill="none" fill-rule="evenodd"/><path d="M787 287C779.82 287 774 280.522 774 272.53L774 230.97C774 222.978 768.18 216.5 761 216.5 768.18 216.5 774 210.022 774 202.03L774 160.47C774 152.478 779.82 146 787 146" stroke="#4472C4" stroke-width="2" stroke-miterlimit="8" fill="none" fill-rule="evenodd"/><path d="M788 419C780.82 419 775 413.827 775 407.446L775 378.054C775 371.673 769.18 366.5 762 366.5 769.18 366.5 775 361.327 775 354.946L775 325.554C775 319.173 780.82 314 788 314" stroke="#A5A5A5" stroke-width="2" stroke-miterlimit="8" fill="none" fill-rule="evenodd"/><path d="M788 561C780.82 561 775 554.522 775 546.53L775 519.47C775 511.478 769.18 505 762 505 769.18 505 775 498.522 775 490.53L775 463.47C775 455.478 780.82 449 788 449" stroke="#FFC000" stroke-width="2" stroke-miterlimit="8" fill="none" fill-rule="evenodd"/></g></svg>