<svg width="1153" height="457" xmlns="http://www.w3.org/2000/svg" xmlns:xlink="http://www.w3.org/1999/xlink" overflow="hidden"><defs><clipPath id="clip0"><path d="M80 103 1233 103 1233 560 80 560Z" fill-rule="evenodd" clip-rule="evenodd"/></clipPath></defs><g clip-path="url(#clip0)" transform="translate(-80 -103)"><path d="M81 131.2C81 116.178 93.1778 104 108.2 104L325.8 104C340.822 104 353 116.178 353 131.2L353 532.8C353 547.822 340.822 560 325.8 560L108.2 560C93.1778 560 81 547.822 81 532.8Z" fill="#CFD5EA" fill-rule="evenodd"/><text font-family="FZLanTingHeiS-R-GB,FZLanTingHeiS-R-GB_MSFontService,sans-serif" font-weight="400" font-size="27" transform="translate(110.362 179)">属性数据类型转换</text><path d="M108.5 255.2C108.5 247.634 114.634 241.5 122.2 241.5L312.8 241.5C320.367 241.5 326.5 247.634 326.5 255.2L326.5 364.8C326.5 372.367 320.366 378.5 312.8 378.5L122.2 378.5C114.634 378.5 108.5 372.366 108.5 364.8Z" stroke="#FFFFFF" stroke-miterlimit="8" fill="#4472C4" fill-rule="evenodd"/><text fill="#FFFFFF" font-family="HYQuanTangShiJ,HYQuanTangShiJ_MSFontService,sans-serif" font-weight="400" font-size="21" transform="translate(116.307 285)">当属性之间的取值范<tspan x="0" y="29">围相差较大时，要进</tspan><tspan x="0" y="58">行数据的映射处理</tspan></text><path d="M108 412.8C108 405.178 114.178 399 121.8 399L312.2 399C319.822 399 326 405.178 326 412.8L326 523.2C326 530.822 319.822 537 312.2 537L121.8 537C114.178 537 108 530.822 108 523.2Z" fill="#000000" fill-rule="evenodd" fill-opacity="0.501961"/><text fill="#FFFFFF" font-family="HYQuanTangShiJ,HYQuanTangShiJ_MSFontService,sans-serif" font-weight="400" font-size="21" transform="translate(116.307 458)">例，对经济时间序列<tspan x="0" y="29">数据进行</tspan><tspan x="85.3333" y="29">Log</tspan><tspan x="118.527" y="29">变换</tspan></text><path d="M374 131.2C374 116.178 386.178 104 401.2 104L618.8 104C633.822 104 646 116.178 646 131.2L646 532.8C646 547.822 633.822 560 618.8 560L401.2 560C386.178 560 374 547.822 374 532.8Z" fill="#CFD5EA" fill-rule="evenodd"/><text font-family="FZLanTingHeiS-R-GB,FZLanTingHeiS-R-GB_MSFontService,sans-serif" font-weight="400" font-size="27" transform="translate(456.666 179)">属性构造</text><path d="M401.5 255.2C401.5 247.634 407.634 241.5 415.2 241.5L605.8 241.5C613.367 241.5 619.5 247.634 619.5 255.2L619.5 364.8C619.5 372.367 613.366 378.5 605.8 378.5L415.2 378.5C407.634 378.5 401.5 372.366 401.5 364.8Z" stroke="#FFFFFF" stroke-miterlimit="8" fill="#4472C4" fill-rule="evenodd"/><text fill="#FFFFFF" font-family="HYQuanTangShiJ,HYQuanTangShiJ_MSFontService,sans-serif" font-weight="400" font-size="21" transform="translate(409.278 300)">由现有属性构造新属<tspan x="0" y="29">性</tspan></text><path d="M401 412.8C401 405.178 407.178 399 414.8 399L605.2 399C612.822 399 619 405.178 619 412.8L619 523.2C619 530.822 612.822 537 605.2 537L414.8 537C407.178 537 401 530.822 401 523.2Z" fill="#000000" fill-rule="evenodd" fill-opacity="0.501961"/><text fill="#FFFFFF" font-family="HYQuanTangShiJ,HYQuanTangShiJ_MSFontService,sans-serif" font-weight="400" font-size="21" transform="translate(409.278 458)">例，已知均值和标准<tspan x="0" y="29">差，构造变异系数</tspan></text><path d="M667 131.2C667 116.178 679.178 104 694.2 104L911.8 104C926.822 104 939 116.178 939 131.2L939 532.8C939 547.822 926.822 560 911.8 560L694.2 560C679.178 560 667 547.822 667 532.8Z" fill="#CFD5EA" fill-rule="evenodd"/><text font-family="FZLanTingHeiS-R-GB,FZLanTingHeiS-R-GB_MSFontService,sans-serif" font-weight="400" font-size="27" transform="translate(736.304 179)">数据离散化</text><path d="M694.5 255.2C694.5 247.634 700.634 241.5 708.2 241.5L898.8 241.5C906.367 241.5 912.5 247.634 912.5 255.2L912.5 364.8C912.5 372.367 906.366 378.5 898.8 378.5L708.2 378.5C700.634 378.5 694.5 372.366 694.5 364.8Z" stroke="#FFFFFF" stroke-miterlimit="8" fill="#4472C4" fill-rule="evenodd"/><text fill="#FFFFFF" font-family="HYQuanTangShiJ,HYQuanTangShiJ_MSFontService,sans-serif" font-weight="400" font-size="21" transform="translate(702.249 300)">将连续取值的属性离<tspan x="0" y="29">散化成若干区间</tspan></text><path d="M694 412.8C694 405.178 700.178 399 707.8 399L898.2 399C905.822 399 912 405.178 912 412.8L912 523.2C912 530.822 905.822 537 898.2 537L707.8 537C700.178 537 694 530.822 694 523.2Z" fill="#000000" fill-rule="evenodd" fill-opacity="0.501961"/><text fill="#FFFFFF" font-family="HYQuanTangShiJ,HYQuanTangShiJ_MSFontService,sans-serif" font-weight="400" font-size="21" transform="translate(702.249 458)">例，决策树模型要求<tspan x="0" y="29">离散化数据</tspan></text><path d="M960 131.2C960 116.178 972.178 104 987.2 104L1204.8 104C1219.82 104 1232 116.178 1232 131.2L1232 532.8C1232 547.822 1219.82 560 1204.8 560L987.2 560C972.178 560 960 547.822 960 532.8Z" fill="#CFD5EA" fill-rule="evenodd"/><text font-family="FZLanTingHeiS-R-GB,FZLanTingHeiS-R-GB_MSFontService,sans-serif" font-weight="400" font-size="24" transform="translate(1035.94 179)">数据标准化</text><path d="M987.5 255.2C987.5 247.634 993.634 241.5 1001.2 241.5L1191.8 241.5C1199.37 241.5 1205.5 247.634 1205.5 255.2L1205.5 364.8C1205.5 372.367 1199.37 378.5 1191.8 378.5L1001.2 378.5C993.634 378.5 987.5 372.366 987.5 364.8Z" stroke="#FFFFFF" stroke-miterlimit="8" fill="#4472C4" fill-rule="evenodd"/><text fill="#FFFFFF" font-family="HYQuanTangShiJ,HYQuanTangShiJ_MSFontService,sans-serif" font-weight="400" font-size="21" transform="translate(995.22 300)">消除数据中属性之间<tspan x="0" y="29">量纲不一致的影响</tspan></text><path d="M987 412.8C987 405.178 993.178 399 1000.8 399L1191.2 399C1198.82 399 1205 405.178 1205 412.8L1205 523.2C1205 530.822 1198.82 537 1191.2 537L1000.8 537C993.178 537 987 530.822 987 523.2Z" fill="#000000" fill-rule="evenodd" fill-opacity="0.501961"/><text fill="#FFFFFF" font-family="HYQuanTangShiJ,HYQuanTangShiJ_MSFontService,sans-serif" font-weight="400" font-size="21" transform="translate(995.22 458)">例，标准化<tspan x="106.667" y="0">、最大</tspan>-<tspan x="177.773" y="0">最</tspan><tspan x="0" y="29">小规范化</tspan></text></g></svg>