<svg width="1125" height="425" xmlns="http://www.w3.org/2000/svg" xmlns:xlink="http://www.w3.org/1999/xlink" overflow="hidden"><defs><clipPath id="clip0"><path d="M81 95 1206 95 1206 520 81 520Z" fill-rule="evenodd" clip-rule="evenodd"/></clipPath><linearGradient x1="892" y1="98.5001" x2="892" y2="150.5" gradientUnits="userSpaceOnUse" spreadMethod="reflect" id="fill1"><stop offset="0" stop-color="#71A6DB"/><stop offset="0.5" stop-color="#559BDB"/><stop offset="1" stop-color="#438AC9"/></linearGradient><linearGradient x1="178.5" y1="465.5" x2="178.5" y2="517.5" gradientUnits="userSpaceOnUse" spreadMethod="reflect" id="fill2"><stop offset="0" stop-color="#AFAFAF"/><stop offset="0.5" stop-color="#A5A5A5"/><stop offset="1" stop-color="#929292"/></linearGradient><linearGradient x1="1119" y1="439.5" x2="1119" y2="491.5" gradientUnits="userSpaceOnUse" spreadMethod="reflect" id="fill3"><stop offset="0" stop-color="#81B861"/><stop offset="0.5" stop-color="#6FB242"/><stop offset="1" stop-color="#61A235"/></linearGradient></defs><g clip-path="url(#clip0)" transform="translate(-81 -95)"><path d="M315.151 218.101 400.485 218.101 400.485 257.034 315.151 257.034Z" fill="#4472C4" fill-rule="evenodd"/><path d="M400.485 218.101 485.818 218.101 485.818 257.034 400.485 257.034Z" fill="#4472C4" fill-rule="evenodd"/><path d="M485.818 218.101 571.151 218.101 571.151 257.034 485.818 257.034Z" fill="#4472C4" fill-rule="evenodd"/><path d="M571.151 218.101 656.485 218.101 656.485 257.034 571.151 257.034Z" fill="#4472C4" fill-rule="evenodd"/><path d="M656.485 218.101 741.818 218.101 741.818 257.034 656.485 257.034Z" fill="#4472C4" fill-rule="evenodd"/><path d="M741.818 218.101 827.151 218.101 827.151 257.034 741.818 257.034Z" fill="#4472C4" fill-rule="evenodd"/><path d="M827.151 218.101 912.485 218.101 912.485 257.034 827.151 257.034Z" fill="#4472C4" fill-rule="evenodd"/><path d="M315.151 257.034 400.485 257.034 400.485 295.967 315.151 295.967Z" fill="#CFD5EA" fill-rule="evenodd"/><path d="M400.485 257.034 485.818 257.034 485.818 295.967 400.485 295.967Z" fill="#CFD5EA" fill-rule="evenodd"/><path d="M485.818 257.034 571.151 257.034 571.151 295.967 485.818 295.967Z" fill="#CFD5EA" fill-rule="evenodd"/><path d="M571.151 257.034 656.485 257.034 656.485 295.967 571.151 295.967Z" fill="#CFD5EA" fill-rule="evenodd"/><path d="M656.485 257.034 741.818 257.034 741.818 295.967 656.485 295.967Z" fill="#CFD5EA" fill-rule="evenodd"/><path d="M741.818 257.034 827.151 257.034 827.151 295.967 741.818 295.967Z" fill="#CFD5EA" fill-rule="evenodd"/><path d="M827.151 257.034 912.485 257.034 912.485 295.967 827.151 295.967Z" fill="#CFD5EA" fill-rule="evenodd"/><path d="M315.151 295.967 400.485 295.967 400.485 334.901 315.151 334.901Z" fill="#E9EBF5" fill-rule="evenodd"/><path d="M400.485 295.967 485.818 295.967 485.818 334.901 400.485 334.901Z" fill="#E9EBF5" fill-rule="evenodd"/><path d="M485.818 295.967 571.151 295.967 571.151 334.901 485.818 334.901Z" fill="#E9EBF5" fill-rule="evenodd"/><path d="M571.151 295.967 656.485 295.967 656.485 334.901 571.151 334.901Z" fill="#E9EBF5" fill-rule="evenodd"/><path d="M656.485 295.967 741.818 295.967 741.818 334.901 656.485 334.901Z" fill="#E9EBF5" fill-rule="evenodd"/><path d="M741.818 295.967 827.151 295.967 827.151 334.901 741.818 334.901Z" fill="#E9EBF5" fill-rule="evenodd"/><path d="M827.151 295.967 912.485 295.967 912.485 334.901 827.151 334.901Z" fill="#E9EBF5" fill-rule="evenodd"/><path d="M315.151 334.901 400.485 334.901 400.485 373.834 315.151 373.834Z" fill="#CFD5EA" fill-rule="evenodd"/><path d="M400.485 334.901 485.818 334.901 485.818 373.834 400.485 373.834Z" fill="#CFD5EA" fill-rule="evenodd"/><path d="M485.818 334.901 571.151 334.901 571.151 373.834 485.818 373.834Z" fill="#CFD5EA" fill-rule="evenodd"/><path d="M571.151 334.901 656.485 334.901 656.485 373.834 571.151 373.834Z" fill="#CFD5EA" fill-rule="evenodd"/><path d="M656.485 334.901 741.818 334.901 741.818 373.834 656.485 373.834Z" fill="#CFD5EA" fill-rule="evenodd"/><path d="M741.818 334.901 827.151 334.901 827.151 373.834 741.818 373.834Z" fill="#CFD5EA" fill-rule="evenodd"/><path d="M827.151 334.901 912.485 334.901 912.485 373.834 827.151 373.834Z" fill="#CFD5EA" fill-rule="evenodd"/><path d="M315.151 373.834 400.485 373.834 400.485 412.767 315.151 412.767Z" fill="#E9EBF5" fill-rule="evenodd"/><path d="M400.485 373.834 485.818 373.834 485.818 412.767 400.485 412.767Z" fill="#E9EBF5" fill-rule="evenodd"/><path d="M485.818 373.834 571.151 373.834 571.151 412.767 485.818 412.767Z" fill="#E9EBF5" fill-rule="evenodd"/><path d="M571.151 373.834 656.485 373.834 656.485 412.767 571.151 412.767Z" fill="#E9EBF5" fill-rule="evenodd"/><path d="M656.485 373.834 741.818 373.834 741.818 412.767 656.485 412.767Z" fill="#E9EBF5" fill-rule="evenodd"/><path d="M741.818 373.834 827.151 373.834 827.151 412.767 741.818 412.767Z" fill="#E9EBF5" fill-rule="evenodd"/><path d="M827.151 373.834 912.485 373.834 912.485 412.767 827.151 412.767Z" fill="#E9EBF5" fill-rule="evenodd"/><path d="M315.151 412.767 400.485 412.767 400.485 451.701 315.151 451.701Z" fill="#CFD5EA" fill-rule="evenodd"/><path d="M400.485 412.767 485.818 412.767 485.818 451.701 400.485 451.701Z" fill="#CFD5EA" fill-rule="evenodd"/><path d="M485.818 412.767 571.151 412.767 571.151 451.701 485.818 451.701Z" fill="#CFD5EA" fill-rule="evenodd"/><path d="M571.151 412.767 656.485 412.767 656.485 451.701 571.151 451.701Z" fill="#CFD5EA" fill-rule="evenodd"/><path d="M656.485 412.767 741.818 412.767 741.818 451.701 656.485 451.701Z" fill="#CFD5EA" fill-rule="evenodd"/><path d="M741.818 412.767 827.151 412.767 827.151 451.701 741.818 451.701Z" fill="#CFD5EA" fill-rule="evenodd"/><path d="M827.151 412.767 912.485 412.767 912.485 451.701 827.151 451.701Z" fill="#CFD5EA" fill-rule="evenodd"/><path d="M315.151 451.701 400.485 451.701 400.485 490.634 315.151 490.634Z" fill="#E9EBF5" fill-rule="evenodd"/><path d="M400.485 451.701 485.818 451.701 485.818 490.634 400.485 490.634Z" fill="#E9EBF5" fill-rule="evenodd"/><path d="M485.818 451.701 571.151 451.701 571.151 490.634 485.818 490.634Z" fill="#E9EBF5" fill-rule="evenodd"/><path d="M571.151 451.701 656.485 451.701 656.485 490.634 571.151 490.634Z" fill="#E9EBF5" fill-rule="evenodd"/><path d="M656.485 451.701 741.818 451.701 741.818 490.634 656.485 490.634Z" fill="#E9EBF5" fill-rule="evenodd"/><path d="M741.818 451.701 827.151 451.701 827.151 490.634 741.818 490.634Z" fill="#E9EBF5" fill-rule="evenodd"/><path d="M827.151 451.701 912.485 451.701 912.485 490.634 827.151 490.634Z" fill="#E9EBF5" fill-rule="evenodd"/><path d="M400.485 217.434 400.485 491.301" stroke="#FFFFFF" stroke-width="1.33333" stroke-linejoin="round" stroke-miterlimit="10" fill="none" fill-rule="evenodd"/><path d="M485.818 217.434 485.818 491.301" stroke="#FFFFFF" stroke-width="1.33333" stroke-linejoin="round" stroke-miterlimit="10" fill="none" fill-rule="evenodd"/><path d="M571.151 217.434 571.151 491.301" stroke="#FFFFFF" stroke-width="1.33333" stroke-linejoin="round" stroke-miterlimit="10" fill="none" fill-rule="evenodd"/><path d="M656.485 217.434 656.485 491.301" stroke="#FFFFFF" stroke-width="1.33333" stroke-linejoin="round" stroke-miterlimit="10" fill="none" fill-rule="evenodd"/><path d="M741.818 217.434 741.818 491.301" stroke="#FFFFFF" stroke-width="1.33333" stroke-linejoin="round" stroke-miterlimit="10" fill="none" fill-rule="evenodd"/><path d="M827.151 217.434 827.151 491.301" stroke="#FFFFFF" stroke-width="1.33333" stroke-linejoin="round" stroke-miterlimit="10" fill="none" fill-rule="evenodd"/><path d="M314.485 257.034 913.151 257.034" stroke="#FFFFFF" stroke-width="4" stroke-linejoin="round" stroke-miterlimit="10" fill="none" fill-rule="evenodd"/><path d="M314.485 295.967 913.151 295.967" stroke="#FFFFFF" stroke-width="1.33333" stroke-linejoin="round" stroke-miterlimit="10" fill="none" fill-rule="evenodd"/><path d="M314.485 334.901 913.151 334.901" stroke="#FFFFFF" stroke-width="1.33333" stroke-linejoin="round" stroke-miterlimit="10" fill="none" fill-rule="evenodd"/><path d="M314.485 373.834 913.151 373.834" stroke="#FFFFFF" stroke-width="1.33333" stroke-linejoin="round" stroke-miterlimit="10" fill="none" fill-rule="evenodd"/><path d="M314.485 412.767 913.151 412.767" stroke="#FFFFFF" stroke-width="1.33333" stroke-linejoin="round" stroke-miterlimit="10" fill="none" fill-rule="evenodd"/><path d="M314.485 451.701 913.151 451.701" stroke="#FFFFFF" stroke-width="1.33333" stroke-linejoin="round" stroke-miterlimit="10" fill="none" fill-rule="evenodd"/><path d="M315.151 217.434 315.151 491.301" stroke="#FFFFFF" stroke-width="1.33333" stroke-linejoin="round" stroke-miterlimit="10" fill="none" fill-rule="evenodd"/><path d="M912.485 217.434 912.485 491.301" stroke="#FFFFFF" stroke-width="1.33333" stroke-linejoin="round" stroke-miterlimit="10" fill="none" fill-rule="evenodd"/><path d="M314.485 218.101 913.151 218.101" stroke="#FFFFFF" stroke-width="1.33333" stroke-linejoin="round" stroke-miterlimit="10" fill="none" fill-rule="evenodd"/><path d="M314.485 490.634 913.151 490.634" stroke="#FFFFFF" stroke-width="1.33333" stroke-linejoin="round" stroke-miterlimit="10" fill="none" fill-rule="evenodd"/><text fill="#FFFFFF" font-family="Cambria Math,Cambria Math_MSFontService,sans-serif" font-weight="400" font-size="24" transform="translate(425.738 245)">𝑿<tspan font-size="18" x="16.6667" y="5">𝟏</tspan><tspan x="85.3333" y="0">𝑿</tspan><tspan font-size="18" x="102" y="5">𝟐</tspan><tspan x="170.667" y="0">𝑿</tspan><tspan font-size="18" x="187.333" y="5">𝟑</tspan><tspan x="259.83" y="0">⋯</tspan><tspan x="329.333" y="0">𝑿</tspan><tspan font-size="18" x="346" y="5">𝒏</tspan><tspan font-size="18" x="357.333" y="5">−</tspan><tspan font-size="18" x="370" y="5">𝟏</tspan><tspan x="426.25" y="0">𝑿</tspan><tspan font-size="18" x="442.917" y="5">𝒏</tspan><tspan fill="#000000" font-family="DengXian,DengXian_MSFontService,sans-serif" x="-86.92" y="39">001</tspan><tspan fill="#000000" x="-2.52338" y="39">𝑥</tspan><tspan fill="#000000" font-size="18" x="9.52328" y="44">11</tspan><tspan fill="#000000" x="82.81" y="39">𝑥</tspan><tspan fill="#000000" font-size="18" x="94.8567" y="44">12</tspan><tspan fill="#000000" x="168.143" y="39">𝑥</tspan><tspan fill="#000000" font-size="18" x="180.19" y="44">13</tspan><tspan fill="#000000" x="259.913" y="39">⋯</tspan><tspan fill="#000000" x="326.66" y="39">𝑥</tspan><tspan fill="#000000" font-size="18" x="338.707" y="44">1𝑛</tspan><tspan fill="#000000" font-size="18" x="360.507" y="44">−</tspan><tspan fill="#000000" font-size="18" x="373.173" y="44">1</tspan><tspan fill="#000000" x="423.41" y="39">𝑥</tspan><tspan fill="#000000" font-size="18" x="435.457" y="44">1𝑛</tspan><tspan fill="#000000" font-family="DengXian,DengXian_MSFontService,sans-serif" x="-86.92" y="78">002</tspan><tspan fill="#000000" x="-2.80005" y="78">𝑥</tspan><tspan fill="#000000" font-size="18" x="9.79993" y="83">21</tspan><tspan fill="#000000" x="82.5333" y="78">𝑥</tspan><tspan fill="#000000" font-size="18" x="95.1333" y="83">22</tspan><tspan fill="#000000" x="167.867" y="78">𝑥</tspan><tspan fill="#000000" font-size="18" x="180.467" y="83">23</tspan><tspan fill="#000000" x="259.913" y="78">⋯</tspan><tspan fill="#000000" x="326.383" y="78">𝑥</tspan><tspan fill="#000000" font-size="18" x="338.983" y="83">2𝑛</tspan><tspan fill="#000000" font-size="18" x="360.783" y="83">−</tspan><tspan fill="#000000" font-size="18" x="373.45" y="83">1</tspan><tspan fill="#000000" x="423.133" y="78">𝑥</tspan><tspan fill="#000000" font-size="18" x="435.733" y="83">2𝑛</tspan><tspan fill="#000000" font-family="DengXian,DengXian_MSFontService,sans-serif" x="-86.92" y="117">003</tspan><tspan fill="#000000" x="-2.80005" y="117">𝑥</tspan><tspan fill="#000000" font-size="18" x="9.79993" y="122">31</tspan><tspan fill="#000000" x="82.5333" y="117">𝑥</tspan><tspan fill="#000000" font-size="18" x="95.1333" y="122">32</tspan><tspan fill="#000000" x="167.867" y="117">𝑥</tspan><tspan fill="#000000" font-size="18" x="180.467" y="122">33</tspan><tspan fill="#000000" x="259.913" y="117">⋯</tspan><tspan fill="#000000" x="326.383" y="117">𝑥</tspan><tspan fill="#000000" font-size="18" x="338.983" y="122">3𝑛</tspan><tspan fill="#000000" font-size="18" x="360.783" y="122">−</tspan><tspan fill="#000000" font-size="18" x="373.45" y="122">1</tspan><tspan fill="#000000" x="423.133" y="117">𝑥</tspan><tspan fill="#000000" font-size="18" x="435.733" y="122">3𝑛</tspan><tspan fill="#000000" font-family="DengXian,DengXian_MSFontService,sans-serif" x="-86.92" y="156">004</tspan><tspan fill="#000000" x="-2.80005" y="156">𝑥</tspan><tspan fill="#000000" font-size="18" x="9.79993" y="161">41</tspan><tspan fill="#000000" x="82.5333" y="156">𝑥</tspan><tspan fill="#000000" font-size="18" x="95.1333" y="161">42</tspan><tspan fill="#000000" x="167.867" y="156">𝑥</tspan><tspan fill="#000000" font-size="18" x="180.467" y="161">43</tspan><tspan fill="#000000" x="259.913" y="156">⋯</tspan><tspan fill="#000000" x="326.383" y="156">𝑥</tspan><tspan fill="#000000" font-size="18" x="338.983" y="161">4𝑛</tspan><tspan fill="#000000" font-size="18" x="360.783" y="161">−</tspan><tspan fill="#000000" font-size="18" x="373.45" y="161">1</tspan><tspan fill="#000000" x="423.133" y="156">𝑥</tspan><tspan fill="#000000" font-size="18" x="435.733" y="161">4𝑛</tspan><tspan fill="#000000" font-family="DengXian,DengXian_MSFontService,sans-serif" x="-86.92" y="195">005</tspan><tspan fill="#000000" x="-2.80005" y="195">𝑥</tspan><tspan fill="#000000" font-size="18" x="9.79993" y="200">51</tspan><tspan fill="#000000" x="82.5333" y="195">𝑥</tspan><tspan fill="#000000" font-size="18" x="95.1333" y="200">52</tspan><tspan fill="#000000" x="167.867" y="195">𝑥</tspan><tspan fill="#000000" font-size="18" x="180.467" y="200">53</tspan><tspan fill="#000000" x="259.913" y="195">⋯</tspan><tspan fill="#000000" x="326.383" y="195">𝑥</tspan><tspan fill="#000000" font-size="18" x="338.983" y="200">5𝑛</tspan><tspan fill="#000000" font-size="18" x="360.783" y="200">−</tspan><tspan fill="#000000" font-size="18" x="373.45" y="200">1</tspan><tspan fill="#000000" x="423.133" y="195">𝑥</tspan><tspan fill="#000000" font-size="18" x="435.733" y="200">5𝑛</tspan><tspan fill="#000000" x="-74.9201" y="234">⋮</tspan><tspan fill="#000000" x="10.4133" y="234">⋮</tspan><tspan fill="#000000" x="95.7466" y="234">⋮</tspan><tspan fill="#000000" x="181.08" y="234">⋮</tspan><tspan fill="#000000" x="266.413" y="234">⋮</tspan><tspan fill="#000000" x="351.747" y="234">⋮</tspan><tspan fill="#000000" x="437.08" y="234">⋮</tspan></text><path d="M400 208C400 198.887 415.513 191.5 434.65 191.5L621.35 191.5C640.487 191.5 656 184.112 656 174.999 656 184.112 671.513 191.5 690.65 191.5L877.35 191.5C896.487 191.5 912 198.887 912 208" stroke="#ED7D31" stroke-width="2" stroke-miterlimit="8" fill="none" fill-rule="evenodd"/><text font-family="DengXian,DengXian_MSFontService,sans-serif" font-weight="400" font-size="24" transform="translate(603.985 151)">属性/特征</text><path d="M295 491C288.372 491 283 481.938 283 470.76L283 395.24C283 384.062 277.627 375 271 375 277.627 375 283 365.938 283 354.76L283 279.24C283 268.062 288.373 259 295 259" stroke="#4472C4" stroke-width="2" stroke-miterlimit="8" fill="none" fill-rule="evenodd"/><text font-family="DengXian,DengXian_MSFontService,sans-serif" font-weight="400" font-size="24" transform="translate(197.721 381)">记录</text><rect x="809.5" y="98.5001" width="165" height="52" fill="url(#fill1)"/><path d="M795.751 98.5001 795.751 150.5Z" stroke="#5B9BD5" stroke-miterlimit="8" fill="none" fill-rule="evenodd"/><path d="M795.751 108.25 718.217 143.119" stroke="#5B9BD5" stroke-miterlimit="8" fill="none" fill-rule="evenodd"/><text fill="#FFFFFF" font-family="DengXian,DengXian_MSFontService,sans-serif" font-weight="400" font-size="24" transform="translate(843.151 132)">减少属性</text><rect x="96.5001" y="465.5" width="164" height="52" fill="url(#fill2)"/><path d="M82.8339 465.5 82.8339 517.5Z" stroke="#A5A5A5" stroke-miterlimit="8" fill="none" fill-rule="evenodd"/><path d="M82.8339 475.25 193.888 390.661" stroke="#A5A5A5" stroke-miterlimit="8" fill="none" fill-rule="evenodd"/><text fill="#FFFFFF" font-family="DengXian,DengXian_MSFontService,sans-serif" font-weight="400" font-size="24" transform="translate(129.939 498)">减少记录</text><rect x="1036.5" y="439.5" width="165" height="52" fill="url(#fill3)"/><path d="M1022.75 439.5 1022.75 491.5Z" stroke="#70AD47" stroke-miterlimit="8" fill="none" fill-rule="evenodd"/><path d="M1022.75 449.25 896.689 386.027" stroke="#70AD47" stroke-miterlimit="8" fill="none" fill-rule="evenodd"/><text fill="#FFFFFF" font-family="DengXian,DengXian_MSFontService,sans-serif" font-weight="400" font-size="24" transform="translate(1046.55 472)">减少数值数量</text><path d="M843 267.167C843 262.656 846.656 259 851.167 259L883.833 259C888.344 259 892 262.656 892 267.167L892 482.833C892 487.344 888.344 491 883.833 491L851.167 491C846.656 491 843 487.344 843 482.833Z" stroke="#ED7D31" stroke-width="2" stroke-linejoin="round" stroke-miterlimit="10" fill="none" fill-rule="evenodd"/></g></svg>