<svg width="1017" height="636" xmlns="http://www.w3.org/2000/svg" xmlns:xlink="http://www.w3.org/1999/xlink" overflow="hidden"><defs><clipPath id="clip0"><path d="M46 12 1063 12 1063 648 46 648Z" fill-rule="evenodd" clip-rule="evenodd"/></clipPath></defs><g clip-path="url(#clip0)" transform="translate(-46 -12)"><path d="M46.376 61.848 146.54 61.848 146.54 109.648 46.376 109.648Z" fill="#4472C4" fill-rule="evenodd" fill-opacity="0.2"/><path d="M146.54 61.848 246.703 61.848 246.703 109.648 146.54 109.648Z" fill="#4472C4" fill-rule="evenodd" fill-opacity="0.2"/><path d="M246.703 61.848 346.867 61.848 346.867 109.648 246.703 109.648Z" fill="#4472C4" fill-rule="evenodd" fill-opacity="0.2"/><path d="M346.867 61.848 447.031 61.848 447.031 109.648 346.867 109.648Z" fill="#4472C4" fill-rule="evenodd" fill-opacity="0.2"/><path d="M46.376 157.448 146.54 157.448 146.54 205.249 46.376 205.249Z" fill="#4472C4" fill-rule="evenodd" fill-opacity="0.2"/><path d="M146.54 157.448 246.703 157.448 246.703 205.249 146.54 205.249Z" fill="#4472C4" fill-rule="evenodd" fill-opacity="0.2"/><path d="M246.703 157.448 346.867 157.448 346.867 205.249 246.703 205.249Z" fill="#4472C4" fill-rule="evenodd" fill-opacity="0.2"/><path d="M346.867 157.448 447.031 157.448 447.031 205.249 346.867 205.249Z" fill="#4472C4" fill-rule="evenodd" fill-opacity="0.2"/><path d="M46.376 253.049 146.54 253.049 146.54 300.849 46.376 300.849Z" fill="#4472C4" fill-rule="evenodd" fill-opacity="0.2"/><path d="M146.54 253.049 246.703 253.049 246.703 300.849 146.54 300.849Z" fill="#4472C4" fill-rule="evenodd" fill-opacity="0.2"/><path d="M246.703 253.049 346.867 253.049 346.867 300.849 246.703 300.849Z" fill="#4472C4" fill-rule="evenodd" fill-opacity="0.2"/><path d="M346.867 253.049 447.031 253.049 447.031 300.849 346.867 300.849Z" fill="#4472C4" fill-rule="evenodd" fill-opacity="0.2"/><path d="M46.376 61.848 447.031 61.848" stroke="#4472C4" stroke-width="1.33333" stroke-linejoin="round" stroke-miterlimit="10" fill="none" fill-rule="evenodd"/><path d="M46.376 14.0478 447.031 14.0478" stroke="#4472C4" stroke-width="1.33333" stroke-linejoin="round" stroke-miterlimit="10" fill="none" fill-rule="evenodd"/><path d="M46.376 300.849 447.031 300.849" stroke="#4472C4" stroke-width="1.33333" stroke-linejoin="round" stroke-miterlimit="10" fill="none" fill-rule="evenodd"/><text font-family="DengXian,DengXian_MSFontService,sans-serif" font-weight="700" font-size="21" transform="translate(175.288 45)">语文<tspan x="100.164" y="0">数学</tspan><tspan x="200.327" y="0">英语</tspan><tspan x="-100.164" y="48">韩梅</tspan><tspan font-weight="400" x="10.1667" y="48">93</tspan><tspan font-weight="400" x="110.33" y="48">87</tspan><tspan font-weight="400" x="210.494" y="48">80</tspan><tspan x="-100.164" y="96">李雷</tspan><tspan font-weight="400" x="10.1667" y="96">80</tspan><tspan font-weight="400" x="110.33" y="96">99</tspan><tspan font-weight="400" x="210.494" y="96">85</tspan><tspan x="-100.164" y="144">李华</tspan><tspan font-weight="400" x="10.1667" y="144">85</tspan><tspan font-weight="400" x="110.33" y="144">95</tspan><tspan font-weight="400" x="210.494" y="144">97</tspan><tspan x="-100.164" y="191">王铭</tspan><tspan font-weight="400" x="10.1667" y="191">76</tspan><tspan font-weight="400" x="110.33" y="191">85</tspan><tspan font-weight="400" x="210.494" y="191">65</tspan><tspan x="-100.164" y="239">赵毅</tspan><tspan font-weight="400" x="10.1667" y="239">60</tspan><tspan font-weight="400" x="110.33" y="239">70</tspan><tspan font-weight="400" x="210.494" y="239">88</tspan></text><path d="M661.165 55.3994 794.701 55.3994 794.701 102.883 661.165 102.883Z" fill="#A5A5A5" fill-rule="evenodd" fill-opacity="0.2"/><path d="M794.701 55.3994 928.236 55.3994 928.236 102.883 794.701 102.883Z" fill="#A5A5A5" fill-rule="evenodd" fill-opacity="0.2"/><path d="M928.236 55.3994 1061.82 55.3994 1061.82 102.883 928.236 102.883Z" fill="#A5A5A5" fill-rule="evenodd" fill-opacity="0.2"/><path d="M661.165 150.367 794.701 150.367 794.701 197.85 661.165 197.85Z" fill="#A5A5A5" fill-rule="evenodd" fill-opacity="0.2"/><path d="M794.701 150.367 928.236 150.367 928.236 197.85 794.701 197.85Z" fill="#A5A5A5" fill-rule="evenodd" fill-opacity="0.2"/><path d="M928.236 150.367 1061.82 150.367 1061.82 197.85 928.236 197.85Z" fill="#A5A5A5" fill-rule="evenodd" fill-opacity="0.2"/><path d="M661.165 55.3994 1061.82 55.3994" stroke="#A5A5A5" stroke-width="1.33333" stroke-linejoin="round" stroke-miterlimit="10" fill="none" fill-rule="evenodd"/><path d="M661.165 14.0478 1061.82 14.0478" stroke="#A5A5A5" stroke-width="1.33333" stroke-linejoin="round" stroke-miterlimit="10" fill="none" fill-rule="evenodd"/><path d="M661.165 245.334 1061.82 245.334" stroke="#A5A5A5" stroke-width="1.33333" stroke-linejoin="round" stroke-miterlimit="10" fill="none" fill-rule="evenodd"/><text font-family="DengXian,DengXian_MSFontService,sans-serif" font-weight="700" font-size="24" transform="translate(837.469 42)">篮球<tspan x="133.56" y="0">舞蹈</tspan><tspan x="-133.535" y="45">李华</tspan><tspan font-weight="400" x="11.3333" y="45">93</tspan><tspan font-weight="400" x="144.893" y="45">87</tspan><tspan x="-133.535" y="92">王铭</tspan><tspan font-weight="400" x="11.3333" y="92">80</tspan><tspan font-weight="400" x="144.893" y="92">99</tspan><tspan x="-133.535" y="140">赵毅</tspan><tspan font-weight="400" x="11.3333" y="140">85</tspan><tspan font-weight="400" x="144.893" y="140">95</tspan><tspan x="-133.535" y="187">刘强</tspan><tspan font-weight="400" x="11.3333" y="187">76</tspan><tspan font-weight="400" x="144.893" y="187">85</tspan></text><path d="M317.227 454.076 398.012 454.076 398.012 501.876 317.227 501.876Z" fill="#000000" fill-rule="evenodd" fill-opacity="0.2"/><path d="M398.012 454.076 478.798 454.076 478.798 501.876 398.012 501.876Z" fill="#000000" fill-rule="evenodd" fill-opacity="0.2"/><path d="M478.798 454.076 559.583 454.076 559.583 501.876 478.798 501.876Z" fill="#000000" fill-rule="evenodd" fill-opacity="0.2"/><path d="M559.583 454.076 640.368 454.076 640.368 501.876 559.583 501.876Z" fill="#000000" fill-rule="evenodd" fill-opacity="0.2"/><path d="M640.368 454.076 721.154 454.076 721.154 501.876 640.368 501.876Z" fill="#000000" fill-rule="evenodd" fill-opacity="0.2"/><path d="M721.154 454.076 801.939 454.076 801.939 501.876 721.154 501.876Z" fill="#000000" fill-rule="evenodd" fill-opacity="0.2"/><path d="M317.227 549.677 398.012 549.677 398.012 597.477 317.227 597.477Z" fill="#000000" fill-rule="evenodd" fill-opacity="0.2"/><path d="M398.012 549.677 478.798 549.677 478.798 597.477 398.012 597.477Z" fill="#000000" fill-rule="evenodd" fill-opacity="0.2"/><path d="M478.798 549.677 559.583 549.677 559.583 597.477 478.798 597.477Z" fill="#000000" fill-rule="evenodd" fill-opacity="0.2"/><path d="M559.583 549.677 640.368 549.677 640.368 597.477 559.583 597.477Z" fill="#000000" fill-rule="evenodd" fill-opacity="0.2"/><path d="M640.368 549.677 721.154 549.677 721.154 597.477 640.368 597.477Z" fill="#000000" fill-rule="evenodd" fill-opacity="0.2"/><path d="M721.154 549.677 801.939 549.677 801.939 597.477 721.154 597.477Z" fill="#000000" fill-rule="evenodd" fill-opacity="0.2"/><path d="M317.227 454.076 801.939 454.076" stroke="#000000" stroke-width="1.33333" stroke-linejoin="round" stroke-miterlimit="10" fill="none" fill-rule="evenodd"/><path d="M317.227 406.276 801.939 406.276" stroke="#000000" stroke-width="1.33333" stroke-linejoin="round" stroke-miterlimit="10" fill="none" fill-rule="evenodd"/><path d="M317.227 645.277 801.939 645.277" stroke="#000000" stroke-width="1.33333" stroke-linejoin="round" stroke-miterlimit="10" fill="none" fill-rule="evenodd"/><text font-family="DengXian,DengXian_MSFontService,sans-serif" font-weight="700" font-size="21" transform="translate(417.072 437)">语文<tspan x="80.7854" y="0">数学</tspan><tspan x="161.571" y="0">英语</tspan><tspan x="242.356" y="0">篮球</tspan><tspan x="323.142" y="0">舞蹈</tspan><tspan x="-80.7854" y="48">李华</tspan><tspan font-weight="400" x="10.1667" y="48">85</tspan><tspan font-weight="400" x="90.9521" y="48">95</tspan><tspan font-weight="400" x="171.738" y="48">97</tspan><tspan font-weight="400" x="252.523" y="48">93</tspan><tspan font-weight="400" x="333.308" y="48">87</tspan><tspan x="-80.7854" y="96">王铭</tspan><tspan font-weight="400" x="10.1667" y="96">76</tspan><tspan font-weight="400" x="90.9521" y="96">85</tspan><tspan font-weight="400" x="171.738" y="96">65</tspan><tspan font-weight="400" x="252.523" y="96">80</tspan><tspan font-weight="400" x="333.308" y="96">99</tspan><tspan x="-80.7854" y="144">赵毅</tspan><tspan font-weight="400" x="10.1667" y="144">60</tspan><tspan font-weight="400" x="90.9521" y="144">70</tspan><tspan font-weight="400" x="171.738" y="144">88</tspan><tspan font-weight="400" x="252.523" y="144">85</tspan><tspan font-weight="400" x="333.308" y="144">95</tspan><tspan x="-80.7854" y="192">刘强</tspan><tspan font-weight="400" x="0.500061" y="192">NaN</tspan><tspan font-weight="400" x="81.2855" y="192">NaN</tspan><tspan font-weight="400" x="162.071" y="192">NaN</tspan><tspan font-weight="400" x="252.523" y="192">76</tspan><tspan font-weight="400" x="333.308" y="192">85</tspan></text><path d="M326 476.167C326 469.447 331.447 464 338.167 464L386.833 464C393.553 464 399 469.447 399 476.167L399 625.833C399 632.553 393.553 638 386.833 638L338.167 638C331.447 638 326 632.553 326 625.833Z" stroke="#ED7D31" stroke-width="2" stroke-linejoin="round" stroke-miterlimit="10" fill="none" fill-rule="evenodd"/><text font-family="HYQuanTangShiJ,HYQuanTangShiJ_MSFontService,sans-serif" font-weight="400" font-size="21" transform="translate(326.827 335)">连接<tspan x="42.6667" y="0">how=‘right’</tspan>，用<tspan x="222.833" y="0">右</tspan><tspan x="244.167" y="0">表的</tspan><tspan x="286.833" y="0">index</tspan><tspan x="337.667" y="0">连接</tspan><tspan font-family="Wingdings,Wingdings_MSFontService,sans-serif" x="0" y="25"></tspan><tspan x="30" y="25">右</tspan><tspan x="51.3333" y="25">表刘强不在左表</tspan><tspan x="200.667" y="25">index</tspan><tspan x="251.5" y="25">中，用</tspan>NaN替代<tspan font-family="Wingdings,Wingdings_MSFontService,sans-serif" x="0" y="51"></tspan><tspan x="30" y="51">左</tspan><tspan x="51.3333" y="51">表韩梅、李雷不在右表</tspan><tspan x="264.667" y="51">index</tspan><tspan x="315.5" y="51">中，所以舍去</tspan></text><path d="M0-2 226.927-2 226.927 60.5235 222.927 60.5235 222.927 0 224.927 2 0 2ZM230.927 58.5235 224.927 70.5235 218.927 58.5235Z" fill="#ED7D31" transform="matrix(-4.37114e-08 1 1 4.37114e-08 247 301)"/><path d="M863.553 245 863.553 527.442 812 527.442 812 523.442 861.553 523.442 859.553 525.442 859.553 245ZM814 531.442 802 525.442 814 519.442Z" fill="#ED7D31"/><path d="M693 74.1669C693 67.4473 698.447 62 705.167 62L753.833 62C760.553 62 766 67.4473 766 74.1669L766 223.833C766 230.553 760.553 236 753.833 236L705.167 236C698.447 236 693 230.553 693 223.833Z" stroke="#ED7D31" stroke-width="2" stroke-linejoin="round" stroke-miterlimit="10" fill="none" fill-rule="evenodd"/><path d="M408 604.667C408 600.985 410.985 598 414.667 598L633.333 598C637.015 598 640 600.985 640 604.667L640 631.333C640 635.015 637.015 638 633.333 638L414.667 638C410.985 638 408 635.015 408 631.333Z" fill="#FFC000" fill-rule="evenodd" fill-opacity="0.501961"/></g></svg>