<svg width="1116" height="290" xmlns="http://www.w3.org/2000/svg" xmlns:xlink="http://www.w3.org/1999/xlink" overflow="hidden"><defs><clipPath id="clip0"><path d="M70 179 1186 179 1186 469 70 469Z" fill-rule="evenodd" clip-rule="evenodd"/></clipPath></defs><g clip-path="url(#clip0)" transform="translate(-70 -179)"><path d="M70.618 227.666 212.721 227.666 212.721 275.466 70.618 275.466Z" fill="#4472C4" fill-rule="evenodd" fill-opacity="0.2"/><path d="M212.721 227.666 354.824 227.666 354.824 275.466 212.721 275.466Z" fill="#4472C4" fill-rule="evenodd" fill-opacity="0.2"/><path d="M354.824 227.666 496.927 227.666 496.927 275.466 354.824 275.466Z" fill="#4472C4" fill-rule="evenodd" fill-opacity="0.2"/><path d="M496.927 227.666 639.03 227.666 639.03 275.466 496.927 275.466Z" fill="#4472C4" fill-rule="evenodd" fill-opacity="0.2"/><path d="M70.618 323.266 212.721 323.266 212.721 371.066 70.618 371.066Z" fill="#4472C4" fill-rule="evenodd" fill-opacity="0.2"/><path d="M212.721 323.266 354.824 323.266 354.824 371.066 212.721 371.066Z" fill="#4472C4" fill-rule="evenodd" fill-opacity="0.2"/><path d="M354.824 323.266 496.927 323.266 496.927 371.066 354.824 371.066Z" fill="#4472C4" fill-rule="evenodd" fill-opacity="0.2"/><path d="M496.927 323.266 639.03 323.266 639.03 371.066 496.927 371.066Z" fill="#4472C4" fill-rule="evenodd" fill-opacity="0.2"/><path d="M70.618 418.867 212.721 418.867 212.721 466.667 70.618 466.667Z" fill="#4472C4" fill-rule="evenodd" fill-opacity="0.2"/><path d="M212.721 418.867 354.824 418.867 354.824 466.667 212.721 466.667Z" fill="#4472C4" fill-rule="evenodd" fill-opacity="0.2"/><path d="M354.824 418.867 496.927 418.867 496.927 466.667 354.824 466.667Z" fill="#4472C4" fill-rule="evenodd" fill-opacity="0.2"/><path d="M496.927 418.867 639.03 418.867 639.03 466.667 496.927 466.667Z" fill="#4472C4" fill-rule="evenodd" fill-opacity="0.2"/><path d="M70.618 227.666 639.03 227.666" stroke="#4472C4" stroke-width="1.33333" stroke-linejoin="round" stroke-miterlimit="10" fill="none" fill-rule="evenodd"/><path d="M70.618 179.866 639.03 179.866" stroke="#4472C4" stroke-width="1.33333" stroke-linejoin="round" stroke-miterlimit="10" fill="none" fill-rule="evenodd"/><path d="M70.618 466.667 639.03 466.667" stroke="#4472C4" stroke-width="1.33333" stroke-linejoin="round" stroke-miterlimit="10" fill="none" fill-rule="evenodd"/><text font-family="DengXian,DengXian_MSFontService,sans-serif" font-weight="700" font-size="21" transform="translate(262.439 211)">语文<tspan x="142.103" y="0">数学</tspan><tspan x="284.206" y="0">英语</tspan><tspan x="-142.103" y="48">韩梅</tspan><tspan font-weight="400" x="10.1667" y="48">93</tspan><tspan font-weight="400" x="152.27" y="48">87</tspan><tspan font-weight="400" x="294.373" y="48">80</tspan><tspan x="-142.103" y="96">李雷</tspan><tspan font-weight="400" x="10.1667" y="96">80</tspan><tspan font-weight="400" x="152.27" y="96">99</tspan><tspan font-weight="400" x="294.373" y="96">85</tspan><tspan x="-142.103" y="143">李华</tspan><tspan font-weight="400" x="10.1667" y="143">85</tspan><tspan font-weight="400" x="152.27" y="143">95</tspan><tspan font-weight="400" x="294.373" y="143">97</tspan><tspan x="-142.103" y="191">王铭</tspan><tspan font-weight="400" x="10.1667" y="191">76</tspan><tspan font-weight="400" x="152.27" y="191">85</tspan><tspan font-weight="400" x="294.373" y="191">65</tspan><tspan x="-142.103" y="239">赵毅</tspan><tspan font-weight="400" x="10.1667" y="239">60</tspan><tspan font-weight="400" x="152.27" y="239">70</tspan><tspan font-weight="400" x="294.373" y="239">88</tspan></text><path d="M744.558 222.658 891.344 222.658 891.344 270.142 744.558 270.142Z" fill="#A5A5A5" fill-rule="evenodd" fill-opacity="0.2"/><path d="M891.344 222.658 1038.13 222.658 1038.13 270.142 891.344 270.142Z" fill="#A5A5A5" fill-rule="evenodd" fill-opacity="0.2"/><path d="M1038.13 222.658 1184.97 222.658 1184.97 270.142 1038.13 270.142Z" fill="#A5A5A5" fill-rule="evenodd" fill-opacity="0.2"/><path d="M744.558 317.625 891.344 317.625 891.344 365.109 744.558 365.109Z" fill="#A5A5A5" fill-rule="evenodd" fill-opacity="0.2"/><path d="M891.344 317.625 1038.13 317.625 1038.13 365.109 891.344 365.109Z" fill="#A5A5A5" fill-rule="evenodd" fill-opacity="0.2"/><path d="M1038.13 317.625 1184.97 317.625 1184.97 365.109 1038.13 365.109Z" fill="#A5A5A5" fill-rule="evenodd" fill-opacity="0.2"/><path d="M744.558 222.658 1184.97 222.658" stroke="#A5A5A5" stroke-width="1.33333" stroke-linejoin="round" stroke-miterlimit="10" fill="none" fill-rule="evenodd"/><path d="M744.558 181.307 1184.97 181.307" stroke="#A5A5A5" stroke-width="1.33333" stroke-linejoin="round" stroke-miterlimit="10" fill="none" fill-rule="evenodd"/><path d="M744.558 412.593 1184.97 412.593" stroke="#A5A5A5" stroke-width="1.33333" stroke-linejoin="round" stroke-miterlimit="10" fill="none" fill-rule="evenodd"/><text font-family="DengXian,DengXian_MSFontService,sans-serif" font-weight="700" font-size="24" transform="translate(940.737 210)">篮球<tspan x="146.813" y="0">舞蹈</tspan><tspan x="-146.786" y="44">李华</tspan><tspan font-weight="400" x="11.3333" y="44">93</tspan><tspan font-weight="400" x="158.146" y="44">87</tspan><tspan x="-146.786" y="91">王铭</tspan><tspan font-weight="400" x="11.3333" y="91">80</tspan><tspan font-weight="400" x="158.146" y="91">99</tspan><tspan x="-146.786" y="139">赵毅</tspan><tspan font-weight="400" x="11.3333" y="139">85</tspan><tspan font-weight="400" x="158.146" y="139">95</tspan><tspan x="-146.786" y="186">刘强</tspan><tspan font-weight="400" x="11.3333" y="186">76</tspan><tspan font-weight="400" x="158.146" y="186">85</tspan></text><path d="M108.5 340.334C108.5 334.35 113.35 329.5 119.334 329.5L162.666 329.5C168.65 329.5 173.5 334.35 173.5 340.334L173.5 450.667C173.5 456.65 168.65 461.5 162.666 461.5L119.334 461.5C113.35 461.5 108.5 456.65 108.5 450.667Z" stroke="#ED7D31" stroke-width="3" stroke-linejoin="round" stroke-miterlimit="10" fill="none" fill-rule="evenodd"/><path d="M787.5 238.334C787.5 232.35 792.35 227.5 798.334 227.5L841.666 227.5C847.65 227.5 852.5 232.35 852.5 238.334L852.5 347.666C852.5 353.65 847.65 358.5 841.666 358.5L798.334 358.5C792.35 358.5 787.5 353.65 787.5 347.666Z" stroke="#ED7D31" stroke-width="3" stroke-linejoin="round" stroke-miterlimit="10" fill="none" fill-rule="evenodd"/></g></svg>