<svg width="1017" height="684" xmlns="http://www.w3.org/2000/svg" xmlns:xlink="http://www.w3.org/1999/xlink" overflow="hidden"><defs><clipPath id="clip0"><path d="M46 12 1063 12 1063 696 46 696Z" fill-rule="evenodd" clip-rule="evenodd"/></clipPath></defs><g clip-path="url(#clip0)" transform="translate(-46 -12)"><path d="M46.376 61.848 146.54 61.848 146.54 109.648 46.376 109.648Z" fill="#4472C4" fill-rule="evenodd" fill-opacity="0.2"/><path d="M146.54 61.848 246.703 61.848 246.703 109.648 146.54 109.648Z" fill="#4472C4" fill-rule="evenodd" fill-opacity="0.2"/><path d="M246.703 61.848 346.867 61.848 346.867 109.648 246.703 109.648Z" fill="#4472C4" fill-rule="evenodd" fill-opacity="0.2"/><path d="M346.867 61.848 447.031 61.848 447.031 109.648 346.867 109.648Z" fill="#4472C4" fill-rule="evenodd" fill-opacity="0.2"/><path d="M46.376 157.448 146.54 157.448 146.54 205.249 46.376 205.249Z" fill="#4472C4" fill-rule="evenodd" fill-opacity="0.2"/><path d="M146.54 157.448 246.703 157.448 246.703 205.249 146.54 205.249Z" fill="#4472C4" fill-rule="evenodd" fill-opacity="0.2"/><path d="M246.703 157.448 346.867 157.448 346.867 205.249 246.703 205.249Z" fill="#4472C4" fill-rule="evenodd" fill-opacity="0.2"/><path d="M346.867 157.448 447.031 157.448 447.031 205.249 346.867 205.249Z" fill="#4472C4" fill-rule="evenodd" fill-opacity="0.2"/><path d="M46.376 253.049 146.54 253.049 146.54 300.849 46.376 300.849Z" fill="#4472C4" fill-rule="evenodd" fill-opacity="0.2"/><path d="M146.54 253.049 246.703 253.049 246.703 300.849 146.54 300.849Z" fill="#4472C4" fill-rule="evenodd" fill-opacity="0.2"/><path d="M246.703 253.049 346.867 253.049 346.867 300.849 246.703 300.849Z" fill="#4472C4" fill-rule="evenodd" fill-opacity="0.2"/><path d="M346.867 253.049 447.031 253.049 447.031 300.849 346.867 300.849Z" fill="#4472C4" fill-rule="evenodd" fill-opacity="0.2"/><path d="M46.376 61.848 447.031 61.848" stroke="#4472C4" stroke-width="1.33333" stroke-linejoin="round" stroke-miterlimit="10" fill="none" fill-rule="evenodd"/><path d="M46.376 14.0478 447.031 14.0478" stroke="#4472C4" stroke-width="1.33333" stroke-linejoin="round" stroke-miterlimit="10" fill="none" fill-rule="evenodd"/><path d="M46.376 300.849 447.031 300.849" stroke="#4472C4" stroke-width="1.33333" stroke-linejoin="round" stroke-miterlimit="10" fill="none" fill-rule="evenodd"/><text font-family="DengXian,DengXian_MSFontService,sans-serif" font-weight="700" font-size="21" transform="translate(175.288 45)">语文<tspan x="100.164" y="0">数学</tspan><tspan x="200.327" y="0">英语</tspan><tspan x="-100.164" y="48">韩梅</tspan><tspan font-weight="400" x="10.1667" y="48">93</tspan><tspan font-weight="400" x="110.33" y="48">87</tspan><tspan font-weight="400" x="210.494" y="48">80</tspan><tspan x="-100.164" y="96">李雷</tspan><tspan font-weight="400" x="10.1667" y="96">80</tspan><tspan font-weight="400" x="110.33" y="96">99</tspan><tspan font-weight="400" x="210.494" y="96">85</tspan><tspan x="-100.164" y="144">李华</tspan><tspan font-weight="400" x="10.1667" y="144">85</tspan><tspan font-weight="400" x="110.33" y="144">95</tspan><tspan font-weight="400" x="210.494" y="144">97</tspan><tspan x="-100.164" y="191">王铭</tspan><tspan font-weight="400" x="10.1667" y="191">76</tspan><tspan font-weight="400" x="110.33" y="191">85</tspan><tspan font-weight="400" x="210.494" y="191">65</tspan><tspan x="-100.164" y="239">赵毅</tspan><tspan font-weight="400" x="10.1667" y="239">60</tspan><tspan font-weight="400" x="110.33" y="239">70</tspan><tspan font-weight="400" x="210.494" y="239">88</tspan></text><path d="M661.165 55.3994 794.701 55.3994 794.701 102.883 661.165 102.883Z" fill="#A5A5A5" fill-rule="evenodd" fill-opacity="0.2"/><path d="M794.701 55.3994 928.236 55.3994 928.236 102.883 794.701 102.883Z" fill="#A5A5A5" fill-rule="evenodd" fill-opacity="0.2"/><path d="M928.236 55.3994 1061.82 55.3994 1061.82 102.883 928.236 102.883Z" fill="#A5A5A5" fill-rule="evenodd" fill-opacity="0.2"/><path d="M661.165 150.367 794.701 150.367 794.701 197.85 661.165 197.85Z" fill="#A5A5A5" fill-rule="evenodd" fill-opacity="0.2"/><path d="M794.701 150.367 928.236 150.367 928.236 197.85 794.701 197.85Z" fill="#A5A5A5" fill-rule="evenodd" fill-opacity="0.2"/><path d="M928.236 150.367 1061.82 150.367 1061.82 197.85 928.236 197.85Z" fill="#A5A5A5" fill-rule="evenodd" fill-opacity="0.2"/><path d="M661.165 55.3994 1061.82 55.3994" stroke="#A5A5A5" stroke-width="1.33333" stroke-linejoin="round" stroke-miterlimit="10" fill="none" fill-rule="evenodd"/><path d="M661.165 14.0478 1061.82 14.0478" stroke="#A5A5A5" stroke-width="1.33333" stroke-linejoin="round" stroke-miterlimit="10" fill="none" fill-rule="evenodd"/><path d="M661.165 245.334 1061.82 245.334" stroke="#A5A5A5" stroke-width="1.33333" stroke-linejoin="round" stroke-miterlimit="10" fill="none" fill-rule="evenodd"/><text font-family="DengXian,DengXian_MSFontService,sans-serif" font-weight="700" font-size="24" transform="translate(837.469 42)">篮球<tspan x="133.56" y="0">舞蹈</tspan><tspan x="-133.535" y="45">李华</tspan><tspan font-weight="400" x="11.3333" y="45">93</tspan><tspan font-weight="400" x="144.893" y="45">87</tspan><tspan x="-133.535" y="92">王铭</tspan><tspan font-weight="400" x="11.3333" y="92">80</tspan><tspan font-weight="400" x="144.893" y="92">99</tspan><tspan x="-133.535" y="140">赵毅</tspan><tspan font-weight="400" x="11.3333" y="140">85</tspan><tspan font-weight="400" x="144.893" y="140">95</tspan><tspan x="-133.535" y="187">刘强</tspan><tspan font-weight="400" x="11.3333" y="187">76</tspan><tspan font-weight="400" x="144.893" y="187">85</tspan></text><path d="M317.227 454.076 398.012 454.076 398.012 501.876 317.227 501.876Z" fill="#000000" fill-rule="evenodd" fill-opacity="0.2"/><path d="M398.012 454.076 478.798 454.076 478.798 501.876 398.012 501.876Z" fill="#000000" fill-rule="evenodd" fill-opacity="0.2"/><path d="M478.798 454.076 559.583 454.076 559.583 501.876 478.798 501.876Z" fill="#000000" fill-rule="evenodd" fill-opacity="0.2"/><path d="M559.583 454.076 640.368 454.076 640.368 501.876 559.583 501.876Z" fill="#000000" fill-rule="evenodd" fill-opacity="0.2"/><path d="M640.368 454.076 721.154 454.076 721.154 501.876 640.368 501.876Z" fill="#000000" fill-rule="evenodd" fill-opacity="0.2"/><path d="M721.154 454.076 801.939 454.076 801.939 501.876 721.154 501.876Z" fill="#000000" fill-rule="evenodd" fill-opacity="0.2"/><path d="M317.227 549.677 398.012 549.677 398.012 597.477 317.227 597.477Z" fill="#000000" fill-rule="evenodd" fill-opacity="0.2"/><path d="M398.012 549.677 478.798 549.677 478.798 597.477 398.012 597.477Z" fill="#000000" fill-rule="evenodd" fill-opacity="0.2"/><path d="M478.798 549.677 559.583 549.677 559.583 597.477 478.798 597.477Z" fill="#000000" fill-rule="evenodd" fill-opacity="0.2"/><path d="M559.583 549.677 640.368 549.677 640.368 597.477 559.583 597.477Z" fill="#000000" fill-rule="evenodd" fill-opacity="0.2"/><path d="M640.368 549.677 721.154 549.677 721.154 597.477 640.368 597.477Z" fill="#000000" fill-rule="evenodd" fill-opacity="0.2"/><path d="M721.154 549.677 801.939 549.677 801.939 597.477 721.154 597.477Z" fill="#000000" fill-rule="evenodd" fill-opacity="0.2"/><path d="M317.227 645.277 398.012 645.277 398.012 693.077 317.227 693.077Z" fill="#000000" fill-rule="evenodd" fill-opacity="0.2"/><path d="M398.012 645.277 478.798 645.277 478.798 693.077 398.012 693.077Z" fill="#000000" fill-rule="evenodd" fill-opacity="0.2"/><path d="M478.798 645.277 559.583 645.277 559.583 693.077 478.798 693.077Z" fill="#000000" fill-rule="evenodd" fill-opacity="0.2"/><path d="M559.583 645.277 640.368 645.277 640.368 693.077 559.583 693.077Z" fill="#000000" fill-rule="evenodd" fill-opacity="0.2"/><path d="M640.368 645.277 721.154 645.277 721.154 693.077 640.368 693.077Z" fill="#000000" fill-rule="evenodd" fill-opacity="0.2"/><path d="M721.154 645.277 801.939 645.277 801.939 693.077 721.154 693.077Z" fill="#000000" fill-rule="evenodd" fill-opacity="0.2"/><path d="M317.227 454.076 801.939 454.076" stroke="#000000" stroke-width="1.33333" stroke-linejoin="round" stroke-miterlimit="10" fill="none" fill-rule="evenodd"/><path d="M317.227 406.276 801.939 406.276" stroke="#000000" stroke-width="1.33333" stroke-linejoin="round" stroke-miterlimit="10" fill="none" fill-rule="evenodd"/><path d="M317.227 693.077 801.939 693.077" stroke="#000000" stroke-width="1.33333" stroke-linejoin="round" stroke-miterlimit="10" fill="none" fill-rule="evenodd"/><text font-family="DengXian,DengXian_MSFontService,sans-serif" font-weight="700" font-size="21" transform="translate(417.072 437)">语文<tspan x="80.7854" y="0">数学</tspan><tspan x="161.571" y="0">英语</tspan><tspan x="242.356" y="0">篮球</tspan><tspan x="323.142" y="0">舞蹈</tspan><tspan x="-80.7854" y="48">韩梅</tspan><tspan font-weight="400" x="10.1667" y="48">93</tspan><tspan font-weight="400" x="90.9521" y="48">87</tspan><tspan font-weight="400" x="171.738" y="48">80</tspan><tspan font-weight="400" x="242.856" y="48">NaN</tspan><tspan font-weight="400" x="323.642" y="48">NaN</tspan><tspan x="-80.7854" y="96">李雷</tspan><tspan font-weight="400" x="10.1667" y="96">80</tspan><tspan font-weight="400" x="90.9521" y="96">99</tspan><tspan font-weight="400" x="171.738" y="96">85</tspan><tspan font-weight="400" x="242.856" y="96">NaN</tspan><tspan font-weight="400" x="323.642" y="96">NaN</tspan><tspan x="-80.7854" y="144">李华</tspan><tspan font-weight="400" x="10.1667" y="144">85</tspan><tspan font-weight="400" x="90.9521" y="144">95</tspan><tspan font-weight="400" x="171.738" y="144">97</tspan><tspan font-weight="400" x="252.523" y="144">93</tspan><tspan font-weight="400" x="333.308" y="144">87</tspan><tspan x="-80.7854" y="192">王铭</tspan><tspan font-weight="400" x="10.1667" y="192">76</tspan><tspan font-weight="400" x="90.9521" y="192">85</tspan><tspan font-weight="400" x="171.738" y="192">65</tspan><tspan font-weight="400" x="252.523" y="192">80</tspan><tspan font-weight="400" x="333.308" y="192">99</tspan><tspan x="-80.7854" y="239">赵毅</tspan><tspan font-weight="400" x="10.1667" y="239">60</tspan><tspan font-weight="400" x="90.9521" y="239">70</tspan><tspan font-weight="400" x="171.738" y="239">88</tspan><tspan font-weight="400" x="252.523" y="239">85</tspan><tspan font-weight="400" x="333.308" y="239">95</tspan></text><path d="M59 82.8335C59 75.7457 64.7458 70 71.8335 70L123.167 70C130.254 70 136 75.7457 136 82.8335L136 280.167C136 287.254 130.254 293 123.167 293L71.8335 293C64.7458 293 59 287.254 59 280.167Z" stroke="#ED7D31" stroke-width="2" stroke-linejoin="round" stroke-miterlimit="10" fill="none" fill-rule="evenodd"/><path d="M324 475.833C324 468.746 329.746 463 336.833 463L388.167 463C395.254 463 401 468.746 401 475.833L401 673.167C401 680.254 395.254 686 388.167 686L336.833 686C329.746 686 324 680.254 324 673.167Z" stroke="#ED7D31" stroke-width="2" stroke-linejoin="round" stroke-miterlimit="10" fill="none" fill-rule="evenodd"/><path d="M640 476.334C640 468.97 645.97 463 653.334 463L782.667 463C790.03 463 796 468.97 796 476.334L796 529.666C796 537.03 790.03 543 782.667 543L653.334 543C645.97 543 640 537.03 640 529.666Z" fill="#FFC000" fill-rule="evenodd" fill-opacity="0.501961"/><text font-family="HYQuanTangShiJ,HYQuanTangShiJ_MSFontService,sans-serif" font-weight="400" font-size="21" transform="translate(326.827 335)">连接<tspan x="42.6667" y="0">how=‘left’</tspan><tspan x="167.333" y="0">，用左表的</tspan>index<tspan x="324.833" y="0">连接</tspan><tspan font-family="Wingdings,Wingdings_MSFontService,sans-serif" x="0" y="25"></tspan><tspan x="30" y="25">右</tspan><tspan x="51.3333" y="25">表刘强不在左表</tspan><tspan x="200.667" y="25">index</tspan><tspan x="251.5" y="25">中，所以舍去</tspan><tspan font-family="Wingdings,Wingdings_MSFontService,sans-serif" x="0" y="51"></tspan><tspan x="30" y="51">左</tspan><tspan x="51.3333" y="51">表韩梅、李雷不在右表</tspan><tspan x="264.667" y="51">index</tspan><tspan x="315.5" y="51">中，用</tspan>NaN替代</text><path d="M0-2 250.827-2 250.827 60.5235 246.827 60.5235 246.827 0 248.827 2 0 2ZM254.827 58.5235 248.827 70.5235 242.827 58.5235Z" fill="#ED7D31" transform="matrix(-4.37114e-08 1 1 4.37114e-08 247 301)"/><path d="M863.554 245 863.554 551.342 812 551.342 812 547.342 861.554 547.342 859.554 549.342 859.554 245ZM814 555.342 802 549.342 814 543.342Z" fill="#ED7D31"/></g></svg>