<svg width="873" height="490" xmlns="http://www.w3.org/2000/svg" xmlns:xlink="http://www.w3.org/1999/xlink" overflow="hidden"><defs><clipPath id="clip0"><path d="M87 72 960 72 960 562 87 562Z" fill-rule="evenodd" clip-rule="evenodd"/></clipPath></defs><g clip-path="url(#clip0)" transform="translate(-87 -72)"><path d="M337.285 272.272 461.44 272.272 461.44 320.072 337.285 320.072Z" fill="#4472C4" fill-rule="evenodd" fill-opacity="0.2"/><path d="M461.44 272.272 585.595 272.272 585.595 320.072 461.44 320.072Z" fill="#4472C4" fill-rule="evenodd" fill-opacity="0.2"/><path d="M585.595 272.272 709.75 272.272 709.75 320.072 585.595 320.072Z" fill="#4472C4" fill-rule="evenodd" fill-opacity="0.2"/><path d="M709.75 272.272 833.905 272.272 833.905 320.072 709.75 320.072Z" fill="#4472C4" fill-rule="evenodd" fill-opacity="0.2"/><path d="M833.905 272.272 958.06 272.272 958.06 320.072 833.905 320.072Z" fill="#4472C4" fill-rule="evenodd" fill-opacity="0.2"/><path d="M337.285 367.873 461.44 367.873 461.44 415.673 337.285 415.673Z" fill="#4472C4" fill-rule="evenodd" fill-opacity="0.2"/><path d="M461.44 367.873 585.595 367.873 585.595 415.673 461.44 415.673Z" fill="#4472C4" fill-rule="evenodd" fill-opacity="0.2"/><path d="M585.595 367.873 709.75 367.873 709.75 415.673 585.595 415.673Z" fill="#4472C4" fill-rule="evenodd" fill-opacity="0.2"/><path d="M709.75 367.873 833.905 367.873 833.905 415.673 709.75 415.673Z" fill="#4472C4" fill-rule="evenodd" fill-opacity="0.2"/><path d="M833.905 367.873 958.06 367.873 958.06 415.673 833.905 415.673Z" fill="#4472C4" fill-rule="evenodd" fill-opacity="0.2"/><path d="M337.285 463.473 461.44 463.473 461.44 511.273 337.285 511.273Z" fill="#4472C4" fill-rule="evenodd" fill-opacity="0.2"/><path d="M461.44 463.473 585.595 463.473 585.595 511.273 461.44 511.273Z" fill="#4472C4" fill-rule="evenodd" fill-opacity="0.2"/><path d="M585.595 463.473 709.75 463.473 709.75 511.273 585.595 511.273Z" fill="#4472C4" fill-rule="evenodd" fill-opacity="0.2"/><path d="M709.75 463.473 833.905 463.473 833.905 511.273 709.75 511.273Z" fill="#4472C4" fill-rule="evenodd" fill-opacity="0.2"/><path d="M833.905 463.473 958.06 463.473 958.06 511.273 833.905 511.273Z" fill="#4472C4" fill-rule="evenodd" fill-opacity="0.2"/><path d="M337.285 272.272 958.06 272.272" stroke="#4472C4" stroke-width="1.33333" stroke-linejoin="round" stroke-miterlimit="10" fill="none" fill-rule="evenodd"/><path d="M337.285 224.472 958.06 224.472" stroke="#4472C4" stroke-width="1.33333" stroke-linejoin="round" stroke-miterlimit="10" fill="none" fill-rule="evenodd"/><path d="M337.285 559.073 958.06 559.073" stroke="#4472C4" stroke-width="1.33333" stroke-linejoin="round" stroke-miterlimit="10" fill="none" fill-rule="evenodd"/><text font-family="DengXian,DengXian_MSFontService,sans-serif" font-weight="700" font-size="21" transform="translate(502.184 256)">语文<tspan x="124.155" y="0">数学</tspan><tspan x="248.31" y="0">英语</tspan><tspan x="366.132" y="0">count</tspan><tspan x="-124.155" y="47">韩梅</tspan><tspan font-weight="400" x="10.1667" y="47">93</tspan><tspan font-weight="400" x="134.322" y="47">87</tspan><tspan font-weight="400" x="258.477" y="47">80</tspan><tspan font-weight="400" x="388.216" y="47">3</tspan><tspan x="-124.155" y="95">李雷</tspan><tspan font-weight="400" x="10.1667" y="95">80</tspan><tspan font-weight="400" x="134.322" y="95">99</tspan><tspan font-weight="400" x="258.477" y="95">85</tspan><tspan font-weight="400" x="388.216" y="95">3</tspan><tspan x="-124.155" y="143">李华</tspan><tspan font-weight="400" x="10.1667" y="143">85</tspan><tspan font-weight="400" x="134.322" y="143">95</tspan><tspan font-weight="400" x="258.477" y="143">97</tspan><tspan font-weight="400" x="388.216" y="143">3</tspan><tspan x="-124.155" y="191">王铭</tspan><tspan font-weight="400" x="10.1667" y="191">76</tspan><tspan font-weight="400" x="134.322" y="191">85</tspan><tspan font-weight="400" x="258.477" y="191">65</tspan><tspan font-weight="400" x="388.216" y="191">3</tspan><tspan x="-124.155" y="239">赵毅</tspan><tspan font-weight="400" x="10.1667" y="239">60</tspan><tspan font-weight="400" x="134.322" y="239">70</tspan><tspan font-weight="400" x="258.477" y="239">88</tspan><tspan font-weight="400" x="388.216" y="239">3</tspan><tspan x="-130.489" y="286">count</tspan><tspan font-weight="400" x="15.75" y="286">5</tspan><tspan font-weight="400" x="139.905" y="286">5</tspan><tspan font-weight="400" x="264.06" y="286">5</tspan></text><path d="M249.004 511C234.367 511 222.502 496.941 222.502 479.599L222.502 422.901C222.502 405.559 210.637 391.5 196 391.5 210.637 391.5 222.502 377.441 222.502 360.099L222.502 303.401C222.502 286.059 234.367 272 249.004 272" stroke="#ED7D31" stroke-width="2" stroke-miterlimit="8" fill="none" fill-rule="evenodd"/><text font-family="Segoe UI,Segoe UI_MSFontService,sans-serif" font-weight="600" font-size="24" transform="translate(109.361 400)">index</text><path d="M322 272 322 507.555 318 507.555 318 272ZM328.728 496.563 320 511.524 311.273 496.563C310.716 495.609 311.038 494.384 311.992 493.828 312.946 493.271 314.171 493.593 314.728 494.547L321.728 506.547 318.273 506.547 325.273 494.547C325.829 493.593 327.054 493.271 328.008 493.828 328.962 494.384 329.284 495.609 328.728 496.563Z" fill="#ED7D31"/><text font-family="DengXian,DengXian_MSFontService,sans-serif" font-weight="400" font-size="24" transform="translate(236.467 399)">axis=<tspan x="53.6667" y="0">0</tspan></text><path d="M337 171C337 156.088 351.323 144 368.991 144L529.009 144C546.677 144 561 131.912 561 117 561 131.912 575.323 144 592.991 144L753.009 144C770.677 144 785 156.089 785 171" stroke="#70AD47" stroke-width="2" stroke-miterlimit="8" fill="none" fill-rule="evenodd"/><text font-family="Segoe UI,Segoe UI_MSFontService,sans-serif" font-weight="600" font-size="24" transform="translate(515.536 103)">columns</text><path d="M500 202 772.574 202 772.574 206 500 206ZM761.582 195.273 776.543 204 761.582 212.728C760.628 213.284 759.403 212.962 758.846 212.008 758.29 211.054 758.612 209.829 759.566 209.273L771.566 202.273 771.566 205.728 759.566 198.728C758.612 198.171 758.29 196.946 758.846 195.992 759.403 195.038 760.628 194.716 761.582 195.273Z" fill="#70AD47"/><text font-family="DengXian,DengXian_MSFontService,sans-serif" font-weight="400" font-size="24" transform="translate(603.497 188)">axis=1</text></g></svg>