<svg width="1115" height="638" xmlns="http://www.w3.org/2000/svg" xmlns:xlink="http://www.w3.org/1999/xlink" overflow="hidden"><defs><clipPath id="clip0"><path d="M46 12 1161 12 1161 650 46 650Z" fill-rule="evenodd" clip-rule="evenodd"/></clipPath></defs><g clip-path="url(#clip0)" transform="translate(-46 -12)"><path d="M46.376 61.848 146.54 61.848 146.54 109.648 46.376 109.648Z" fill="#4472C4" fill-rule="evenodd" fill-opacity="0.2"/><path d="M146.54 61.848 246.703 61.848 246.703 109.648 146.54 109.648Z" fill="#4472C4" fill-rule="evenodd" fill-opacity="0.2"/><path d="M246.703 61.848 346.867 61.848 346.867 109.648 246.703 109.648Z" fill="#4472C4" fill-rule="evenodd" fill-opacity="0.2"/><path d="M346.867 61.848 447.031 61.848 447.031 109.648 346.867 109.648Z" fill="#4472C4" fill-rule="evenodd" fill-opacity="0.2"/><path d="M46.376 157.448 146.54 157.448 146.54 205.249 46.376 205.249Z" fill="#4472C4" fill-rule="evenodd" fill-opacity="0.2"/><path d="M146.54 157.448 246.703 157.448 246.703 205.249 146.54 205.249Z" fill="#4472C4" fill-rule="evenodd" fill-opacity="0.2"/><path d="M246.703 157.448 346.867 157.448 346.867 205.249 246.703 205.249Z" fill="#4472C4" fill-rule="evenodd" fill-opacity="0.2"/><path d="M346.867 157.448 447.031 157.448 447.031 205.249 346.867 205.249Z" fill="#4472C4" fill-rule="evenodd" fill-opacity="0.2"/><path d="M46.376 253.049 146.54 253.049 146.54 300.849 46.376 300.849Z" fill="#4472C4" fill-rule="evenodd" fill-opacity="0.2"/><path d="M146.54 253.049 246.703 253.049 246.703 300.849 146.54 300.849Z" fill="#4472C4" fill-rule="evenodd" fill-opacity="0.2"/><path d="M246.703 253.049 346.867 253.049 346.867 300.849 246.703 300.849Z" fill="#4472C4" fill-rule="evenodd" fill-opacity="0.2"/><path d="M346.867 253.049 447.031 253.049 447.031 300.849 346.867 300.849Z" fill="#4472C4" fill-rule="evenodd" fill-opacity="0.2"/><path d="M46.376 61.848 447.031 61.848" stroke="#4472C4" stroke-width="1.33333" stroke-linejoin="round" stroke-miterlimit="10" fill="none" fill-rule="evenodd"/><path d="M46.376 14.0478 447.031 14.0478" stroke="#4472C4" stroke-width="1.33333" stroke-linejoin="round" stroke-miterlimit="10" fill="none" fill-rule="evenodd"/><path d="M46.376 300.849 447.031 300.849" stroke="#4472C4" stroke-width="1.33333" stroke-linejoin="round" stroke-miterlimit="10" fill="none" fill-rule="evenodd"/><text font-family="DengXian,DengXian_MSFontService,sans-serif" font-weight="700" font-size="21" transform="translate(175.288 45)">语文<tspan x="100.164" y="0">数学</tspan><tspan x="200.327" y="0">英语</tspan><tspan x="-100.164" y="48">韩梅</tspan><tspan font-weight="400" x="10.1667" y="48">93</tspan><tspan font-weight="400" x="110.33" y="48">87</tspan><tspan font-weight="400" x="210.494" y="48">80</tspan><tspan x="-100.164" y="96">李雷</tspan><tspan font-weight="400" x="10.1667" y="96">80</tspan><tspan font-weight="400" x="110.33" y="96">99</tspan><tspan font-weight="400" x="210.494" y="96">85</tspan><tspan x="-100.164" y="144">李华</tspan><tspan font-weight="400" x="10.1667" y="144">85</tspan><tspan font-weight="400" x="110.33" y="144">95</tspan><tspan font-weight="400" x="210.494" y="144">97</tspan><tspan x="-100.164" y="191">王铭</tspan><tspan font-weight="400" x="10.1667" y="191">76</tspan><tspan font-weight="400" x="110.33" y="191">85</tspan><tspan font-weight="400" x="210.494" y="191">65</tspan><tspan x="-100.164" y="239">赵毅</tspan><tspan font-weight="400" x="10.1667" y="239">60</tspan><tspan font-weight="400" x="110.33" y="239">70</tspan><tspan font-weight="400" x="210.494" y="239">88</tspan></text><path d="M661.165 55.3994 794.701 55.3994 794.701 102.883 661.165 102.883Z" fill="#A5A5A5" fill-rule="evenodd" fill-opacity="0.2"/><path d="M794.701 55.3994 928.236 55.3994 928.236 102.883 794.701 102.883Z" fill="#A5A5A5" fill-rule="evenodd" fill-opacity="0.2"/><path d="M928.236 55.3994 1061.82 55.3994 1061.82 102.883 928.236 102.883Z" fill="#A5A5A5" fill-rule="evenodd" fill-opacity="0.2"/><path d="M661.165 150.367 794.701 150.367 794.701 197.85 661.165 197.85Z" fill="#A5A5A5" fill-rule="evenodd" fill-opacity="0.2"/><path d="M794.701 150.367 928.236 150.367 928.236 197.85 794.701 197.85Z" fill="#A5A5A5" fill-rule="evenodd" fill-opacity="0.2"/><path d="M928.236 150.367 1061.82 150.367 1061.82 197.85 928.236 197.85Z" fill="#A5A5A5" fill-rule="evenodd" fill-opacity="0.2"/><path d="M661.165 55.3994 1061.82 55.3994" stroke="#A5A5A5" stroke-width="1.33333" stroke-linejoin="round" stroke-miterlimit="10" fill="none" fill-rule="evenodd"/><path d="M661.165 14.0478 1061.82 14.0478" stroke="#A5A5A5" stroke-width="1.33333" stroke-linejoin="round" stroke-miterlimit="10" fill="none" fill-rule="evenodd"/><path d="M661.165 245.334 1061.82 245.334" stroke="#A5A5A5" stroke-width="1.33333" stroke-linejoin="round" stroke-miterlimit="10" fill="none" fill-rule="evenodd"/><text font-family="DengXian,DengXian_MSFontService,sans-serif" font-weight="700" font-size="24" transform="translate(837.469 42)">篮球<tspan x="133.56" y="0">舞蹈</tspan><tspan x="-133.535" y="45">李华</tspan><tspan font-weight="400" x="11.3333" y="45">93</tspan><tspan font-weight="400" x="144.893" y="45">87</tspan><tspan x="-133.535" y="92">王铭</tspan><tspan font-weight="400" x="11.3333" y="92">80</tspan><tspan font-weight="400" x="144.893" y="92">99</tspan><tspan x="-133.535" y="140">赵毅</tspan><tspan font-weight="400" x="11.3333" y="140">85</tspan><tspan font-weight="400" x="144.893" y="140">95</tspan><tspan x="-133.535" y="187">刘强</tspan><tspan font-weight="400" x="11.3333" y="187">76</tspan><tspan font-weight="400" x="144.893" y="187">85</tspan></text><path d="M317.227 360.985 398.012 360.985 398.012 408.785 317.227 408.785Z" fill="#000000" fill-rule="evenodd" fill-opacity="0.2"/><path d="M398.012 360.985 478.798 360.985 478.798 408.785 398.012 408.785Z" fill="#000000" fill-rule="evenodd" fill-opacity="0.2"/><path d="M478.798 360.985 559.583 360.985 559.583 408.785 478.798 408.785Z" fill="#000000" fill-rule="evenodd" fill-opacity="0.2"/><path d="M559.583 360.985 640.368 360.985 640.368 408.785 559.583 408.785Z" fill="#000000" fill-rule="evenodd" fill-opacity="0.2"/><path d="M640.368 360.985 721.154 360.985 721.154 408.785 640.368 408.785Z" fill="#000000" fill-rule="evenodd" fill-opacity="0.2"/><path d="M721.154 360.985 801.939 360.985 801.939 408.785 721.154 408.785Z" fill="#000000" fill-rule="evenodd" fill-opacity="0.2"/><path d="M317.227 456.586 398.012 456.586 398.012 504.386 317.227 504.386Z" fill="#000000" fill-rule="evenodd" fill-opacity="0.2"/><path d="M398.012 456.586 478.798 456.586 478.798 504.386 398.012 504.386Z" fill="#000000" fill-rule="evenodd" fill-opacity="0.2"/><path d="M478.798 456.586 559.583 456.586 559.583 504.386 478.798 504.386Z" fill="#000000" fill-rule="evenodd" fill-opacity="0.2"/><path d="M559.583 456.586 640.368 456.586 640.368 504.386 559.583 504.386Z" fill="#000000" fill-rule="evenodd" fill-opacity="0.2"/><path d="M640.368 456.586 721.154 456.586 721.154 504.386 640.368 504.386Z" fill="#000000" fill-rule="evenodd" fill-opacity="0.2"/><path d="M721.154 456.586 801.939 456.586 801.939 504.386 721.154 504.386Z" fill="#000000" fill-rule="evenodd" fill-opacity="0.2"/><path d="M317.227 552.186 398.012 552.186 398.012 599.986 317.227 599.986Z" fill="#000000" fill-rule="evenodd" fill-opacity="0.2"/><path d="M398.012 552.186 478.798 552.186 478.798 599.986 398.012 599.986Z" fill="#000000" fill-rule="evenodd" fill-opacity="0.2"/><path d="M478.798 552.186 559.583 552.186 559.583 599.986 478.798 599.986Z" fill="#000000" fill-rule="evenodd" fill-opacity="0.2"/><path d="M559.583 552.186 640.368 552.186 640.368 599.986 559.583 599.986Z" fill="#000000" fill-rule="evenodd" fill-opacity="0.2"/><path d="M640.368 552.186 721.154 552.186 721.154 599.986 640.368 599.986Z" fill="#000000" fill-rule="evenodd" fill-opacity="0.2"/><path d="M721.154 552.186 801.939 552.186 801.939 599.986 721.154 599.986Z" fill="#000000" fill-rule="evenodd" fill-opacity="0.2"/><path d="M317.227 360.985 801.939 360.985" stroke="#000000" stroke-width="1.33333" stroke-linejoin="round" stroke-miterlimit="10" fill="none" fill-rule="evenodd"/><path d="M317.227 313.185 801.939 313.185" stroke="#000000" stroke-width="1.33333" stroke-linejoin="round" stroke-miterlimit="10" fill="none" fill-rule="evenodd"/><path d="M317.227 647.786 801.939 647.786" stroke="#000000" stroke-width="1.33333" stroke-linejoin="round" stroke-miterlimit="10" fill="none" fill-rule="evenodd"/><text font-family="DengXian,DengXian_MSFontService,sans-serif" font-weight="700" font-size="21" transform="translate(417.072 344)">语文<tspan x="80.7854" y="0">数学</tspan><tspan x="161.571" y="0">英语</tspan><tspan x="242.356" y="0">篮球</tspan><tspan x="323.142" y="0">舞蹈</tspan><tspan x="-80.7854" y="48">韩梅</tspan><tspan font-weight="400" x="10.1667" y="48">93</tspan><tspan font-weight="400" x="90.9521" y="48">87</tspan><tspan font-weight="400" x="171.738" y="48">80</tspan><tspan font-weight="400" x="242.856" y="48">NaN</tspan><tspan font-weight="400" x="323.642" y="48">NaN</tspan><tspan x="-80.7854" y="96">李雷</tspan><tspan font-weight="400" x="10.1667" y="96">80</tspan><tspan font-weight="400" x="90.9521" y="96">99</tspan><tspan font-weight="400" x="171.738" y="96">85</tspan><tspan font-weight="400" x="242.856" y="96">NaN</tspan><tspan font-weight="400" x="323.642" y="96">NaN</tspan><tspan x="-80.7854" y="144">李华</tspan><tspan font-weight="400" x="10.1667" y="144">85</tspan><tspan font-weight="400" x="90.9521" y="144">95</tspan><tspan font-weight="400" x="171.738" y="144">97</tspan><tspan font-weight="400" x="252.523" y="144">93</tspan><tspan font-weight="400" x="333.308" y="144">87</tspan><tspan x="-80.7854" y="191">王铭</tspan><tspan font-weight="400" x="10.1667" y="191">76</tspan><tspan font-weight="400" x="90.9521" y="191">85</tspan><tspan font-weight="400" x="171.738" y="191">65</tspan><tspan font-weight="400" x="252.523" y="191">80</tspan><tspan font-weight="400" x="333.308" y="191">99</tspan><tspan x="-80.7854" y="239">赵毅</tspan><tspan font-weight="400" x="10.1667" y="239">60</tspan><tspan font-weight="400" x="90.9521" y="239">70</tspan><tspan font-weight="400" x="171.738" y="239">88</tspan><tspan font-weight="400" x="252.523" y="239">85</tspan><tspan font-weight="400" x="333.308" y="239">95</tspan><tspan x="-80.7854" y="287">刘强</tspan><tspan font-weight="400" x="0.500061" y="287">NaN</tspan><tspan font-weight="400" x="81.2855" y="287">NaN</tspan><tspan font-weight="400" x="162.071" y="287">NaN</tspan><tspan font-weight="400" x="252.523" y="287">76</tspan><tspan font-weight="400" x="333.308" y="287">85</tspan></text><path d="M59 82.8335C59 75.7457 64.7458 70 71.8335 70L123.167 70C130.254 70 136 75.7457 136 82.8335L136 280.167C136 287.254 130.254 293 123.167 293L71.8335 293C64.7458 293 59 287.254 59 280.167Z" stroke="#ED7D31" stroke-width="2" stroke-linejoin="round" stroke-miterlimit="10" fill="none" fill-rule="evenodd"/><path d="M324.5 382.334C324.5 375.246 330.246 369.5 337.334 369.5L388.667 369.5C395.754 369.5 401.5 375.246 401.5 382.334L401.5 579.667C401.5 586.754 395.754 592.5 388.667 592.5L337.334 592.5C330.246 592.5 324.5 586.754 324.5 579.667Z" stroke="#ED7D31" stroke-width="3" stroke-linejoin="round" stroke-miterlimit="10" fill="none" fill-rule="evenodd"/><path d="M640 383.334C640 375.97 645.97 370 653.334 370L782.667 370C790.03 370 796 375.97 796 383.334L796 436.666C796 444.03 790.03 450 782.667 450L653.334 450C645.97 450 640 444.03 640 436.666Z" fill="#FFC000" fill-rule="evenodd" fill-opacity="0.501961"/><text font-family="HYQuanTangShiJ,HYQuanTangShiJ_MSFontService,sans-serif" font-weight="400" font-size="21" transform="translate(895.587 371)">连接<tspan x="42.6667" y="0">how=‘outer’</tspan><tspan font-family="Wingdings,Wingdings_MSFontService,sans-serif" x="0" y="25"></tspan><tspan x="30" y="25">不在对方表</tspan><tspan x="136.667" y="25">index</tspan><tspan x="187.5" y="25">中的用</tspan><tspan x="30" y="51">NaN</tspan><tspan x="74.1667" y="51">填充</tspan></text><path d="M0-2 181.637-2 181.637 60.5235 177.637 60.5235 177.637 0 179.637 2 0 2ZM185.637 58.5235 179.637 70.5235 173.637 58.5235Z" fill="#ED7D31" transform="matrix(-4.37114e-08 1 1 4.37114e-08 247 301)"/><path d="M863.554 245 863.554 482.151 812 482.151 812 478.151 861.554 478.151 859.554 480.151 859.554 245ZM814 486.151 802 480.151 814 474.151Z" fill="#ED7D31"/><path d="M690 74.8335C690 67.7457 695.746 62 702.833 62L754.167 62C761.254 62 767 67.7457 767 74.8335L767 226.167C767 233.254 761.254 239 754.167 239L702.833 239C695.746 239 690 233.254 690 226.167Z" fill="#70AD47" fill-rule="evenodd" fill-opacity="0.501961"/><path d="M324 476.833C324 469.746 329.746 464 336.833 464L388.167 464C395.254 464 401 469.746 401 476.833L401 628.167C401 635.254 395.254 641 388.167 641L336.833 641C329.746 641 324 635.254 324 628.167Z" fill="#70AD47" fill-rule="evenodd" fill-opacity="0.501961"/></g></svg>