<?xml version="1.0" encoding="UTF-8" standalone="no"?>
<!DOCTYPE svg PUBLIC "-//W3C//DTD SVG 1.1//EN"
 "http://www.w3.org/Graphics/SVG/1.1/DTD/svg11.dtd">
<!-- Generated by graphviz version 2.38.0 (20140413.2041)
 -->
<!-- Title: %3 Pages: 1 -->
<svg width="223pt" height="98pt"
 viewBox="0.00 0.00 222.69 98.00" xmlns="http://www.w3.org/2000/svg" xmlns:xlink="http://www.w3.org/1999/xlink">
<g id="graph0" class="graph" transform="scale(1 1) rotate(0) translate(4 94)">
<title>%3</title>
<polygon fill="white" stroke="none" points="-4,4 -4,-94 218.693,-94 218.693,4 -4,4"/>
<!-- A -->
<g id="node1" class="node"><title>A</title>
<text text-anchor="middle" x="51" y="-41.3" font-family="STKAITI" font-size="14.00">关联规则强度</text>
</g>
<!-- B -->
<g id="node2" class="node"><title>B</title>
<ellipse fill="none" stroke="black" cx="176.347" cy="-72" rx="38.1938" ry="18"/>
<text text-anchor="middle" x="176.347" y="-68.3" font-family="STKAITI" font-size="14.00">支持度</text>
</g>
<!-- A&#45;&gt;B -->
<g id="edge1" class="edge"><title>A&#45;&gt;B</title>
<path fill="none" stroke="black" d="M102.17,-55.9819C111.77,-58.0834 121.756,-60.2692 131.152,-62.326"/>
<polygon fill="black" stroke="black" points="130.552,-65.7776 141.07,-64.4969 132.049,-58.9395 130.552,-65.7776"/>
</g>
<!-- C -->
<g id="node3" class="node"><title>C</title>
<ellipse fill="none" stroke="black" cx="176.347" cy="-18" rx="38.1938" ry="18"/>
<text text-anchor="middle" x="176.347" y="-14.3" font-family="STKAITI" font-size="14.00">置信度</text>
</g>
<!-- A&#45;&gt;C -->
<g id="edge2" class="edge"><title>A&#45;&gt;C</title>
<path fill="none" stroke="black" d="M102.17,-34.0181C111.77,-31.9166 121.756,-29.7308 131.152,-27.674"/>
<polygon fill="black" stroke="black" points="132.049,-31.0605 141.07,-25.5031 130.552,-24.2224 132.049,-31.0605"/>
</g>
</g>
</svg>
