<?xml version="1.0" encoding="UTF-8" standalone="no"?>
<!DOCTYPE svg PUBLIC "-//W3C//DTD SVG 1.1//EN"
 "http://www.w3.org/Graphics/SVG/1.1/DTD/svg11.dtd">
<!-- Generated by graphviz version 2.38.0 (20140413.2041)
 -->
<!-- Title: %3 Pages: 1 -->
<svg width="289pt" height="258pt"
 viewBox="0.00 0.00 289.00 258.00" xmlns="http://www.w3.org/2000/svg" xmlns:xlink="http://www.w3.org/1999/xlink">
<g id="graph0" class="graph" transform="scale(1 1) rotate(0) translate(4 254)">
<title>%3</title>
<polygon fill="white" stroke="none" points="-4,4 -4,-254 285,-254 285,4 -4,4"/>
<!-- A -->
<g id="node1" class="node"><title>A</title>
<polygon fill="none" stroke="black" points="0,-134.5 0,-249.5 101,-249.5 101,-134.5 0,-134.5"/>
<text text-anchor="middle" x="50.5" y="-234.3" font-family="STKAITI" font-size="14.00">&quot;项集&quot;</text>
<polyline fill="none" stroke="black" points="0,-226.5 101,-226.5 "/>
<text text-anchor="middle" x="50.5" y="-211.3" font-family="STKAITI" font-size="14.00">{啤酒，尿布}</text>
<polyline fill="none" stroke="black" points="0,-203.5 101,-203.5 "/>
<text text-anchor="middle" x="50.5" y="-188.3" font-family="STKAITI" font-size="14.00">{面包，尿布}</text>
<polyline fill="none" stroke="black" points="0,-180.5 101,-180.5 "/>
<text text-anchor="middle" x="50.5" y="-165.3" font-family="STKAITI" font-size="14.00">{面包，牛奶}</text>
<polyline fill="none" stroke="black" points="0,-157.5 101,-157.5 "/>
<text text-anchor="middle" x="50.5" y="-142.3" font-family="STKAITI" font-size="14.00">{尿布，牛奶}</text>
</g>
<!-- C -->
<g id="node3" class="node"><title>C</title>
<polygon fill="none" stroke="black" points="137,-102 137,-148 281,-148 281,-102 137,-102"/>
<text text-anchor="middle" x="209" y="-132.8" font-family="STKAITI" font-size="14.00">&quot;项集&quot;</text>
<polyline fill="none" stroke="black" points="137,-125 281,-125 "/>
<text text-anchor="middle" x="209" y="-109.8" font-family="STKAITI" font-size="14.00">{面包，尿布，牛奶}</text>
</g>
<!-- A&#45;&gt;C -->
<g id="edge1" class="edge"><title>A&#45;&gt;C</title>
<path fill="none" stroke="black" d="M101.018,-170.801C114.901,-164.857 130.186,-158.313 144.751,-152.078"/>
<polygon fill="black" stroke="black" points="146.381,-155.187 154.196,-148.034 143.626,-148.752 146.381,-155.187"/>
</g>
<!-- B -->
<g id="node2" class="node"><title>B</title>
<polygon fill="none" stroke="black" points="0,-0.5 0,-115.5 101,-115.5 101,-0.5 0,-0.5"/>
<text text-anchor="middle" x="50.5" y="-100.3" font-family="STKAITI" font-size="14.00">&quot;项集&quot;</text>
<polyline fill="none" stroke="black" points="0,-92.5 101,-92.5 "/>
<text text-anchor="middle" x="50.5" y="-77.3" font-family="STKAITI" font-size="14.00">{啤酒，尿布}</text>
<polyline fill="none" stroke="black" points="0,-69.5 101,-69.5 "/>
<text text-anchor="middle" x="50.5" y="-54.3" font-family="STKAITI" font-size="14.00">{面包，尿布}</text>
<polyline fill="none" stroke="black" points="0,-46.5 101,-46.5 "/>
<text text-anchor="middle" x="50.5" y="-31.3" font-family="STKAITI" font-size="14.00">{面包，牛奶}</text>
<polyline fill="none" stroke="black" points="0,-23.5 101,-23.5 "/>
<text text-anchor="middle" x="50.5" y="-8.3" font-family="STKAITI" font-size="14.00">{尿布，牛奶}</text>
</g>
<!-- B&#45;&gt;C -->
<g id="edge2" class="edge"><title>B&#45;&gt;C</title>
<path fill="none" stroke="black" d="M101.018,-79.1992C114.901,-85.1431 130.186,-91.6869 144.751,-97.9222"/>
<polygon fill="black" stroke="black" points="143.626,-101.248 154.196,-101.966 146.381,-94.8126 143.626,-101.248"/>
</g>
</g>
</svg>
