<?xml version="1.0" encoding="UTF-8" standalone="no"?>
<!DOCTYPE svg PUBLIC "-//W3C//DTD SVG 1.1//EN"
 "http://www.w3.org/Graphics/SVG/1.1/DTD/svg11.dtd">
<!-- Generated by graphviz version 2.38.0 (20140413.2041)
 -->
<!-- Title: %3 Pages: 1 -->
<svg width="289pt" height="258pt"
 viewBox="0.00 0.00 289.00 258.00" xmlns="http://www.w3.org/2000/svg" xmlns:xlink="http://www.w3.org/1999/xlink">
<g id="graph0" class="graph" transform="scale(1 1) rotate(0) translate(4 254)">
<title>%3</title>
<polygon fill="white" stroke="none" points="-4,4 -4,-254 285,-254 285,4 -4,4"/>
<!-- A -->
<g id="node1" class="node"><title>A</title>
<polygon fill="none" stroke="black" points="0,-134.5 0,-249.5 101,-249.5 101,-134.5 0,-134.5"/>
<text text-anchor="middle" x="50.5" y="-234.3" font-family="STKAITI" font-size="14.00">&quot;项集&quot;</text>
<polyline fill="none" stroke="black" points="0,-226.5 101,-226.5 "/>
<text text-anchor="middle" x="50.5" y="-211.3" font-family="STKAITI" font-size="14.00">{啤酒，尿布}</text>
<polyline fill="none" stroke="black" points="0,-203.5 101,-203.5 "/>
<text text-anchor="middle" x="50.5" y="-188.3" font-family="STKAITI" font-size="14.00">{面包，尿布}</text>
<polyline fill="none" stroke="black" points="0,-180.5 101,-180.5 "/>
<text text-anchor="middle" x="50.5" y="-165.3" font-family="STKAITI" font-size="14.00">{面包，牛奶}</text>
<polyline fill="none" stroke="black" points="0,-157.5 101,-157.5 "/>
<text text-anchor="middle" x="50.5" y="-142.3" font-family="STKAITI" font-size="14.00">{尿布，牛奶}</text>
</g>
<!-- C -->
<g id="node3" class="node"><title>C</title>
<polygon fill="none" stroke="black" points="137,-67.5 137,-182.5 281,-182.5 281,-67.5 137,-67.5"/>
<text text-anchor="middle" x="209" y="-167.3" font-family="STKAITI" font-size="14.00">&quot;项集&quot;</text>
<polyline fill="none" stroke="black" points="137,-159.5 281,-159.5 "/>
<text text-anchor="middle" x="209" y="-144.3" font-family="STKAITI" font-size="14.00">{啤酒，尿布，面包}</text>
<polyline fill="none" stroke="black" points="137,-136.5 281,-136.5 "/>
<text text-anchor="middle" x="209" y="-121.3" font-family="STKAITI" font-size="14.00">{啤酒，尿布，牛奶}</text>
<polyline fill="none" stroke="black" points="137,-113.5 281,-113.5 "/>
<text text-anchor="middle" x="209" y="-98.3" font-family="STKAITI" font-size="14.00">{面包，尿布，牛奶}</text>
<polyline fill="none" stroke="black" points="137,-90.5 281,-90.5 "/>
<text text-anchor="middle" x="209" y="-75.3" font-family="STKAITI" font-size="14.00">{面包，牛奶，啤酒}</text>
</g>
<!-- A&#45;&gt;C -->
<g id="edge1" class="edge"><title>A&#45;&gt;C</title>
<path fill="none" stroke="black" d="M101.018,-170.801C109.458,-167.187 118.417,-163.352 127.417,-159.499"/>
<polygon fill="black" stroke="black" points="128.975,-162.639 136.791,-155.486 126.22,-156.204 128.975,-162.639"/>
</g>
<!-- B -->
<g id="node2" class="node"><title>B</title>
<polygon fill="none" stroke="black" points="22,-0.5 22,-115.5 79,-115.5 79,-0.5 22,-0.5"/>
<text text-anchor="middle" x="50.5" y="-100.3" font-family="STKAITI" font-size="14.00">&quot;项&quot;</text>
<polyline fill="none" stroke="black" points="22,-92.5 79,-92.5 "/>
<text text-anchor="middle" x="50.5" y="-77.3" font-family="STKAITI" font-size="14.00">&quot;啤酒&quot;</text>
<polyline fill="none" stroke="black" points="22,-69.5 79,-69.5 "/>
<text text-anchor="middle" x="50.5" y="-54.3" font-family="STKAITI" font-size="14.00">&quot;面包&quot;</text>
<polyline fill="none" stroke="black" points="22,-46.5 79,-46.5 "/>
<text text-anchor="middle" x="50.5" y="-31.3" font-family="STKAITI" font-size="14.00">&quot;牛奶&quot;</text>
<polyline fill="none" stroke="black" points="22,-23.5 79,-23.5 "/>
<text text-anchor="middle" x="50.5" y="-8.3" font-family="STKAITI" font-size="14.00">&quot;尿布&quot;</text>
</g>
<!-- B&#45;&gt;C -->
<g id="edge2" class="edge"><title>B&#45;&gt;C</title>
<path fill="none" stroke="black" d="M79.1188,-69.824C92.742,-75.6563 109.953,-83.0248 127.324,-90.4615"/>
<polygon fill="black" stroke="black" points="126.399,-93.8725 136.969,-94.5907 129.154,-87.4375 126.399,-93.8725"/>
</g>
</g>
</svg>
