<?xml version="1.0" encoding="UTF-8" standalone="no"?>
<!DOCTYPE svg PUBLIC "-//W3C//DTD SVG 1.1//EN"
 "http://www.w3.org/Graphics/SVG/1.1/DTD/svg11.dtd">
<!-- Generated by graphviz version 2.38.0 (20140413.2041)
 -->
<!-- Title: %3 Pages: 1 -->
<svg width="327pt" height="441pt"
 viewBox="0.00 0.00 327.44 441.00" xmlns="http://www.w3.org/2000/svg" xmlns:xlink="http://www.w3.org/1999/xlink">
<g id="graph0" class="graph" transform="scale(1 1) rotate(0) translate(4 437)">
<title>%3</title>
<polygon fill="white" stroke="none" points="-4,4 -4,-437 323.44,-437 323.44,4 -4,4"/>
<!-- A -->
<g id="node1" class="node"><title>A</title>
<polygon fill="none" stroke="black" points="207.44,-433 162.44,-433 162.44,-388 207.44,-388 207.44,-433"/>
<polyline fill="none" stroke="black" points="174.44,-433 162.44,-421 "/>
<polyline fill="none" stroke="black" points="162.44,-400 174.44,-388 "/>
<polyline fill="none" stroke="black" points="195.44,-388 207.44,-400 "/>
<polyline fill="none" stroke="black" points="207.44,-421 195.44,-433 "/>
<text text-anchor="middle" x="184.94" y="-406.8" font-family="STKAITI" font-size="14.00">开始</text>
</g>
<!-- B -->
<g id="node2" class="node"><title>B</title>
<polygon fill="none" stroke="black" points="248.44,-351 121.44,-351 121.44,-315 248.44,-315 248.44,-351"/>
<text text-anchor="middle" x="184.94" y="-329.3" font-family="STKAITI" font-size="14.00">选择K个初始质心</text>
</g>
<!-- A&#45;&gt;B -->
<g id="edge1" class="edge"><title>A&#45;&gt;B</title>
<path fill="none" stroke="black" d="M184.94,-387.662C184.94,-379.578 184.94,-370.302 184.94,-361.762"/>
<polygon fill="black" stroke="black" points="184.94,-351.481 189.441,-361.481 184.94,-356.481 184.941,-361.481 184.941,-361.481 184.941,-361.481 184.94,-356.481 180.441,-361.481 184.94,-351.481 184.94,-351.481"/>
</g>
<!-- C -->
<g id="node3" class="node"><title>C</title>
<polygon fill="none" stroke="black" points="319.44,-278 50.4404,-278 50.4404,-242 319.44,-242 319.44,-278"/>
<text text-anchor="middle" x="184.94" y="-256.3" font-family="STKAITI" font-size="14.00">将每个点分配到最近的质心，形成K个簇</text>
</g>
<!-- B&#45;&gt;C -->
<g id="edge2" class="edge"><title>B&#45;&gt;C</title>
<path fill="none" stroke="black" d="M184.94,-314.813C184.94,-306.789 184.94,-297.047 184.94,-288.069"/>
<polygon fill="black" stroke="black" points="184.94,-278.029 189.441,-288.029 184.94,-283.029 184.941,-288.029 184.941,-288.029 184.941,-288.029 184.94,-283.029 180.441,-288.029 184.94,-278.029 184.94,-278.029"/>
</g>
<!-- D -->
<g id="node4" class="node"><title>D</title>
<polygon fill="none" stroke="black" points="246.44,-205 119.44,-205 119.44,-169 246.44,-169 246.44,-205"/>
<text text-anchor="middle" x="182.94" y="-183.3" font-family="STKAITI" font-size="14.00">重新计算K个质心</text>
</g>
<!-- C&#45;&gt;D -->
<g id="edge3" class="edge"><title>C&#45;&gt;D</title>
<path fill="none" stroke="black" d="M184.456,-241.813C184.23,-233.789 183.956,-224.047 183.703,-215.069"/>
<polygon fill="black" stroke="black" points="183.42,-205.029 188.2,-214.898 183.561,-210.027 183.702,-215.025 183.702,-215.025 183.702,-215.025 183.561,-210.027 179.204,-215.152 183.42,-205.029 183.42,-205.029"/>
</g>
<!-- E -->
<g id="node5" class="node"><title>E</title>
<polygon fill="none" stroke="black" points="182.94,-132 49.8845,-114 182.94,-96 315.996,-114 182.94,-132"/>
<text text-anchor="middle" x="182.94" y="-110.3" font-family="STKAITI" font-size="14.00">比较新质心与旧质心</text>
</g>
<!-- D&#45;&gt;E -->
<g id="edge4" class="edge"><title>D&#45;&gt;E</title>
<path fill="none" stroke="black" d="M182.94,-168.813C182.94,-160.789 182.94,-151.047 182.94,-142.069"/>
<polygon fill="black" stroke="black" points="182.94,-132.029 187.441,-142.029 182.94,-137.029 182.941,-142.029 182.941,-142.029 182.941,-142.029 182.94,-137.029 178.441,-142.029 182.94,-132.029 182.94,-132.029"/>
</g>
<!-- E&#45;&gt;C -->
<g id="edge5" class="edge"><title>E:w&#45;&gt;C:w</title>
<path fill="none" stroke="black" d="M48.9404,-114C-12.3998,-114 -15.7544,-244.468 38.8768,-258.738"/>
<polygon fill="black" stroke="black" points="48.9404,-260 38.4581,-263.22 43.9793,-259.378 39.0182,-258.755 39.0182,-258.755 39.0182,-258.755 43.9793,-259.378 39.5782,-254.29 48.9404,-260 48.9404,-260"/>
<text text-anchor="middle" x="14.9404" y="-183.3" font-family="Times New Roman,serif" font-size="14.00">不同</text>
</g>
<!-- F -->
<g id="node6" class="node"><title>F</title>
<polygon fill="none" stroke="black" points="205.44,-45 160.44,-45 160.44,-0 205.44,-0 205.44,-45"/>
<polyline fill="none" stroke="black" points="172.44,-45 160.44,-33 "/>
<polyline fill="none" stroke="black" points="160.44,-12 172.44,-0 "/>
<polyline fill="none" stroke="black" points="193.44,-0 205.44,-12 "/>
<polyline fill="none" stroke="black" points="205.44,-33 193.44,-45 "/>
<text text-anchor="middle" x="182.94" y="-18.8" font-family="STKAITI" font-size="14.00">结束</text>
</g>
<!-- E&#45;&gt;F -->
<g id="edge6" class="edge"><title>E&#45;&gt;F</title>
<path fill="none" stroke="black" d="M182.94,-95.7435C182.94,-84.2477 182.94,-68.7997 182.94,-55.1395"/>
<polygon fill="black" stroke="black" points="182.94,-45.1369 187.441,-55.1369 182.94,-50.1369 182.941,-55.1369 182.941,-55.1369 182.941,-55.1369 182.94,-50.1369 178.441,-55.137 182.94,-45.1369 182.94,-45.1369"/>
<text text-anchor="middle" x="195.94" y="-66.8" font-family="Times New Roman,serif" font-size="14.00">一样</text>
</g>
</g>
</svg>
