<?xml version="1.0" encoding="utf-8" standalone="no"?>
<!DOCTYPE svg PUBLIC "-//W3C//DTD SVG 1.1//EN"
  "http://www.w3.org/Graphics/SVG/1.1/DTD/svg11.dtd">
<!-- Created with matplotlib (https://matplotlib.org/) -->
<svg height="864pt" version="1.1" viewBox="0 0 864 864" width="864pt" xmlns="http://www.w3.org/2000/svg" xmlns:xlink="http://www.w3.org/1999/xlink">
 <defs>
  <style type="text/css">
*{stroke-linecap:butt;stroke-linejoin:round;}
  </style>
 </defs>
 <g id="figure_1">
  <g id="patch_1">
   <path d="M 0 864 
L 864 864 
L 864 0 
L 0 0 
z
" style="fill:#ffffff;"/>
  </g>
  <g id="axes_1">
   <g id="patch_2">
    <path d="M 108 756 
L 777.6 756 
L 777.6 103.68 
L 108 103.68 
z
" style="fill:#ffffff;"/>
   </g>
   <g id="patch_3">
    <path clip-path="url(#p827019dfcf)" d="M 168.872727 726.349091 
L 201.309455 726.349091 
L 201.309455 722.860749 
L 168.872727 722.860749 
z
" style="stroke:#0000ff;stroke-linejoin:miter;stroke-width:0.39;"/>
   </g>
   <g id="patch_4">
    <path clip-path="url(#p827019dfcf)" d="M 168.872727 722.860749 
L 201.379221 722.860749 
L 201.379221 719.372406 
L 168.872727 719.372406 
z
" style="stroke:#0000ff;stroke-linejoin:miter;stroke-width:0.39;"/>
   </g>
   <g id="patch_5">
    <path clip-path="url(#p827019dfcf)" d="M 168.872727 719.372406 
L 240.69167 719.372406 
L 240.69167 715.884064 
L 168.872727 715.884064 
z
" style="stroke:#0000ff;stroke-linejoin:miter;stroke-width:0.39;"/>
   </g>
   <g id="patch_6">
    <path clip-path="url(#p827019dfcf)" d="M 168.872727 715.884064 
L 308.669522 715.884064 
L 308.669522 712.395722 
L 168.872727 712.395722 
z
" style="stroke:#0000ff;stroke-linejoin:miter;stroke-width:0.39;"/>
   </g>
   <g id="patch_7">
    <path clip-path="url(#p827019dfcf)" d="M 168.872727 712.395722 
L 327.522811 712.395722 
L 327.522811 708.90738 
L 168.872727 708.90738 
z
" style="stroke:#0000ff;stroke-linejoin:miter;stroke-width:0.39;"/>
   </g>
   <g id="patch_8">
    <path clip-path="url(#p827019dfcf)" d="M 168.872727 708.90738 
L 360.579305 708.90738 
L 360.579305 705.419037 
L 168.872727 705.419037 
z
" style="stroke:#0000ff;stroke-linejoin:miter;stroke-width:0.39;"/>
   </g>
   <g id="patch_9">
    <path clip-path="url(#p827019dfcf)" d="M 168.872727 705.419037 
L 383.420962 705.419037 
L 383.420962 701.930695 
L 168.872727 701.930695 
z
" style="stroke:#0000ff;stroke-linejoin:miter;stroke-width:0.39;"/>
   </g>
   <g id="patch_10">
    <path clip-path="url(#p827019dfcf)" d="M 168.872727 701.930695 
L 388.476823 701.930695 
L 388.476823 698.442353 
L 168.872727 698.442353 
z
" style="stroke:#0000ff;stroke-linejoin:miter;stroke-width:0.39;"/>
   </g>
   <g id="patch_11">
    <path clip-path="url(#p827019dfcf)" d="M 168.872727 698.442353 
L 405.533171 698.442353 
L 405.533171 694.954011 
L 168.872727 694.954011 
z
" style="stroke:#0000ff;stroke-linejoin:miter;stroke-width:0.39;"/>
   </g>
   <g id="patch_12">
    <path clip-path="url(#p827019dfcf)" d="M 168.872727 694.954011 
L 411.299968 694.954011 
L 411.299968 691.465668 
L 168.872727 691.465668 
z
" style="stroke:#0000ff;stroke-linejoin:miter;stroke-width:0.39;"/>
   </g>
   <g id="patch_13">
    <path clip-path="url(#p827019dfcf)" d="M 168.872727 691.465668 
L 418.606432 691.465668 
L 418.606432 687.977326 
L 168.872727 687.977326 
z
" style="stroke:#0000ff;stroke-linejoin:miter;stroke-width:0.39;"/>
   </g>
   <g id="patch_14">
    <path clip-path="url(#p827019dfcf)" d="M 168.872727 687.977326 
L 425.21284 687.977326 
L 425.21284 684.488984 
L 168.872727 684.488984 
z
" style="stroke:#0000ff;stroke-linejoin:miter;stroke-width:0.39;"/>
   </g>
   <g id="patch_15">
    <path clip-path="url(#p827019dfcf)" d="M 168.872727 684.488984 
L 427.6649 684.488984 
L 427.6649 681.000642 
L 168.872727 681.000642 
z
" style="stroke:#0000ff;stroke-linejoin:miter;stroke-width:0.39;"/>
   </g>
   <g id="patch_16">
    <path clip-path="url(#p827019dfcf)" d="M 168.872727 681.000642 
L 437.176621 681.000642 
L 437.176621 677.512299 
L 168.872727 677.512299 
z
" style="stroke:#0000ff;stroke-linejoin:miter;stroke-width:0.39;"/>
   </g>
   <g id="patch_17">
    <path clip-path="url(#p827019dfcf)" d="M 168.872727 677.512299 
L 445.443486 677.512299 
L 445.443486 674.023957 
L 168.872727 674.023957 
z
" style="stroke:#0000ff;stroke-linejoin:miter;stroke-width:0.39;"/>
   </g>
   <g id="patch_18">
    <path clip-path="url(#p827019dfcf)" d="M 168.872727 674.023957 
L 446.147847 674.023957 
L 446.147847 670.535615 
L 168.872727 670.535615 
z
" style="stroke:#0000ff;stroke-linejoin:miter;stroke-width:0.39;"/>
   </g>
   <g id="patch_19">
    <path clip-path="url(#p827019dfcf)" d="M 168.872727 670.535615 
L 450.441039 670.535615 
L 450.441039 667.047273 
L 168.872727 667.047273 
z
" style="stroke:#0000ff;stroke-linejoin:miter;stroke-width:0.39;"/>
   </g>
   <g id="patch_20">
    <path clip-path="url(#p827019dfcf)" d="M 168.872727 667.047273 
L 463.137964 667.047273 
L 463.137964 663.55893 
L 168.872727 663.55893 
z
" style="stroke:#0000ff;stroke-linejoin:miter;stroke-width:0.39;"/>
   </g>
   <g id="patch_21">
    <path clip-path="url(#p827019dfcf)" d="M 168.872727 663.55893 
L 463.754808 663.55893 
L 463.754808 660.070588 
L 168.872727 660.070588 
z
" style="stroke:#0000ff;stroke-linejoin:miter;stroke-width:0.39;"/>
   </g>
   <g id="patch_22">
    <path clip-path="url(#p827019dfcf)" d="M 168.872727 660.070588 
L 470.111144 660.070588 
L 470.111144 656.582246 
L 168.872727 656.582246 
z
" style="stroke:#0000ff;stroke-linejoin:miter;stroke-width:0.39;"/>
   </g>
   <g id="patch_23">
    <path clip-path="url(#p827019dfcf)" d="M 168.872727 656.582246 
L 472.795271 656.582246 
L 472.795271 653.093904 
L 168.872727 653.093904 
z
" style="stroke:#0000ff;stroke-linejoin:miter;stroke-width:0.39;"/>
   </g>
   <g id="patch_24">
    <path clip-path="url(#p827019dfcf)" d="M 168.872727 653.093904 
L 480.768546 653.093904 
L 480.768546 649.605561 
L 168.872727 649.605561 
z
" style="stroke:#0000ff;stroke-linejoin:miter;stroke-width:0.39;"/>
   </g>
   <g id="patch_25">
    <path clip-path="url(#p827019dfcf)" d="M 168.872727 649.605561 
L 483.029729 649.605561 
L 483.029729 646.117219 
L 168.872727 646.117219 
z
" style="stroke:#0000ff;stroke-linejoin:miter;stroke-width:0.39;"/>
   </g>
   <g id="patch_26">
    <path clip-path="url(#p827019dfcf)" d="M 168.872727 646.117219 
L 494.204694 646.117219 
L 494.204694 642.628877 
L 168.872727 642.628877 
z
" style="stroke:#0000ff;stroke-linejoin:miter;stroke-width:0.39;"/>
   </g>
   <g id="patch_27">
    <path clip-path="url(#p827019dfcf)" d="M 168.872727 642.628877 
L 499.924651 642.628877 
L 499.924651 639.140535 
L 168.872727 639.140535 
z
" style="stroke:#0000ff;stroke-linejoin:miter;stroke-width:0.39;"/>
   </g>
   <g id="patch_28">
    <path clip-path="url(#p827019dfcf)" d="M 168.872727 639.140535 
L 504.809735 639.140535 
L 504.809735 635.652193 
L 168.872727 635.652193 
z
" style="stroke:#0000ff;stroke-linejoin:miter;stroke-width:0.39;"/>
   </g>
   <g id="patch_29">
    <path clip-path="url(#p827019dfcf)" d="M 168.872727 635.652193 
L 506.776918 635.652193 
L 506.776918 632.16385 
L 168.872727 632.16385 
z
" style="stroke:#0000ff;stroke-linejoin:miter;stroke-width:0.39;"/>
   </g>
   <g id="patch_30">
    <path clip-path="url(#p827019dfcf)" d="M 168.872727 632.16385 
L 508.40814 632.16385 
L 508.40814 628.675508 
L 168.872727 628.675508 
z
" style="stroke:#0000ff;stroke-linejoin:miter;stroke-width:0.39;"/>
   </g>
   <g id="patch_31">
    <path clip-path="url(#p827019dfcf)" d="M 168.872727 628.675508 
L 509.256874 628.675508 
L 509.256874 625.187166 
L 168.872727 625.187166 
z
" style="stroke:#0000ff;stroke-linejoin:miter;stroke-width:0.39;"/>
   </g>
   <g id="patch_32">
    <path clip-path="url(#p827019dfcf)" d="M 168.872727 625.187166 
L 509.865906 625.187166 
L 509.865906 621.698824 
L 168.872727 621.698824 
z
" style="stroke:#0000ff;stroke-linejoin:miter;stroke-width:0.39;"/>
   </g>
   <g id="patch_33">
    <path clip-path="url(#p827019dfcf)" d="M 168.872727 621.698824 
L 510.686827 621.698824 
L 510.686827 618.210481 
L 168.872727 618.210481 
z
" style="stroke:#0000ff;stroke-linejoin:miter;stroke-width:0.39;"/>
   </g>
   <g id="patch_34">
    <path clip-path="url(#p827019dfcf)" d="M 168.872727 618.210481 
L 514.068447 618.210481 
L 514.068447 614.722139 
L 168.872727 614.722139 
z
" style="stroke:#0000ff;stroke-linejoin:miter;stroke-width:0.39;"/>
   </g>
   <g id="patch_35">
    <path clip-path="url(#p827019dfcf)" d="M 168.872727 614.722139 
L 515.989594 614.722139 
L 515.989594 611.233797 
L 168.872727 611.233797 
z
" style="stroke:#0000ff;stroke-linejoin:miter;stroke-width:0.39;"/>
   </g>
   <g id="patch_36">
    <path clip-path="url(#p827019dfcf)" d="M 168.872727 611.233797 
L 520.828648 611.233797 
L 520.828648 607.745455 
L 168.872727 607.745455 
z
" style="stroke:#0000ff;stroke-linejoin:miter;stroke-width:0.39;"/>
   </g>
   <g id="patch_37">
    <path clip-path="url(#p827019dfcf)" d="M 168.872727 607.745455 
L 522.028288 607.745455 
L 522.028288 604.257112 
L 168.872727 604.257112 
z
" style="stroke:#0000ff;stroke-linejoin:miter;stroke-width:0.39;"/>
   </g>
   <g id="patch_38">
    <path clip-path="url(#p827019dfcf)" d="M 168.872727 604.257112 
L 538.391365 604.257112 
L 538.391365 600.76877 
L 168.872727 600.76877 
z
" style="stroke:#0000ff;stroke-linejoin:miter;stroke-width:0.39;"/>
   </g>
   <g id="patch_39">
    <path clip-path="url(#p827019dfcf)" d="M 168.872727 600.76877 
L 541.375059 600.76877 
L 541.375059 597.280428 
L 168.872727 597.280428 
z
" style="stroke:#0000ff;stroke-linejoin:miter;stroke-width:0.39;"/>
   </g>
   <g id="patch_40">
    <path clip-path="url(#p827019dfcf)" d="M 168.872727 597.280428 
L 542.173178 597.280428 
L 542.173178 593.792086 
L 168.872727 593.792086 
z
" style="stroke:#0000ff;stroke-linejoin:miter;stroke-width:0.39;"/>
   </g>
   <g id="patch_41">
    <path clip-path="url(#p827019dfcf)" d="M 168.872727 558.908663 
L 559.297127 558.908663 
L 559.297127 555.420321 
L 168.872727 555.420321 
z
" style="fill:#00a4bb;stroke:#0000ff;stroke-linejoin:miter;stroke-width:0.39;"/>
   </g>
   <g id="patch_42">
    <path clip-path="url(#p827019dfcf)" d="M 168.872727 555.420321 
L 559.36757 555.420321 
L 559.36757 551.931979 
L 168.872727 551.931979 
z
" style="fill:#00a4bb;stroke:#0000ff;stroke-linejoin:miter;stroke-width:0.39;"/>
   </g>
   <g id="patch_43">
    <path clip-path="url(#p827019dfcf)" d="M 168.872727 551.931979 
L 595.536286 551.931979 
L 595.536286 548.443636 
L 168.872727 548.443636 
z
" style="fill:#00a4bb;stroke:#0000ff;stroke-linejoin:miter;stroke-width:0.39;"/>
   </g>
   <g id="patch_44">
    <path clip-path="url(#p827019dfcf)" d="M 168.872727 548.443636 
L 598.320829 548.443636 
L 598.320829 544.955294 
L 168.872727 544.955294 
z
" style="fill:#00a4bb;stroke:#0000ff;stroke-linejoin:miter;stroke-width:0.39;"/>
   </g>
   <g id="patch_45">
    <path clip-path="url(#p827019dfcf)" d="M 168.872727 544.955294 
L 607.118234 544.955294 
L 607.118234 541.466952 
L 168.872727 541.466952 
z
" style="fill:#00a4bb;stroke:#0000ff;stroke-linejoin:miter;stroke-width:0.39;"/>
   </g>
   <g id="patch_46">
    <path clip-path="url(#p827019dfcf)" d="M 168.872727 541.466952 
L 622.51574 541.466952 
L 622.51574 537.97861 
L 168.872727 537.97861 
z
" style="fill:#00a4bb;stroke:#0000ff;stroke-linejoin:miter;stroke-width:0.39;"/>
   </g>
   <g id="patch_47">
    <path clip-path="url(#p827019dfcf)" d="M 168.872727 537.97861 
L 623.15642 537.97861 
L 623.15642 534.490267 
L 168.872727 534.490267 
z
" style="fill:#00a4bb;stroke:#0000ff;stroke-linejoin:miter;stroke-width:0.39;"/>
   </g>
   <g id="patch_48">
    <path clip-path="url(#p827019dfcf)" d="M 168.872727 534.490267 
L 623.638846 534.490267 
L 623.638846 531.001925 
L 168.872727 531.001925 
z
" style="fill:#00a4bb;stroke:#0000ff;stroke-linejoin:miter;stroke-width:0.39;"/>
   </g>
   <g id="patch_49">
    <path clip-path="url(#p827019dfcf)" d="M 168.872727 531.001925 
L 627.760674 531.001925 
L 627.760674 527.513583 
L 168.872727 527.513583 
z
" style="fill:#00a4bb;stroke:#0000ff;stroke-linejoin:miter;stroke-width:0.39;"/>
   </g>
   <g id="patch_50">
    <path clip-path="url(#p827019dfcf)" d="M 168.872727 527.513583 
L 631.613882 527.513583 
L 631.613882 524.025241 
L 168.872727 524.025241 
z
" style="fill:#00a4bb;stroke:#0000ff;stroke-linejoin:miter;stroke-width:0.39;"/>
   </g>
   <g id="patch_51">
    <path clip-path="url(#p827019dfcf)" d="M 168.872727 524.025241 
L 637.486507 524.025241 
L 637.486507 520.536898 
L 168.872727 520.536898 
z
" style="fill:#00a4bb;stroke:#0000ff;stroke-linejoin:miter;stroke-width:0.39;"/>
   </g>
   <g id="patch_52">
    <path clip-path="url(#p827019dfcf)" d="M 168.872727 520.536898 
L 639.75221 520.536898 
L 639.75221 517.048556 
L 168.872727 517.048556 
z
" style="fill:#00a4bb;stroke:#0000ff;stroke-linejoin:miter;stroke-width:0.39;"/>
   </g>
   <g id="patch_53">
    <path clip-path="url(#p827019dfcf)" d="M 168.872727 517.048556 
L 640.768002 517.048556 
L 640.768002 513.560214 
L 168.872727 513.560214 
z
" style="fill:#00a4bb;stroke:#0000ff;stroke-linejoin:miter;stroke-width:0.39;"/>
   </g>
   <g id="patch_54">
    <path clip-path="url(#p827019dfcf)" d="M 168.872727 513.560214 
L 646.194946 513.560214 
L 646.194946 510.071872 
L 168.872727 510.071872 
z
" style="fill:#00a4bb;stroke:#0000ff;stroke-linejoin:miter;stroke-width:0.39;"/>
   </g>
   <g id="patch_55">
    <path clip-path="url(#p827019dfcf)" d="M 168.872727 510.071872 
L 647.984406 510.071872 
L 647.984406 506.583529 
L 168.872727 506.583529 
z
" style="fill:#00a4bb;stroke:#0000ff;stroke-linejoin:miter;stroke-width:0.39;"/>
   </g>
   <g id="patch_56">
    <path clip-path="url(#p827019dfcf)" d="M 168.872727 506.583529 
L 650.728299 506.583529 
L 650.728299 503.095187 
L 168.872727 503.095187 
z
" style="fill:#00a4bb;stroke:#0000ff;stroke-linejoin:miter;stroke-width:0.39;"/>
   </g>
   <g id="patch_57">
    <path clip-path="url(#p827019dfcf)" d="M 168.872727 503.095187 
L 651.807348 503.095187 
L 651.807348 499.606845 
L 168.872727 499.606845 
z
" style="fill:#00a4bb;stroke:#0000ff;stroke-linejoin:miter;stroke-width:0.39;"/>
   </g>
   <g id="patch_58">
    <path clip-path="url(#p827019dfcf)" d="M 168.872727 499.606845 
L 652.337651 499.606845 
L 652.337651 496.118503 
L 168.872727 496.118503 
z
" style="fill:#00a4bb;stroke:#0000ff;stroke-linejoin:miter;stroke-width:0.39;"/>
   </g>
   <g id="patch_59">
    <path clip-path="url(#p827019dfcf)" d="M 168.872727 496.118503 
L 654.970346 496.118503 
L 654.970346 492.63016 
L 168.872727 492.63016 
z
" style="fill:#00a4bb;stroke:#0000ff;stroke-linejoin:miter;stroke-width:0.39;"/>
   </g>
   <g id="patch_60">
    <path clip-path="url(#p827019dfcf)" d="M 168.872727 492.63016 
L 655.332561 492.63016 
L 655.332561 489.141818 
L 168.872727 489.141818 
z
" style="fill:#00a4bb;stroke:#0000ff;stroke-linejoin:miter;stroke-width:0.39;"/>
   </g>
   <g id="patch_61">
    <path clip-path="url(#p827019dfcf)" d="M 168.872727 489.141818 
L 656.65142 489.141818 
L 656.65142 485.653476 
L 168.872727 485.653476 
z
" style="fill:#00a4bb;stroke:#0000ff;stroke-linejoin:miter;stroke-width:0.39;"/>
   </g>
   <g id="patch_62">
    <path clip-path="url(#p827019dfcf)" d="M 168.872727 485.653476 
L 656.770938 485.653476 
L 656.770938 482.165134 
L 168.872727 482.165134 
z
" style="fill:#00a4bb;stroke:#0000ff;stroke-linejoin:miter;stroke-width:0.39;"/>
   </g>
   <g id="patch_63">
    <path clip-path="url(#p827019dfcf)" d="M 168.872727 482.165134 
L 659.866543 482.165134 
L 659.866543 478.676791 
L 168.872727 478.676791 
z
" style="fill:#00a4bb;stroke:#0000ff;stroke-linejoin:miter;stroke-width:0.39;"/>
   </g>
   <g id="patch_64">
    <path clip-path="url(#p827019dfcf)" d="M 168.872727 478.676791 
L 662.588676 478.676791 
L 662.588676 475.188449 
L 168.872727 475.188449 
z
" style="fill:#00a4bb;stroke:#0000ff;stroke-linejoin:miter;stroke-width:0.39;"/>
   </g>
   <g id="patch_65">
    <path clip-path="url(#p827019dfcf)" d="M 168.872727 475.188449 
L 662.930141 475.188449 
L 662.930141 471.700107 
L 168.872727 471.700107 
z
" style="fill:#00a4bb;stroke:#0000ff;stroke-linejoin:miter;stroke-width:0.39;"/>
   </g>
   <g id="patch_66">
    <path clip-path="url(#p827019dfcf)" d="M 168.872727 471.700107 
L 663.921256 471.700107 
L 663.921256 468.211765 
L 168.872727 468.211765 
z
" style="fill:#00a4bb;stroke:#0000ff;stroke-linejoin:miter;stroke-width:0.39;"/>
   </g>
   <g id="patch_67">
    <path clip-path="url(#p827019dfcf)" d="M 168.872727 468.211765 
L 665.859145 468.211765 
L 665.859145 464.723422 
L 168.872727 464.723422 
z
" style="fill:#00a4bb;stroke:#0000ff;stroke-linejoin:miter;stroke-width:0.39;"/>
   </g>
   <g id="patch_68">
    <path clip-path="url(#p827019dfcf)" d="M 168.872727 464.723422 
L 666.421532 464.723422 
L 666.421532 461.23508 
L 168.872727 461.23508 
z
" style="fill:#00a4bb;stroke:#0000ff;stroke-linejoin:miter;stroke-width:0.39;"/>
   </g>
   <g id="patch_69">
    <path clip-path="url(#p827019dfcf)" d="M 168.872727 461.23508 
L 666.711437 461.23508 
L 666.711437 457.746738 
L 168.872727 457.746738 
z
" style="fill:#00a4bb;stroke:#0000ff;stroke-linejoin:miter;stroke-width:0.39;"/>
   </g>
   <g id="patch_70">
    <path clip-path="url(#p827019dfcf)" d="M 168.872727 457.746738 
L 666.742852 457.746738 
L 666.742852 454.258396 
L 168.872727 454.258396 
z
" style="fill:#00a4bb;stroke:#0000ff;stroke-linejoin:miter;stroke-width:0.39;"/>
   </g>
   <g id="patch_71">
    <path clip-path="url(#p827019dfcf)" d="M 168.872727 454.258396 
L 667.516946 454.258396 
L 667.516946 450.770053 
L 168.872727 450.770053 
z
" style="fill:#00a4bb;stroke:#0000ff;stroke-linejoin:miter;stroke-width:0.39;"/>
   </g>
   <g id="patch_72">
    <path clip-path="url(#p827019dfcf)" d="M 168.872727 450.770053 
L 667.95209 450.770053 
L 667.95209 447.281711 
L 168.872727 447.281711 
z
" style="fill:#00a4bb;stroke:#0000ff;stroke-linejoin:miter;stroke-width:0.39;"/>
   </g>
   <g id="patch_73">
    <path clip-path="url(#p827019dfcf)" d="M 168.872727 447.281711 
L 668.686274 447.281711 
L 668.686274 443.793369 
L 168.872727 443.793369 
z
" style="fill:#00a4bb;stroke:#0000ff;stroke-linejoin:miter;stroke-width:0.39;"/>
   </g>
   <g id="patch_74">
    <path clip-path="url(#p827019dfcf)" d="M 168.872727 443.793369 
L 670.335743 443.793369 
L 670.335743 440.305027 
L 168.872727 440.305027 
z
" style="fill:#00a4bb;stroke:#0000ff;stroke-linejoin:miter;stroke-width:0.39;"/>
   </g>
   <g id="patch_75">
    <path clip-path="url(#p827019dfcf)" d="M 168.872727 440.305027 
L 673.479038 440.305027 
L 673.479038 436.816684 
L 168.872727 436.816684 
z
" style="fill:#00a4bb;stroke:#0000ff;stroke-linejoin:miter;stroke-width:0.39;"/>
   </g>
   <g id="patch_76">
    <path clip-path="url(#p827019dfcf)" d="M 168.872727 436.816684 
L 673.479038 436.816684 
L 673.479038 433.328342 
L 168.872727 433.328342 
z
" style="fill:#00a4bb;stroke:#0000ff;stroke-linejoin:miter;stroke-width:0.39;"/>
   </g>
   <g id="patch_77">
    <path clip-path="url(#p827019dfcf)" d="M 168.872727 433.328342 
L 673.479038 433.328342 
L 673.479038 429.84 
L 168.872727 429.84 
z
" style="fill:#00a4bb;stroke:#0000ff;stroke-linejoin:miter;stroke-width:0.39;"/>
   </g>
   <g id="patch_78">
    <path clip-path="url(#p827019dfcf)" d="M 168.872727 429.84 
L 674.169502 429.84 
L 674.169502 426.351658 
L 168.872727 426.351658 
z
" style="fill:#00a4bb;stroke:#0000ff;stroke-linejoin:miter;stroke-width:0.39;"/>
   </g>
   <g id="patch_79">
    <path clip-path="url(#p827019dfcf)" d="M 168.872727 426.351658 
L 675.856035 426.351658 
L 675.856035 422.863316 
L 168.872727 422.863316 
z
" style="fill:#00a4bb;stroke:#0000ff;stroke-linejoin:miter;stroke-width:0.39;"/>
   </g>
   <g id="patch_80">
    <path clip-path="url(#p827019dfcf)" d="M 168.872727 422.863316 
L 675.908154 422.863316 
L 675.908154 419.374973 
L 168.872727 419.374973 
z
" style="fill:#00a4bb;stroke:#0000ff;stroke-linejoin:miter;stroke-width:0.39;"/>
   </g>
   <g id="patch_81">
    <path clip-path="url(#p827019dfcf)" d="M 168.872727 419.374973 
L 677.549326 419.374973 
L 677.549326 415.886631 
L 168.872727 415.886631 
z
" style="fill:#00a4bb;stroke:#0000ff;stroke-linejoin:miter;stroke-width:0.39;"/>
   </g>
   <g id="patch_82">
    <path clip-path="url(#p827019dfcf)" d="M 168.872727 415.886631 
L 680.79101 415.886631 
L 680.79101 412.398289 
L 168.872727 412.398289 
z
" style="fill:#00a4bb;stroke:#0000ff;stroke-linejoin:miter;stroke-width:0.39;"/>
   </g>
   <g id="patch_83">
    <path clip-path="url(#p827019dfcf)" d="M 168.872727 412.398289 
L 682.116068 412.398289 
L 682.116068 408.909947 
L 168.872727 408.909947 
z
" style="fill:#00a4bb;stroke:#0000ff;stroke-linejoin:miter;stroke-width:0.39;"/>
   </g>
   <g id="patch_84">
    <path clip-path="url(#p827019dfcf)" d="M 168.872727 408.909947 
L 684.46208 408.909947 
L 684.46208 405.421604 
L 168.872727 405.421604 
z
" style="fill:#00a4bb;stroke:#0000ff;stroke-linejoin:miter;stroke-width:0.39;"/>
   </g>
   <g id="patch_85">
    <path clip-path="url(#p827019dfcf)" d="M 168.872727 405.421604 
L 685.001722 405.421604 
L 685.001722 401.933262 
L 168.872727 401.933262 
z
" style="fill:#00a4bb;stroke:#0000ff;stroke-linejoin:miter;stroke-width:0.39;"/>
   </g>
   <g id="patch_86">
    <path clip-path="url(#p827019dfcf)" d="M 168.872727 401.933262 
L 686.07529 401.933262 
L 686.07529 398.44492 
L 168.872727 398.44492 
z
" style="fill:#00a4bb;stroke:#0000ff;stroke-linejoin:miter;stroke-width:0.39;"/>
   </g>
   <g id="patch_87">
    <path clip-path="url(#p827019dfcf)" d="M 168.872727 398.44492 
L 686.228687 398.44492 
L 686.228687 394.956578 
L 168.872727 394.956578 
z
" style="fill:#00a4bb;stroke:#0000ff;stroke-linejoin:miter;stroke-width:0.39;"/>
   </g>
   <g id="patch_88">
    <path clip-path="url(#p827019dfcf)" d="M 168.872727 394.956578 
L 687.248422 394.956578 
L 687.248422 391.468235 
L 168.872727 391.468235 
z
" style="fill:#00a4bb;stroke:#0000ff;stroke-linejoin:miter;stroke-width:0.39;"/>
   </g>
   <g id="patch_89">
    <path clip-path="url(#p827019dfcf)" d="M 168.872727 391.468235 
L 687.73904 391.468235 
L 687.73904 387.979893 
L 168.872727 387.979893 
z
" style="fill:#00a4bb;stroke:#0000ff;stroke-linejoin:miter;stroke-width:0.39;"/>
   </g>
   <g id="patch_90">
    <path clip-path="url(#p827019dfcf)" d="M 168.872727 387.979893 
L 688.365138 387.979893 
L 688.365138 384.491551 
L 168.872727 384.491551 
z
" style="fill:#00a4bb;stroke:#0000ff;stroke-linejoin:miter;stroke-width:0.39;"/>
   </g>
   <g id="patch_91">
    <path clip-path="url(#p827019dfcf)" d="M 168.872727 349.608128 
L 184.918055 349.608128 
L 184.918055 346.119786 
L 168.872727 346.119786 
z
" style="fill:#ccf900;stroke:#0000ff;stroke-linejoin:miter;stroke-width:0.39;"/>
   </g>
   <g id="patch_92">
    <path clip-path="url(#p827019dfcf)" d="M 168.872727 346.119786 
L 185.139157 346.119786 
L 185.139157 342.631444 
L 168.872727 342.631444 
z
" style="fill:#ccf900;stroke:#0000ff;stroke-linejoin:miter;stroke-width:0.39;"/>
   </g>
   <g id="patch_93">
    <path clip-path="url(#p827019dfcf)" d="M 168.872727 342.631444 
L 232.284369 342.631444 
L 232.284369 339.143102 
L 168.872727 339.143102 
z
" style="fill:#ccf900;stroke:#0000ff;stroke-linejoin:miter;stroke-width:0.39;"/>
   </g>
   <g id="patch_94">
    <path clip-path="url(#p827019dfcf)" d="M 168.872727 339.143102 
L 245.751531 339.143102 
L 245.751531 335.654759 
L 168.872727 335.654759 
z
" style="fill:#ccf900;stroke:#0000ff;stroke-linejoin:miter;stroke-width:0.39;"/>
   </g>
   <g id="patch_95">
    <path clip-path="url(#p827019dfcf)" d="M 168.872727 335.654759 
L 253.486053 335.654759 
L 253.486053 332.166417 
L 168.872727 332.166417 
z
" style="fill:#ccf900;stroke:#0000ff;stroke-linejoin:miter;stroke-width:0.39;"/>
   </g>
   <g id="patch_96">
    <path clip-path="url(#p827019dfcf)" d="M 168.872727 332.166417 
L 253.711885 332.166417 
L 253.711885 328.678075 
L 168.872727 328.678075 
z
" style="fill:#ccf900;stroke:#0000ff;stroke-linejoin:miter;stroke-width:0.39;"/>
   </g>
   <g id="patch_97">
    <path clip-path="url(#p827019dfcf)" d="M 168.872727 328.678075 
L 270.258879 328.678075 
L 270.258879 325.189733 
L 168.872727 325.189733 
z
" style="fill:#ccf900;stroke:#0000ff;stroke-linejoin:miter;stroke-width:0.39;"/>
   </g>
   <g id="patch_98">
    <path clip-path="url(#p827019dfcf)" d="M 168.872727 325.189733 
L 281.756505 325.189733 
L 281.756505 321.70139 
L 168.872727 321.70139 
z
" style="fill:#ccf900;stroke:#0000ff;stroke-linejoin:miter;stroke-width:0.39;"/>
   </g>
   <g id="patch_99">
    <path clip-path="url(#p827019dfcf)" d="M 168.872727 321.70139 
L 292.428365 321.70139 
L 292.428365 318.213048 
L 168.872727 318.213048 
z
" style="fill:#ccf900;stroke:#0000ff;stroke-linejoin:miter;stroke-width:0.39;"/>
   </g>
   <g id="patch_100">
    <path clip-path="url(#p827019dfcf)" d="M 168.872727 318.213048 
L 310.251329 318.213048 
L 310.251329 314.724706 
L 168.872727 314.724706 
z
" style="fill:#ccf900;stroke:#0000ff;stroke-linejoin:miter;stroke-width:0.39;"/>
   </g>
   <g id="patch_101">
    <path clip-path="url(#p827019dfcf)" d="M 168.872727 314.724706 
L 310.251329 314.724706 
L 310.251329 311.236364 
L 168.872727 311.236364 
z
" style="fill:#ccf900;stroke:#0000ff;stroke-linejoin:miter;stroke-width:0.39;"/>
   </g>
   <g id="patch_102">
    <path clip-path="url(#p827019dfcf)" d="M 168.872727 311.236364 
L 322.436306 311.236364 
L 322.436306 307.748021 
L 168.872727 307.748021 
z
" style="fill:#ccf900;stroke:#0000ff;stroke-linejoin:miter;stroke-width:0.39;"/>
   </g>
   <g id="patch_103">
    <path clip-path="url(#p827019dfcf)" d="M 168.872727 307.748021 
L 327.673185 307.748021 
L 327.673185 304.259679 
L 168.872727 304.259679 
z
" style="fill:#ccf900;stroke:#0000ff;stroke-linejoin:miter;stroke-width:0.39;"/>
   </g>
   <g id="patch_104">
    <path clip-path="url(#p827019dfcf)" d="M 168.872727 304.259679 
L 329.364534 304.259679 
L 329.364534 300.771337 
L 168.872727 300.771337 
z
" style="fill:#ccf900;stroke:#0000ff;stroke-linejoin:miter;stroke-width:0.39;"/>
   </g>
   <g id="patch_105">
    <path clip-path="url(#p827019dfcf)" d="M 168.872727 300.771337 
L 340.732161 300.771337 
L 340.732161 297.282995 
L 168.872727 297.282995 
z
" style="fill:#ccf900;stroke:#0000ff;stroke-linejoin:miter;stroke-width:0.39;"/>
   </g>
   <g id="patch_106">
    <path clip-path="url(#p827019dfcf)" d="M 168.872727 297.282995 
L 342.378671 297.282995 
L 342.378671 293.794652 
L 168.872727 293.794652 
z
" style="fill:#ccf900;stroke:#0000ff;stroke-linejoin:miter;stroke-width:0.39;"/>
   </g>
   <g id="patch_107">
    <path clip-path="url(#p827019dfcf)" d="M 168.872727 293.794652 
L 346.627159 293.794652 
L 346.627159 290.30631 
L 168.872727 290.30631 
z
" style="fill:#ccf900;stroke:#0000ff;stroke-linejoin:miter;stroke-width:0.39;"/>
   </g>
   <g id="patch_108">
    <path clip-path="url(#p827019dfcf)" d="M 168.872727 290.30631 
L 356.995317 290.30631 
L 356.995317 286.817968 
L 168.872727 286.817968 
z
" style="fill:#ccf900;stroke:#0000ff;stroke-linejoin:miter;stroke-width:0.39;"/>
   </g>
   <g id="patch_109">
    <path clip-path="url(#p827019dfcf)" d="M 168.872727 286.817968 
L 357.860029 286.817968 
L 357.860029 283.329626 
L 168.872727 283.329626 
z
" style="fill:#ccf900;stroke:#0000ff;stroke-linejoin:miter;stroke-width:0.39;"/>
   </g>
   <g id="patch_110">
    <path clip-path="url(#p827019dfcf)" d="M 168.872727 283.329626 
L 366.461282 283.329626 
L 366.461282 279.841283 
L 168.872727 279.841283 
z
" style="fill:#ccf900;stroke:#0000ff;stroke-linejoin:miter;stroke-width:0.39;"/>
   </g>
   <g id="patch_111">
    <path clip-path="url(#p827019dfcf)" d="M 168.872727 279.841283 
L 368.95462 279.841283 
L 368.95462 276.352941 
L 168.872727 276.352941 
z
" style="fill:#ccf900;stroke:#0000ff;stroke-linejoin:miter;stroke-width:0.39;"/>
   </g>
   <g id="patch_112">
    <path clip-path="url(#p827019dfcf)" d="M 168.872727 276.352941 
L 369.202002 276.352941 
L 369.202002 272.864599 
L 168.872727 272.864599 
z
" style="fill:#ccf900;stroke:#0000ff;stroke-linejoin:miter;stroke-width:0.39;"/>
   </g>
   <g id="patch_113">
    <path clip-path="url(#p827019dfcf)" d="M 168.872727 272.864599 
L 371.919472 272.864599 
L 371.919472 269.376257 
L 168.872727 269.376257 
z
" style="fill:#ccf900;stroke:#0000ff;stroke-linejoin:miter;stroke-width:0.39;"/>
   </g>
   <g id="patch_114">
    <path clip-path="url(#p827019dfcf)" d="M 168.872727 269.376257 
L 378.391926 269.376257 
L 378.391926 265.887914 
L 168.872727 265.887914 
z
" style="fill:#ccf900;stroke:#0000ff;stroke-linejoin:miter;stroke-width:0.39;"/>
   </g>
   <g id="patch_115">
    <path clip-path="url(#p827019dfcf)" d="M 168.872727 265.887914 
L 382.686194 265.887914 
L 382.686194 262.399572 
L 168.872727 262.399572 
z
" style="fill:#ccf900;stroke:#0000ff;stroke-linejoin:miter;stroke-width:0.39;"/>
   </g>
   <g id="patch_116">
    <path clip-path="url(#p827019dfcf)" d="M 168.872727 262.399572 
L 393.403737 262.399572 
L 393.403737 258.91123 
L 168.872727 258.91123 
z
" style="fill:#ccf900;stroke:#0000ff;stroke-linejoin:miter;stroke-width:0.39;"/>
   </g>
   <g id="patch_117">
    <path clip-path="url(#p827019dfcf)" d="M 168.872727 258.91123 
L 396.149637 258.91123 
L 396.149637 255.422888 
L 168.872727 255.422888 
z
" style="fill:#ccf900;stroke:#0000ff;stroke-linejoin:miter;stroke-width:0.39;"/>
   </g>
   <g id="patch_118">
    <path clip-path="url(#p827019dfcf)" d="M 168.872727 255.422888 
L 400.911303 255.422888 
L 400.911303 251.934545 
L 168.872727 251.934545 
z
" style="fill:#ccf900;stroke:#0000ff;stroke-linejoin:miter;stroke-width:0.39;"/>
   </g>
   <g id="patch_119">
    <path clip-path="url(#p827019dfcf)" d="M 168.872727 251.934545 
L 403.530755 251.934545 
L 403.530755 248.446203 
L 168.872727 248.446203 
z
" style="fill:#ccf900;stroke:#0000ff;stroke-linejoin:miter;stroke-width:0.39;"/>
   </g>
   <g id="patch_120">
    <path clip-path="url(#p827019dfcf)" d="M 168.872727 248.446203 
L 422.094926 248.446203 
L 422.094926 244.957861 
L 168.872727 244.957861 
z
" style="fill:#ccf900;stroke:#0000ff;stroke-linejoin:miter;stroke-width:0.39;"/>
   </g>
   <g id="patch_121">
    <path clip-path="url(#p827019dfcf)" d="M 168.872727 244.957861 
L 449.799738 244.957861 
L 449.799738 241.469519 
L 168.872727 241.469519 
z
" style="fill:#ccf900;stroke:#0000ff;stroke-linejoin:miter;stroke-width:0.39;"/>
   </g>
   <g id="patch_122">
    <path clip-path="url(#p827019dfcf)" d="M 168.872727 241.469519 
L 453.039714 241.469519 
L 453.039714 237.981176 
L 168.872727 237.981176 
z
" style="fill:#ccf900;stroke:#0000ff;stroke-linejoin:miter;stroke-width:0.39;"/>
   </g>
   <g id="patch_123">
    <path clip-path="url(#p827019dfcf)" d="M 168.872727 237.981176 
L 462.380843 237.981176 
L 462.380843 234.492834 
L 168.872727 234.492834 
z
" style="fill:#ccf900;stroke:#0000ff;stroke-linejoin:miter;stroke-width:0.39;"/>
   </g>
   <g id="patch_124">
    <path clip-path="url(#p827019dfcf)" d="M 168.872727 234.492834 
L 466.757968 234.492834 
L 466.757968 231.004492 
L 168.872727 231.004492 
z
" style="fill:#ccf900;stroke:#0000ff;stroke-linejoin:miter;stroke-width:0.39;"/>
   </g>
   <g id="patch_125">
    <path clip-path="url(#p827019dfcf)" d="M 168.872727 231.004492 
L 469.734838 231.004492 
L 469.734838 227.51615 
L 168.872727 227.51615 
z
" style="fill:#ccf900;stroke:#0000ff;stroke-linejoin:miter;stroke-width:0.39;"/>
   </g>
   <g id="patch_126">
    <path clip-path="url(#p827019dfcf)" d="M 168.872727 227.51615 
L 473.264425 227.51615 
L 473.264425 224.027807 
L 168.872727 224.027807 
z
" style="fill:#ccf900;stroke:#0000ff;stroke-linejoin:miter;stroke-width:0.39;"/>
   </g>
   <g id="patch_127">
    <path clip-path="url(#p827019dfcf)" d="M 168.872727 224.027807 
L 475.383477 224.027807 
L 475.383477 220.539465 
L 168.872727 220.539465 
z
" style="fill:#ccf900;stroke:#0000ff;stroke-linejoin:miter;stroke-width:0.39;"/>
   </g>
   <g id="patch_128">
    <path clip-path="url(#p827019dfcf)" d="M 168.872727 220.539465 
L 477.012016 220.539465 
L 477.012016 217.051123 
L 168.872727 217.051123 
z
" style="fill:#ccf900;stroke:#0000ff;stroke-linejoin:miter;stroke-width:0.39;"/>
   </g>
   <g id="patch_129">
    <path clip-path="url(#p827019dfcf)" d="M 168.872727 217.051123 
L 498.054253 217.051123 
L 498.054253 213.562781 
L 168.872727 213.562781 
z
" style="fill:#ccf900;stroke:#0000ff;stroke-linejoin:miter;stroke-width:0.39;"/>
   </g>
   <g id="patch_130">
    <path clip-path="url(#p827019dfcf)" d="M 168.872727 213.562781 
L 504.329285 213.562781 
L 504.329285 210.074439 
L 168.872727 210.074439 
z
" style="fill:#ccf900;stroke:#0000ff;stroke-linejoin:miter;stroke-width:0.39;"/>
   </g>
   <g id="patch_131">
    <path clip-path="url(#p827019dfcf)" d="M 168.872727 210.074439 
L 505.460016 210.074439 
L 505.460016 206.586096 
L 168.872727 206.586096 
z
" style="fill:#ccf900;stroke:#0000ff;stroke-linejoin:miter;stroke-width:0.39;"/>
   </g>
   <g id="patch_132">
    <path clip-path="url(#p827019dfcf)" d="M 168.872727 206.586096 
L 508.244614 206.586096 
L 508.244614 203.097754 
L 168.872727 203.097754 
z
" style="fill:#ccf900;stroke:#0000ff;stroke-linejoin:miter;stroke-width:0.39;"/>
   </g>
   <g id="patch_133">
    <path clip-path="url(#p827019dfcf)" d="M 168.872727 203.097754 
L 508.422043 203.097754 
L 508.422043 199.609412 
L 168.872727 199.609412 
z
" style="fill:#ccf900;stroke:#0000ff;stroke-linejoin:miter;stroke-width:0.39;"/>
   </g>
   <g id="patch_134">
    <path clip-path="url(#p827019dfcf)" d="M 168.872727 199.609412 
L 509.765455 199.609412 
L 509.765455 196.12107 
L 168.872727 196.12107 
z
" style="fill:#ccf900;stroke:#0000ff;stroke-linejoin:miter;stroke-width:0.39;"/>
   </g>
   <g id="patch_135">
    <path clip-path="url(#p827019dfcf)" d="M 168.872727 196.12107 
L 511.392824 196.12107 
L 511.392824 192.632727 
L 168.872727 192.632727 
z
" style="fill:#ccf900;stroke:#0000ff;stroke-linejoin:miter;stroke-width:0.39;"/>
   </g>
   <g id="patch_136">
    <path clip-path="url(#p827019dfcf)" d="M 168.872727 192.632727 
L 520.896614 192.632727 
L 520.896614 189.144385 
L 168.872727 189.144385 
z
" style="fill:#ccf900;stroke:#0000ff;stroke-linejoin:miter;stroke-width:0.39;"/>
   </g>
   <g id="patch_137">
    <path clip-path="url(#p827019dfcf)" d="M 168.872727 189.144385 
L 526.258664 189.144385 
L 526.258664 185.656043 
L 168.872727 185.656043 
z
" style="fill:#ccf900;stroke:#0000ff;stroke-linejoin:miter;stroke-width:0.39;"/>
   </g>
   <g id="patch_138">
    <path clip-path="url(#p827019dfcf)" d="M 168.872727 185.656043 
L 527.832526 185.656043 
L 527.832526 182.167701 
L 168.872727 182.167701 
z
" style="fill:#ccf900;stroke:#0000ff;stroke-linejoin:miter;stroke-width:0.39;"/>
   </g>
   <g id="patch_139">
    <path clip-path="url(#p827019dfcf)" d="M 168.872727 182.167701 
L 529.367255 182.167701 
L 529.367255 178.679358 
L 168.872727 178.679358 
z
" style="fill:#ccf900;stroke:#0000ff;stroke-linejoin:miter;stroke-width:0.39;"/>
   </g>
   <g id="patch_140">
    <path clip-path="url(#p827019dfcf)" d="M 168.872727 178.679358 
L 529.813795 178.679358 
L 529.813795 175.191016 
L 168.872727 175.191016 
z
" style="fill:#ccf900;stroke:#0000ff;stroke-linejoin:miter;stroke-width:0.39;"/>
   </g>
   <g id="patch_141">
    <path clip-path="url(#p827019dfcf)" d="M 168.872727 175.191016 
L 530.859057 175.191016 
L 530.859057 171.702674 
L 168.872727 171.702674 
z
" style="fill:#ccf900;stroke:#0000ff;stroke-linejoin:miter;stroke-width:0.39;"/>
   </g>
   <g id="patch_142">
    <path clip-path="url(#p827019dfcf)" d="M 168.872727 171.702674 
L 531.436348 171.702674 
L 531.436348 168.214332 
L 168.872727 168.214332 
z
" style="fill:#ccf900;stroke:#0000ff;stroke-linejoin:miter;stroke-width:0.39;"/>
   </g>
   <g id="patch_143">
    <path clip-path="url(#p827019dfcf)" d="M 168.872727 168.214332 
L 538.111154 168.214332 
L 538.111154 164.725989 
L 168.872727 164.725989 
z
" style="fill:#ccf900;stroke:#0000ff;stroke-linejoin:miter;stroke-width:0.39;"/>
   </g>
   <g id="patch_144">
    <path clip-path="url(#p827019dfcf)" d="M 168.872727 164.725989 
L 538.467721 164.725989 
L 538.467721 161.237647 
L 168.872727 161.237647 
z
" style="fill:#ccf900;stroke:#0000ff;stroke-linejoin:miter;stroke-width:0.39;"/>
   </g>
   <g id="patch_145">
    <path clip-path="url(#p827019dfcf)" d="M 168.872727 161.237647 
L 540.640534 161.237647 
L 540.640534 157.749305 
L 168.872727 157.749305 
z
" style="fill:#ccf900;stroke:#0000ff;stroke-linejoin:miter;stroke-width:0.39;"/>
   </g>
   <g id="patch_146">
    <path clip-path="url(#p827019dfcf)" d="M 168.872727 157.749305 
L 541.155291 157.749305 
L 541.155291 154.260963 
L 168.872727 154.260963 
z
" style="fill:#ccf900;stroke:#0000ff;stroke-linejoin:miter;stroke-width:0.39;"/>
   </g>
   <g id="patch_147">
    <path clip-path="url(#p827019dfcf)" d="M 168.872727 154.260963 
L 542.853108 154.260963 
L 542.853108 150.77262 
L 168.872727 150.77262 
z
" style="fill:#ccf900;stroke:#0000ff;stroke-linejoin:miter;stroke-width:0.39;"/>
   </g>
   <g id="patch_148">
    <path clip-path="url(#p827019dfcf)" d="M 168.872727 150.77262 
L 546.116715 150.77262 
L 546.116715 147.284278 
L 168.872727 147.284278 
z
" style="fill:#ccf900;stroke:#0000ff;stroke-linejoin:miter;stroke-width:0.39;"/>
   </g>
   <g id="patch_149">
    <path clip-path="url(#p827019dfcf)" d="M 168.872727 147.284278 
L 547.535172 147.284278 
L 547.535172 143.795936 
L 168.872727 143.795936 
z
" style="fill:#ccf900;stroke:#0000ff;stroke-linejoin:miter;stroke-width:0.39;"/>
   </g>
   <g id="patch_150">
    <path clip-path="url(#p827019dfcf)" d="M 168.872727 143.795936 
L 548.991547 143.795936 
L 548.991547 140.307594 
L 168.872727 140.307594 
z
" style="fill:#ccf900;stroke:#0000ff;stroke-linejoin:miter;stroke-width:0.39;"/>
   </g>
   <g id="patch_151">
    <path clip-path="url(#p827019dfcf)" d="M 168.872727 140.307594 
L 550.876201 140.307594 
L 550.876201 136.819251 
L 168.872727 136.819251 
z
" style="fill:#ccf900;stroke:#0000ff;stroke-linejoin:miter;stroke-width:0.39;"/>
   </g>
   <g id="patch_152">
    <path clip-path="url(#p827019dfcf)" d="M 168.872727 136.819251 
L 552.760985 136.819251 
L 552.760985 133.330909 
L 168.872727 133.330909 
z
" style="fill:#ccf900;stroke:#0000ff;stroke-linejoin:miter;stroke-width:0.39;"/>
   </g>
   <g id="matplotlib.axis_1">
    <g id="xtick_1">
     <g id="line2d_1">
      <defs>
       <path d="M 0 0 
L 0 3.5 
" id="m0bbb92409e" style="stroke:#000000;stroke-width:1.3;"/>
      </defs>
      <g>
       <use style="stroke:#000000;stroke-width:1.3;" x="108" xlink:href="#m0bbb92409e" y="756"/>
      </g>
     </g>
     <g id="text_1">
      <!-- −0.1 -->
      <defs>
       <path d="M 62.0625 27.6875 
L 12.3125 27.6875 
L 12.3125 35.15625 
L 62.0625 35.15625 
z
" id="MicrosoftYaHei-8722"/>
       <path d="M 4.4375 36.328125 
Q 4.4375 56.34375 11.078125 66.625 
Q 17.71875 76.90625 30.328125 76.90625 
Q 54.34375 76.90625 54.34375 38.140625 
Q 54.34375 19 47.578125 8.859375 
Q 40.828125 -1.265625 28.609375 -1.265625 
Q 17.09375 -1.265625 10.765625 8.34375 
Q 4.4375 17.96875 4.4375 36.328125 
z
M 14.203125 36.765625 
Q 14.203125 6.640625 29.5 6.640625 
Q 44.53125 6.640625 44.53125 37.25 
Q 44.53125 68.953125 29.78125 68.953125 
Q 14.203125 68.953125 14.203125 36.765625 
z
" id="MicrosoftYaHei-48"/>
       <path d="M 5.8125 5.03125 
Q 5.8125 7.671875 7.609375 9.46875 
Q 9.421875 11.28125 12.109375 11.28125 
Q 14.84375 11.28125 16.640625 9.453125 
Q 18.453125 7.625 18.453125 5.03125 
Q 18.453125 2.484375 16.640625 0.65625 
Q 14.84375 -1.171875 12.0625 -1.171875 
Q 9.375 -1.171875 7.59375 0.65625 
Q 5.8125 2.484375 5.8125 5.03125 
z
" id="MicrosoftYaHei-46"/>
       <path d="M 52.59375 0 
L 9.234375 0 
L 9.234375 8.25 
L 26.171875 8.25 
L 26.171875 65.671875 
L 8.796875 60.640625 
L 8.796875 69.4375 
L 35.6875 77.25 
L 35.6875 8.25 
L 52.59375 8.25 
z
" id="MicrosoftYaHei-49"/>
      </defs>
      <g transform="translate(93.990469 778.991875)scale(0.13 -0.13)">
       <use xlink:href="#MicrosoftYaHei-8722"/>
       <use x="74.169922" xlink:href="#MicrosoftYaHei-48"/>
       <use x="132.8125" xlink:href="#MicrosoftYaHei-46"/>
       <use x="156.884766" xlink:href="#MicrosoftYaHei-49"/>
      </g>
     </g>
    </g>
    <g id="xtick_2">
     <g id="line2d_2">
      <g>
       <use style="stroke:#000000;stroke-width:1.3;" x="168.872727" xlink:href="#m0bbb92409e" y="756"/>
      </g>
     </g>
     <g id="text_2">
      <!-- 0.0 -->
      <g transform="translate(159.684368 778.991875)scale(0.13 -0.13)">
       <use xlink:href="#MicrosoftYaHei-48"/>
       <use x="58.642578" xlink:href="#MicrosoftYaHei-46"/>
       <use x="82.714844" xlink:href="#MicrosoftYaHei-48"/>
      </g>
     </g>
    </g>
    <g id="xtick_3">
     <g id="line2d_3">
      <g>
       <use style="stroke:#000000;stroke-width:1.3;" x="229.745455" xlink:href="#m0bbb92409e" y="756"/>
      </g>
     </g>
     <g id="text_3">
      <!-- 0.1 -->
      <g transform="translate(220.557095 778.991875)scale(0.13 -0.13)">
       <use xlink:href="#MicrosoftYaHei-48"/>
       <use x="58.642578" xlink:href="#MicrosoftYaHei-46"/>
       <use x="82.714844" xlink:href="#MicrosoftYaHei-49"/>
      </g>
     </g>
    </g>
    <g id="xtick_4">
     <g id="line2d_4">
      <g>
       <use style="stroke:#000000;stroke-width:1.3;" x="290.618182" xlink:href="#m0bbb92409e" y="756"/>
      </g>
     </g>
     <g id="text_4">
      <!-- 0.2 -->
      <defs>
       <path d="M 51.171875 0 
L 5.171875 0 
L 5.171875 8.296875 
L 27.15625 30.21875 
Q 36.234375 39.3125 39.3125 44.609375 
Q 42.390625 49.90625 42.390625 55.5625 
Q 42.390625 62.015625 38.765625 65.453125 
Q 35.15625 68.890625 28.328125 68.890625 
Q 18.21875 68.890625 9.03125 60.296875 
L 9.03125 70.015625 
Q 17.96875 76.90625 29.828125 76.90625 
Q 40.046875 76.90625 45.953125 71.390625 
Q 51.859375 65.875 51.859375 56.546875 
Q 51.859375 49.515625 48.0625 42.75 
Q 44.28125 35.984375 33.734375 25.53125 
L 16.5 8.6875 
L 16.5 8.5 
L 51.171875 8.5 
z
" id="MicrosoftYaHei-50"/>
      </defs>
      <g transform="translate(281.429822 778.991875)scale(0.13 -0.13)">
       <use xlink:href="#MicrosoftYaHei-48"/>
       <use x="58.642578" xlink:href="#MicrosoftYaHei-46"/>
       <use x="82.714844" xlink:href="#MicrosoftYaHei-50"/>
      </g>
     </g>
    </g>
    <g id="xtick_5">
     <g id="line2d_5">
      <g>
       <use style="stroke:#000000;stroke-width:1.3;" x="351.490909" xlink:href="#m0bbb92409e" y="756"/>
      </g>
     </g>
     <g id="text_5">
      <!-- 0.3 -->
      <defs>
       <path d="M 6.984375 12.640625 
Q 14.75 6.640625 24.515625 6.640625 
Q 32.328125 6.640625 36.890625 10.46875 
Q 41.453125 14.3125 41.453125 20.75 
Q 41.453125 35.109375 20.90625 35.109375 
L 14.59375 35.109375 
L 14.59375 43.015625 
L 20.609375 43.015625 
Q 38.8125 43.015625 38.8125 56.5 
Q 38.8125 68.953125 24.90625 68.953125 
Q 16.9375 68.953125 9.90625 63.578125 
L 9.90625 72.609375 
Q 17.328125 76.90625 27.25 76.90625 
Q 36.921875 76.90625 42.78125 71.84375 
Q 48.640625 66.796875 48.640625 58.734375 
Q 48.640625 43.890625 33.5 39.65625 
L 33.5 39.453125 
Q 41.703125 38.578125 46.453125 33.671875 
Q 51.21875 28.765625 51.21875 21.4375 
Q 51.21875 11.234375 43.875 4.984375 
Q 36.53125 -1.265625 24.3125 -1.265625 
Q 13.578125 -1.265625 6.984375 2.734375 
z
" id="MicrosoftYaHei-51"/>
      </defs>
      <g transform="translate(342.30255 778.991875)scale(0.13 -0.13)">
       <use xlink:href="#MicrosoftYaHei-48"/>
       <use x="58.642578" xlink:href="#MicrosoftYaHei-46"/>
       <use x="82.714844" xlink:href="#MicrosoftYaHei-51"/>
      </g>
     </g>
    </g>
    <g id="xtick_6">
     <g id="line2d_6">
      <g>
       <use style="stroke:#000000;stroke-width:1.3;" x="412.363636" xlink:href="#m0bbb92409e" y="756"/>
      </g>
     </g>
     <g id="text_6">
      <!-- 0.4 -->
      <defs>
       <path d="M 55.078125 19.625 
L 45.40625 19.625 
L 45.40625 0 
L 36.140625 0 
L 36.140625 19.625 
L 0.875 19.625 
L 0.875 25.828125 
L 34.328125 75.640625 
L 45.40625 75.640625 
L 45.40625 27.203125 
L 55.078125 27.203125 
z
M 36.140625 27.203125 
L 36.140625 58.890625 
Q 36.140625 62.25 36.328125 66.65625 
L 36.140625 66.65625 
Q 35.453125 64.796875 33.25 60.84375 
L 10.75 27.203125 
z
" id="MicrosoftYaHei-52"/>
      </defs>
      <g transform="translate(403.175277 778.991875)scale(0.13 -0.13)">
       <use xlink:href="#MicrosoftYaHei-48"/>
       <use x="58.642578" xlink:href="#MicrosoftYaHei-46"/>
       <use x="82.714844" xlink:href="#MicrosoftYaHei-52"/>
      </g>
     </g>
    </g>
    <g id="xtick_7">
     <g id="line2d_7">
      <g>
       <use style="stroke:#000000;stroke-width:1.3;" x="473.236364" xlink:href="#m0bbb92409e" y="756"/>
      </g>
     </g>
     <g id="text_7">
      <!-- 0.5 -->
      <defs>
       <path d="M 8.640625 11.625 
Q 16.265625 6.640625 24.515625 6.640625 
Q 32.328125 6.640625 37.109375 11 
Q 41.890625 15.375 41.890625 22.609375 
Q 41.890625 29.890625 37.03125 33.890625 
Q 32.171875 37.890625 22.953125 37.890625 
Q 18.5 37.890625 10.984375 37.203125 
L 10.984375 75.640625 
L 48.1875 75.640625 
L 48.1875 67.1875 
L 19.875 67.1875 
L 19.875 45.796875 
Q 24.125 46.046875 26.265625 46.046875 
Q 38.234375 46.046875 44.921875 39.984375 
Q 51.609375 33.9375 51.609375 23.296875 
Q 51.609375 12.3125 44.421875 5.515625 
Q 37.25 -1.265625 24.609375 -1.265625 
Q 14.015625 -1.265625 8.640625 1.859375 
z
" id="MicrosoftYaHei-53"/>
      </defs>
      <g transform="translate(464.048004 778.991875)scale(0.13 -0.13)">
       <use xlink:href="#MicrosoftYaHei-48"/>
       <use x="58.642578" xlink:href="#MicrosoftYaHei-46"/>
       <use x="82.714844" xlink:href="#MicrosoftYaHei-53"/>
      </g>
     </g>
    </g>
    <g id="xtick_8">
     <g id="line2d_8">
      <g>
       <use style="stroke:#000000;stroke-width:1.3;" x="534.109091" xlink:href="#m0bbb92409e" y="756"/>
      </g>
     </g>
     <g id="text_8">
      <!-- 0.6 -->
      <defs>
       <path d="M 49.703125 65.921875 
Q 43.796875 68.953125 37.359375 68.953125 
Q 27.546875 68.953125 21.578125 60.40625 
Q 15.625 51.859375 15.53125 37.0625 
L 15.765625 37.0625 
Q 21.140625 47.46875 32.90625 47.46875 
Q 42.71875 47.46875 48.578125 41.0625 
Q 54.4375 34.671875 54.4375 24.078125 
Q 54.4375 12.984375 47.671875 5.859375 
Q 40.921875 -1.265625 30.421875 -1.265625 
Q 18.890625 -1.265625 12.328125 7.734375 
Q 5.765625 16.75 5.765625 33.296875 
Q 5.765625 53.328125 14.375 65.109375 
Q 23 76.90625 37.0625 76.90625 
Q 45.125 76.90625 49.703125 74.703125 
z
M 16.109375 24.75 
Q 16.109375 17.28125 20.09375 11.953125 
Q 24.078125 6.640625 30.671875 6.640625 
Q 36.921875 6.640625 40.828125 11.234375 
Q 44.734375 15.828125 44.734375 23.046875 
Q 44.734375 30.859375 41.046875 35.203125 
Q 37.359375 39.546875 30.5625 39.546875 
Q 24.125 39.546875 20.109375 35.15625 
Q 16.109375 30.765625 16.109375 24.75 
z
" id="MicrosoftYaHei-54"/>
      </defs>
      <g transform="translate(524.920732 778.991875)scale(0.13 -0.13)">
       <use xlink:href="#MicrosoftYaHei-48"/>
       <use x="58.642578" xlink:href="#MicrosoftYaHei-46"/>
       <use x="82.714844" xlink:href="#MicrosoftYaHei-54"/>
      </g>
     </g>
    </g>
    <g id="xtick_9">
     <g id="line2d_9">
      <g>
       <use style="stroke:#000000;stroke-width:1.3;" x="594.981818" xlink:href="#m0bbb92409e" y="756"/>
      </g>
     </g>
     <g id="text_9">
      <!-- 0.7 -->
      <defs>
       <path d="M 53.765625 72.3125 
L 24.171875 0 
L 14.265625 0 
L 42.390625 67.1875 
L 4.59375 67.1875 
L 4.59375 75.640625 
L 53.765625 75.640625 
z
" id="MicrosoftYaHei-55"/>
      </defs>
      <g transform="translate(585.793459 778.991875)scale(0.13 -0.13)">
       <use xlink:href="#MicrosoftYaHei-48"/>
       <use x="58.642578" xlink:href="#MicrosoftYaHei-46"/>
       <use x="82.714844" xlink:href="#MicrosoftYaHei-55"/>
      </g>
     </g>
    </g>
    <g id="xtick_10">
     <g id="line2d_10">
      <g>
       <use style="stroke:#000000;stroke-width:1.3;" x="655.854545" xlink:href="#m0bbb92409e" y="756"/>
      </g>
     </g>
     <g id="text_10">
      <!-- 0.8 -->
      <defs>
       <path d="M 21.390625 39.796875 
Q 7.859375 46.09375 7.859375 58.0625 
Q 7.859375 66.40625 14.203125 71.65625 
Q 20.5625 76.90625 30.421875 76.90625 
Q 39.453125 76.90625 45.3125 71.96875 
Q 51.171875 67.046875 51.171875 59.234375 
Q 51.171875 46.625 37.0625 39.84375 
L 37.0625 39.65625 
Q 53.609375 33.6875 53.609375 19.34375 
Q 53.609375 9.90625 46.796875 4.3125 
Q 39.984375 -1.265625 27.78125 -1.265625 
Q 17.78125 -1.265625 11.46875 4.25 
Q 5.171875 9.765625 5.171875 18.5625 
Q 5.171875 33.015625 21.390625 39.59375 
z
M 41.5 58.109375 
Q 41.5 63.1875 38.328125 66.109375 
Q 35.15625 69.046875 29.734375 69.046875 
Q 24.65625 69.046875 21.09375 65.984375 
Q 17.53125 62.9375 17.53125 58.203125 
Q 17.53125 48.734375 29.390625 43.796875 
Q 41.5 48.828125 41.5 58.109375 
z
M 28.8125 35.25 
Q 14.796875 29.59375 14.796875 19.046875 
Q 14.796875 13.578125 18.890625 10.0625 
Q 23 6.546875 29.59375 6.546875 
Q 35.984375 6.546875 39.984375 10.03125 
Q 44 13.53125 44 18.75 
Q 44 29.734375 28.8125 35.25 
z
" id="MicrosoftYaHei-56"/>
      </defs>
      <g transform="translate(646.666186 778.991875)scale(0.13 -0.13)">
       <use xlink:href="#MicrosoftYaHei-48"/>
       <use x="58.642578" xlink:href="#MicrosoftYaHei-46"/>
       <use x="82.714844" xlink:href="#MicrosoftYaHei-56"/>
      </g>
     </g>
    </g>
    <g id="xtick_11">
     <g id="line2d_11">
      <g>
       <use style="stroke:#000000;stroke-width:1.3;" x="716.727273" xlink:href="#m0bbb92409e" y="756"/>
      </g>
     </g>
     <g id="text_11">
      <!-- 0.9 -->
      <defs>
       <path d="M 9.03125 10.25 
Q 15.28125 6.640625 22.515625 6.640625 
Q 32.671875 6.640625 38.25 14.640625 
Q 43.84375 22.65625 43.84375 37.40625 
Q 43.75 37.3125 43.65625 37.40625 
Q 38.671875 27.9375 26.90625 27.9375 
Q 17.390625 27.9375 11.140625 34.46875 
Q 4.890625 41.015625 4.890625 51.46875 
Q 4.890625 62.59375 11.71875 69.75 
Q 18.5625 76.90625 29.4375 76.90625 
Q 40.71875 76.90625 47.0625 68.046875 
Q 53.421875 59.1875 53.421875 42.234375 
Q 53.421875 21.296875 45.21875 10.015625 
Q 37.015625 -1.265625 22.515625 -1.265625 
Q 14.546875 -1.265625 9.03125 1.3125 
z
M 14.546875 52.6875 
Q 14.546875 45.0625 18.453125 40.59375 
Q 22.359375 36.140625 29.25 36.140625 
Q 35.203125 36.140625 39.25 40.203125 
Q 43.3125 44.28125 43.3125 50.09375 
Q 43.3125 58.25 39.28125 63.59375 
Q 35.25 68.953125 28.65625 68.953125 
Q 22.5625 68.953125 18.546875 64.3125 
Q 14.546875 59.671875 14.546875 52.6875 
z
" id="MicrosoftYaHei-57"/>
      </defs>
      <g transform="translate(707.538913 778.991875)scale(0.13 -0.13)">
       <use xlink:href="#MicrosoftYaHei-48"/>
       <use x="58.642578" xlink:href="#MicrosoftYaHei-46"/>
       <use x="82.714844" xlink:href="#MicrosoftYaHei-57"/>
      </g>
     </g>
    </g>
    <g id="xtick_12">
     <g id="line2d_12">
      <g>
       <use style="stroke:#000000;stroke-width:1.3;" x="777.6" xlink:href="#m0bbb92409e" y="756"/>
      </g>
     </g>
     <g id="text_12">
      <!-- 1.0 -->
      <g transform="translate(768.411641 778.991875)scale(0.13 -0.13)">
       <use xlink:href="#MicrosoftYaHei-49"/>
       <use x="58.642578" xlink:href="#MicrosoftYaHei-46"/>
       <use x="82.714844" xlink:href="#MicrosoftYaHei-48"/>
      </g>
     </g>
    </g>
    <g id="text_13">
     <!-- 轮廓系数 -->
     <defs>
      <path d="M 10.75 34.8125 
L 22.46875 34.8125 
L 22.46875 56.203125 
L 29.5 56.203125 
L 29.5 34.8125 
L 42 34.8125 
L 42 28.171875 
L 29.5 28.171875 
L 29.5 14.984375 
Q 36.625 15.875 43.171875 16.84375 
Q 43.0625 14.40625 42.875 9.625 
Q 36.140625 8.84375 29.5 8.0625 
L 29.5 -13.53125 
L 22.46875 -13.53125 
L 22.46875 7.28125 
Q 12.203125 6 2.15625 4.734375 
L 1.375 12.0625 
Q 12.40625 13.03125 22.46875 14.203125 
L 22.46875 28.171875 
L 3.515625 28.171875 
L 3.515625 34.328125 
Q 8.59375 48.6875 12.5 61.1875 
L 2.4375 61.1875 
L 2.4375 67.828125 
L 14.453125 67.828125 
Q 16.890625 75.921875 18.65625 83.15625 
L 26.171875 81.5 
Q 24.03125 74.46875 21.875 67.828125 
L 43.453125 67.828125 
L 43.453125 61.1875 
L 19.734375 61.1875 
Q 15.234375 47.3125 10.75 34.8125 
z
M 49.421875 45.171875 
L 56.84375 45.171875 
L 56.84375 23.578125 
Q 69.625 31 80.46875 41.453125 
L 86.625 36.859375 
Q 71.6875 23.1875 56.84375 15.578125 
L 56.84375 2.984375 
Q 56.84375 -3.078125 63.671875 -3.078125 
L 76.953125 -3.078125 
Q 83.796875 -3.078125 84.765625 2.78125 
Q 85.84375 9.125 86.328125 17.140625 
Q 87.109375 16.84375 93.65625 14.3125 
Q 93.0625 6.890625 91.890625 0.4375 
Q 90.234375 -10.203125 78.328125 -10.203125 
L 61.328125 -10.203125 
Q 49.421875 -10.203125 49.421875 1.125 
z
M 72.75 82.171875 
L 71 79.25 
Q 81.9375 58.15625 98.640625 49.65625 
Q 95.515625 46.140625 93.359375 43.21875 
Q 77.734375 52.484375 66.40625 72.21875 
Q 55.171875 53.46875 41.015625 42.140625 
Q 38.671875 45.171875 35.75 47.796875 
Q 53.21875 60.890625 63.1875 82.171875 
z
" id="MicrosoftYaHei-36718"/>
      <path d="M 47.359375 81.296875 
L 54 84.03125 
Q 57.078125 79 59.671875 73.390625 
L 98.25 73.390625 
L 98.25 67.140625 
L 16.796875 67.140625 
L 16.796875 38.03125 
Q 16.796875 4.734375 6.84375 -12.75 
Q 4 -8.734375 1.375 -6.109375 
Q 9.765625 7.671875 9.765625 37.640625 
L 9.765625 73.390625 
L 51.515625 73.390625 
Q 49.65625 77.296875 47.359375 81.296875 
z
M 96 11.578125 
Q 96 -1.21875 85.75 -1.90625 
Q 81.25 -2.203125 76.171875 -1.609375 
Q 75.984375 1.421875 74.90625 6.109375 
Q 79.59375 5.125 83.5 5.125 
Q 88.96875 5.125 88.96875 11.375 
Q 89.0625 21.828125 76.953125 31 
Q 81.9375 41.0625 87.109375 52.875 
L 72.359375 52.875 
L 72.359375 -12.84375 
L 65.53125 -12.84375 
L 65.53125 59.125 
L 94.734375 59.125 
L 94.734375 53.171875 
Q 89.453125 41.84375 84.859375 32.375 
Q 96.09375 23.390625 96 11.578125 
z
M 16.5 7.5625 
Q 27.546875 8.109375 38.875 8.890625 
L 38.875 12.75 
L 48.25 18.796875 
L 20.3125 18.796875 
L 20.3125 23.875 
L 57.515625 23.875 
L 57.515625 18.609375 
L 45.515625 10.6875 
L 45.515625 9.421875 
Q 53.5625 10.0625 61.8125 10.890625 
Q 61.140625 7.671875 61.03125 4.640625 
Q 53.421875 4.15625 45.515625 3.609375 
L 45.515625 -0.640625 
Q 45.515625 -11.375 34.671875 -11.375 
Q 30.078125 -11.375 25.6875 -11.1875 
Q 25.6875 -7.46875 24.703125 -4.34375 
Q 29.59375 -5.21875 33.796875 -5.21875 
Q 38.875 -5.21875 38.875 -0.640625 
L 38.875 3.125 
Q 28.265625 2.296875 17.1875 1.3125 
z
M 23.25 47.3125 
L 57.328125 47.3125 
L 57.328125 27.296875 
L 50.875 27.296875 
L 50.875 29.828125 
L 29.6875 29.828125 
L 29.6875 27.296875 
L 23.25 27.296875 
z
M 19.234375 57.859375 
L 36.96875 57.859375 
Q 35.9375 60.9375 34.46875 64.203125 
L 41.3125 66.0625 
Q 42.96875 62.40625 44.4375 57.859375 
L 60.9375 57.859375 
L 60.9375 52.390625 
L 19.234375 52.390625 
z
M 50.875 42.234375 
L 29.6875 42.234375 
L 29.6875 34.90625 
L 50.875 34.90625 
z
" id="MicrosoftYaHei-24275"/>
      <path d="M 70.21875 42.921875 
Q 82.71875 32.859375 95.796875 20.84375 
Q 92.578125 17.71875 89.84375 14.890625 
Q 85.796875 18.890625 81.640625 22.796875 
Q 68.609375 22.265625 54.984375 21.53125 
L 54.984375 -0.4375 
Q 54.984375 -11.578125 43.265625 -11.578125 
Q 38.484375 -11.578125 30.671875 -11.375 
Q 30.171875 -7.765625 29.390625 -3.375 
Q 37.59375 -4.25 42 -4.25 
Q 47.359375 -4.25 47.359375 1.03125 
L 47.359375 21.140625 
Q 35.5 20.515625 23.25 19.78125 
Q 17.671875 19.484375 12.203125 18.5 
L 8.984375 26.90625 
Q 15.4375 28.078125 21.1875 30.71875 
Q 36.140625 38.03125 48.921875 45.453125 
Q 31.9375 44.140625 20.40625 43.109375 
Q 15.328125 42.625 12.703125 42.046875 
L 9.578125 50.25 
Q 14.265625 51.421875 18.359375 53.65625 
Q 30.609375 60.5 42.921875 69.828125 
Q 26.171875 68.796875 8.984375 68.015625 
Q 8.296875 71.4375 7.234375 74.859375 
Q 53.8125 76.609375 89.9375 80.21875 
L 91.40625 73.296875 
Q 70.21875 71.53125 48.390625 70.125 
L 52.34375 67.328125 
Q 37.015625 57.078125 24.03125 50.046875 
Q 45.90625 51.265625 60.25 52.390625 
Q 70.015625 58.640625 78.328125 64.984375 
L 84.671875 59.8125 
Q 60.15625 42.328125 27.734375 27.09375 
Q 47.171875 27.78125 74.859375 29.15625 
Q 69.96875 33.640625 65.046875 37.9375 
z
M 64.453125 10.890625 
L 69.4375 16.15625 
Q 81.734375 7.953125 96.484375 -3.46875 
L 90.71875 -9.8125 
Q 77.046875 1.515625 64.453125 10.890625 
z
M 26.265625 16.0625 
L 32.625 11.078125 
Q 20.125 -0.140625 6.34375 -10.59375 
Q 4 -7.765625 0.984375 -4.640625 
Q 13.671875 4.046875 26.265625 16.0625 
z
" id="MicrosoftYaHei-31995"/>
      <path d="M 65.234375 82.859375 
L 73.046875 81.6875 
Q 71 72.21875 68.265625 64.015625 
L 98.140625 64.015625 
L 98.140625 57.375 
L 92 57.375 
Q 89.546875 28.65625 79.5 11.765625 
Q 87.40625 1.03125 99.609375 -5.8125 
Q 96.484375 -10.109375 94.34375 -13.53125 
Q 82.421875 -5.8125 74.515625 4.828125 
Q 65.53125 -6.296875 53.125 -14.5 
Q 50.984375 -11.671875 47.5625 -8.34375 
Q 61.234375 0.640625 69.734375 12.0625 
Q 61.8125 25.734375 59.28125 43.609375 
Q 57.234375 39.984375 54.984375 36.859375 
Q 53.03125 39.703125 50.09375 43.109375 
Q 61.421875 59.421875 65.234375 82.859375 
z
M 2.34375 26.515625 
L 17.1875 26.515625 
Q 19.34375 30.21875 21.390625 34.125 
L 28.421875 31.890625 
Q 26.859375 29.15625 25.296875 26.515625 
L 49.21875 26.515625 
L 49.21875 20.171875 
Q 45.515625 10.59375 37.984375 3.375 
Q 43.359375 0.828125 48.921875 -1.703125 
L 44.625 -8.453125 
Q 38.578125 -5.03125 32.03125 -1.609375 
Q 21 -9.515625 4.203125 -14.109375 
Q 2.640625 -10.984375 0.875 -7.28125 
Q 15.140625 -4.046875 25 2 
Q 16.609375 6.296875 7.421875 10.796875 
Q 10.546875 15.28125 13.484375 20.0625 
L 2.34375 20.0625 
z
M 3.421875 60.109375 
L 25.875 60.109375 
L 25.875 81.984375 
L 33.109375 81.984375 
L 33.109375 60.109375 
L 51.859375 60.109375 
L 51.859375 53.65625 
L 33.109375 53.65625 
L 33.109375 47.703125 
L 36.03125 51.03125 
Q 45.125 44.390625 51.265625 39.3125 
L 46.578125 33.84375 
Q 41.21875 38.921875 33.109375 45.265625 
L 33.109375 34.125 
L 25.875 34.125 
L 25.875 47.796875 
Q 17 38.53125 5.171875 31.5 
Q 3.328125 34.328125 0.984375 37.453125 
Q 13.28125 44.09375 23.53125 53.65625 
L 3.421875 53.65625 
z
M 84.1875 57.375 
L 65.921875 57.375 
Q 65.4375 56.109375 64.84375 54.9375 
Q 66.609375 34.234375 74.609375 19.484375 
Q 82.421875 33.734375 84.1875 57.375 
z
M 17 13.03125 
Q 23.921875 9.90625 31.25 6.5 
Q 37.984375 12.25 41.796875 20.0625 
L 21.484375 20.0625 
Q 19.234375 16.453125 17 13.03125 
z
M 47.46875 79.546875 
L 53.515625 75.53125 
Q 48.140625 68.5 42.78125 62.546875 
Q 40.53125 64.5 37.5 66.65625 
Q 42.578125 72.609375 47.46875 79.546875 
z
M 5.953125 75.25 
L 11.53125 79.046875 
Q 15.921875 73.6875 20.609375 67.53125 
L 14.546875 63.234375 
Q 10.25 69.578125 5.953125 75.25 
z
" id="MicrosoftYaHei-25968"/>
     </defs>
     <g transform="translate(414.2 797.654656)scale(0.143 -0.143)">
      <use xlink:href="#MicrosoftYaHei-36718"/>
      <use x="100" xlink:href="#MicrosoftYaHei-24275"/>
      <use x="200" xlink:href="#MicrosoftYaHei-31995"/>
      <use x="300" xlink:href="#MicrosoftYaHei-25968"/>
     </g>
    </g>
   </g>
   <g id="matplotlib.axis_2">
    <g id="ytick_1">
     <g id="line2d_13">
      <defs>
       <path d="M 0 0 
L -3.5 0 
" id="mcc42aabff6" style="stroke:#000000;stroke-width:1.3;"/>
      </defs>
      <g>
       <use style="stroke:#000000;stroke-width:1.3;" x="108" xlink:href="#mcc42aabff6" y="658.326417"/>
      </g>
     </g>
     <g id="text_14">
      <!-- 0 -->
      <g transform="translate(87.776719 663.522355)scale(0.13 -0.13)">
       <use xlink:href="#MicrosoftYaHei-48"/>
      </g>
     </g>
    </g>
    <g id="ytick_2">
     <g id="line2d_14">
      <g>
       <use style="stroke:#000000;stroke-width:1.3;" x="108" xlink:href="#mcc42aabff6" y="469.955936"/>
      </g>
     </g>
     <g id="text_15">
      <!-- 1 -->
      <g transform="translate(87.776719 475.151873)scale(0.13 -0.13)">
       <use xlink:href="#MicrosoftYaHei-49"/>
      </g>
     </g>
    </g>
    <g id="ytick_3">
     <g id="line2d_15">
      <g>
       <use style="stroke:#000000;stroke-width:1.3;" x="108" xlink:href="#mcc42aabff6" y="239.725348"/>
      </g>
     </g>
     <g id="text_16">
      <!-- 2 -->
      <g transform="translate(87.776719 244.921285)scale(0.13 -0.13)">
       <use xlink:href="#MicrosoftYaHei-50"/>
      </g>
     </g>
    </g>
    <g id="text_17">
     <!-- 簇标签 -->
     <defs>
      <path d="M 42.578125 17.71875 
L 66.3125 17.71875 
Q 66.703125 22.75 66.796875 28.65625 
L 57.28125 28.65625 
Q 54.046875 23.1875 50.203125 18.703125 
Q 48.046875 20.75 44.734375 23.296875 
Q 51.46875 30.21875 56.25 40.765625 
L 63.28125 40.765625 
Q 61.96875 37.5 60.453125 34.515625 
L 93.75 34.515625 
L 93.75 28.65625 
L 73.78125 28.65625 
Q 73.640625 22.359375 73.1875 17.71875 
L 97.171875 17.71875 
L 97.171875 11.859375 
L 74.171875 11.859375 
Q 82.8125 -1.765625 98.34375 -6.390625 
Q 95.90625 -10.109375 94.046875 -13.03125 
Q 78.328125 -7.46875 70.21875 7.515625 
Q 65.625 -5.171875 45.015625 -13.625 
Q 42.96875 -10.296875 40.71875 -7.171875 
Q 60.6875 -1.265625 65.140625 11.859375 
L 42.578125 11.859375 
z
M 1.265625 47.515625 
L 21.734375 47.515625 
Q 19.046875 51.859375 15.4375 56.59375 
L 20.609375 59.90625 
Q 24.3125 55.328125 27.546875 50.4375 
L 22.859375 47.515625 
L 41.890625 47.515625 
L 41.890625 41.65625 
L 18.5625 41.65625 
Q 18.5 36.234375 18.359375 31.5 
L 37.984375 31.5 
Q 37.59375 13.328125 37.015625 0.734375 
Q 36.421875 -11.46875 25.875 -11.46875 
Q 21.875 -11.46875 17.484375 -11.375 
Q 16.890625 -8.25 16.21875 -3.953125 
Q 21.578125 -4.546875 24.609375 -4.546875 
Q 29.59375 -4.546875 30.078125 1.609375 
Q 30.671875 11.46875 30.859375 25.640625 
L 18.109375 25.640625 
Q 17.78125 0.828125 6.453125 -13.71875 
Q 4 -10.40625 1.46875 -7.671875 
Q 7.328125 -0.4375 9.578125 11.28125 
Q 11.671875 21.34375 11.625 41.65625 
L 1.265625 41.65625 
z
M 59.375 83.34375 
L 67.1875 83.34375 
Q 65.140625 78.765625 62.9375 74.65625 
L 96.296875 74.65625 
L 96.296875 68.796875 
L 59.515625 68.796875 
Q 55.609375 62.59375 51.171875 57.5625 
Q 48.640625 59.8125 45.125 61.859375 
Q 54.5 71.234375 59.375 83.34375 
z
M 20.21875 83.34375 
L 28.125 83.34375 
Q 26.078125 78.8125 23.578125 74.65625 
L 49.21875 74.65625 
L 49.21875 68.796875 
L 19.78125 68.796875 
Q 13.875 60.5 6.15625 53.859375 
Q 4.203125 56.203125 1.265625 59.125 
Q 14.453125 70.453125 20.21875 83.34375 
z
M 53.21875 57.671875 
L 60.359375 57.671875 
Q 58.796875 53.953125 57.03125 50.53125 
L 95.015625 50.53125 
L 95.015625 44.671875 
L 53.8125 44.671875 
Q 50.296875 38.875 46.1875 34.125 
Q 44.234375 36.1875 40.625 38.8125 
Q 49.421875 47.90625 53.21875 57.671875 
z
M 78.125 53.65625 
Q 74.125 58.734375 69.140625 63.71875 
L 74.125 67.53125 
Q 79.5 62.9375 83.59375 58.0625 
z
M 34.96875 54.4375 
Q 31.0625 59.71875 26.765625 64.203125 
L 31.734375 68.015625 
Q 36.03125 63.8125 40.4375 58.640625 
z
" id="MicrosoftYaHei-31751"/>
      <path d="M 1.171875 22.015625 
Q 12.015625 38.71875 16.015625 56.984375 
L 1.859375 56.984375 
L 1.859375 63.625 
L 16.703125 63.625 
L 16.703125 82.765625 
L 23.53125 82.765625 
L 23.53125 63.625 
L 36.8125 63.625 
L 36.8125 56.984375 
L 23.53125 56.984375 
L 23.53125 39.703125 
L 27.734375 44.09375 
Q 33.984375 38.71875 38.765625 33.734375 
L 33.59375 28.375 
Q 28.90625 33.6875 23.53125 39.109375 
L 23.53125 -12.453125 
L 16.703125 -12.453125 
L 16.703125 40.4375 
Q 11.53125 23.640625 4.390625 13.421875 
Q 3.03125 17.625 1.171875 22.015625 
z
M 36.71875 48.390625 
L 97.65625 48.390625 
L 97.65625 41.546875 
L 70.703125 41.546875 
L 70.703125 0.734375 
Q 70.703125 -11.46875 59.46875 -11.46875 
Q 54.203125 -11.578125 46.484375 -11.375 
Q 46 -7.859375 45.125 -3.265625 
Q 51.859375 -4.046875 57.421875 -4.046875 
Q 63.28125 -4.046875 63.28125 3.171875 
L 63.28125 41.546875 
L 36.71875 41.546875 
z
M 41.21875 77 
L 93.171875 77 
L 93.171875 70.171875 
L 41.21875 70.171875 
z
M 77.15625 28.953125 
L 84.078125 32.28125 
Q 93.359375 14.5 99.515625 1.125 
L 91.703125 -2.296875 
Q 85.359375 12.84375 77.15625 28.953125 
z
M 45.796875 32.28125 
L 53.125 29.34375 
Q 45.125 11.46875 37.203125 -2.390625 
Q 34.1875 -0.640625 30.078125 1.03125 
Q 37.890625 13.625 45.796875 32.28125 
z
" id="MicrosoftYaHei-26631"/>
      <path d="M 56.9375 59.90625 
L 55.171875 57.765625 
Q 72.5625 39.796875 98.734375 33.15625 
Q 95.703125 29.046875 93.453125 25.34375 
Q 82.421875 29.15625 72.859375 34.8125 
L 72.859375 29.640625 
L 27.25 29.640625 
L 27.25 35.296875 
Q 17.390625 29.34375 5.859375 24.078125 
Q 3.421875 27.984375 0.984375 30.8125 
Q 29 41.84375 47.359375 59.90625 
z
M 5.28125 -1.8125 
L 62.796875 -1.8125 
Q 71.1875 12.25 76.765625 25.046875 
L 84.1875 21.140625 
Q 77.4375 9.328125 70.703125 -1.8125 
L 94.921875 -1.8125 
L 94.921875 -8.734375 
L 5.28125 -8.734375 
z
M 20.21875 83.15625 
L 28.609375 83.15625 
Q 26.171875 78.265625 23.640625 73.875 
L 51.953125 73.875 
L 51.953125 67.328125 
L 19.625 67.328125 
Q 13.28125 57.765625 6.15625 50.921875 
Q 4 53.765625 1.171875 56.6875 
Q 12.59375 67.4375 20.21875 83.15625 
z
M 62.796875 83.15625 
L 70.90625 83.15625 
Q 68.75 78.265625 66.40625 73.875 
L 97.65625 73.875 
L 97.65625 67.328125 
L 62.59375 67.328125 
Q 59.96875 63.234375 57.71875 60.203125 
Q 54.109375 62.25 50.6875 63.71875 
Q 57.90625 71.828125 62.796875 83.15625 
z
M 50.296875 52.6875 
Q 40.921875 43.890625 28.71875 36.28125 
L 70.40625 36.28125 
Q 59.28125 43.21875 50.296875 52.6875 
z
M 15.046875 20.171875 
L 21.296875 23.390625 
Q 27.15625 13.8125 31.9375 3.65625 
L 25.296875 -0.046875 
Q 20.703125 10.5 15.046875 20.171875 
z
M 42.875 24.75 
L 49.609375 26.609375 
Q 53.421875 15.96875 56.25 5.03125 
L 49.03125 2.875 
Q 46.296875 14.984375 42.875 24.75 
z
M 78.609375 49.265625 
Q 74.3125 54.15625 67.671875 60.109375 
L 72.359375 64.59375 
Q 78.90625 59.125 83.796875 54.25 
z
M 30.078125 50.640625 
Q 25.984375 56 21.78125 60.890625 
L 26.859375 64.703125 
Q 31.25 60.5 35.84375 55.21875 
z
" id="MicrosoftYaHei-31614"/>
     </defs>
     <g transform="translate(80.221828 451.29)rotate(-90)scale(0.143 -0.143)">
      <use xlink:href="#MicrosoftYaHei-31751"/>
      <use x="100" xlink:href="#MicrosoftYaHei-26631"/>
      <use x="200" xlink:href="#MicrosoftYaHei-31614"/>
     </g>
    </g>
   </g>
   <g id="line2d_16">
    <path clip-path="url(#p827019dfcf)" d="M 505.250515 756 
L 505.250515 103.68 
" style="fill:none;stroke:#ff0000;stroke-dasharray:8.4175,3.64;stroke-dashoffset:0;stroke-width:2.275;"/>
   </g>
   <g id="patch_153">
    <path d="M 108 756 
L 108 103.68 
" style="fill:none;stroke:#000000;stroke-linecap:square;stroke-linejoin:miter;stroke-width:0.8;"/>
   </g>
   <g id="patch_154">
    <path d="M 777.6 756 
L 777.6 103.68 
" style="fill:none;stroke:#000000;stroke-linecap:square;stroke-linejoin:miter;stroke-width:0.8;"/>
   </g>
   <g id="patch_155">
    <path d="M 108 756 
L 777.6 756 
" style="fill:none;stroke:#000000;stroke-linecap:square;stroke-linejoin:miter;stroke-width:0.8;"/>
   </g>
   <g id="patch_156">
    <path d="M 108 103.68 
L 777.6 103.68 
" style="fill:none;stroke:#000000;stroke-linecap:square;stroke-linejoin:miter;stroke-width:0.8;"/>
   </g>
  </g>
 </g>
 <defs>
  <clipPath id="p827019dfcf">
   <rect height="652.32" width="669.6" x="108" y="103.68"/>
  </clipPath>
 </defs>
</svg>
