<?xml version="1.0" encoding="UTF-8" standalone="no"?>
<!DOCTYPE svg PUBLIC "-//W3C//DTD SVG 1.1//EN"
 "http://www.w3.org/Graphics/SVG/1.1/DTD/svg11.dtd">
<!-- Generated by graphviz version 2.38.0 (20140413.2041)
 -->
<!-- Title: %3 Pages: 1 -->
<svg width="388pt" height="134pt"
 viewBox="0.00 0.00 387.67 133.74" xmlns="http://www.w3.org/2000/svg" xmlns:xlink="http://www.w3.org/1999/xlink">
<g id="graph0" class="graph" transform="scale(1 1) rotate(0) translate(4 129.74)">
<title>%3</title>
<polygon fill="white" stroke="none" points="-4,4 -4,-129.74 383.673,-129.74 383.673,4 -4,4"/>
<!-- A -->
<g id="node1" class="node"><title>A</title>
<ellipse fill="none" stroke="black" cx="203.054" cy="-107.74" rx="47.3916" ry="18"/>
<text text-anchor="middle" x="203.054" y="-104.04" font-family="STKAITI" font-size="14.00">评估指标</text>
</g>
<!-- B -->
<g id="node2" class="node"><title>B</title>
<ellipse fill="none" stroke="black" cx="65.0538" cy="-26.8701" rx="65.1077" ry="26.7407"/>
<text text-anchor="middle" x="65.0538" y="-30.6701" font-family="STKAITI" font-size="14.00">非监督评估</text>
<text text-anchor="middle" x="65.0538" y="-15.6701" font-family="STKAITI" font-size="14.00"> unsupervised</text>
</g>
<!-- A&#45;&#45;B -->
<g id="edge1" class="edge"><title>A&#45;&#45;B</title>
<path fill="none" stroke="black" d="M177.742,-92.2741C156.578,-80.178 126.097,-62.7575 102.171,-49.0836"/>
</g>
<!-- E -->
<g id="node3" class="node"><title>E</title>
<ellipse fill="none" stroke="black" cx="203.054" cy="-26.8701" rx="55.3091" ry="26.7407"/>
<text text-anchor="middle" x="203.054" y="-30.6701" font-family="STKAITI" font-size="14.00">监督评估</text>
<text text-anchor="middle" x="203.054" y="-15.6701" font-family="STKAITI" font-size="14.00"> supervised</text>
</g>
<!-- A&#45;&#45;E -->
<g id="edge2" class="edge"><title>A&#45;&#45;E</title>
<path fill="none" stroke="black" d="M203.054,-89.6265C203.054,-79.2063 203.054,-65.6857 203.054,-53.953"/>
</g>
<!-- F -->
<g id="node4" class="node"><title>F</title>
<ellipse fill="none" stroke="black" cx="328.054" cy="-26.8701" rx="51.7379" ry="26.7407"/>
<text text-anchor="middle" x="328.054" y="-30.6701" font-family="STKAITI" font-size="14.00">相对评估</text>
<text text-anchor="middle" x="328.054" y="-15.6701" font-family="STKAITI" font-size="14.00"> relative</text>
</g>
<!-- A&#45;&#45;F -->
<g id="edge3" class="edge"><title>A&#45;&#45;F</title>
<path fill="none" stroke="black" d="M226.565,-91.9053C246.226,-79.5002 274.457,-61.6877 296.155,-47.9971"/>
</g>
</g>
</svg>
