<?xml version="1.0" encoding="UTF-8" standalone="no"?>
<!DOCTYPE svg PUBLIC "-//W3C//DTD SVG 1.1//EN"
 "http://www.w3.org/Graphics/SVG/1.1/DTD/svg11.dtd">
<!-- Generated by graphviz version 2.38.0 (20140413.2041)
 -->
<!-- Title: classificationSample Pages: 1 -->
<svg width="273pt" height="247pt"
 viewBox="0.00 0.00 273.00 247.00" xmlns="http://www.w3.org/2000/svg" xmlns:xlink="http://www.w3.org/1999/xlink">
<g id="graph0" class="graph" transform="scale(1 1) rotate(0) translate(4 243)">
<title>classificationSample</title>
<polygon fill="white" stroke="none" points="-4,4 -4,-243 269,-243 269,4 -4,4"/>
<!-- A -->
<g id="node1" class="node"><title>A</title>
<polygon fill="lightblue" stroke="none" points="8.5,-213.5 8.5,-234.5 33.5,-234.5 33.5,-213.5 8.5,-213.5"/>
<polygon fill="none" stroke="black" points="8.5,-213.5 8.5,-234.5 33.5,-234.5 33.5,-213.5 8.5,-213.5"/>
<text text-anchor="start" x="11.5" y="-220.3" font-family="STKAITI" font-size="14.00">Tid</text>
<polygon fill="lightblue" stroke="none" points="33.5,-213.5 33.5,-234.5 82.5,-234.5 82.5,-213.5 33.5,-213.5"/>
<polygon fill="none" stroke="black" points="33.5,-213.5 33.5,-234.5 82.5,-234.5 82.5,-213.5 33.5,-213.5"/>
<text text-anchor="start" x="36.5" y="-220.3" font-family="STKAITI" font-size="14.00">有房者</text>
<polygon fill="lightblue" stroke="none" points="82.5,-213.5 82.5,-234.5 145.5,-234.5 145.5,-213.5 82.5,-213.5"/>
<polygon fill="none" stroke="black" points="82.5,-213.5 82.5,-234.5 145.5,-234.5 145.5,-213.5 82.5,-213.5"/>
<text text-anchor="start" x="85.5" y="-220.3" font-family="STKAITI" font-size="14.00">婚姻状况</text>
<polygon fill="lightblue" stroke="none" points="145.5,-213.5 145.5,-234.5 194.5,-234.5 194.5,-213.5 145.5,-213.5"/>
<polygon fill="none" stroke="black" points="145.5,-213.5 145.5,-234.5 194.5,-234.5 194.5,-213.5 145.5,-213.5"/>
<text text-anchor="start" x="148.5" y="-220.3" font-family="STKAITI" font-size="14.00">年收入</text>
<polygon fill="lightblue" stroke="none" points="194.5,-213.5 194.5,-234.5 257.5,-234.5 257.5,-213.5 194.5,-213.5"/>
<polygon fill="none" stroke="black" points="194.5,-213.5 194.5,-234.5 257.5,-234.5 257.5,-213.5 194.5,-213.5"/>
<text text-anchor="start" x="197.5" y="-220.3" font-family="STKAITI" font-size="14.00">拖欠贷款</text>
<polygon fill="none" stroke="black" points="8.5,-192.5 8.5,-213.5 33.5,-213.5 33.5,-192.5 8.5,-192.5"/>
<text text-anchor="start" x="17.5" y="-199.3" font-family="STKAITI" font-size="14.00">0</text>
<polygon fill="none" stroke="black" points="33.5,-192.5 33.5,-213.5 82.5,-213.5 82.5,-192.5 33.5,-192.5"/>
<text text-anchor="start" x="50.5" y="-199.3" font-family="STKAITI" font-size="14.00">是</text>
<polygon fill="none" stroke="black" points="82.5,-192.5 82.5,-213.5 145.5,-213.5 145.5,-192.5 82.5,-192.5"/>
<text text-anchor="start" x="99.5" y="-199.3" font-family="STKAITI" font-size="14.00">单身</text>
<polygon fill="none" stroke="black" points="145.5,-192.5 145.5,-213.5 194.5,-213.5 194.5,-192.5 145.5,-192.5"/>
<text text-anchor="start" x="154.5" y="-199.3" font-family="STKAITI" font-size="14.00">125K</text>
<polygon fill="none" stroke="black" points="194.5,-192.5 194.5,-213.5 257.5,-213.5 257.5,-192.5 194.5,-192.5"/>
<text text-anchor="start" x="218.5" y="-199.3" font-family="STKAITI" font-size="14.00">否</text>
<polygon fill="none" stroke="black" points="8.5,-171.5 8.5,-192.5 33.5,-192.5 33.5,-171.5 8.5,-171.5"/>
<text text-anchor="start" x="17.5" y="-178.3" font-family="STKAITI" font-size="14.00">1</text>
<polygon fill="none" stroke="black" points="33.5,-171.5 33.5,-192.5 82.5,-192.5 82.5,-171.5 33.5,-171.5"/>
<text text-anchor="start" x="50.5" y="-178.3" font-family="STKAITI" font-size="14.00">否</text>
<polygon fill="none" stroke="black" points="82.5,-171.5 82.5,-192.5 145.5,-192.5 145.5,-171.5 82.5,-171.5"/>
<text text-anchor="start" x="99.5" y="-178.3" font-family="STKAITI" font-size="14.00">已婚</text>
<polygon fill="none" stroke="black" points="145.5,-171.5 145.5,-192.5 194.5,-192.5 194.5,-171.5 145.5,-171.5"/>
<text text-anchor="start" x="154.5" y="-178.3" font-family="STKAITI" font-size="14.00">100K</text>
<polygon fill="none" stroke="black" points="194.5,-171.5 194.5,-192.5 257.5,-192.5 257.5,-171.5 194.5,-171.5"/>
<text text-anchor="start" x="218.5" y="-178.3" font-family="STKAITI" font-size="14.00">否</text>
<polygon fill="none" stroke="black" points="8.5,-150.5 8.5,-171.5 33.5,-171.5 33.5,-150.5 8.5,-150.5"/>
<text text-anchor="start" x="17.5" y="-157.3" font-family="STKAITI" font-size="14.00">2</text>
<polygon fill="none" stroke="black" points="33.5,-150.5 33.5,-171.5 82.5,-171.5 82.5,-150.5 33.5,-150.5"/>
<text text-anchor="start" x="50.5" y="-157.3" font-family="STKAITI" font-size="14.00">否</text>
<polygon fill="none" stroke="black" points="82.5,-150.5 82.5,-171.5 145.5,-171.5 145.5,-150.5 82.5,-150.5"/>
<text text-anchor="start" x="99.5" y="-157.3" font-family="STKAITI" font-size="14.00">单身</text>
<polygon fill="none" stroke="black" points="145.5,-150.5 145.5,-171.5 194.5,-171.5 194.5,-150.5 145.5,-150.5"/>
<text text-anchor="start" x="157.5" y="-157.3" font-family="STKAITI" font-size="14.00">70K</text>
<polygon fill="none" stroke="black" points="194.5,-150.5 194.5,-171.5 257.5,-171.5 257.5,-150.5 194.5,-150.5"/>
<text text-anchor="start" x="218.5" y="-157.3" font-family="STKAITI" font-size="14.00">否</text>
<polygon fill="none" stroke="black" points="8.5,-129.5 8.5,-150.5 33.5,-150.5 33.5,-129.5 8.5,-129.5"/>
<text text-anchor="start" x="17.5" y="-136.3" font-family="STKAITI" font-size="14.00">3</text>
<polygon fill="none" stroke="black" points="33.5,-129.5 33.5,-150.5 82.5,-150.5 82.5,-129.5 33.5,-129.5"/>
<text text-anchor="start" x="50.5" y="-136.3" font-family="STKAITI" font-size="14.00">是</text>
<polygon fill="none" stroke="black" points="82.5,-129.5 82.5,-150.5 145.5,-150.5 145.5,-129.5 82.5,-129.5"/>
<text text-anchor="start" x="99.5" y="-136.3" font-family="STKAITI" font-size="14.00">已婚</text>
<polygon fill="none" stroke="black" points="145.5,-129.5 145.5,-150.5 194.5,-150.5 194.5,-129.5 145.5,-129.5"/>
<text text-anchor="start" x="154.5" y="-136.3" font-family="STKAITI" font-size="14.00">120K</text>
<polygon fill="none" stroke="black" points="194.5,-129.5 194.5,-150.5 257.5,-150.5 257.5,-129.5 194.5,-129.5"/>
<text text-anchor="start" x="218.5" y="-136.3" font-family="STKAITI" font-size="14.00">否</text>
<polygon fill="none" stroke="black" points="8.5,-108.5 8.5,-129.5 33.5,-129.5 33.5,-108.5 8.5,-108.5"/>
<text text-anchor="start" x="17.5" y="-115.3" font-family="STKAITI" font-size="14.00">4</text>
<polygon fill="none" stroke="black" points="33.5,-108.5 33.5,-129.5 82.5,-129.5 82.5,-108.5 33.5,-108.5"/>
<text text-anchor="start" x="50.5" y="-115.3" font-family="STKAITI" font-size="14.00">否</text>
<polygon fill="none" stroke="black" points="82.5,-108.5 82.5,-129.5 145.5,-129.5 145.5,-108.5 82.5,-108.5"/>
<text text-anchor="start" x="99.5" y="-115.3" font-family="STKAITI" font-size="14.00">离异</text>
<polygon fill="none" stroke="black" points="145.5,-108.5 145.5,-129.5 194.5,-129.5 194.5,-108.5 145.5,-108.5"/>
<text text-anchor="start" x="157.5" y="-115.3" font-family="STKAITI" font-size="14.00">95K</text>
<polygon fill="sandybrown" stroke="none" points="194.5,-108.5 194.5,-129.5 257.5,-129.5 257.5,-108.5 194.5,-108.5"/>
<polygon fill="none" stroke="black" points="194.5,-108.5 194.5,-129.5 257.5,-129.5 257.5,-108.5 194.5,-108.5"/>
<text text-anchor="start" x="218.5" y="-115.3" font-family="STKAITI" font-size="14.00">是</text>
<polygon fill="none" stroke="black" points="8.5,-87.5 8.5,-108.5 33.5,-108.5 33.5,-87.5 8.5,-87.5"/>
<text text-anchor="start" x="17.5" y="-94.3" font-family="STKAITI" font-size="14.00">5</text>
<polygon fill="none" stroke="black" points="33.5,-87.5 33.5,-108.5 82.5,-108.5 82.5,-87.5 33.5,-87.5"/>
<text text-anchor="start" x="50.5" y="-94.3" font-family="STKAITI" font-size="14.00">否</text>
<polygon fill="none" stroke="black" points="82.5,-87.5 82.5,-108.5 145.5,-108.5 145.5,-87.5 82.5,-87.5"/>
<text text-anchor="start" x="99.5" y="-94.3" font-family="STKAITI" font-size="14.00">已婚</text>
<polygon fill="none" stroke="black" points="145.5,-87.5 145.5,-108.5 194.5,-108.5 194.5,-87.5 145.5,-87.5"/>
<text text-anchor="start" x="157.5" y="-94.3" font-family="STKAITI" font-size="14.00">60K</text>
<polygon fill="none" stroke="black" points="194.5,-87.5 194.5,-108.5 257.5,-108.5 257.5,-87.5 194.5,-87.5"/>
<text text-anchor="start" x="218.5" y="-94.3" font-family="STKAITI" font-size="14.00">否</text>
<polygon fill="none" stroke="black" points="8.5,-66.5 8.5,-87.5 33.5,-87.5 33.5,-66.5 8.5,-66.5"/>
<text text-anchor="start" x="17.5" y="-73.3" font-family="STKAITI" font-size="14.00">6</text>
<polygon fill="none" stroke="black" points="33.5,-66.5 33.5,-87.5 82.5,-87.5 82.5,-66.5 33.5,-66.5"/>
<text text-anchor="start" x="50.5" y="-73.3" font-family="STKAITI" font-size="14.00">是</text>
<polygon fill="none" stroke="black" points="82.5,-66.5 82.5,-87.5 145.5,-87.5 145.5,-66.5 82.5,-66.5"/>
<text text-anchor="start" x="99.5" y="-73.3" font-family="STKAITI" font-size="14.00">离异</text>
<polygon fill="none" stroke="black" points="145.5,-66.5 145.5,-87.5 194.5,-87.5 194.5,-66.5 145.5,-66.5"/>
<text text-anchor="start" x="154.5" y="-73.3" font-family="STKAITI" font-size="14.00">220K</text>
<polygon fill="none" stroke="black" points="194.5,-66.5 194.5,-87.5 257.5,-87.5 257.5,-66.5 194.5,-66.5"/>
<text text-anchor="start" x="218.5" y="-73.3" font-family="STKAITI" font-size="14.00">否</text>
<polygon fill="none" stroke="black" points="8.5,-45.5 8.5,-66.5 33.5,-66.5 33.5,-45.5 8.5,-45.5"/>
<text text-anchor="start" x="17.5" y="-52.3" font-family="STKAITI" font-size="14.00">7</text>
<polygon fill="none" stroke="black" points="33.5,-45.5 33.5,-66.5 82.5,-66.5 82.5,-45.5 33.5,-45.5"/>
<text text-anchor="start" x="50.5" y="-52.3" font-family="STKAITI" font-size="14.00">否</text>
<polygon fill="none" stroke="black" points="82.5,-45.5 82.5,-66.5 145.5,-66.5 145.5,-45.5 82.5,-45.5"/>
<text text-anchor="start" x="99.5" y="-52.3" font-family="STKAITI" font-size="14.00">单身</text>
<polygon fill="none" stroke="black" points="145.5,-45.5 145.5,-66.5 194.5,-66.5 194.5,-45.5 145.5,-45.5"/>
<text text-anchor="start" x="157.5" y="-52.3" font-family="STKAITI" font-size="14.00">85K</text>
<polygon fill="sandybrown" stroke="none" points="194.5,-45.5 194.5,-66.5 257.5,-66.5 257.5,-45.5 194.5,-45.5"/>
<polygon fill="none" stroke="black" points="194.5,-45.5 194.5,-66.5 257.5,-66.5 257.5,-45.5 194.5,-45.5"/>
<text text-anchor="start" x="218.5" y="-52.3" font-family="STKAITI" font-size="14.00">是</text>
<polygon fill="none" stroke="black" points="8.5,-24.5 8.5,-45.5 33.5,-45.5 33.5,-24.5 8.5,-24.5"/>
<text text-anchor="start" x="17.5" y="-31.3" font-family="STKAITI" font-size="14.00">8</text>
<polygon fill="none" stroke="black" points="33.5,-24.5 33.5,-45.5 82.5,-45.5 82.5,-24.5 33.5,-24.5"/>
<text text-anchor="start" x="50.5" y="-31.3" font-family="STKAITI" font-size="14.00">否</text>
<polygon fill="none" stroke="black" points="82.5,-24.5 82.5,-45.5 145.5,-45.5 145.5,-24.5 82.5,-24.5"/>
<text text-anchor="start" x="99.5" y="-31.3" font-family="STKAITI" font-size="14.00">已婚</text>
<polygon fill="none" stroke="black" points="145.5,-24.5 145.5,-45.5 194.5,-45.5 194.5,-24.5 145.5,-24.5"/>
<text text-anchor="start" x="157.5" y="-31.3" font-family="STKAITI" font-size="14.00">75K</text>
<polygon fill="none" stroke="black" points="194.5,-24.5 194.5,-45.5 257.5,-45.5 257.5,-24.5 194.5,-24.5"/>
<text text-anchor="start" x="218.5" y="-31.3" font-family="STKAITI" font-size="14.00">否</text>
<polygon fill="none" stroke="black" points="8.5,-3.5 8.5,-24.5 33.5,-24.5 33.5,-3.5 8.5,-3.5"/>
<text text-anchor="start" x="17.5" y="-10.3" font-family="STKAITI" font-size="14.00">9</text>
<polygon fill="none" stroke="black" points="33.5,-3.5 33.5,-24.5 82.5,-24.5 82.5,-3.5 33.5,-3.5"/>
<text text-anchor="start" x="50.5" y="-10.3" font-family="STKAITI" font-size="14.00">否</text>
<polygon fill="none" stroke="black" points="82.5,-3.5 82.5,-24.5 145.5,-24.5 145.5,-3.5 82.5,-3.5"/>
<text text-anchor="start" x="99.5" y="-10.3" font-family="STKAITI" font-size="14.00">单身</text>
<polygon fill="none" stroke="black" points="145.5,-3.5 145.5,-24.5 194.5,-24.5 194.5,-3.5 145.5,-3.5"/>
<text text-anchor="start" x="157.5" y="-10.3" font-family="STKAITI" font-size="14.00">90K</text>
<polygon fill="sandybrown" stroke="none" points="194.5,-3.5 194.5,-24.5 257.5,-24.5 257.5,-3.5 194.5,-3.5"/>
<polygon fill="none" stroke="black" points="194.5,-3.5 194.5,-24.5 257.5,-24.5 257.5,-3.5 194.5,-3.5"/>
<text text-anchor="start" x="218.5" y="-10.3" font-family="STKAITI" font-size="14.00">是</text>
</g>
</g>
</svg>
