<?xml version="1.0" encoding="UTF-8" standalone="no"?>
<!DOCTYPE svg PUBLIC "-//W3C//DTD SVG 1.1//EN"
 "http://www.w3.org/Graphics/SVG/1.1/DTD/svg11.dtd">
<!-- Generated by graphviz version 2.38.0 (20140413.2041)
 -->
<!-- Title: %3 Pages: 1 -->
<svg width="216pt" height="116pt"
 viewBox="0.00 0.00 215.89 116.00" xmlns="http://www.w3.org/2000/svg" xmlns:xlink="http://www.w3.org/1999/xlink">
<g id="graph0" class="graph" transform="scale(1 1) rotate(0) translate(4 112)">
<title>%3</title>
<polygon fill="white" stroke="none" points="-4,4 -4,-112 211.892,-112 211.892,4 -4,4"/>
<!-- A -->
<g id="node1" class="node"><title>A</title>
<text text-anchor="middle" x="103.446" y="-86.3" font-family="STKAITI" font-size="14.00">分类模型误差</text>
</g>
<!-- B -->
<g id="node2" class="node"><title>B</title>
<ellipse fill="none" stroke="black" cx="47.4458" cy="-18" rx="47.3916" ry="18"/>
<text text-anchor="middle" x="47.4458" y="-14.3" font-family="STKAITI" font-size="14.00">训练误差</text>
</g>
<!-- A&#45;&gt;B -->
<g id="edge1" class="edge"><title>A&#45;&gt;B</title>
<path fill="none" stroke="black" d="M89.6031,-71.6966C82.7892,-63.1793 74.4575,-52.7646 67.0055,-43.4497"/>
<polygon fill="black" stroke="black" points="69.7237,-41.2446 60.7436,-35.6223 64.2576,-45.6175 69.7237,-41.2446"/>
</g>
<!-- C -->
<g id="node3" class="node"><title>C</title>
<ellipse fill="none" stroke="black" cx="160.446" cy="-18" rx="47.3916" ry="18"/>
<text text-anchor="middle" x="160.446" y="-14.3" font-family="STKAITI" font-size="14.00">泛化误差</text>
</g>
<!-- A&#45;&gt;C -->
<g id="edge2" class="edge"><title>A&#45;&gt;C</title>
<path fill="none" stroke="black" d="M117.536,-71.6966C124.471,-63.1793 132.952,-52.7646 140.537,-43.4497"/>
<polygon fill="black" stroke="black" points="143.31,-45.5867 146.91,-35.6223 137.882,-41.1667 143.31,-45.5867"/>
</g>
</g>
</svg>
