<?xml version="1.0" encoding="UTF-8" standalone="no"?>
<!DOCTYPE svg PUBLIC "-//W3C//DTD SVG 1.1//EN"
 "http://www.w3.org/Graphics/SVG/1.1/DTD/svg11.dtd">
<!-- Generated by graphviz version 2.38.0 (20140413.2041)
 -->
<!-- Title: decisionTree1 Pages: 1 -->
<svg width="282pt" height="305pt"
 viewBox="0.00 0.00 282.00 305.00" xmlns="http://www.w3.org/2000/svg" xmlns:xlink="http://www.w3.org/1999/xlink">
<g id="graph0" class="graph" transform="scale(1 1) rotate(0) translate(4 301)">
<title>decisionTree1</title>
<polygon fill="white" stroke="none" points="-4,4 -4,-301 278,-301 278,4 -4,4"/>
<!-- A -->
<g id="node1" class="node"><title>A</title>
<ellipse fill="none" stroke="black" cx="158.5" cy="-192" rx="38.1938" ry="18"/>
<text text-anchor="middle" x="158.5" y="-188.3" font-family="STKAITI" font-size="14.00">有房者</text>
</g>
<!-- D -->
<g id="node4" class="node"><title>D</title>
<ellipse fill="none" stroke="black" cx="97.5" cy="-105" rx="38.1938" ry="18"/>
<text text-anchor="middle" x="97.5" y="-101.3" font-family="STKAITI" font-size="14.00">年收入</text>
</g>
<!-- A&#45;&gt;D -->
<g id="edge4" class="edge"><title>A&#45;&gt;D</title>
<path fill="none" stroke="black" d="M146.739,-174.611C137.793,-162.147 125.337,-144.79 115.192,-130.652"/>
<polygon fill="black" stroke="black" points="117.899,-128.422 109.225,-122.339 112.212,-132.504 117.899,-128.422"/>
<text text-anchor="middle" x="145.5" y="-144.8" font-family="Times New Roman,serif" font-size="14.00">无房</text>
</g>
<!-- E -->
<g id="node5" class="node"><title>E</title>
<polygon fill="lightblue" stroke="lightblue" points="213,-123 154,-123 154,-87 213,-87 213,-123"/>
<text text-anchor="middle" x="183.5" y="-101.3" font-family="STKAITI" font-size="14.00">无拖欠</text>
<text text-anchor="middle" x="138.5" y="-126.8" font-family="STKAITI" font-size="14.00">{2,0}</text>
</g>
<!-- A&#45;&gt;E -->
<g id="edge3" class="edge"><title>A&#45;&gt;E</title>
<path fill="none" stroke="black" d="M163.559,-173.799C167.015,-162.047 171.665,-146.238 175.605,-132.842"/>
<polygon fill="black" stroke="black" points="178.984,-133.757 178.448,-123.175 172.269,-131.781 178.984,-133.757"/>
<text text-anchor="middle" x="185.5" y="-144.8" font-family="Times New Roman,serif" font-size="14.00">有房</text>
</g>
<!-- B -->
<g id="node2" class="node"><title>B</title>
<polygon fill="lightblue" stroke="lightblue" points="274,-210 215,-210 215,-174 274,-174 274,-210"/>
<text text-anchor="middle" x="244.5" y="-188.3" font-family="STKAITI" font-size="14.00">无拖欠</text>
<text text-anchor="middle" x="199.5" y="-213.8" font-family="STKAITI" font-size="14.00">{4,0}</text>
</g>
<!-- C -->
<g id="node3" class="node"><title>C</title>
<ellipse fill="none" stroke="black" cx="203.5" cy="-279" rx="47.3916" ry="18"/>
<text text-anchor="middle" x="203.5" y="-275.3" font-family="STKAITI" font-size="14.00">婚姻状况</text>
</g>
<!-- C&#45;&gt;A -->
<g id="edge2" class="edge"><title>C&#45;&gt;A</title>
<path fill="none" stroke="black" d="M179.829,-263.104C173.09,-257.636 166.5,-250.835 162.5,-243 158.961,-236.068 157.406,-227.882 156.88,-220.162"/>
<polygon fill="black" stroke="black" points="160.379,-220.027 156.712,-210.086 153.38,-220.143 160.379,-220.027"/>
<text text-anchor="middle" x="190" y="-231.8" font-family="Times New Roman,serif" font-size="14.00">单身/离异</text>
</g>
<!-- C&#45;&gt;B -->
<g id="edge1" class="edge"><title>C&#45;&gt;B</title>
<path fill="none" stroke="black" d="M212.44,-260.986C215.38,-255.294 218.629,-248.898 221.5,-243 225.205,-235.389 229.101,-227.058 232.611,-219.416"/>
<polygon fill="black" stroke="black" points="235.843,-220.763 236.807,-210.212 229.474,-217.859 235.843,-220.763"/>
<text text-anchor="middle" x="241.5" y="-231.8" font-family="Times New Roman,serif" font-size="14.00">已婚</text>
</g>
<!-- F -->
<g id="node6" class="node"><title>F</title>
<polygon fill="lightblue" stroke="lightblue" points="90,-36 31,-36 31,-0 90,-0 90,-36"/>
<text text-anchor="middle" x="60.5" y="-14.3" font-family="STKAITI" font-size="14.00">无拖欠</text>
<text text-anchor="middle" x="15.5" y="-39.8" font-family="STKAITI" font-size="14.00">{1,0}</text>
</g>
<!-- D&#45;&gt;F -->
<g id="edge5" class="edge"><title>D&#45;&gt;F</title>
<path fill="none" stroke="black" d="M89.7435,-87.3129C87.0901,-81.5311 84.1291,-74.9965 81.5,-69 78.1879,-61.4457 74.6832,-53.206 71.5058,-45.6349"/>
<polygon fill="black" stroke="black" points="74.6419,-44.0618 67.5609,-36.1808 68.1818,-46.7574 74.6419,-44.0618"/>
<text text-anchor="middle" x="97.5" y="-57.8" font-family="Times New Roman,serif" font-size="14.00">&lt;80K</text>
</g>
<!-- G -->
<g id="node7" class="node"><title>G</title>
<polygon fill="sandybrown" stroke="sandybrown" points="162.5,-36 108.5,-36 108.5,-0 162.5,-0 162.5,-36"/>
<text text-anchor="middle" x="135.5" y="-14.3" font-family="STKAITI" font-size="14.00">拖欠</text>
<text text-anchor="middle" x="93" y="-39.8" font-family="STKAITI" font-size="14.00">{0,3}</text>
</g>
<!-- D&#45;&gt;G -->
<g id="edge6" class="edge"><title>D&#45;&gt;G</title>
<path fill="none" stroke="black" d="M105.199,-87.2873C107.848,-81.5034 110.82,-74.9741 113.5,-69 116.939,-61.3339 120.632,-52.9856 123.992,-45.3454"/>
<polygon fill="black" stroke="black" points="127.213,-46.7149 128.026,-36.1512 120.803,-43.9026 127.213,-46.7149"/>
<text text-anchor="middle" x="136.5" y="-57.8" font-family="Times New Roman,serif" font-size="14.00">&gt;80K</text>
</g>
</g>
</svg>
