<?xml version="1.0" encoding="UTF-8" standalone="no"?>
<!DOCTYPE svg PUBLIC "-//W3C//DTD SVG 1.1//EN"
 "http://www.w3.org/Graphics/SVG/1.1/DTD/svg11.dtd">
<!-- Generated by graphviz version 2.38.0 (20140413.2041)
 -->
<!-- Title: step3 Pages: 1 -->
<svg width="305pt" height="305pt"
 viewBox="0.00 0.00 305.00 305.00" xmlns="http://www.w3.org/2000/svg" xmlns:xlink="http://www.w3.org/1999/xlink">
<g id="graph0" class="graph" transform="scale(1 1) rotate(0) translate(4 301)">
<title>step3</title>
<polygon fill="white" stroke="none" points="-4,4 -4,-301 301,-301 301,4 -4,4"/>
<!-- A -->
<g id="node1" class="node"><title>A</title>
<ellipse fill="none" stroke="black" cx="141" cy="-279" rx="38.1938" ry="18"/>
<text text-anchor="middle" x="141" y="-275.3" font-family="STKAITI" font-size="14.00">有房者</text>
</g>
<!-- B -->
<g id="node2" class="node"><title>B</title>
<polygon fill="lightblue" stroke="lightblue" points="143.5,-210 70.5,-210 70.5,-174 143.5,-174 143.5,-210"/>
<text text-anchor="middle" x="107" y="-188.3" font-family="STKAITI" font-size="14.00">拖欠贷款</text>
<text text-anchor="middle" x="55.5" y="-213.8" font-family="STKAITI" font-size="14.00">(3, 0)</text>
</g>
<!-- A&#45;&gt;B -->
<g id="edge1" class="edge"><title>A&#45;&gt;B</title>
<path fill="none" stroke="black" d="M134.283,-261.207C129.517,-249.293 123.025,-233.063 117.57,-219.424"/>
<polygon fill="black" stroke="black" points="113.82,-210.049 121.712,-217.663 115.677,-214.692 117.534,-219.334 117.534,-219.334 117.534,-219.334 115.677,-214.692 113.356,-221.005 113.82,-210.049 113.82,-210.049"/>
<text text-anchor="middle" x="133.5" y="-231.8" font-family="Times New Roman,serif" font-size="14.00">是</text>
</g>
<!-- C -->
<g id="node3" class="node"><title>C</title>
<ellipse fill="none" stroke="black" cx="209" cy="-192" rx="47.3916" ry="18"/>
<text text-anchor="middle" x="209" y="-188.3" font-family="STKAITI" font-size="14.00">婚姻状况</text>
</g>
<!-- A&#45;&gt;C -->
<g id="edge2" class="edge"><title>A&#45;&gt;C</title>
<path fill="none" stroke="black" d="M153.79,-262.012C163.824,-249.47 177.962,-231.797 189.419,-217.477"/>
<polygon fill="black" stroke="black" points="195.803,-209.496 193.07,-220.116 192.68,-213.4 189.556,-217.305 189.556,-217.305 189.556,-217.305 192.68,-213.4 186.042,-214.494 195.803,-209.496 195.803,-209.496"/>
<text text-anchor="middle" x="186.5" y="-231.8" font-family="Times New Roman,serif" font-size="14.00">否</text>
</g>
<!-- D -->
<g id="node4" class="node"><title>D</title>
<ellipse fill="none" stroke="black" cx="153" cy="-105" rx="38.1938" ry="18"/>
<text text-anchor="middle" x="153" y="-101.3" font-family="STKAITI" font-size="14.00">年收入</text>
</g>
<!-- C&#45;&gt;D -->
<g id="edge3" class="edge"><title>C&#45;&gt;D</title>
<path fill="none" stroke="black" d="M187.353,-175.753C180.701,-170.179 173.861,-163.406 169,-156 164.479,-149.113 161.156,-140.855 158.749,-133.054"/>
<polygon fill="black" stroke="black" points="156.088,-123.215 163.043,-131.694 157.393,-128.042 158.699,-132.869 158.699,-132.869 158.699,-132.869 157.393,-128.042 154.355,-134.044 156.088,-123.215 156.088,-123.215"/>
<text text-anchor="middle" x="196.5" y="-144.8" font-family="Times New Roman,serif" font-size="14.00">单身/离异</text>
</g>
<!-- E -->
<g id="node5" class="node"><title>E</title>
<polygon fill="lightblue" stroke="lightblue" points="297,-123 209,-123 209,-87 297,-87 297,-123"/>
<text text-anchor="middle" x="253" y="-101.3" font-family="STKAITI" font-size="14.00">未拖欠贷款</text>
<text text-anchor="middle" x="194" y="-126.8" font-family="STKAITI" font-size="14.00">(3, 0)</text>
</g>
<!-- C&#45;&gt;E -->
<g id="edge4" class="edge"><title>C&#45;&gt;E</title>
<path fill="none" stroke="black" d="M217.693,-174.207C223.92,-162.178 232.425,-145.748 239.527,-132.028"/>
<polygon fill="black" stroke="black" points="244.174,-123.049 243.574,-133.999 241.876,-127.49 239.577,-131.93 239.577,-131.93 239.577,-131.93 241.876,-127.49 235.581,-129.861 244.174,-123.049 244.174,-123.049"/>
<text text-anchor="middle" x="246" y="-144.8" font-family="Times New Roman,serif" font-size="14.00">已婚</text>
</g>
<!-- F -->
<g id="node6" class="node"><title>F</title>
<polygon fill="lightblue" stroke="lightblue" points="148,-36 60,-36 60,-0 148,-0 148,-36"/>
<text text-anchor="middle" x="104" y="-14.3" font-family="STKAITI" font-size="14.00">未拖欠贷款</text>
<text text-anchor="middle" x="30" y="-39.8" font-family="STKAITI" font-size="14.00">（1， 0）</text>
</g>
<!-- D&#45;&gt;F -->
<g id="edge5" class="edge"><title>D&#45;&gt;F</title>
<path fill="none" stroke="black" d="M143.319,-87.2067C136.385,-75.1778 126.913,-58.7478 119.004,-45.0276"/>
<polygon fill="black" stroke="black" points="113.828,-36.0493 122.721,-42.4654 116.326,-40.3811 118.823,-44.7129 118.823,-44.7129 118.823,-44.7129 116.326,-40.3811 114.924,-46.9603 113.828,-36.0493 113.828,-36.0493"/>
<text text-anchor="middle" x="148" y="-57.8" font-family="Times New Roman,serif" font-size="14.00">&lt;80K</text>
</g>
<!-- G -->
<g id="node7" class="node"><title>G</title>
<polygon fill="sandybrown" stroke="sandybrown" points="239.5,-36 166.5,-36 166.5,-0 239.5,-0 239.5,-36"/>
<text text-anchor="middle" x="203" y="-14.3" font-family="STKAITI" font-size="14.00">拖欠贷款</text>
<text text-anchor="middle" x="151.5" y="-39.8" font-family="STKAITI" font-size="14.00">(0, 3)</text>
</g>
<!-- D&#45;&gt;G -->
<g id="edge6" class="edge"><title>D&#45;&gt;G</title>
<path fill="none" stroke="black" d="M162.878,-87.2067C169.954,-75.1778 179.619,-58.7478 187.69,-45.0276"/>
<polygon fill="black" stroke="black" points="192.971,-36.0493 191.779,-46.9503 190.436,-40.359 187.901,-44.6687 187.901,-44.6687 187.901,-44.6687 190.436,-40.359 184.022,-42.3871 192.971,-36.0493 192.971,-36.0493"/>
<text text-anchor="middle" x="201" y="-57.8" font-family="Times New Roman,serif" font-size="14.00">&gt;=80K</text>
</g>
</g>
</svg>
