<?xml version="1.0" encoding="UTF-8" standalone="no"?>
<!DOCTYPE svg PUBLIC "-//W3C//DTD SVG 1.1//EN"
 "http://www.w3.org/Graphics/SVG/1.1/DTD/svg11.dtd">
<!-- Generated by graphviz version 2.38.0 (20140413.2041)
 -->
<!-- Title: step2 Pages: 1 -->
<svg width="284pt" height="218pt"
 viewBox="0.00 0.00 284.00 218.00" xmlns="http://www.w3.org/2000/svg" xmlns:xlink="http://www.w3.org/1999/xlink">
<g id="graph0" class="graph" transform="scale(1 1) rotate(0) translate(4 214)">
<title>step2</title>
<polygon fill="white" stroke="none" points="-4,4 -4,-214 280,-214 280,4 -4,4"/>
<!-- A -->
<g id="node1" class="node"><title>A</title>
<ellipse fill="none" stroke="black" cx="110" cy="-192" rx="38.1938" ry="18"/>
<text text-anchor="middle" x="110" y="-188.3" font-family="STKAITI" font-size="14.00">有房者</text>
</g>
<!-- B -->
<g id="node2" class="node"><title>B</title>
<polygon fill="lightblue" stroke="lightblue" points="118,-123 30,-123 30,-87 118,-87 118,-123"/>
<text text-anchor="middle" x="74" y="-101.3" font-family="STKAITI" font-size="14.00">未拖欠贷款</text>
<text text-anchor="middle" x="15" y="-126.8" font-family="STKAITI" font-size="14.00">(3, 0)</text>
</g>
<!-- A&#45;&gt;B -->
<g id="edge1" class="edge"><title>A&#45;&gt;B</title>
<path fill="none" stroke="black" d="M102.888,-174.207C97.8419,-162.293 90.968,-146.063 85.1914,-132.424"/>
<polygon fill="black" stroke="black" points="81.2209,-123.049 89.2646,-130.503 83.1709,-127.653 85.1209,-132.258 85.1209,-132.258 85.1209,-132.258 83.1709,-127.653 80.9772,-134.012 81.2209,-123.049 81.2209,-123.049"/>
<text text-anchor="middle" x="101.5" y="-144.8" font-family="Times New Roman,serif" font-size="14.00">是</text>
</g>
<!-- C -->
<g id="node3" class="node"><title>C</title>
<ellipse fill="none" stroke="black" cx="183" cy="-105" rx="47.3916" ry="18"/>
<text text-anchor="middle" x="183" y="-101.3" font-family="STKAITI" font-size="14.00">婚姻状况</text>
</g>
<!-- A&#45;&gt;C -->
<g id="edge2" class="edge"><title>A&#45;&gt;C</title>
<path fill="none" stroke="black" d="M123.731,-175.012C134.503,-162.47 149.68,-144.797 161.979,-130.477"/>
<polygon fill="black" stroke="black" points="168.833,-122.496 165.731,-133.014 165.575,-126.289 162.318,-130.082 162.318,-130.082 162.318,-130.082 165.575,-126.289 158.904,-127.15 168.833,-122.496 168.833,-122.496"/>
<text text-anchor="middle" x="157.5" y="-144.8" font-family="Times New Roman,serif" font-size="14.00">否</text>
</g>
<!-- D -->
<g id="node4" class="node"><title>D</title>
<polygon fill="none" stroke="black" points="169.5,-36 96.5,-36 96.5,-0 169.5,-0 169.5,-36"/>
<text text-anchor="middle" x="133" y="-14.3" font-family="STKAITI" font-size="14.00">拖欠贷款</text>
<text text-anchor="middle" x="81.5" y="-39.8" font-family="STKAITI" font-size="14.00">(1, 3)</text>
</g>
<!-- C&#45;&gt;D -->
<g id="edge3" class="edge"><title>C&#45;&gt;D</title>
<path fill="none" stroke="black" d="M173.122,-87.2067C166.046,-75.1778 156.381,-58.7478 148.31,-45.0276"/>
<polygon fill="black" stroke="black" points="143.029,-36.0493 151.978,-42.3871 145.564,-40.359 148.099,-44.6687 148.099,-44.6687 148.099,-44.6687 145.564,-40.359 144.221,-46.9503 143.029,-36.0493 143.029,-36.0493"/>
<text text-anchor="middle" x="166.5" y="-57.8" font-family="Times New Roman,serif" font-size="14.00">是</text>
</g>
<!-- E -->
<g id="node5" class="node"><title>E</title>
<polygon fill="lightblue" stroke="lightblue" points="276,-36 188,-36 188,-0 276,-0 276,-36"/>
<text text-anchor="middle" x="232" y="-14.3" font-family="STKAITI" font-size="14.00">未拖欠贷款</text>
<text text-anchor="middle" x="173" y="-39.8" font-family="STKAITI" font-size="14.00">(3, 0)</text>
</g>
<!-- C&#45;&gt;E -->
<g id="edge4" class="edge"><title>C&#45;&gt;E</title>
<path fill="none" stroke="black" d="M192.681,-87.2067C199.615,-75.1778 209.087,-58.7478 216.996,-45.0276"/>
<polygon fill="black" stroke="black" points="222.172,-36.0493 221.076,-46.9603 219.674,-40.3811 217.177,-44.7129 217.177,-44.7129 217.177,-44.7129 219.674,-40.3811 213.279,-42.4654 222.172,-36.0493 222.172,-36.0493"/>
<text text-anchor="middle" x="216.5" y="-57.8" font-family="Times New Roman,serif" font-size="14.00">否</text>
</g>
</g>
</svg>
