<?xml version="1.0" encoding="UTF-8" standalone="no"?>
<!DOCTYPE svg PUBLIC "-//W3C//DTD SVG 1.1//EN"
 "http://www.w3.org/Graphics/SVG/1.1/DTD/svg11.dtd">
<!-- Generated by graphviz version 2.38.0 (20140413.2041)
 -->
<!-- Title: %3 Pages: 1 -->
<svg width="370pt" height="348pt"
 viewBox="0.00 0.00 370.00 348.00" xmlns="http://www.w3.org/2000/svg" xmlns:xlink="http://www.w3.org/1999/xlink">
<g id="graph0" class="graph" transform="scale(1 1) rotate(0) translate(4 344)">
<title>%3</title>
<polygon fill="white" stroke="none" points="-4,4 -4,-344 366,-344 366,4 -4,4"/>
<g id="clust1" class="cluster"><title>cluster0</title>
<polygon fill="lightblue" stroke="lightblue" points="8,-80 8,-276 150,-276 150,-80 8,-80"/>
</g>
<g id="clust2" class="cluster"><title>cluster1</title>
<polygon fill="lightblue" stroke="lightblue" points="158,-8 158,-204 300,-204 300,-8 158,-8"/>
</g>
<!-- A -->
<g id="node1" class="node"><title>A</title>
<ellipse fill="none" stroke="black" cx="171" cy="-322" rx="27" ry="18"/>
<text text-anchor="middle" x="171" y="-318.3" font-family="Times New Roman,serif" font-size="14.00">P</text>
</g>
<!-- B -->
<g id="node2" class="node"><title>B</title>
<ellipse fill="none" stroke="black" cx="115" cy="-250" rx="27" ry="18"/>
<text text-anchor="middle" x="115" y="-246.3" font-family="Times New Roman,serif" font-size="14.00">Q</text>
</g>
<!-- A&#45;&gt;B -->
<g id="edge9" class="edge"><title>A&#45;&gt;B</title>
<path fill="none" stroke="black" d="M158.849,-305.811C151.437,-296.546 141.816,-284.52 133.475,-274.094"/>
<polygon fill="black" stroke="black" points="136.107,-271.782 127.127,-266.159 130.641,-276.154 136.107,-271.782"/>
</g>
<!-- G -->
<g id="node7" class="node"><title>G</title>
<ellipse fill="none" stroke="black" cx="228" cy="-250" rx="27" ry="18"/>
<text text-anchor="middle" x="228" y="-246.3" font-family="Times New Roman,serif" font-size="14.00">R</text>
</g>
<!-- A&#45;&gt;G -->
<g id="edge10" class="edge"><title>A&#45;&gt;G</title>
<path fill="none" stroke="black" d="M183.368,-305.811C190.912,-296.546 200.705,-284.52 209.195,-274.094"/>
<polygon fill="black" stroke="black" points="212.056,-276.124 215.656,-266.159 206.628,-271.704 212.056,-276.124"/>
</g>
<!-- C -->
<g id="node3" class="node"><title>C</title>
<ellipse fill="none" stroke="black" cx="43" cy="-178" rx="27" ry="18"/>
<text text-anchor="middle" x="43" y="-174.3" font-family="Times New Roman,serif" font-size="14.00">S</text>
</g>
<!-- B&#45;&gt;C -->
<g id="edge1" class="edge"><title>B&#45;&gt;C</title>
<path fill="none" stroke="black" d="M100.43,-234.834C90.2501,-224.938 76.4761,-211.546 64.9694,-200.359"/>
<polygon fill="black" stroke="black" points="67.4055,-197.846 57.7957,-193.385 62.5259,-202.865 67.4055,-197.846"/>
</g>
<!-- D -->
<g id="node4" class="node"><title>D</title>
<polygon fill="none" stroke="black" points="142,-196 88,-196 88,-160 142,-160 142,-196"/>
<text text-anchor="middle" x="115" y="-174.3" font-family="Times New Roman,serif" font-size="14.00">0</text>
</g>
<!-- B&#45;&gt;D -->
<g id="edge2" class="edge"><title>B&#45;&gt;D</title>
<path fill="none" stroke="black" d="M115,-231.697C115,-223.983 115,-214.712 115,-206.112"/>
<polygon fill="black" stroke="black" points="118.5,-206.104 115,-196.104 111.5,-206.104 118.5,-206.104"/>
</g>
<!-- E -->
<g id="node5" class="node"><title>E</title>
<polygon fill="none" stroke="black" points="70,-124 16,-124 16,-88 70,-88 70,-124"/>
<text text-anchor="middle" x="43" y="-102.3" font-family="Times New Roman,serif" font-size="14.00">0</text>
</g>
<!-- C&#45;&gt;E -->
<g id="edge3" class="edge"><title>C&#45;&gt;E</title>
<path fill="none" stroke="black" d="M43,-159.697C43,-151.983 43,-142.712 43,-134.112"/>
<polygon fill="black" stroke="black" points="46.5001,-134.104 43,-124.104 39.5001,-134.104 46.5001,-134.104"/>
</g>
<!-- F -->
<g id="node6" class="node"><title>F</title>
<polygon fill="none" stroke="black" points="142,-124 88,-124 88,-88 142,-88 142,-124"/>
<text text-anchor="middle" x="115" y="-102.3" font-family="Times New Roman,serif" font-size="14.00">1</text>
</g>
<!-- C&#45;&gt;F -->
<g id="edge4" class="edge"><title>C&#45;&gt;F</title>
<path fill="none" stroke="black" d="M57.5703,-162.834C66.9185,-153.746 79.2978,-141.71 90.1689,-131.141"/>
<polygon fill="black" stroke="black" points="92.6681,-133.593 97.3983,-124.113 87.7886,-128.574 92.6681,-133.593"/>
</g>
<!-- H -->
<g id="node8" class="node"><title>H</title>
<ellipse fill="none" stroke="black" cx="228" cy="-178" rx="27" ry="18"/>
<text text-anchor="middle" x="228" y="-174.3" font-family="Times New Roman,serif" font-size="14.00">Q</text>
</g>
<!-- G&#45;&gt;H -->
<g id="edge11" class="edge"><title>G&#45;&gt;H</title>
<path fill="none" stroke="black" d="M228,-231.697C228,-223.983 228,-214.712 228,-206.112"/>
<polygon fill="black" stroke="black" points="231.5,-206.104 228,-196.104 224.5,-206.104 231.5,-206.104"/>
</g>
<!-- M -->
<g id="node13" class="node"><title>M</title>
<polygon fill="none" stroke="black" points="362,-196 308,-196 308,-160 362,-160 362,-196"/>
<text text-anchor="middle" x="335" y="-174.3" font-family="Times New Roman,serif" font-size="14.00">1</text>
</g>
<!-- G&#45;&gt;M -->
<g id="edge12" class="edge"><title>G&#45;&gt;M</title>
<path fill="none" stroke="black" d="M248.495,-237.925C264.08,-229.253 285.859,-216.588 304,-204 304.77,-203.465 305.546,-202.917 306.325,-202.359"/>
<polygon fill="black" stroke="black" points="308.755,-204.91 314.642,-196.101 304.547,-199.316 308.755,-204.91"/>
</g>
<!-- I -->
<g id="node9" class="node"><title>I</title>
<ellipse fill="none" stroke="black" cx="193" cy="-106" rx="27" ry="18"/>
<text text-anchor="middle" x="193" y="-102.3" font-family="Times New Roman,serif" font-size="14.00">S</text>
</g>
<!-- H&#45;&gt;I -->
<g id="edge5" class="edge"><title>H&#45;&gt;I</title>
<path fill="none" stroke="black" d="M219.882,-160.765C215.702,-152.404 210.508,-142.016 205.803,-132.606"/>
<polygon fill="black" stroke="black" points="208.919,-131.012 201.317,-123.633 202.658,-134.143 208.919,-131.012"/>
</g>
<!-- J -->
<g id="node10" class="node"><title>J</title>
<polygon fill="none" stroke="black" points="292,-124 238,-124 238,-88 292,-88 292,-124"/>
<text text-anchor="middle" x="265" y="-102.3" font-family="Times New Roman,serif" font-size="14.00">0</text>
</g>
<!-- H&#45;&gt;J -->
<g id="edge6" class="edge"><title>H&#45;&gt;J</title>
<path fill="none" stroke="black" d="M236.582,-160.765C240.937,-152.525 246.333,-142.317 251.249,-133.016"/>
<polygon fill="black" stroke="black" points="254.37,-134.6 255.949,-124.124 248.181,-131.329 254.37,-134.6"/>
</g>
<!-- K -->
<g id="node11" class="node"><title>K</title>
<polygon fill="none" stroke="black" points="220,-52 166,-52 166,-16 220,-16 220,-52"/>
<text text-anchor="middle" x="193" y="-30.3" font-family="Times New Roman,serif" font-size="14.00">0</text>
</g>
<!-- I&#45;&gt;K -->
<g id="edge7" class="edge"><title>I&#45;&gt;K</title>
<path fill="none" stroke="black" d="M193,-87.6966C193,-79.9827 193,-70.7125 193,-62.1124"/>
<polygon fill="black" stroke="black" points="196.5,-62.1043 193,-52.1043 189.5,-62.1044 196.5,-62.1043"/>
</g>
<!-- L -->
<g id="node12" class="node"><title>L</title>
<polygon fill="none" stroke="black" points="292,-52 238,-52 238,-16 292,-16 292,-52"/>
<text text-anchor="middle" x="265" y="-30.3" font-family="Times New Roman,serif" font-size="14.00">1</text>
</g>
<!-- I&#45;&gt;L -->
<g id="edge8" class="edge"><title>I&#45;&gt;L</title>
<path fill="none" stroke="black" d="M207.57,-90.8345C216.918,-81.7459 229.298,-69.7105 240.169,-59.1413"/>
<polygon fill="black" stroke="black" points="242.668,-61.593 247.398,-52.1127 237.789,-56.5741 242.668,-61.593"/>
</g>
</g>
</svg>
