<svg width="681" height="332" xmlns="http://www.w3.org/2000/svg" xmlns:xlink="http://www.w3.org/1999/xlink" overflow="hidden"><defs><clipPath id="clip0"><path d="M303 194 984 194 984 526 303 526Z" fill-rule="evenodd" clip-rule="evenodd"/></clipPath></defs><g clip-path="url(#clip0)" transform="translate(-303 -194)"><path d="M307.5 223.55C307.5 208.058 320.058 195.5 335.55 195.5L954.45 195.5C969.942 195.5 982.5 208.058 982.5 223.55L982.5 497.45C982.5 512.942 969.942 525.5 954.45 525.5L335.55 525.5C320.058 525.5 307.5 512.942 307.5 497.45Z" stroke="#FFFFFF" stroke-width="1.33333" stroke-miterlimit="8" fill="#A5A5A5" fill-rule="evenodd"/><text fill="#FFFFFF" font-family="DengXian,DengXian_MSFontService,sans-serif" font-weight="400" font-size="31" transform="translate(324.799 240)">数据描述性分析</text><path d="M324.5 286.27C324.5 281.979 327.979 278.5 332.27 278.5L418.73 278.5C423.021 278.5 426.5 281.979 426.5 286.27L426.5 344.73C426.5 349.021 423.021 352.5 418.73 352.5L332.27 352.5C327.979 352.5 324.5 349.021 324.5 344.73Z" stroke="#A5A5A5" stroke-width="1.33333" stroke-miterlimit="8" fill="#FFFFFF" fill-rule="evenodd" fill-opacity="0.901961"/><text font-family="DengXian,DengXian_MSFontService,sans-serif" font-weight="400" font-size="17" transform="translate(340.218 309)">数据描述<tspan x="17.3333" y="21">统计</tspan></text><path d="M324.5 364.27C324.5 359.979 327.979 356.5 332.27 356.5L418.73 356.5C423.021 356.5 426.5 359.979 426.5 364.27L426.5 422.73C426.5 427.021 423.021 430.5 418.73 430.5L332.27 430.5C327.979 430.5 324.5 427.021 324.5 422.73Z" stroke="#AE935E" stroke-width="1.33333" stroke-miterlimit="8" fill="#FFFFFF" fill-rule="evenodd" fill-opacity="0.901961"/><text font-family="DengXian,DengXian_MSFontService,sans-serif" font-weight="400" font-size="17" transform="translate(340.218 397)">分组聚合</text><path d="M324.5 442.27C324.5 437.979 327.979 434.5 332.27 434.5L418.73 434.5C423.021 434.5 426.5 437.979 426.5 442.27L426.5 500.73C426.5 505.021 423.021 508.5 418.73 508.5L332.27 508.5C327.979 508.5 324.5 505.021 324.5 500.73Z" stroke="#AD7E21" stroke-width="1.33333" stroke-miterlimit="8" fill="#FFFFFF" fill-rule="evenodd" fill-opacity="0.901961"/><text font-family="DengXian,DengXian_MSFontService,sans-serif" font-weight="400" font-size="17" transform="translate(348.885 475)">可视化</text><path d="M442.5 302.65C442.5 289.312 453.312 278.5 466.65 278.5L941.35 278.5C954.688 278.5 965.5 289.312 965.5 302.65L965.5 484.35C965.5 497.688 954.688 508.5 941.35 508.5L466.65 508.5C453.312 508.5 442.5 497.688 442.5 484.35Z" stroke="#FFFFFF" stroke-width="1.33333" stroke-miterlimit="8" fill="#AD6300" fill-rule="evenodd"/><text fill="#FFFFFF" font-family="DengXian,DengXian_MSFontService,sans-serif" font-weight="400" font-size="31" transform="translate(458.671 321)">数据业务模型</text><path d="M455.5 369.525C455.5 363.436 460.436 358.5 466.525 358.5L549.475 358.5C555.564 358.5 560.5 363.436 560.5 369.525L560.5 480.475C560.5 486.564 555.564 491.5 549.475 491.5L466.525 491.5C460.436 491.5 455.5 486.564 455.5 480.475Z" stroke="#AB6A00" stroke-width="1.33333" stroke-miterlimit="8" fill="#FFFFFF" fill-rule="evenodd" fill-opacity="0.901961"/><text font-family="DengXian,DengXian_MSFontService,sans-serif" font-weight="400" font-size="17" transform="translate(473.797 429)">RFM<tspan x="33.2533" y="0">模型</tspan></text><path d="M574.5 374.36C574.5 366.705 580.705 360.5 588.36 360.5L935.64 360.5C943.295 360.5 949.5 366.705 949.5 374.36L949.5 478.64C949.5 486.295 943.295 492.5 935.64 492.5L588.36 492.5C580.705 492.5 574.5 486.295 574.5 478.64Z" stroke="#FFFFFF" stroke-width="1.33333" stroke-miterlimit="8" fill="#B43500" fill-rule="evenodd"/><text fill="#FFFFFF" font-family="DengXian,DengXian_MSFontService,sans-serif" font-weight="400" font-size="31" transform="translate(587.237 400)">数理统计</text><path d="M583.5 425.8C583.5 422.321 586.321 419.5 589.8 419.5L664.2 419.5C667.679 419.5 670.5 422.321 670.5 425.8L670.5 473.2C670.5 476.679 667.679 479.5 664.2 479.5L589.8 479.5C586.321 479.5 583.5 476.679 583.5 473.2Z" stroke="#AE5B00" stroke-width="1.33333" stroke-miterlimit="8" fill="#FFFFFF" fill-rule="evenodd" fill-opacity="0.901961"/><text font-family="DengXian,DengXian_MSFontService,sans-serif" font-weight="400" font-size="17" transform="translate(592.206 443)">两组样本<tspan x="17.3334" y="21">比较</tspan></text><path d="M673.5 425.8C673.5 422.321 676.321 419.5 679.8 419.5L754.2 419.5C757.679 419.5 760.5 422.321 760.5 425.8L760.5 473.2C760.5 476.679 757.679 479.5 754.2 479.5L679.8 479.5C676.321 479.5 673.5 476.679 673.5 473.2Z" stroke="#B04D00" stroke-width="1.33333" stroke-miterlimit="8" fill="#FFFFFF" fill-rule="evenodd" fill-opacity="0.901961"/><text font-family="DengXian,DengXian_MSFontService,sans-serif" font-weight="400" font-size="17" transform="translate(681.732 443)">多组样本<tspan x="17.3334" y="21">比较</tspan></text><path d="M762.5 425.8C762.5 422.321 765.321 419.5 768.8 419.5L843.2 419.5C846.679 419.5 849.5 422.321 849.5 425.8L849.5 473.2C849.5 476.679 846.679 479.5 843.2 479.5L768.8 479.5C765.321 479.5 762.5 476.679 762.5 473.2Z" stroke="#B24100" stroke-width="1.33333" stroke-miterlimit="8" fill="#FFFFFF" fill-rule="evenodd" fill-opacity="0.901961"/><text font-family="DengXian,DengXian_MSFontService,sans-serif" font-weight="400" font-size="17" transform="translate(771.259 443)">分类数据<tspan x="17.3333" y="21">比较</tspan></text><path d="M852.5 425.8C852.5 422.321 855.321 419.5 858.8 419.5L933.2 419.5C936.679 419.5 939.5 422.321 939.5 425.8L939.5 473.2C939.5 476.679 936.679 479.5 933.2 479.5L858.8 479.5C855.321 479.5 852.5 476.679 852.5 473.2Z" stroke="#B43500" stroke-width="1.33333" stroke-miterlimit="8" fill="#FFFFFF" fill-rule="evenodd" fill-opacity="0.901961"/><text font-family="DengXian,DengXian_MSFontService,sans-serif" font-weight="400" font-size="17" transform="translate(860.786 453)">回归分析</text></g></svg>